  0
SECTION
  2
HEADER
  9
$ACADVER
  1
AC1014
  9
$HANDSEED
  5
FFFF
  9
$MEASUREMENT
 70
     1
  0
ENDSEC
  0
SECTION
  2
TABLES
  0
TABLE
  2
VPORT
  5
8
330
0
100
AcDbSymbolTable
 70
     4
  0
VPORT
  5
2E
330
8
100
AcDbSymbolTableRecord
100
AcDbViewportTableRecord
  2
*ACTIVE
 70
     0
 10
0.0
 20
0.0
 11
1.0
 21
1.0
 12
210.0
 22
148.5
 13
0.0
 23
0.0
 14
10.0
 24
10.0
 15
10.0
 25
10.0
 16
0.0
 26
0.0
 36
1.0
 17
0.0
 27
0.0
 37
0.0
 40
341.0
 41
1.24
 42
50.0
 43
0.0
 44
0.0
 50
0.0
 51
0.0
 71
     0
 72
   100
 73
     1
 74
     3
 75
     0
 76
     0
 77
     0
 78
     0
  0
ENDTAB
  0
TABLE
  2
LTYPE
  5
5
330
0
100
AcDbSymbolTable
 70
     1
  0
LTYPE
  5
14
330
5
100
AcDbSymbolTableRecord
100
AcDbLinetypeTableRecord
  2
BYBLOCK
 70
     0
  3

 72
    65
 73
     0
 40
0.0
  0
LTYPE
  5
15
330
5
100
AcDbSymbolTableRecord
100
AcDbLinetypeTableRecord
  2
BYLAYER
 70
     0
  3

 72
    65
 73
     0
 40
0.0
  0
LTYPE
  5
16
330
5
100
AcDbSymbolTableRecord
100
AcDbLinetypeTableRecord
  2
CONTINUOUS
 70
     0
  3
Solid line
 72
    65
 73
     0
 40
0.0
  0
ENDTAB
  0
TABLE
  2
LAYER
  5
2
100
AcDbSymbolTable
 70
2
  0
LAYER
  5
50
100
AcDbSymbolTableRecord
100
AcDbLayerTableRecord
  2
0
 70
0
  6
CONTINUOUS
  0
LAYER
  5
51
100
AcDbSymbolTableRecord
100
AcDbLayerTableRecord
  2
christmas-917749
 70
0
  6
CONTINUOUS
  0
ENDTAB
  0
TABLE
  2
STYLE
  5
3
330
0
100
AcDbSymbolTable
 70
     1
  0
STYLE
  5
11
330
3
100
AcDbSymbolTableRecord
100
AcDbTextStyleTableRecord
  2
STANDARD
 70
     0
 40
0.0
 41
1.0
 50
0.0
 71
     0
 42
2.5
  3
txt
  4

  0
ENDTAB
  0
TABLE
  2
VIEW
  5
6
330
0
100
AcDbSymbolTable
 70
     0
  0
ENDTAB
  0
TABLE
  2
UCS
  5
7
330
0
100
AcDbSymbolTable
 70
     0
  0
ENDTAB
  0
TABLE
  2
APPID
  5
9
330
0
100
AcDbSymbolTable
 70
     2
  0
APPID
  5
12
330
9
100
AcDbSymbolTableRecord
100
AcDbRegAppTableRecord
  2
ACAD
 70
     0
  0
ENDTAB
  0
TABLE
  2
DIMSTYLE
  5
A
330
0
100
AcDbSymbolTable
 70
     1
  0
DIMSTYLE
105
27
330
A
100
AcDbSymbolTableRecord
100
AcDbDimStyleTableRecord
  2
ISO-25
 70
     0
  3

  4

  5

  6

  7

 40
1.0
 41
2.5
 42
0.625
 43
3.75
 44
1.25
 45
0.0
 46
0.0
 47
0.0
 48
0.0
140
2.5
141
2.5
142
0.0
143
0.03937007874016
144
1.0
145
0.0
146
1.0
147
0.625
 71
     0
 72
     0
 73
     0
 74
     0
 75
     0
 76
     0
 77
     1
 78
     8
170
     0
171
     3
172
     1
173
     0
174
     0
175
     0
176
     0
177
     0
178
     0
270
     2
271
     2
272
     2
273
     2
274
     3
340
11
275
     0
280
     0
281
     0
282
     0
283
     0
284
     8
285
     0
286
     0
287
     3
288
     0
  0
ENDTAB
  0
TABLE
  2
BLOCK_RECORD
  5
1
330
0
100
AcDbSymbolTable
 70
     1
  0
BLOCK_RECORD
  5
1F
330
1
100
AcDbSymbolTableRecord
100
AcDbBlockTableRecord
  2
*MODEL_SPACE
  0
BLOCK_RECORD
  5
1B
330
1
100
AcDbSymbolTableRecord
100
AcDbBlockTableRecord
  2
*PAPER_SPACE
  0
ENDTAB
  0
ENDSEC
  0
SECTION
  2
BLOCKS
  0
BLOCK
  5
20
330
1F
100
AcDbEntity
  8
0
100
AcDbBlockBegin
  2
*MODEL_SPACE
 70
     0
 10
0.0
 20
0.0
 30
0.0
  3
*MODEL_SPACE
  1

  0
ENDBLK
  5
21
330
1F
100
AcDbEntity
  8
0
100
AcDbBlockEnd
  0
BLOCK
  5
1C
330
1B
100
AcDbEntity
 67
     1
  8
0
100
AcDbBlockBegin
  2
*PAPER_SPACE
  1

  0
ENDBLK
  5
1D
330
1B
100
AcDbEntity
 67
     1
  8
0
100
AcDbBlockEnd
  0
ENDSEC
  0
SECTION
  2
ENTITIES
  0
SPLINE
  5
100
100
AcDbEntity
  8
christmas-917749
 62
1
100
AcDbSpline
 70
8
 71
3
 72
8
 73
4
 74
0
 40
0
 40
0
 40
0
 40
0
 40
1
 40
1
 40
1
 40
1
 10
281.330100
 20
90.783200
 30
0.0
 10
269.190400
 20
92.288100
 30
0.0
 10
260.024900
 20
94.706100
 30
0.0
 10
252.835400
 20
98.304700
 30
0.0
  0
LINE
  5
101
100
AcDbEntity
  8
christmas-917749
 62
1
100
AcDbLine
 10
252.835400
 20
98.304700
 30
0.0
 11
249.402300
 21
100.022500
 31
0.0
  0
LINE
  5
102
100
AcDbEntity
  8
christmas-917749
 62
1
100
AcDbLine
 10
249.402300
 20
100.022500
 30
0.0
 11
250.713400
 21
105.186500
 31
0.0
  0
SPLINE
  5
103
100
AcDbEntity
  8
christmas-917749
 62
1
100
AcDbSpline
 70
8
 71
3
 72
8
 73
4
 74
0
 40
0
 40
0
 40
0
 40
0
 40
1
 40
1
 40
1
 40
1
 10
250.713400
 20
105.186500
 30
0.0
 10
253.223100
 20
115.076200
 30
0.0
 10
256.303200
 20
146.186500
 30
0.0
 10
256.792000
 20
166.611300
 30
0.0
  0
SPLINE
  5
104
100
AcDbEntity
  8
christmas-917749
 62
1
100
AcDbSpline
 70
8
 71
3
 72
8
 73
4
 74
0
 40
0
 40
0
 40
0
 40
0
 40
1
 40
1
 40
1
 40
1
 10
256.792000
 20
166.611300
 30
0.0
 10
257.065900
 20
177.932600
 30
0.0
 10
256.539600
 20
178.725600
 30
0.0
 10
251.198700
 20
175.048800
 30
0.0
  0
SPLINE
  5
105
100
AcDbEntity
  8
christmas-917749
 62
1
100
AcDbSpline
 70
8
 71
3
 72
8
 73
4
 74
0
 40
0
 40
0
 40
0
 40
0
 40
1
 40
1
 40
1
 40
1
 10
251.198700
 20
175.048800
 30
0.0
 10
245.828600
 20
171.356400
 30
0.0
 10
236.411100
 20
166.910200
 30
0.0
 10
230.368700
 20
165.219700
 30
0.0
  0
SPLINE
  5
106
100
AcDbEntity
  8
christmas-917749
 62
1
100
AcDbSpline
 70
8
 71
3
 72
8
 73
4
 74
0
 40
0
 40
0
 40
0
 40
0
 40
1
 40
1
 40
1
 40
1
 10
230.368700
 20
165.219700
 30
0.0
 10
211.405800
 20
159.904300
 30
0.0
 10
194.545900
 20
164.277300
 30
0.0
 10
173.913600
 20
179.861300
 30
0.0
  0
LINE
  5
107
100
AcDbEntity
  8
christmas-917749
 62
1
100
AcDbLine
 10
173.913600
 20
179.861300
 30
0.0
 11
166.778800
 21
185.249000
 31
0.0
  0
LINE
  5
108
100
AcDbEntity
  8
christmas-917749
 62
1
100
AcDbLine
 10
166.778800
 20
185.249000
 30
0.0
 11
162.147000
 21
183.835000
 31
0.0
  0
SPLINE
  5
109
100
AcDbEntity
  8
christmas-917749
 62
1
100
AcDbSpline
 70
8
 71
3
 72
8
 73
4
 74
0
 40
0
 40
0
 40
0
 40
0
 40
1
 40
1
 40
1
 40
1
 10
162.147000
 20
183.835000
 30
0.0
 10
150.003400
 20
180.134800
 30
0.0
 10
135.821800
 20
179.133800
 30
0.0
 10
126.532200
 20
181.326200
 30
0.0
  0
SPLINE
  5
10a
100
AcDbEntity
  8
christmas-917749
 62
1
100
AcDbSpline
 70
8
 71
3
 72
8
 73
4
 74
0
 40
0
 40
0
 40
0
 40
0
 40
1
 40
1
 40
1
 40
1
 10
126.532200
 20
181.326200
 30
0.0
 10
116.763200
 20
183.627000
 30
0.0
 10
107.434100
 20
190.516600
 30
0.0
 10
101.482900
 20
199.814500
 30
0.0
  0
SPLINE
  5
10b
100
AcDbEntity
  8
christmas-917749
 62
1
100
AcDbSpline
 70
8
 71
3
 72
8
 73
4
 74
0
 40
0
 40
0
 40
0
 40
0
 40
1
 40
1
 40
1
 40
1
 10
101.482900
 20
199.814500
 30
0.0
 10
99.970200
 20
202.177700
 30
0.0
 10
98.597200
 20
204.114300
 30
0.0
 10
98.428700
 20
204.114300
 30
0.0
  0
SPLINE
  5
10c
100
AcDbEntity
  8
christmas-917749
 62
1
100
AcDbSpline
 70
8
 71
3
 72
8
 73
4
 74
0
 40
0
 40
0
 40
0
 40
0
 40
1
 40
1
 40
1
 40
1
 10
98.428700
 20
204.114300
 30
0.0
 10
98.264600
 20
204.114300
 30
0.0
 10
95.327600
 20
203.434600
 30
0.0
 10
91.907700
 20
202.605500
 30
0.0
  0
SPLINE
  5
10d
100
AcDbEntity
  8
christmas-917749
 62
1
100
AcDbSpline
 70
8
 71
3
 72
8
 73
4
 74
0
 40
0
 40
0
 40
0
 40
0
 40
1
 40
1
 40
1
 40
1
 10
91.907700
 20
202.605500
 30
0.0
 10
61.966800
 20
195.350600
 30
0.0
 10
30.586400
 20
207.803700
 30
0.0
 10
14.596200
 20
233.292000
 30
0.0
  0
SPLINE
  5
10e
100
AcDbEntity
  8
christmas-917749
 62
1
100
AcDbSpline
 70
8
 71
3
 72
8
 73
4
 74
0
 40
0
 40
0
 40
0
 40
0
 40
1
 40
1
 40
1
 40
1
 10
14.596200
 20
233.292000
 30
0.0
 10
12.488300
 20
236.652300
 30
0.0
 10
9.000000
 20
244.806600
 30
0.0
 10
9.000000
 20
246.374000
 30
0.0
  0
SPLINE
  5
10f
100
AcDbEntity
  8
christmas-917749
 62
1
100
AcDbSpline
 70
8
 71
3
 72
8
 73
4
 74
0
 40
0
 40
0
 40
0
 40
0
 40
1
 40
1
 40
1
 40
1
 10
9.000000
 20
246.374000
 30
0.0
 10
9.000000
 20
246.826200
 30
0.0
 10
11.943800
 20
248.145500
 30
0.0
 10
15.546400
 20
249.303700
 30
0.0
  0
SPLINE
  5
110
100
AcDbEntity
  8
christmas-917749
 62
1
100
AcDbSpline
 70
8
 71
3
 72
8
 73
4
 74
0
 40
0
 40
0
 40
0
 40
0
 40
1
 40
1
 40
1
 40
1
 10
15.546400
 20
249.303700
 30
0.0
 10
43.335900
 20
258.235400
 30
0.0
 10
74.387700
 20
274.459000
 30
0.0
 10
100.489300
 20
293.685500
 30
0.0
  0
LINE
  5
111
100
AcDbEntity
  8
christmas-917749
 62
1
100
AcDbLine
 10
100.489300
 20
293.685500
 30
0.0
 11
105.563500
 21
297.421900
 31
0.0
  0
LINE
  5
112
100
AcDbEntity
  8
christmas-917749
 62
1
100
AcDbLine
 10
105.563500
 20
297.421900
 30
0.0
 11
99.367700
 21
301.941400
 31
0.0
  0
SPLINE
  5
113
100
AcDbEntity
  8
christmas-917749
 62
1
100
AcDbSpline
 70
8
 71
3
 72
8
 73
4
 74
0
 40
0
 40
0
 40
0
 40
0
 40
1
 40
1
 40
1
 40
1
 10
99.367700
 20
301.941400
 30
0.0
 10
90.628900
 20
308.312500
 30
0.0
 10
84.444800
 20
314.113300
 30
0.0
 10
77.689900
 20
322.263700
 30
0.0
  0
SPLINE
  5
114
100
AcDbEntity
  8
christmas-917749
 62
1
100
AcDbSpline
 70
8
 71
3
 72
8
 73
4
 74
0
 40
0
 40
0
 40
0
 40
0
 40
1
 40
1
 40
1
 40
1
 10
77.689900
 20
322.263700
 30
0.0
 10
74.479000
 20
326.139600
 30
0.0
 10
71.932600
 20
329.379900
 30
0.0
 10
72.034200
 20
329.463900
 30
0.0
  0
SPLINE
  5
115
100
AcDbEntity
  8
christmas-917749
 62
1
100
AcDbSpline
 70
8
 71
3
 72
8
 73
4
 74
0
 40
0
 40
0
 40
0
 40
0
 40
1
 40
1
 40
1
 40
1
 10
72.034200
 20
329.463900
 30
0.0
 10
72.137200
 20
329.548800
 30
0.0
 10
76.798300
 20
331.159200
 30
0.0
 10
82.398400
 20
333.047900
 30
0.0
  0
SPLINE
  5
116
100
AcDbEntity
  8
christmas-917749
 62
1
100
AcDbSpline
 70
8
 71
3
 72
8
 73
4
 74
0
 40
0
 40
0
 40
0
 40
0
 40
1
 40
1
 40
1
 40
1
 10
82.398400
 20
333.047900
 30
0.0
 10
106.217300
 20
341.085000
 30
0.0
 10
128.983400
 20
353.578100
 30
0.0
 10
151.570800
 20
371.006800
 30
0.0
  0
SPLINE
  5
117
100
AcDbEntity
  8
christmas-917749
 62
1
100
AcDbSpline
 70
8
 71
3
 72
8
 73
4
 74
0
 40
0
 40
0
 40
0
 40
0
 40
1
 40
1
 40
1
 40
1
 10
151.570800
 20
371.006800
 30
0.0
 10
162.175800
 20
379.193400
 30
0.0
 10
161.997100
 20
378.646500
 30
0.0
 10
154.701700
 20
380.622100
 30
0.0
  0
SPLINE
  5
118
100
AcDbEntity
  8
christmas-917749
 62
1
100
AcDbSpline
 70
8
 71
3
 72
8
 73
4
 74
0
 40
0
 40
0
 40
0
 40
0
 40
1
 40
1
 40
1
 40
1
 10
154.701700
 20
380.622100
 30
0.0
 10
140.114300
 20
384.575200
 30
0.0
 10
122.930700
 20
394.497100
 30
0.0
 10
110.564900
 20
406.095700
 30
0.0
  0
SPLINE
  5
119
100
AcDbEntity
  8
christmas-917749
 62
1
100
AcDbSpline
 70
8
 71
3
 72
8
 73
4
 74
0
 40
0
 40
0
 40
0
 40
0
 40
1
 40
1
 40
1
 40
1
 10
110.564900
 20
406.095700
 30
0.0
 10
106.962400
 20
409.475100
 30
0.0
 10
104.018600
 20
412.506800
 30
0.0
 10
104.018600
 20
412.832000
 30
0.0
  0
SPLINE
  5
11a
100
AcDbEntity
  8
christmas-917749
 62
1
100
AcDbSpline
 70
8
 71
3
 72
8
 73
4
 74
0
 40
0
 40
0
 40
0
 40
0
 40
1
 40
1
 40
1
 40
1
 10
104.018600
 20
412.832000
 30
0.0
 10
104.018600
 20
413.161100
 30
0.0
 10
108.646500
 20
415.005900
 30
0.0
 10
114.305700
 20
416.934600
 30
0.0
  0
SPLINE
  5
11b
100
AcDbEntity
  8
christmas-917749
 62
1
100
AcDbSpline
 70
8
 71
3
 72
8
 73
4
 74
0
 40
0
 40
0
 40
0
 40
0
 40
1
 40
1
 40
1
 40
1
 10
114.305700
 20
416.934600
 30
0.0
 10
139.818800
 20
425.633300
 30
0.0
 10
166.212400
 20
441.641100
 30
0.0
 10
188.186500
 20
461.741200
 30
0.0
  0
LINE
  5
11c
100
AcDbEntity
  8
christmas-917749
 62
1
100
AcDbLine
 10
188.186500
 20
461.741200
 30
0.0
 11
193.421400
 21
466.530800
 31
0.0
  0
LINE
  5
11d
100
AcDbEntity
  8
christmas-917749
 62
1
100
AcDbLine
 10
193.421400
 20
466.530800
 30
0.0
 11
188.931200
 21
467.407200
 31
0.0
  0
SPLINE
  5
11e
100
AcDbEntity
  8
christmas-917749
 62
1
100
AcDbSpline
 70
8
 71
3
 72
8
 73
4
 74
0
 40
0
 40
0
 40
0
 40
0
 40
1
 40
1
 40
1
 40
1
 10
188.931200
 20
467.407200
 30
0.0
 10
177.376500
 20
469.656700
 30
0.0
 10
164.659700
 20
474.808100
 30
0.0
 10
155.797400
 20
480.829100
 30
0.0
  0
SPLINE
  5
11f
100
AcDbEntity
  8
christmas-917749
 62
1
100
AcDbSpline
 70
8
 71
3
 72
8
 73
4
 74
0
 40
0
 40
0
 40
0
 40
0
 40
1
 40
1
 40
1
 40
1
 10
155.797400
 20
480.829100
 30
0.0
 10
148.521000
 20
485.767600
 30
0.0
 10
141.162600
 20
492.109400
 30
0.0
 10
142.277800
 20
492.478000
 30
0.0
  0
SPLINE
  5
120
100
AcDbEntity
  8
christmas-917749
 62
1
100
AcDbSpline
 70
8
 71
3
 72
8
 73
4
 74
0
 40
0
 40
0
 40
0
 40
0
 40
1
 40
1
 40
1
 40
1
 10
142.277800
 20
492.478000
 30
0.0
 10
142.835900
 20
492.664600
 30
0.0
 10
146.997600
 20
494.030800
 30
0.0
 10
151.522900
 20
495.514200
 30
0.0
  0
SPLINE
  5
121
100
AcDbEntity
  8
christmas-917749
 62
1
100
AcDbSpline
 70
8
 71
3
 72
8
 73
4
 74
0
 40
0
 40
0
 40
0
 40
0
 40
1
 40
1
 40
1
 40
1
 10
151.522900
 20
495.514200
 30
0.0
 10
175.119100
 20
503.243700
 30
0.0
 10
198.681600
 20
518.700700
 30
0.0
 10
221.075700
 20
541.134800
 30
0.0
  0
LINE
  5
122
100
AcDbEntity
  8
christmas-917749
 62
1
100
AcDbLine
 10
221.075700
 20
541.134800
 30
0.0
 11
230.022000
 21
550.099600
 31
0.0
  0
LINE
  5
123
100
AcDbEntity
  8
christmas-917749
 62
1
100
AcDbLine
 10
230.022000
 20
550.099600
 30
0.0
 11
227.808100
 21
550.625500
 31
0.0
  0
SPLINE
  5
124
100
AcDbEntity
  8
christmas-917749
 62
1
100
AcDbSpline
 70
8
 71
3
 72
8
 73
4
 74
0
 40
0
 40
0
 40
0
 40
0
 40
1
 40
1
 40
1
 40
1
 10
227.808100
 20
550.625500
 30
0.0
 10
213.079100
 20
554.128900
 30
0.0
 10
208.826200
 20
555.695800
 30
0.0
 10
194.378400
 20
562.950700
 30
0.0
  0
LINE
  5
125
100
AcDbEntity
  8
christmas-917749
 62
1
100
AcDbLine
 10
194.378400
 20
562.950700
 30
0.0
 11
184.445800
 21
567.937500
 31
0.0
  0
LINE
  5
126
100
AcDbEntity
  8
christmas-917749
 62
1
100
AcDbLine
 10
184.445800
 20
567.937500
 30
0.0
 11
193.797900
 21
571.105000
 31
0.0
  0
SPLINE
  5
127
100
AcDbEntity
  8
christmas-917749
 62
1
100
AcDbSpline
 70
8
 71
3
 72
8
 73
4
 74
0
 40
0
 40
0
 40
0
 40
0
 40
1
 40
1
 40
1
 40
1
 10
193.797900
 20
571.105000
 30
0.0
 10
205.363300
 20
575.017600
 30
0.0
 10
210.079600
 20
577.139600
 30
0.0
 10
217.707000
 20
581.874500
 30
0.0
  0
SPLINE
  5
128
100
AcDbEntity
  8
christmas-917749
 62
1
100
AcDbSpline
 70
8
 71
3
 72
8
 73
4
 74
0
 40
0
 40
0
 40
0
 40
0
 40
1
 40
1
 40
1
 40
1
 10
217.707000
 20
581.874500
 30
0.0
 10
241.500000
 20
596.628900
 30
0.0
 10
263.122100
 20
620.802700
 30
0.0
 10
282.031300
 20
653.774900
 30
0.0
  0
SPLINE
  5
129
100
AcDbEntity
  8
christmas-917749
 62
1
100
AcDbSpline
 70
8
 71
3
 72
8
 73
4
 74
0
 40
0
 40
0
 40
0
 40
0
 40
1
 40
1
 40
1
 40
1
 10
282.031300
 20
653.774900
 30
0.0
 10
286.130400
 20
660.920400
 30
0.0
 10
285.926800
 20
660.645680
 30
0.0
 10
286.229500
 20
663.354000
 30
0.0
  0
SPLINE
  5
12a
100
AcDbEntity
  8
christmas-917749
 62
1
100
AcDbSpline
 70
8
 71
3
 72
8
 73
4
 74
0
 40
0
 40
0
 40
0
 40
0
 40
1
 40
1
 40
1
 40
1
 10
286.229500
 20
663.354000
 30
0.0
 10
287.045020
 20
669.645200
 30
0.0
 10
289.038540
 20
689.636810
 30
0.0
 10
289.966300
 20
694.058600
 30
0.0
  0
SPLINE
  5
12b
100
AcDbEntity
  8
christmas-917749
 62
1
100
AcDbSpline
 70
8
 71
3
 72
8
 73
4
 74
0
 40
0
 40
0
 40
0
 40
0
 40
1
 40
1
 40
1
 40
1
 10
289.966300
 20
694.058600
 30
0.0
 10
290.349600
 20
695.691900
 30
0.0
 10
289.710400
 20
695.471700
 30
0.0
 10
281.739700
 20
691.249500
 30
0.0
  0
SPLINE
  5
12c
100
AcDbEntity
  8
christmas-917749
 62
1
100
AcDbSpline
 70
8
 71
3
 72
8
 73
4
 74
0
 40
0
 40
0
 40
0
 40
0
 40
1
 40
1
 40
1
 40
1
 10
281.739700
 20
691.249500
 30
0.0
 10
276.690400
 20
688.574700
 30
0.0
 10
273.826910
 20
685.594280
 30
0.0
 10
273.081100
 20
687.610400
 30
0.0
  0
SPLINE
  5
12d
100
AcDbEntity
  8
christmas-917749
 62
1
100
AcDbSpline
 70
8
 71
3
 72
8
 73
4
 74
0
 40
0
 40
0
 40
0
 40
0
 40
1
 40
1
 40
1
 40
1
 10
273.081100
 20
687.610400
 30
0.0
 10
272.389130
 20
689.960780
 30
0.0
 10
274.334000
 20
696.071300
 30
0.0
 10
275.886700
 20
705.262200
 30
0.0
  0
LINE
  5
12e
100
AcDbEntity
  8
christmas-917749
 62
1
100
AcDbLine
 10
275.886700
 20
705.262200
 30
0.0
 11
278.710400
 21
721.975600
 31
0.0
  0
LINE
  5
12f
100
AcDbEntity
  8
christmas-917749
 62
1
100
AcDbLine
 10
278.710400
 20
721.975600
 30
0.0
 11
266.128900
 21
734.326700
 31
0.0
  0
SPLINE
  5
130
100
AcDbEntity
  8
christmas-917749
 62
1
100
AcDbSpline
 70
8
 71
3
 72
8
 73
4
 74
0
 40
0
 40
0
 40
0
 40
0
 40
1
 40
1
 40
1
 40
1
 10
266.128900
 20
734.326700
 30
0.0
 10
259.210400
 20
741.121600
 30
0.0
 10
253.693400
 20
746.827100
 30
0.0
 10
253.873000
 20
747.002900
 30
0.0
  0
SPLINE
  5
131
100
AcDbEntity
  8
christmas-917749
 62
1
100
AcDbSpline
 70
8
 71
3
 72
8
 73
4
 74
0
 40
0
 40
0
 40
0
 40
0
 40
1
 40
1
 40
1
 40
1
 10
253.873000
 20
747.002900
 30
0.0
 10
254.048300
 20
747.181600
 30
0.0
 10
261.227100
 20
748.336900
 30
0.0
 10
269.819300
 20
749.571300
 30
0.0
  0
SPLINE
  5
132
100
AcDbEntity
  8
christmas-917749
 62
1
100
AcDbSpline
 70
8
 71
3
 72
8
 73
4
 74
0
 40
0
 40
0
 40
0
 40
0
 40
1
 40
1
 40
1
 40
1
 10
269.819300
 20
749.571300
 30
0.0
 10
278.415000
 20
750.805200
 30
0.0
 10
286.181600
 20
751.975100
 30
0.0
 10
287.076200
 20
752.168500
 30
0.0
  0
SPLINE
  5
133
100
AcDbEntity
  8
christmas-917749
 62
1
100
AcDbSpline
 70
8
 71
3
 72
8
 73
4
 74
0
 40
0
 40
0
 40
0
 40
0
 40
1
 40
1
 40
1
 40
1
 10
287.076200
 20
752.168500
 30
0.0
 10
288.355500
 20
752.442400
 30
0.0
 10
290.382800
 20
755.945800
 30
0.0
 10
296.384800
 20
768.231400
 30
0.0
  0
SPLINE
  5
134
100
AcDbEntity
  8
christmas-917749
 62
1
100
AcDbSpline
 70
8
 71
3
 72
8
 73
4
 74
0
 40
0
 40
0
 40
0
 40
0
 40
1
 40
1
 40
1
 40
1
 10
296.384800
 20
768.231400
 30
0.0
 10
300.604500
 20
776.870600
 30
0.0
 10
304.250000
 20
783.939900
 30
0.0
 10
304.490700
 20
783.939900
 30
0.0
  0
SPLINE
  5
135
100
AcDbEntity
  8
christmas-917749
 62
1
100
AcDbSpline
 70
8
 71
3
 72
8
 73
4
 74
0
 40
0
 40
0
 40
0
 40
0
 40
1
 40
1
 40
1
 40
1
 10
304.490700
 20
783.939900
 30
0.0
 10
304.732400
 20
783.939900
 30
0.0
 10
308.443400
 20
776.882300
 30
0.0
 10
312.743200
 20
768.253900
 30
0.0
  0
SPLINE
  5
136
100
AcDbEntity
  8
christmas-917749
 62
1
100
AcDbSpline
 70
8
 71
3
 72
8
 73
4
 74
0
 40
0
 40
0
 40
0
 40
0
 40
1
 40
1
 40
1
 40
1
 10
312.743200
 20
768.253900
 30
0.0
 10
319.384800
 20
754.916000
 30
0.0
 10
320.842800
 20
752.505400
 30
0.0
 10
322.453100
 20
752.164600
 30
0.0
  0
SPLINE
  5
137
100
AcDbEntity
  8
christmas-917749
 62
1
100
AcDbSpline
 70
8
 71
3
 72
8
 73
4
 74
0
 40
0
 40
0
 40
0
 40
0
 40
1
 40
1
 40
1
 40
1
 10
322.453100
 20
752.164600
 30
0.0
 10
324.210900
 20
751.795900
 30
0.0
 10
355.145500
 20
747.280800
 30
0.0
 10
355.926800
 20
747.280800
 30
0.0
  0
SPLINE
  5
138
100
AcDbEntity
  8
christmas-917749
 62
1
100
AcDbSpline
 70
8
 71
3
 72
8
 73
4
 74
0
 40
0
 40
0
 40
0
 40
0
 40
1
 40
1
 40
1
 40
1
 10
355.926800
 20
747.280800
 30
0.0
 10
356.116200
 20
747.280800
 30
0.0
 10
350.451200
 20
741.610800
 30
0.0
 10
343.331100
 20
734.681200
 30
0.0
  0
LINE
  5
139
100
AcDbEntity
  8
christmas-917749
 62
1
100
AcDbLine
 10
343.331100
 20
734.681200
 30
0.0
 11
330.387700
 21
722.085000
 31
0.0
  0
LINE
  5
13a
100
AcDbEntity
  8
christmas-917749
 62
1
100
AcDbLine
 10
330.387700
 20
722.085000
 30
0.0
 11
333.417000
 21
704.382800
 31
0.0
  0
SPLINE
  5
13b
100
AcDbEntity
  8
christmas-917749
 62
1
100
AcDbSpline
 70
8
 71
3
 72
8
 73
4
 74
0
 40
0
 40
0
 40
0
 40
0
 40
1
 40
1
 40
1
 40
1
 10
333.417000
 20
704.382800
 30
0.0
 10
335.079100
 20
694.647000
 30
0.0
 10
336.386700
 20
686.679200
 30
0.0
 10
336.320300
 20
686.679200
 30
0.0
  0
SPLINE
  5
13c
100
AcDbEntity
  8
christmas-917749
 62
1
100
AcDbSpline
 70
8
 71
3
 72
8
 73
4
 74
0
 40
0
 40
0
 40
0
 40
0
 40
1
 40
1
 40
1
 40
1
 10
336.320300
 20
686.679200
 30
0.0
 10
336.255900
 20
686.679200
 30
0.0
 10
332.586900
 20
688.568400
 30
0.0
 10
328.169900
 20
690.872100
 30
0.0
  0
SPLINE
  5
13d
100
AcDbEntity
  8
christmas-917749
 62
1
100
AcDbSpline
 70
8
 71
3
 72
8
 73
4
 74
0
 40
0
 40
0
 40
0
 40
0
 40
1
 40
1
 40
1
 40
1
 10
328.169900
 20
690.872100
 30
0.0
 10
323.756800
 20
693.177700
 30
0.0
 10
318.089490
 20
695.236480
 30
0.0
 10
317.845290
 20
694.991380
 30
0.0
  0
SPLINE
  5
13e
100
AcDbEntity
  8
christmas-917749
 62
1
100
AcDbSpline
 70
8
 71
3
 72
8
 73
4
 74
0
 40
0
 40
0
 40
0
 40
0
 40
1
 40
1
 40
1
 40
1
 10
317.845290
 20
694.991380
 30
0.0
 10
318.040930
 20
686.156920
 30
0.0
 10
319.060460
 20
667.341530
 30
0.0
 10
319.359400
 20
663.485400
 30
0.0
  0
LINE
  5
13f
100
AcDbEntity
  8
christmas-917749
 62
1
100
AcDbLine
 10
319.359400
 20
663.485400
 30
0.0
 11
324.396500
 21
653.946800
 31
0.0
  0
SPLINE
  5
140
100
AcDbEntity
  8
christmas-917749
 62
1
100
AcDbSpline
 70
8
 71
3
 72
8
 73
4
 74
0
 40
0
 40
0
 40
0
 40
0
 40
1
 40
1
 40
1
 40
1
 10
324.396500
 20
653.946800
 30
0.0
 10
335.436500
 20
633.036600
 30
0.0
 10
347.835000
 20
615.643600
 30
0.0
 10
361.359400
 20
602.090300
 30
0.0
  0
SPLINE
  5
141
100
AcDbEntity
  8
christmas-917749
 62
1
100
AcDbSpline
 70
8
 71
3
 72
8
 73
4
 74
0
 40
0
 40
0
 40
0
 40
0
 40
1
 40
1
 40
1
 40
1
 10
361.359400
 20
602.090300
 30
0.0
 10
379.423800
 20
583.984900
 30
0.0
 10
395.140600
 20
575.163100
 30
0.0
 10
418.246100
 20
570.154300
 30
0.0
  0
LINE
  5
142
100
AcDbEntity
  8
christmas-917749
 62
1
100
AcDbLine
 10
418.246100
 20
570.154300
 30
0.0
 11
424.602500
 21
568.777800
 31
0.0
  0
LINE
  5
143
100
AcDbEntity
  8
christmas-917749
 62
1
100
AcDbLine
 10
424.602500
 20
568.777800
 30
0.0
 11
416.378900
 21
564.354000
 31
0.0
  0
SPLINE
  5
144
100
AcDbEntity
  8
christmas-917749
 62
1
100
AcDbSpline
 70
8
 71
3
 72
8
 73
4
 74
0
 40
0
 40
0
 40
0
 40
0
 40
1
 40
1
 40
1
 40
1
 10
416.378900
 20
564.354000
 30
0.0
 10
402.475600
 20
556.876000
 30
0.0
 10
392.812500
 20
553.617200
 30
0.0
 10
379.543900
 20
551.940400
 30
0.0
  0
LINE
  5
145
100
AcDbEntity
  8
christmas-917749
 62
1
100
AcDbLine
 10
379.543900
 20
551.940400
 30
0.0
 11
372.640600
 21
551.070800
 31
0.0
  0
LINE
  5
146
100
AcDbEntity
  8
christmas-917749
 62
1
100
AcDbLine
 10
372.640600
 20
551.070800
 30
0.0
 11
378.397500
 21
544.729000
 31
0.0
  0
SPLINE
  5
147
100
AcDbEntity
  8
christmas-917749
 62
1
100
AcDbSpline
 70
8
 71
3
 72
8
 73
4
 74
0
 40
0
 40
0
 40
0
 40
0
 40
1
 40
1
 40
1
 40
1
 10
378.397500
 20
544.729000
 30
0.0
 10
402.665000
 20
517.999500
 30
0.0
 10
430.976600
 20
500.639200
 30
0.0
 10
460.516600
 20
494.381800
 30
0.0
  0
SPLINE
  5
148
100
AcDbEntity
  8
christmas-917749
 62
1
100
AcDbSpline
 70
8
 71
3
 72
8
 73
4
 74
0
 40
0
 40
0
 40
0
 40
0
 40
1
 40
1
 40
1
 40
1
 10
460.516600
 20
494.381800
 30
0.0
 10
464.629900
 20
493.507800
 30
0.0
 10
468.487300
 20
492.635700
 30
0.0
 10
469.089800
 20
492.438500
 30
0.0
  0
SPLINE
  5
149
100
AcDbEntity
  8
christmas-917749
 62
1
100
AcDbSpline
 70
8
 71
3
 72
8
 73
4
 74
0
 40
0
 40
0
 40
0
 40
0
 40
1
 40
1
 40
1
 40
1
 10
469.089800
 20
492.438500
 30
0.0
 10
469.758800
 20
492.222200
 30
0.0
 10
468.451200
 20
491.126500
 30
0.0
 10
465.721700
 20
489.614300
 30
0.0
  0
SPLINE
  5
14a
100
AcDbEntity
  8
christmas-917749
 62
1
100
AcDbSpline
 70
8
 71
3
 72
8
 73
4
 74
0
 40
0
 40
0
 40
0
 40
0
 40
1
 40
1
 40
1
 40
1
 10
465.721700
 20
489.614300
 30
0.0
 10
431.653300
 20
470.731000
 30
0.0
 10
427.889600
 20
469.050800
 30
0.0
 10
411.885700
 20
465.565400
 30
0.0
  0
LINE
  5
14b
100
AcDbEntity
  8
christmas-917749
 62
1
100
AcDbLine
 10
411.885700
 20
465.565400
 30
0.0
 11
409.639600
 21
465.076200
 31
0.0
  0
LINE
  5
14c
100
AcDbEntity
  8
christmas-917749
 62
1
100
AcDbLine
 10
409.639600
 20
465.076200
 30
0.0
 11
414.877900
 21
460.188000
 31
0.0
  0
SPLINE
  5
14d
100
AcDbEntity
  8
christmas-917749
 62
1
100
AcDbSpline
 70
8
 71
3
 72
8
 73
4
 74
0
 40
0
 40
0
 40
0
 40
0
 40
1
 40
1
 40
1
 40
1
 10
414.877900
 20
460.188000
 30
0.0
 10
421.702100
 20
453.817400
 30
0.0
 10
437.688500
 20
441.842300
 30
0.0
 10
446.674800
 20
436.370100
 30
0.0
  0
SPLINE
  5
14e
100
AcDbEntity
  8
christmas-917749
 62
1
100
AcDbSpline
 70
8
 71
3
 72
8
 73
4
 74
0
 40
0
 40
0
 40
0
 40
0
 40
1
 40
1
 40
1
 40
1
 10
446.674800
 20
436.370100
 30
0.0
 10
462.232400
 20
426.897500
 30
0.0
 10
482.518600
 20
418.684600
 30
0.0
 10
498.483400
 20
415.389600
 30
0.0
  0
SPLINE
  5
14f
100
AcDbEntity
  8
christmas-917749
 62
1
100
AcDbSpline
 70
8
 71
3
 72
8
 73
4
 74
0
 40
0
 40
0
 40
0
 40
0
 40
1
 40
1
 40
1
 40
1
 10
498.483400
 20
415.389600
 30
0.0
 10
502.085900
 20
414.647500
 30
0.0
 10
505.030300
 20
413.800800
 30
0.0
 10
505.030300
 20
413.503900
 30
0.0
  0
SPLINE
  5
150
100
AcDbEntity
  8
christmas-917749
 62
1
100
AcDbSpline
 70
8
 71
3
 72
8
 73
4
 74
0
 40
0
 40
0
 40
0
 40
0
 40
1
 40
1
 40
1
 40
1
 10
505.030300
 20
413.503900
 30
0.0
 10
505.030300
 20
412.612800
 30
0.0
 10
491.187500
 20
400.400900
 30
0.0
 10
484.835000
 20
395.691400
 30
0.0
  0
SPLINE
  5
151
100
AcDbEntity
  8
christmas-917749
 62
1
100
AcDbSpline
 70
8
 71
3
 72
8
 73
4
 74
0
 40
0
 40
0
 40
0
 40
0
 40
1
 40
1
 40
1
 40
1
 10
484.835000
 20
395.691400
 30
0.0
 10
473.689500
 20
387.428700
 30
0.0
 10
460.275400
 20
380.122100
 30
0.0
 10
449.667000
 20
376.531300
 30
0.0
  0
SPLINE
  5
152
100
AcDbEntity
  8
christmas-917749
 62
1
100
AcDbSpline
 70
8
 71
3
 72
8
 73
4
 74
0
 40
0
 40
0
 40
0
 40
0
 40
1
 40
1
 40
1
 40
1
 10
449.667000
 20
376.531300
 30
0.0
 10
447.405300
 20
375.767600
 30
0.0
 10
445.257800
 20
374.897500
 30
0.0
 10
444.898400
 20
374.598600
 30
0.0
  0
SPLINE
  5
153
100
AcDbEntity
  8
christmas-917749
 62
1
100
AcDbSpline
 70
8
 71
3
 72
8
 73
4
 74
0
 40
0
 40
0
 40
0
 40
0
 40
1
 40
1
 40
1
 40
1
 10
444.898400
 20
374.598600
 30
0.0
 10
444.106400
 20
373.944300
 30
0.0
 10
457.648400
 20
363.861300
 30
0.0
 10
467.960900
 20
357.424800
 30
0.0
  0
SPLINE
  5
154
100
AcDbEntity
  8
christmas-917749
 62
1
100
AcDbSpline
 70
8
 71
3
 72
8
 73
4
 74
0
 40
0
 40
0
 40
0
 40
0
 40
1
 40
1
 40
1
 40
1
 10
467.960900
 20
357.424800
 30
0.0
 10
487.688500
 20
345.110400
 30
0.0
 10
505.983400
 20
337.354500
 30
0.0
 10
527.723600
 20
332.079100
 30
0.0
  0
SPLINE
  5
155
100
AcDbEntity
  8
christmas-917749
 62
1
100
AcDbSpline
 70
8
 71
3
 72
8
 73
4
 74
0
 40
0
 40
0
 40
0
 40
0
 40
1
 40
1
 40
1
 40
1
 10
527.723600
 20
332.079100
 30
0.0
 10
532.592800
 20
330.900400
 30
0.0
 10
536.717800
 20
329.793000
 30
0.0
 10
536.888700
 20
329.621100
 30
0.0
  0
SPLINE
  5
156
100
AcDbEntity
  8
christmas-917749
 62
1
100
AcDbSpline
 70
8
 71
3
 72
8
 73
4
 74
0
 40
0
 40
0
 40
0
 40
0
 40
1
 40
1
 40
1
 40
1
 10
536.888700
 20
329.621100
 30
0.0
 10
537.425800
 20
329.080100
 30
0.0
 10
518.348600
 20
310.847700
 30
0.0
 10
513.380900
 20
307.154300
 30
0.0
  0
SPLINE
  5
157
100
AcDbEntity
  8
christmas-917749
 62
1
100
AcDbSpline
 70
8
 71
3
 72
8
 73
4
 74
0
 40
0
 40
0
 40
0
 40
0
 40
1
 40
1
 40
1
 40
1
 10
513.380900
 20
307.154300
 30
0.0
 10
510.769500
 20
305.214800
 30
0.0
 10
505.289100
 20
301.952100
 30
0.0
 10
501.201200
 20
299.907200
 30
0.0
  0
LINE
  5
158
100
AcDbEntity
  8
christmas-917749
 62
1
100
AcDbLine
 10
501.201200
 20
299.907200
 30
0.0
 11
493.770500
 21
296.188500
 31
0.0
  0
LINE
  5
159
100
AcDbEntity
  8
christmas-917749
 62
1
100
AcDbLine
 10
493.770500
 20
296.188500
 30
0.0
 11
501.990200
 21
290.393600
 31
0.0
  0
SPLINE
  5
15a
100
AcDbEntity
  8
christmas-917749
 62
1
100
AcDbSpline
 70
8
 71
3
 72
8
 73
4
 74
0
 40
0
 40
0
 40
0
 40
0
 40
1
 40
1
 40
1
 40
1
 10
501.990200
 20
290.393600
 30
0.0
 10
529.418900
 20
271.065400
 30
0.0
 10
557.540000
 20
257.957000
 30
0.0
 10
588.233400
 20
250.198200
 30
0.0
  0
LINE
  5
15b
100
AcDbEntity
  8
christmas-917749
 62
1
100
AcDbLine
 10
588.233400
 20
250.198200
 30
0.0
 11
600.738300
 21
247.034200
 31
0.0
  0
LINE
  5
15c
100
AcDbEntity
  8
christmas-917749
 62
1
100
AcDbLine
 10
600.738300
 20
247.034200
 30
0.0
 11
596.938500
 21
240.352500
 31
0.0
  0
SPLINE
  5
15d
100
AcDbEntity
  8
christmas-917749
 62
1
100
AcDbSpline
 70
8
 71
3
 72
8
 73
4
 74
0
 40
0
 40
0
 40
0
 40
0
 40
1
 40
1
 40
1
 40
1
 10
596.938500
 20
240.352500
 30
0.0
 10
585.803700
 20
220.760700
 30
0.0
 10
583.886700
 20
217.889600
 30
0.0
 10
577.975600
 20
211.950200
 30
0.0
  0
SPLINE
  5
15e
100
AcDbEntity
  8
christmas-917749
 62
1
100
AcDbSpline
 70
8
 71
3
 72
8
 73
4
 74
0
 40
0
 40
0
 40
0
 40
0
 40
1
 40
1
 40
1
 40
1
 10
577.975600
 20
211.950200
 30
0.0
 10
573.449200
 20
207.402300
 30
0.0
 10
570.625000
 20
205.275400
 30
0.0
 10
566.380900
 20
203.233400
 30
0.0
  0
SPLINE
  5
15f
100
AcDbEntity
  8
christmas-917749
 62
1
100
AcDbSpline
 70
8
 71
3
 72
8
 73
4
 74
0
 40
0
 40
0
 40
0
 40
0
 40
1
 40
1
 40
1
 40
1
 10
566.380900
 20
203.233400
 30
0.0
 10
558.311500
 20
199.342800
 30
0.0
 10
554.292000
 20
198.612300
 30
0.0
 10
543.654300
 20
199.094700
 30
0.0
  0
SPLINE
  5
160
100
AcDbEntity
  8
christmas-917749
 62
1
100
AcDbSpline
 70
8
 71
3
 72
8
 73
4
 74
0
 40
0
 40
0
 40
0
 40
0
 40
1
 40
1
 40
1
 40
1
 10
543.654300
 20
199.094700
 30
0.0
 10
535.204100
 20
199.474600
 30
0.0
 10
532.293000
 20
200.048800
 30
0.0
 10
519.993200
 20
203.755900
 30
0.0
  0
SPLINE
  5
161
100
AcDbEntity
  8
christmas-917749
 62
1
100
AcDbSpline
 70
8
 71
3
 72
8
 73
4
 74
0
 40
0
 40
0
 40
0
 40
0
 40
1
 40
1
 40
1
 40
1
 10
519.993200
 20
203.755900
 30
0.0
 10
519.281300
 20
203.971700
 30
0.0
 10
517.804700
 20
202.593800
 30
0.0
 10
515.926800
 20
199.956100
 30
0.0
  0
SPLINE
  5
162
100
AcDbEntity
  8
christmas-917749
 62
1
100
AcDbSpline
 70
8
 71
3
 72
8
 73
4
 74
0
 40
0
 40
0
 40
0
 40
0
 40
1
 40
1
 40
1
 40
1
 10
515.926800
 20
199.956100
 30
0.0
 10
511.485400
 20
193.724600
 30
0.0
 10
501.511700
 20
184.003900
 30
0.0
 10
495.257800
 20
179.809600
 30
0.0
  0
SPLINE
  5
163
100
AcDbEntity
  8
christmas-917749
 62
1
100
AcDbSpline
 70
8
 71
3
 72
8
 73
4
 74
0
 40
0
 40
0
 40
0
 40
0
 40
1
 40
1
 40
1
 40
1
 10
495.257800
 20
179.809600
 30
0.0
 10
484.045900
 20
172.294900
 30
0.0
 10
472.897500
 20
169.186500
 30
0.0
 10
459.774400
 20
169.922900
 30
0.0
  0
SPLINE
  5
164
100
AcDbEntity
  8
christmas-917749
 62
1
100
AcDbSpline
 70
8
 71
3
 72
8
 73
4
 74
0
 40
0
 40
0
 40
0
 40
0
 40
1
 40
1
 40
1
 40
1
 10
459.774400
 20
169.922900
 30
0.0
 10
451.069300
 20
170.406300
 30
0.0
 10
443.898400
 20
172.141600
 30
0.0
 10
433.015600
 20
176.397500
 30
0.0
  0
LINE
  5
165
100
AcDbEntity
  8
christmas-917749
 62
1
100
AcDbLine
 10
433.015600
 20
176.397500
 30
0.0
 11
425.211900
 21
179.444300
 31
0.0
  0
LINE
  5
166
100
AcDbEntity
  8
christmas-917749
 62
1
100
AcDbLine
 10
425.211900
 20
179.444300
 30
0.0
 11
419.670900
 21
174.001000
 31
0.0
  0
SPLINE
  5
167
100
AcDbEntity
  8
christmas-917749
 62
1
100
AcDbSpline
 70
8
 71
3
 72
8
 73
4
 74
0
 40
0
 40
0
 40
0
 40
0
 40
1
 40
1
 40
1
 40
1
 10
419.670900
 20
174.001000
 30
0.0
 10
409.080100
 20
163.593800
 30
0.0
 10
398.501000
 20
158.051800
 30
0.0
 10
384.812500
 20
155.739300
 30
0.0
  0
SPLINE
  5
168
100
AcDbEntity
  8
christmas-917749
 62
1
100
AcDbSpline
 70
8
 71
3
 72
8
 73
4
 74
0
 40
0
 40
0
 40
0
 40
0
 40
1
 40
1
 40
1
 40
1
 10
384.812500
 20
155.739300
 30
0.0
 10
378.533200
 20
154.679700
 30
0.0
 10
376.402300
 20
154.631800
 30
0.0
 10
369.633800
 20
155.410200
 30
0.0
  0
SPLINE
  5
169
100
AcDbEntity
  8
christmas-917749
 62
1
100
AcDbSpline
 70
8
 71
3
 72
8
 73
4
 74
0
 40
0
 40
0
 40
0
 40
0
 40
1
 40
1
 40
1
 40
1
 10
369.633800
 20
155.410200
 30
0.0
 10
360.836900
 20
156.421900
 30
0.0
 10
349.625000
 20
159.837900
 30
0.0
 10
341.252000
 20
164.053700
 30
0.0
  0
SPLINE
  5
16a
100
AcDbEntity
  8
christmas-917749
 62
1
100
AcDbSpline
 70
8
 71
3
 72
8
 73
4
 74
0
 40
0
 40
0
 40
0
 40
0
 40
1
 40
1
 40
1
 40
1
 10
341.252000
 20
164.053700
 30
0.0
 10
335.996100
 20
166.702100
 30
0.0
 10
335.948200
 20
166.709000
 30
0.0
 10
335.948200
 20
165.007800
 30
0.0
  0
SPLINE
  5
16b
100
AcDbEntity
  8
christmas-917749
 62
1
100
AcDbSpline
 70
8
 71
3
 72
8
 73
4
 74
0
 40
0
 40
0
 40
0
 40
0
 40
1
 40
1
 40
1
 40
1
 10
335.948200
 20
165.007800
 30
0.0
 10
335.948200
 20
159.539100
 30
0.0
 10
341.643600
 20
129.389600
 30
0.0
 10
346.560500
 20
108.840800
 30
0.0
  0
SPLINE
  5
16c
100
AcDbEntity
  8
christmas-917749
 62
1
100
AcDbSpline
 70
8
 71
3
 72
8
 73
4
 74
0
 40
0
 40
0
 40
0
 40
0
 40
1
 40
1
 40
1
 40
1
 10
346.560500
 20
108.840800
 30
0.0
 10
348.226600
 20
101.877000
 30
0.0
 10
349.285200
 20
95.962900
 30
0.0
 10
348.931600
 20
95.616200
 30
0.0
  0
SPLINE
  5
16d
100
AcDbEntity
  8
christmas-917749
 62
1
100
AcDbSpline
 70
8
 71
3
 72
8
 73
4
 74
0
 40
0
 40
0
 40
0
 40
0
 40
1
 40
1
 40
1
 40
1
 10
348.931600
 20
95.616200
 30
0.0
 10
348.032200
 20
94.743200
 30
0.0
 10
326.807600
 20
91.341800
 30
0.0
 10
316.495100
 20
90.420900
 30
0.0
  0
SPLINE
  5
16e
100
AcDbEntity
  8
christmas-917749
 62
1
100
AcDbSpline
 70
8
 71
3
 72
8
 73
4
 74
0
 40
0
 40
0
 40
0
 40
0
 40
1
 40
1
 40
1
 40
1
 10
316.495100
 20
90.420900
 30
0.0
 10
305.287100
 20
89.417000
 30
0.0
 10
291.157200
 20
89.562500
 30
0.0
 10
281.330100
 20
90.783200
 30
0.0
  0
LINE
  5
16f
100
AcDbEntity
  8
christmas-917749
 62
1
100
AcDbLine
 10
281.330100
 20
90.783200
 30
0.0
 11
281.330100
 21
90.783200
 31
0.0
  0
ENDSEC
  0
SECTION
  2
OBJECTS
  0
DICTIONARY
  5
C
330
0
100
AcDbDictionary
  3
ACAD_GROUP
350
D
  3
ACAD_MLINESTYLE
350
17
  0
DICTIONARY
  5
D
330
C
100
AcDbDictionary
  0
DICTIONARY
  5
1A
330
C
100
AcDbDictionary
  0
DICTIONARY
  5
17
330
C
100
AcDbDictionary
  3
STANDARD
350
18
  0
DICTIONARY
  5
19
330
C
100
AcDbDictionary
  0
ENDSEC
  0
EOF
