<?xml version="1.0" encoding="UTF-8" standalone="no"?>
<!-- Created with Inkscape (http://www.inkscape.org/) -->

<svg
   xmlns:dc="http://purl.org/dc/elements/1.1/"
   xmlns:cc="http://creativecommons.org/ns#"
   xmlns:rdf="http://www.w3.org/1999/02/22-rdf-syntax-ns#"
   xmlns:svg="http://www.w3.org/2000/svg"
   xmlns="http://www.w3.org/2000/svg"
   xmlns:sodipodi="http://sodipodi.sourceforge.net/DTD/sodipodi-0.dtd"
   xmlns:inkscape="http://www.inkscape.org/namespaces/inkscape"
   id="svg2"
   version="1.1"
   inkscape:version="0.91 r13725"
   xml:space="preserve"
   width="76.770737mm"
   height="90mm"
   viewBox="0 0 272.02229 318.89764"
   sodipodi:docname="christmas-917749.ai.svg"><metadata
     id="metadata8"><rdf:RDF><cc:Work
         rdf:about=""><dc:format>image/svg+xml</dc:format><dc:type
           rdf:resource="http://purl.org/dc/dcmitype/StillImage" /><dc:title /></cc:Work></rdf:RDF></metadata><defs
     id="defs6" /><sodipodi:namedview
     pagecolor="#ffffff"
     bordercolor="#666666"
     borderopacity="1"
     objecttolerance="10"
     gridtolerance="10"
     guidetolerance="10"
     inkscape:pageopacity="0"
     inkscape:pageshadow="2"
     inkscape:window-width="2560"
     inkscape:window-height="1311"
     id="namedview4"
     showgrid="false"
     inkscape:zoom="2.6970053"
     inkscape:cx="-18.976915"
     inkscape:cy="156.64259"
     inkscape:window-x="0"
     inkscape:window-y="55"
     inkscape:window-maximized="1"
     inkscape:current-layer="layer2"
     fit-margin-top="0"
     fit-margin-left="0"
     fit-margin-right="0"
     fit-margin-bottom="0"
     units="mm" /><g
     id="g10"
     inkscape:groupmode="layer"
     inkscape:label="Edge.Cuts"
     transform="matrix(1.25,0,0,-1.25,-10.625,430.46765)"><path
       d="m 108.62301,89.816453 c -4.45502,0.552267 -7.81857,1.439623 -10.456971,2.760235 l -1.259876,0.630397 0.481146,1.895081 c 0.921008,3.629316 2.051341,15.046154 2.230721,22.541634 0.100515,4.15468 -0.09263,4.4457 -2.052626,3.09639 -1.970715,-1.35504 -5.426743,-2.9867 -7.644179,-3.60708 -6.958992,-1.95064 -13.146227,-0.34584 -20.717854,5.37316 l -2.618324,1.97718 -1.699775,-0.51891 c -4.45645,-1.3579 -9.660804,-1.72524 -13.069895,-0.92068 -3.585021,0.84435 -7.008608,3.37269 -9.192575,6.78483 -0.55513,0.86724 -1.058993,1.57793 -1.120829,1.57793 -0.06022,0 -1.138039,-0.24943 -2.393072,-0.55369 -10.987691,-2.6624 -22.503649,1.90763 -28.371722,11.26131 -0.7735554,1.23316 -2.0536893,4.22562 -2.0536893,4.80082 0,0.16595 1.0803137,0.6501 2.4023933,1.07514 10.198172,3.27775 21.59354,9.23147 31.172288,16.2872 l 1.862126,1.37118 -2.27373,1.65857 c -3.206959,2.33806 -5.476396,4.46683 -7.955304,7.45786 -1.178334,1.42238 -2.11281,2.6115 -2.075525,2.64232 0.0378,0.0312 1.748326,0.62214 3.803447,1.31526 8.741043,2.94945 17.095731,7.53416 25.38484,13.93013 3.891816,3.00431 3.826237,2.80361 1.148976,3.52862 -5.353274,1.4507 -11.6593,5.09183 -16.197293,9.34828 -1.322043,1.24017 -2.402357,2.35274 -2.402357,2.47208 0,0.12078 1.698344,0.79778 3.775153,1.50557 9.36278,3.19225 19.048686,9.06678 27.112726,16.4431 l 1.9211,1.75768 -1.647811,0.32162 c -4.240336,0.82552 -8.907138,2.71598 -12.159419,4.92556 -2.670288,1.81233 -5.370669,4.13964 -4.961414,4.27491 0.204811,0.0685 1.732069,0.56984 3.392761,1.11422 8.659317,2.83657 17.306268,8.50897 25.524439,16.74182 l 3.283107,3.28989 -0.812455,0.193 c -5.405239,1.28567 -6.965965,1.86069 -12.268009,4.52309 l -3.645059,1.83005 3.432028,1.16241 c 4.244262,1.43584 5.975047,2.21458 8.774145,3.95219 8.731539,5.41456 16.666407,14.28584 23.605687,26.38596 1.50429,2.62225 1.42957,2.52143 1.54065,3.51533 0.29928,2.30874 1.03086,9.64524 1.37133,11.26795 0.14067,0.59939 -0.0939,0.51858 -3.01899,-1.03088 -1.85299,-0.9816 -2.90383,-2.07535 -3.17753,-1.33548 -0.25394,0.86255 0.45979,3.10498 1.0296,6.47785 l 1.03624,6.13347 -4.61715,4.5326 c -2.53895,2.49359 -4.563572,4.58739 -4.497663,4.6519 0.06433,0.0656 2.698803,0.48955 5.851963,0.94255 3.15444,0.45282 6.00463,0.88215 6.33292,0.95312 0.46948,0.10052 1.21346,1.38619 3.41607,5.89475 1.54854,3.17041 2.88636,5.7647 2.9747,5.7647 0.0887,0 1.45056,-2.58999 3.02849,-5.75644 2.43733,-4.89473 2.97239,-5.77937 3.56334,-5.90444 0.64507,-0.1353 11.99743,-1.79225 12.28415,-1.79225 0.0695,0 -2.00943,-2.08078 -4.62236,-4.6238 l -4.74996,-4.62254 1.11169,-6.49634 c 0.60996,-3.57284 1.08982,-6.49686 1.06545,-6.49686 -0.0236,0 -1.37008,0.6933 -2.99103,1.53871 -1.61951,0.84611 -3.6993,1.60164 -3.78892,1.51169 0.0718,-3.24206 0.44595,-10.14692 0.55565,-11.56204 l 1.84851,-3.50047 c 4.05146,-7.67361 8.60145,-14.05648 13.56462,-19.03026 6.62926,-6.64431 12.39701,-9.88173 20.87625,-11.71986 l 2.33266,-0.50514 -3.01789,-1.62345 c -5.10222,-2.74427 -8.64838,-3.94018 -13.51768,-4.55553 l -2.53337,-0.31913 2.11266,-2.3273 c 8.90567,-9.80918 19.29545,-16.18005 30.13602,-18.47639 1.50949,-0.32074 2.92508,-0.64078 3.14618,-0.71315 0.24551,-0.0794 -0.23435,-0.48147 -1.23602,-1.03642 -12.5024,-6.92978 -13.8836,-7.54638 -19.7567,-8.82545 l -0.82427,-0.17953 1.92235,-1.79386 c 2.50434,-2.33788 8.37101,-6.7325 11.6688,-8.74068 5.70932,-3.47625 13.15393,-6.49021 19.01269,-7.69941 1.32204,-0.27234 2.40257,-0.58306 2.40257,-0.69201 0,-0.32702 -5.08002,-4.80853 -7.41125,-6.53682 -4.09017,-3.03224 -9.01287,-5.71361 -12.90593,-7.03136 -0.83,-0.28026 -1.61809,-0.59957 -1.74998,-0.70926 -0.29065,-0.24012 4.67899,-3.94037 8.46346,-6.30243 7.23962,-4.51913 13.95347,-7.36539 21.93167,-9.30135 1.7869,-0.43256 3.30069,-0.83895 3.36341,-0.90204 0.1971,-0.19853 -6.80384,-6.88945 -8.62688,-8.24485 -0.95833,-0.71175 -2.96952,-1.9091 -4.4697,-2.65953 l -2.72691,-1.36469 3.01646,-2.12661 c 10.06576,-7.09305 20.38563,-11.90356 31.64947,-14.75088 l 4.58904,-1.16112 -1.39445,-2.45205 c -4.08624,-7.18978 -4.78974,-8.24342 -6.95899,-10.42305 -1.6611,-1.66899 -2.69752,-2.44952 -4.25502,-3.19889 -2.9613,-1.42777 -4.43637,-1.69585 -8.34019,-1.51882 -3.10105,0.13942 -4.16936,0.35014 -8.68313,1.71057 -0.26125,0.0792 -0.80314,-0.42647 -1.49229,-1.39445 -1.6299,-2.28683 -5.29004,-5.85413 -7.58509,-7.39335 -4.11454,-2.75774 -8.20577,-3.89846 -13.02168,-3.62821 -3.19459,0.17739 -5.82616,0.81421 -9.81992,2.37604 l -2.8638,1.11811 -2.03343,-1.99757 c -3.88661,-3.81923 -7.76892,-5.85303 -12.79231,-6.70167 -2.30438,-0.38885 -3.08637,-0.40643 -5.57027,-0.12077 -3.22828,0.37127 -7.34282,1.62487 -10.41554,3.17198 -1.9288,0.97191 -1.94638,0.97444 -1.94638,0.35014 0,-2.0069 2.09009,-13.07115 3.89449,-20.612131 0.61143,-2.555571 0.99991,-4.725923 0.87015,-4.853155 -0.33006,-0.320373 -8.11905,-1.568616 -11.90353,-1.906567 -4.1131,-0.368411 -9.29848,-0.315015 -12.90482,0.132956 z"
       style="fill:none;stroke:#231f20;stroke-width:0.42519685;stroke-linecap:butt;stroke-linejoin:miter;stroke-miterlimit:4;stroke-dasharray:none;stroke-opacity:1"
       id="path12"
       inkscape:connector-curvature="0"
       sodipodi:nodetypes="ccccccccccccsccsccccccccccscccccccccccccccccccsccccccsccscccscccccccccccccccccccsscccccccccccccccccccccccscscccc" /></g><g
     inkscape:groupmode="layer"
     id="layer2"
     inkscape:label="SilkS"><path
       d="m 140.17764,314.63907 c 4.24633,-0.36377 10.48168,-1.25704 10.76704,-1.54012 0.0886,-0.0892 -0.39734,-2.59468 -1.07781,-5.56565 -1.44609,-6.30609 -3.15732,-15.58139 -3.79884,-20.58836 -0.24638,-1.93257 -0.54606,-3.60975 -0.66386,-3.72714 -0.11738,-0.11738 -1.5715,0.3418 -3.23392,1.02047 -5.23505,2.13817 -8.03193,2.75864 -12.46151,2.76492 -4.25775,0.006 -6.78499,-0.60167 -9.90042,-2.381 -0.82112,-0.469 -1.63017,-0.76737 -1.80132,-0.66167 -0.17065,0.10525 -0.31041,1.24627 -0.31041,2.53642 0,3.61471 -0.97814,15.10432 -1.72559,20.26543 -0.37028,2.54761 -0.67198,4.81972 -0.67355,5.04775 -0.004,0.56487 3.59613,1.63375 7.73538,2.29766 5.72915,0.91653 10.80217,1.07378 17.14481,0.53129 l 0,0 z"
       style="fill:none;stroke:#231f20;stroke-width:0.45872417;stroke-linecap:butt;stroke-linejoin:miter;stroke-miterlimit:4;stroke-dasharray:none;stroke-opacity:1"
       id="path4154"
       inkscape:connector-curvature="0" /><path
       d="m 174.12415,284.22259 c 4.53435,-1.12617 10.05115,-4.86542 13.548,-9.18747 1.01915,-1.257 2.02307,-2.2121 2.2327,-2.1216 10.13497,4.38027 13.03737,5.18667 18.56893,5.16469 3.56769,-0.0135 4.45242,-0.13752 6.62284,-0.92327 5.28565,-1.91554 10.0216,-5.79989 14.74055,-12.09257 1.41557,-1.88687 2.6072,-3.46865 2.64573,-3.51571 0.0385,-0.047 1.06259,0.31854 2.27435,0.81084 6.14173,2.50192 12.52263,3.19272 16.92174,1.83536 4.29513,-1.32736 8.05053,-5.0245 11.69026,-11.50935 0.90314,-1.60911 1.58494,-2.9696 1.51642,-3.02336 -0.0704,-0.052 -1.20774,-0.37854 -2.52882,-0.72211 -4.26292,-1.11099 -10.52556,-3.31144 -15.20955,-5.34208 l -4.57113,-1.98275 -6.06778,2.3344 c -49.14082,18.90133 -99.35544,23.15929 -147.165579,12.47964 l -5.5468,-1.23823 -1.171215,0.89419 c -1.820355,1.38778 -3.495983,1.94416 -5.842219,1.94105 -3.90255,-0.006 -6.962654,-2.08307 -8.626629,-5.85544 -0.774556,-1.74933 -0.985293,-1.9554 -2.507065,-2.45311 -8.301623,-2.71785 -21.426547,-8.40892 -28.21672,-12.23684 l -3.088313,-1.74081 -3.196299,1.89494 c -5.362439,3.17924 -13.528325,7.15771 -19.66977,9.58569 -3.2095115,1.2687 -5.8924515,2.3595 -5.9627745,2.42312 -0.301472,0.27816 1.948937,3.57121 3.7069973,5.42808 4.7005472,4.96353 10.6458422,7.94657 17.6210172,8.84163 3.952872,0.50574 8.396992,-0.005 12.837992,-1.47833 1.771272,-0.58684 3.267722,-1.00704 3.324603,-0.93493 0.05895,0.0735 0.865062,1.43086 1.791456,3.01621 1.877008,3.20887 4.162784,5.72285 6.387871,7.02645 4.308613,2.52524 10.919792,2.54629 18.95173,0.0636 3.20749,-0.9918 2.747849,-1.14951 7.921249,2.73175 2.076369,1.55669 4.779676,3.37814 6.006213,4.04517 8.556077,4.65715 17.570365,3.52062 26.706775,-3.36157 1.38112,-1.04063 2.64105,-1.89224 2.80207,-1.89224 0.15904,0 0.83281,0.73423 1.49604,1.63108 4.31035,5.82813 10.08496,8.7592 16.09451,8.16607 3.36497,-0.33239 7.52419,-1.60237 12.26821,-3.74549 l 4.03398,-1.82323 3.048,1.83356 c 8.56478,5.1512 16.40433,6.82169 23.61043,5.03294 l 0,0 z"
       style="fill:none;stroke:#231f20;stroke-width:0.45872417;stroke-linecap:butt;stroke-linejoin:miter;stroke-miterlimit:4;stroke-dasharray:none;stroke-opacity:1"
       id="path4156"
       inkscape:connector-curvature="0" /><path
       d="m 154.86264,257.6726 c 26.26421,-1.57733 50.4776,-6.71018 76.43359,-16.20499 3.11565,-1.1396 5.78331,-2.17715 5.92891,-2.30567 0.1478,-0.1295 -0.5479,-0.67378 -1.54329,-1.21044 -3.6129,-1.94375 -10.13986,-6.13498 -14.26255,-9.15614 l -4.21632,-3.09056 -3.43369,0.37409 c -1.88824,0.20606 -4.23961,0.37671 -5.2234,0.38032 -1.78112,0.007 -1.79099,0.0135 -2.81684,1.74261 -1.33897,2.25913 -4.7122,5.48184 -6.88893,6.58608 -3.01304,1.5249 -5.4984,2.06739 -9.2421,2.01587 -1.88687,-0.025 -3.97352,-0.17606 -4.63339,-0.33551 -1.07291,-0.25625 -1.33764,-0.16574 -2.47371,0.84175 -2.33799,2.07143 -6.09154,2.63584 -9.44642,1.42228 -0.96983,-0.34987 -1.28342,-0.32299 -2.07591,0.1846 -2.28601,1.46305 -5.15166,2.73486 -7.54427,3.34633 -5.43483,1.39095 -9.49348,0.61507 -18.21773,-3.47538 l -3.72846,-1.74929 -3.56768,1.71076 c -5.30065,2.54046 -8.72402,3.52424 -13.00597,3.74058 -5.61044,0.28133 -9.55528,-1.04063 -16.88165,-5.65608 l -3.28318,-2.06784 -3.79525,1.15127 c -4.888482,1.48145 -8.816537,1.98095 -12.017285,1.52667 -4.742244,-0.67194 -9.441277,-3.08156 -13.374469,-6.85889 l -1.818108,-1.74617 -2.986156,0.56487 c -2.240776,0.42377 -4.100995,0.51739 -7.446882,0.37854 -4.843027,-0.20294 -7.777485,-0.83772 -12.295734,-2.66142 l -2.68427,-1.08407 -1.26195,0.92328 c -0.693866,0.50979 -2.912715,2.10009 -4.930139,3.53585 -2.017881,1.43664 -3.602819,2.71692 -3.524424,2.8473 0.249959,0.40364 11.109062,5.66056 15.450794,7.48069 4.603159,1.93077 13.569106,5.2807 13.706403,5.12125 0.0466,-0.0555 0.40519,-0.73378 0.79584,-1.50655 1.397457,-2.7734 4.201087,-4.59798 7.463901,-4.86142 5.773226,-0.46231 10.331339,3.9247 10.06482,9.68564 -0.0484,1.03929 -0.01321,1.96435 0.07546,2.05485 0.338448,0.33689 9.982664,2.34784 16.607049,3.46058 7.73358,1.29868 17.56385,2.43788 24.70903,2.8639 7.07687,0.42018 20.6325,0.43588 27.38436,0.0305 l 0,0 z"
       style="fill:none;stroke:#231f20;stroke-width:0.45872417;stroke-linecap:butt;stroke-linejoin:miter;stroke-miterlimit:4;stroke-dasharray:none;stroke-opacity:1"
       id="path4158"
       inkscape:connector-curvature="0" /><path
       d="m 79.048628,253.43211 c 1.553562,-0.64822 2.692757,-2.35592 2.860558,-4.28624 0.475742,-5.45986 -7.110683,-7.64285 -9.59894,-2.76353 -2.26073,4.4327 2.094259,8.99081 6.738382,7.04977 l 0,0 z"
       style="fill:none;stroke:#231f20;stroke-width:0.45872417;stroke-linecap:butt;stroke-linejoin:miter;stroke-miterlimit:4;stroke-dasharray:none;stroke-opacity:1"
       id="path4160"
       inkscape:connector-curvature="0" /><path
       d="m 163.51432,237.97164 c 0.94392,-0.29162 2.51853,-0.9936 3.50093,-1.55802 l 1.78293,-1.03126 -0.71048,-1.60865 c -1.43442,-3.24066 -0.73872,-7.31945 1.72468,-10.12689 2.39624,-2.72771 7.34454,-3.65947 10.76166,-2.0244 3.42879,1.64274 5.73094,5.60594 5.32909,9.17542 -0.15275,1.36047 -0.0923,1.51635 0.65671,1.70406 0.45428,0.11387 2.33931,0.14785 4.18944,0.0721 2.94767,-0.11737 3.64475,-0.27326 5.62699,-1.24846 2.68156,-1.32021 5.304,-4.01026 6.80383,-6.98124 l 1.0142,-2.00916 2.75327,0 c 6.55873,0 12.91683,-1.30406 17.41807,-3.56942 2.24389,-1.13113 7.81711,-5.20679 9.12251,-6.67302 0.51653,-0.57831 0.55143,-0.76111 0.1711,-0.89506 -0.26115,-0.0936 -1.78828,-0.57652 -3.39157,-1.07199 -1.60554,-0.49635 -4.40894,-1.5088 -6.23085,-2.25106 l -3.31099,-1.35066 -5.954,1.54507 c -15.41566,4.00173 -28.82885,6.38137 -44.7368,7.93809 -10.87277,1.06438 -37.98989,1.01915 -45.15254,-0.0735 -1.21488,-0.18634 -1.22988,-0.17244 -2.3272,2.05623 -1.29062,2.62065 -3.0469,4.09713 -5.84873,4.91156 -5.57167,1.6221 -11.7071,-2.73308 -11.7071,-8.31213 0,-0.62492 -0.13239,-1.21805 -0.29321,-1.31837 -0.16083,-0.099 -2.51537,-0.65226 -5.233444,-1.227 -12.596749,-2.66904 -24.970878,-6.61076 -35.149738,-11.1953 l -4.168838,-1.87879 -3.403918,2.14353 c -4.539534,2.85853 -12.148987,6.7075 -16.886554,8.54107 -2.116415,0.81933 -3.84787,1.59521 -3.84787,1.72604 0,0.40046 4.362147,4.34174 7.010132,6.33654 9.791558,7.36826 20.724102,9.83436 30.152122,6.79981 l 1.6387,-0.52773 3.242859,3.09864 c 2.5239,2.41321 3.901402,3.4252 6.227501,4.57825 l 2.987304,1.47925 4.48623,-0.0296 c 4.27141,-0.0286 4.699262,-0.0973 8.908604,-1.44338 5.07421,-1.62164 4.20471,-1.76769 9.54205,1.59389 6.2508,3.93814 9.58348,5.1983 13.74448,5.1983 3.88121,0 10.06505,-2.04458 15.09376,-4.99225 l 2.08803,-1.22295 5.52661,2.5539 c 5.1835,2.3944 7.784,3.39965 9.81555,3.78851 1.42769,0.27505 5.21304,-0.0582 7.03449,-0.62001 l 0,0 z"
       style="fill:none;stroke:#231f20;stroke-width:0.45872417;stroke-linecap:butt;stroke-linejoin:miter;stroke-miterlimit:4;stroke-dasharray:none;stroke-opacity:1"
       id="path4162"
       inkscape:connector-curvature="0" /><path
       d="m 179.45278,234.40221 c 1.63064,-1.19296 2.25239,-2.39307 2.25239,-4.34536 0,-2.98794 -2.03784,-5.11225 -4.89005,-5.10284 -3.199,0.01 -5.235,2.0181 -5.235,5.16156 0,4.03398 4.7122,6.59774 7.87266,4.28664 l 0,0 z"
       style="fill:none;stroke:#231f20;stroke-width:0.45872417;stroke-linecap:butt;stroke-linejoin:miter;stroke-miterlimit:4;stroke-dasharray:none;stroke-opacity:1"
       id="path4164"
       inkscape:connector-curvature="0" /><path
       d="m 117.01162,218.25277 c 3.19901,-2.29091 3.16047,-6.33253 -0.0854,-8.73726 -0.65225,-0.4829 -1.46979,-0.69704 -2.66165,-0.69704 -1.94196,0 -3.11139,0.68048 -4.40536,2.5651 -0.6585,0.96043 -0.7779,1.49489 -0.65671,2.98349 0.11872,1.48953 0.35166,2.02528 1.30851,3.01309 1.86178,1.91999 4.53486,2.28017 6.50054,0.87262 l 0,0 z"
       style="fill:none;stroke:#231f20;stroke-width:0.45872417;stroke-linecap:butt;stroke-linejoin:miter;stroke-miterlimit:4;stroke-dasharray:none;stroke-opacity:1"
       id="path4166"
       inkscape:connector-curvature="0" /><path
       d="m 162.86073,212.36419 c 16.56201,-1.09622 35.57039,-4.18944 50.72444,-8.25658 l 1.33717,-0.35886 -2.70977,-1.53834 c -3.97843,-2.25687 -10.82213,-6.91576 -14.5488,-9.90376 l -3.26125,-2.61435 -3.25948,0.21321 c -1.79277,0.11738 -4.21315,0.0766 -5.3761,-0.0909 l -2.11486,-0.30464 -2.1749,1.69246 c -8.24001,6.41003 -17.09468,7.03853 -27.52304,1.95045 l -2.69766,-1.31571 -4.33861,1.70994 c -5.993,2.36216 -10.10854,3.39157 -13.56374,3.39157 -4.36751,0 -9.30596,-1.61044 -14.36514,-4.68397 l -2.09787,-1.27362 -2.08487,0.74768 c -7.22086,2.58931 -15.182464,2.31601 -22.653524,-0.77768 l -3.064553,-1.26863 -1.39099,0.62491 c -0.946531,0.42377 -2.159902,0.61685 -3.799245,0.5985 -2.823583,-0.0305 -4.67683,-0.83098 -6.62416,-2.86211 l -1.251857,-1.30587 -3.132031,2.64799 c -1.721088,1.45636 -4.313522,3.53898 -5.759787,4.62665 -1.446082,1.08948 -2.629407,2.0849 -2.629407,2.21523 0,0.72932 14.084942,5.96791 22.621752,8.41428 6.30232,1.80669 16.967422,4.30862 18.359692,4.30683 0.39578,0 1.3119,-0.63166 2.0432,-1.40934 3.5791,-3.80196 9.7255,-3.85751 13.34223,-0.11687 0.70578,0.72841 1.55176,1.97558 1.88012,2.77161 l 0.59694,1.4443 2.7528,0.24637 c 6.77894,0.60474 10.29776,0.74227 20.46157,0.78933 5.96388,0.0286 13.29897,-0.11238 16.30173,-0.31 l 0,0 z"
       style="fill:none;stroke:#231f20;stroke-width:0.45872417;stroke-linecap:butt;stroke-linejoin:miter;stroke-miterlimit:4;stroke-dasharray:none;stroke-opacity:1"
       id="path4168"
       inkscape:connector-curvature="0" /><path
       d="m 139.49048,191.79192 c 1.32241,-0.41391 4.59302,-1.60687 7.27101,-2.65111 l 4.86811,-1.89851 3.36833,1.72291 c 10.01307,5.12615 17.36835,4.5344 25.09321,-2.01586 l 2.42978,-2.06114 1.48011,0.42199 c 2.4195,0.689 8.5648,0.51294 12.10739,-0.34671 3.89287,-0.94525 9.1682,-3.0534 12.70895,-5.08092 3.28946,-1.88352 8.67232,-5.58038 9.55885,-6.56572 0.63166,-0.70216 0.6218,-0.71048 -1.3726,-1.28388 -5.93694,-1.71012 -14.39467,-5.77305 -20.98572,-10.08321 l -4.2181,-2.75859 -1.96347,0.99067 c -11.05553,5.58065 -25.96136,9.76 -41.2516,11.56287 -7.17738,0.848 -23.44553,1.02943 -31.2293,0.34895 -14.06544,-1.23011 -29.428654,-4.28352 -42.080725,-8.36611 l -4.157877,-1.34054 -2.705967,1.6743 c -3.418963,2.1133 -10.42524,5.66593 -14.125493,7.16083 -1.560075,0.63005 -2.781473,1.30538 -2.716518,1.50318 0.21482,0.64685 6.86788,5.01707 9.672886,6.35627 3.77686,1.80132 8.112307,3.11657 11.01516,3.34323 l 2.434311,0.18904 0.195968,-1.8882 c 0.24528,-2.37651 1.191857,-4.24995 2.945008,-5.83351 1.734299,-1.56676 2.347154,-1.88865 4.479029,-2.34628 5.571893,-1.19452 11.045023,3.31277 11.0047,9.06453 -0.0083,1.16296 -0.237665,2.73129 -0.510926,3.48704 -0.271474,0.75616 -0.496156,1.39406 -0.499275,1.41915 -0.0019,0.0255 0.805886,0.37092 1.796134,0.76602 3.782456,1.51329 6.085075,1.92586 10.724915,1.91734 4.59664,-0.009 5.69621,-0.25625 11.32677,-2.56239 0.96874,-0.39689 1.21851,-0.30644 4.19284,1.50654 3.52078,2.14669 6.2774,3.45071 8.8481,4.18449 2.37448,0.67688 7.23118,0.4256 10.29601,-0.53667 l 0,0 z"
       style="fill:none;stroke:#231f20;stroke-width:0.45872417;stroke-linecap:butt;stroke-linejoin:miter;stroke-miterlimit:4;stroke-dasharray:none;stroke-opacity:1"
       id="path4170"
       inkscape:connector-curvature="0" /><path
       d="m 87.030153,185.92214 c 2.155453,-1.32554 2.850695,-4.7073 1.409338,-6.84724 -2.7884,-4.13573 -8.874798,-2.74675 -9.427606,2.1516 -0.486248,4.30861 4.190811,7.04659 8.018268,4.69564 l 0,0 z"
       style="fill:none;stroke:#231f20;stroke-width:0.45872417;stroke-linecap:butt;stroke-linejoin:miter;stroke-miterlimit:4;stroke-dasharray:none;stroke-opacity:1"
       id="path4172"
       inkscape:connector-curvature="0" /><path
       d="m 147.8998,167.62244 c 13.28865,-1.58738 24.54804,-4.43404 35.00507,-8.85508 1.7932,-0.75772 3.70827,-1.60686 4.25663,-1.88844 l 0.99539,-0.50931 -1.67902,-1.42279 c -0.92373,-0.7824 -3.38355,-2.99312 -5.4684,-4.91178 -2.78818,-2.56578 -4.10568,-3.54594 -4.9801,-3.70699 -1.11635,-0.20271 -1.26195,-0.11738 -2.39307,1.42951 -1.78113,2.43514 -4.2804,3.68008 -7.375,3.67829 -2.06288,0 -2.70303,-0.16084 -4.52316,-1.13608 l -2.11981,-1.1347 -1.85508,0.69368 c -7.19082,2.68987 -15.51777,1.00727 -23.53806,-4.7588 l -2.8623,-2.05798 -1.65705,1.2169 c -3.95672,2.90557 -8.78296,4.39889 -14.23947,4.40537 -5.468,0.006 -10.48011,-1.52802 -13.94228,-4.27009 l -1.34727,-1.06726 -1.793244,0.71561 c -2.026185,0.80772 -5.531984,1.7509 -6.584068,1.7715 -0.385466,0.007 -1.858428,1.10405 -3.274923,2.43967 -3.50401,3.30268 -9.048564,8.07359 -11.254202,9.68564 -1.000522,0.73084 -1.754481,1.39274 -1.677416,1.46999 0.253124,0.25134 9.558619,2.8807 13.918975,3.93145 10.389824,2.5017 19.149248,3.86085 31.616778,4.90349 3.92851,0.32835 22.40202,-0.1005 26.77108,-0.6218 l 0,0 z"
       style="fill:none;stroke:#231f20;stroke-width:0.45872417;stroke-linecap:butt;stroke-linejoin:miter;stroke-miterlimit:4;stroke-dasharray:none;stroke-opacity:1"
       id="path4174"
       inkscape:connector-curvature="0" /><path
       d="m 168.99397,146.52741 c 2.2161,-1.26016 3.03185,-4.60807 1.69287,-6.94629 -0.88654,-1.55131 -3.48209,-2.86051 -5.07776,-2.56192 -1.86178,0.3501 -3.38175,1.59389 -4.11731,3.37167 -0.57792,1.3925 -0.61149,1.79503 -0.25313,2.98973 1.05721,3.52892 4.57334,4.95527 7.75533,3.14681 l 0,0 z"
       style="fill:none;stroke:#231f20;stroke-width:0.45872417;stroke-linecap:butt;stroke-linejoin:miter;stroke-miterlimit:4;stroke-dasharray:none;stroke-opacity:1"
       id="path4176"
       inkscape:connector-curvature="0" /><path
       d="m 156.20478,146.05144 c 1.22296,-0.52414 1.25832,-0.58639 0.94341,-1.6826 -1.68076,-5.86305 3.8526,-12.22652 10.00101,-11.4988 4.12403,0.489 7.60167,3.76365 8.34393,7.85565 0.20564,1.12801 0.37675,1.30383 1.50429,1.54375 0.70245,0.14917 2.89615,0.26293 4.87843,0.25307 3.1358,-0.0168 4.02192,-0.16261 6.81903,-1.12259 2.87914,-0.98891 10.40644,-4.50278 11.14379,-5.20321 0.1595,-0.14964 -0.53625,-0.53845 -1.54329,-0.86346 -7.70019,-2.48335 -16.89526,-8.10584 -25.13661,-15.37019 l -1.33902,-1.1797 -2.95125,1.19809 c -10.0928,4.09604 -21.19356,7.0988 -32.8102,8.87475 -5.4057,0.8263 -19.52577,1.01604 -25.3512,0.33845 -5.9202,-0.68671 -11.750348,-1.9771 -16.003363,-3.54075 -4.717199,-1.73279 -4.311961,-1.75425 -7.313164,0.39914 -5.394275,3.86937 -12.054078,7.62316 -16.476225,9.28356 l -1.652553,0.6218 1.652553,1.03214 c 2.516928,1.57368 6.23218,3.20927 9.238292,4.06713 2.177151,0.62198 3.587818,0.77589 7.172748,0.78103 5.087389,0.01 7.906019,-0.65493 11.812378,-2.78166 2.056404,-1.12154 2.223474,-1.15938 2.540634,-0.57502 0.62134,1.14998 2.99428,3.19763 4.71715,4.07054 3.70832,1.87856 9.46793,2.5306 13.70438,1.54999 3.12194,-0.72195 6.52719,-2.54543 9.02421,-4.83455 l 2.31086,-2.11664 2.1467,2.00779 c 3.52287,3.2946 8.14772,6.02277 12.18798,7.18591 2.18701,0.6301 8.71085,0.44713 10.4351,-0.29362 l 0,0 z"
       style="fill:none;stroke:#231f20;stroke-width:0.45872417;stroke-linecap:butt;stroke-linejoin:miter;stroke-miterlimit:4;stroke-dasharray:none;stroke-opacity:1"
       id="path4178"
       inkscape:connector-curvature="0" /><path
       d="m 131.13174,125.19985 c 5.29726,-0.52455 11.52591,-1.59879 17.11165,-2.9528 4.91964,-1.19315 15.40488,-4.5299 18.67824,-5.94369 l 1.69064,-0.73107 -1.70765,-1.78765 c -2.01413,-2.10972 -4.12898,-4.49812 -5.16964,-5.83686 -0.54965,-0.70872 -1.40123,-1.13942 -3.25764,-1.65392 -1.38112,-0.38391 -3.25991,-1.07223 -4.17109,-1.53026 -0.91161,-0.4574 -1.79636,-0.83259 -1.96751,-0.83259 -0.16931,0 -1.15979,0.54427 -2.20219,1.21131 -5.34207,3.41694 -12.96882,5.13134 -19.16385,4.30705 -2.8912,-0.38367 -2.98977,-0.37381 -4.25663,0.45579 -1.73274,1.13451 -4.21632,1.7126 -6.30412,1.46466 -2.13526,-0.25331 -4.92701,-1.74462 -6.06978,-3.24286 -0.49254,-0.64868 -1.0709,-1.06281 -1.33563,-0.9618 -0.25647,0.0985 -1.77466,0.34179 -3.37304,0.54139 l -2.90776,0.35991 -1.60553,1.79348 c -0.88162,0.98533 -3.74035,3.89782 -6.351352,6.47162 l -4.747427,4.67684 0.941897,0.38414 c 3.487452,1.41786 10.190462,2.95931 15.869412,3.64832 4.47303,0.54271 15.55116,0.63005 20.299,0.15899 l 0,0 z"
       style="fill:none;stroke:#231f20;stroke-width:0.45872417;stroke-linecap:butt;stroke-linejoin:miter;stroke-miterlimit:4;stroke-dasharray:none;stroke-opacity:1"
       id="path4180"
       inkscape:connector-curvature="0" /><path
       d="m 123.75812,106.79803 c 4.86831,-2.30885 3.1257,-9.729301 -2.28559,-9.729301 -3.91664,0 -6.21539,3.755391 -4.48624,7.326381 1.24205,2.56376 4.21165,3.61781 6.77183,2.40292 l 0,0 z"
       style="fill:none;stroke:#231f20;stroke-width:0.45872417;stroke-linecap:butt;stroke-linejoin:miter;stroke-miterlimit:4;stroke-dasharray:none;stroke-opacity:1"
       id="path4182"
       inkscape:connector-curvature="0" /><path
       d="m 140.93339,104.59937 c 3.01483,-0.77092 7.18055,-2.8706 9.49835,-4.787702 l 1.67544,-1.385809 1.07107,0.81621 c 3.29979,2.515141 7.57432,3.762551 12.91015,3.765211 3.85255,0.004 6.23085,-0.35322 10.23392,-1.53655 l 2.51045,-0.74226 -3.76878,-1.795021 c -6.10319,-2.904 -9.9607,-5.67897 -16.06071,-11.55435 -2.5306,-2.43808 -3.71865,-3.35488 -4.34848,-3.35488 -1.59883,0 -10.95475,-1.7043 -15.31217,-2.78996 -7.45651,-1.85889 -13.2768,-4.21141 -16.29324,-6.59104 l -1.34076,-1.05764 -0.54588,0.82804 c -3.56313,5.38759 -12.69083,14.93923 -18.13056,18.97348 -3.423634,2.53886 -9.404528,6.11796 -11.023045,6.597509 -1.184884,0.350102 -0.621984,0.686942 3.379742,2.023942 4.861193,1.62365 9.035853,2.11173 13.440053,1.57195 l 3.37841,-0.41349 0,-1.27384 c 0,-1.959442 0.94319,-4.289991 2.41437,-5.960941 3.47913,-3.95158 9.90398,-4.09401 13.45506,-0.29656 2.06605,2.20876 2.77812,4.182979 2.60587,7.230961 l -0.13551,2.40473 1.21131,0.14785 c 2.07655,0.25422 6.53187,-0.14428 9.17494,-0.81984 l 0,0 z"
       style="fill:none;stroke:#231f20;stroke-width:0.45872417;stroke-linecap:butt;stroke-linejoin:miter;stroke-miterlimit:4;stroke-dasharray:none;stroke-opacity:1"
       id="path4184"
       inkscape:connector-curvature="0" /><path
       d="m 148.80249,75.127499 c -3.13671,-4.46743 -6.69765,-10.51864 -9.35729,-15.89792 l -1.65388,-3.34681 -2.83882,0 c -1.56208,0 -2.84037,0.1306 -2.84037,0.29144 0,0.46945 -3.69176,7.1476 -5.89199,10.65817 l -2.02279,3.22608 0.73579,0.78419 c 1.69063,1.79792 8.02185,4.43581 14.85253,6.18873 3.54437,0.90828 11.62801,2.51198 11.82737,2.34559 0.0605,-0.0498 -1.20461,-1.96191 -2.81055,-4.24947 l 0,0 z"
       style="fill:none;stroke:#231f20;stroke-width:0.45872417;stroke-linecap:butt;stroke-linejoin:miter;stroke-miterlimit:4;stroke-dasharray:none;stroke-opacity:1"
       id="path4186"
       inkscape:connector-curvature="0" /><path
       d="m 139.66337,51.567694 c 0,-0.109125 -0.62538,-3.922688 -1.38962,-8.474513 -0.76243,-4.552975 -1.34253,-8.537912 -1.28703,-8.854612 0.0842,-0.476213 0.75262,-0.228038 3.79076,1.407725 2.0293,1.0908 3.69176,1.806462 3.69355,1.586962 0.004,-0.219962 -0.32835,-2.483587 -0.73735,-5.030512 l -0.74098,-4.63385 3.48254,-3.409963 c 1.91509,-1.876787 3.48388,-3.504062 3.48388,-3.620075 0,-0.114 -2.04812,-0.492525 -4.54825,-0.839512 -2.50014,-0.348263 -4.79105,-0.757488 -5.08895,-0.909825 -0.29703,-0.1512 -1.44788,-2.215463 -2.55748,-4.586563 -1.11099,-2.369762 -2.10349,-4.3052626 -2.20541,-4.2985126 -0.10213,0.005 -1.1058,1.9473256 -2.22688,4.3137506 -1.12258,2.36775 -2.28283,4.427325 -2.57427,4.5765 -0.29316,0.148725 -2.58073,0.556387 -5.08088,0.90465 -2.50013,0.346987 -4.54828,0.734012 -4.54828,0.859887 0,0.12545 1.5453,1.7126 3.43217,3.527588 2.21701,2.129437 3.4319,3.554187 3.4319,4.0219 0,0.396662 -0.31826,2.570462 -0.70869,4.829137 -0.38886,2.257563 -0.65855,4.224838 -0.59982,4.369063 0.06,0.145837 1.76792,-0.618175 3.79722,-1.6976 3.16024,-1.6792 3.68993,-1.866913 3.68993,-1.310525 0,0.630062 -2.20356,14.617562 -2.60248,16.52145 l -0.19798,0.943462 4.14641,0 c 2.27885,0 4.14599,-0.08875 4.14599,-0.196012 l 0,0 z"
       style="fill:none;stroke:#231f20;stroke-width:0.45872417;stroke-linecap:butt;stroke-linejoin:miter;stroke-miterlimit:4;stroke-dasharray:none;stroke-opacity:1"
       id="path4188"
       inkscape:connector-curvature="0" /></g></svg>