<?xml version="1.0" encoding="UTF-8" standalone="no"?>
<!-- Created with Inkscape (http://www.inkscape.org/) -->

<svg
   xmlns:dc="http://purl.org/dc/elements/1.1/"
   xmlns:cc="http://creativecommons.org/ns#"
   xmlns:rdf="http://www.w3.org/1999/02/22-rdf-syntax-ns#"
   xmlns:svg="http://www.w3.org/2000/svg"
   xmlns="http://www.w3.org/2000/svg"
   xmlns:sodipodi="http://sodipodi.sourceforge.net/DTD/sodipodi-0.dtd"
   xmlns:inkscape="http://www.inkscape.org/namespaces/inkscape"
   id="svg2"
   version="1.1"
   inkscape:version="0.91 r13725"
   xml:space="preserve"
   width="76.770737mm"
   height="90mm"
   viewBox="0 0 272.02229 318.89764"
   sodipodi:docname="christmas-917749.ai.svg"><metadata
     id="metadata8"><rdf:RDF><cc:Work
         rdf:about=""><dc:format>image/svg+xml</dc:format><dc:type
           rdf:resource="http://purl.org/dc/dcmitype/StillImage" /><dc:title></dc:title></cc:Work></rdf:RDF></metadata><defs
     id="defs6" /><sodipodi:namedview
     pagecolor="#ffffff"
     bordercolor="#666666"
     borderopacity="1"
     objecttolerance="10"
     gridtolerance="10"
     guidetolerance="10"
     inkscape:pageopacity="0"
     inkscape:pageshadow="2"
     inkscape:window-width="1920"
     inkscape:window-height="1136"
     id="namedview4"
     showgrid="false"
     inkscape:zoom="2.6970053"
     inkscape:cx="92.072181"
     inkscape:cy="38.734032"
     inkscape:window-x="1680"
     inkscape:window-y="27"
     inkscape:window-maximized="1"
     inkscape:current-layer="g10"
     fit-margin-top="0"
     fit-margin-left="0"
     fit-margin-right="0"
     fit-margin-bottom="0"
     units="mm" /><g
     id="g10"
     inkscape:groupmode="layer"
     inkscape:label="Edge.Cuts"
     transform="matrix(1.25,0,0,-1.25,-10.625,430.46765)"><path
       d="m 108.62301,89.816453 c -4.45502,0.552267 -7.81857,1.439623 -10.456971,2.760235 l -1.259876,0.630397 0.481146,1.895081 c 0.921008,3.629316 2.051341,15.046154 2.230721,22.541634 0.100515,4.15468 -0.09263,4.4457 -2.052626,3.09639 -1.970715,-1.35504 -5.426743,-2.9867 -7.644179,-3.60708 -6.958992,-1.95064 -13.146227,-0.34584 -20.717854,5.37316 l -2.618324,1.97718 -1.699775,-0.51891 c -4.45645,-1.3579 -9.660804,-1.72524 -13.069895,-0.92068 -3.585021,0.84435 -7.008608,3.37269 -9.192575,6.78483 -0.55513,0.86724 -1.058993,1.57793 -1.120829,1.57793 -0.06022,0 -1.138039,-0.24943 -2.393072,-0.55369 -10.987691,-2.6624 -22.503649,1.90763 -28.371722,11.26131 -0.7735554,1.23316 -2.0536893,4.22562 -2.0536893,4.80082 0,0.16595 1.0803137,0.6501 2.4023933,1.07514 10.198172,3.27775 21.59354,9.23147 31.172288,16.2872 l 1.862126,1.37118 -2.27373,1.65857 c -3.206959,2.33806 -5.476396,4.46683 -7.955304,7.45786 -1.178334,1.42238 -2.11281,2.6115 -2.075525,2.64232 0.0378,0.0312 1.748326,0.62214 3.803447,1.31526 8.741043,2.94945 17.095731,7.53416 25.38484,13.93013 3.891816,3.00431 3.826237,2.80361 1.148976,3.52862 -5.353274,1.4507 -11.6593,5.09183 -16.197293,9.34828 -1.322043,1.24017 -2.402357,2.35274 -2.402357,2.47208 0,0.12078 1.698344,0.79778 3.775153,1.50557 9.36278,3.19225 19.048686,9.06678 27.112726,16.4431 l 1.9211,1.75768 -1.647811,0.32162 c -4.240336,0.82552 -8.907138,2.71598 -12.159419,4.92556 -2.670288,1.81233 -5.370669,4.13964 -4.961414,4.27491 0.204811,0.0685 1.732069,0.56984 3.392761,1.11422 8.659317,2.83657 17.306268,8.50897 25.524439,16.74182 l 3.283107,3.28989 -0.812455,0.193 c -5.405239,1.28567 -6.965965,1.86069 -12.268009,4.52309 l -3.645059,1.83005 3.432028,1.16241 c 4.244262,1.43584 5.975047,2.21458 8.774145,3.95219 8.731539,5.41456 16.666407,14.28584 23.605687,26.38596 1.50429,2.62225 1.42957,2.52143 1.54065,3.51533 0.29928,2.30874 1.03086,9.64524 1.37133,11.26795 0.14067,0.59939 -0.0939,0.51858 -3.01899,-1.03088 -1.85299,-0.9816 -2.90383,-2.07535 -3.17753,-1.33548 -0.25394,0.86255 0.45979,3.10498 1.0296,6.47785 l 1.03624,6.13347 -4.61715,4.5326 c -2.53895,2.49359 -4.563572,4.58739 -4.497663,4.6519 0.06433,0.0656 2.698803,0.48955 5.851963,0.94255 3.15444,0.45282 6.00463,0.88215 6.33292,0.95312 0.46948,0.10052 1.21346,1.38619 3.41607,5.89475 1.54854,3.17041 2.88636,5.7647 2.9747,5.7647 0.0887,0 1.45056,-2.58999 3.02849,-5.75644 2.43733,-4.89473 2.97239,-5.77937 3.56334,-5.90444 0.64507,-0.1353 11.99743,-1.79225 12.28415,-1.79225 0.0695,0 -2.00943,-2.08078 -4.62236,-4.6238 l -4.74996,-4.62254 1.11169,-6.49634 c 0.60996,-3.57284 1.08982,-6.49686 1.06545,-6.49686 -0.0236,0 -1.37008,0.6933 -2.99103,1.53871 -1.61951,0.84611 -3.6993,1.60164 -3.78892,1.51169 0.0718,-3.24206 0.44595,-10.14692 0.55565,-11.56204 l 1.84851,-3.50047 c 4.05146,-7.67361 8.60145,-14.05648 13.56462,-19.03026 6.62926,-6.64431 12.39701,-9.88173 20.87625,-11.71986 l 2.33266,-0.50514 -3.01789,-1.62345 c -5.10222,-2.74427 -8.64838,-3.94018 -13.51768,-4.55553 l -2.53337,-0.31913 2.11266,-2.3273 c 8.90567,-9.80918 19.29545,-16.18005 30.13602,-18.47639 1.50949,-0.32074 2.92508,-0.64078 3.14618,-0.71315 0.24551,-0.0794 -0.23435,-0.48147 -1.23602,-1.03642 -12.5024,-6.92978 -13.8836,-7.54638 -19.7567,-8.82545 l -0.82427,-0.17953 1.92235,-1.79386 c 2.50434,-2.33788 8.37101,-6.7325 11.6688,-8.74068 5.70932,-3.47625 13.15393,-6.49021 19.01269,-7.69941 1.32204,-0.27234 2.40257,-0.58306 2.40257,-0.69201 0,-0.32702 -5.08002,-4.80853 -7.41125,-6.53682 -4.09017,-3.03224 -9.01287,-5.71361 -12.90593,-7.03136 -0.83,-0.28026 -1.61809,-0.59957 -1.74998,-0.70926 -0.29065,-0.24012 4.67899,-3.94037 8.46346,-6.30243 7.23962,-4.51913 13.95347,-7.36539 21.93167,-9.30135 1.7869,-0.43256 3.30069,-0.83895 3.36341,-0.90204 0.1971,-0.19853 -6.80384,-6.88945 -8.62688,-8.24485 -0.95833,-0.71175 -2.96952,-1.9091 -4.4697,-2.65953 l -2.72691,-1.36469 3.01646,-2.12661 c 10.06576,-7.09305 20.38563,-11.90356 31.64947,-14.75088 l 4.58904,-1.16112 -1.39445,-2.45205 c -4.08624,-7.18978 -4.78974,-8.24342 -6.95899,-10.42305 -1.6611,-1.66899 -2.69752,-2.44952 -4.25502,-3.19889 -2.9613,-1.42777 -4.43637,-1.69585 -8.34019,-1.51882 -3.10105,0.13942 -4.16936,0.35014 -8.68313,1.71057 -0.26125,0.0792 -0.80314,-0.42647 -1.49229,-1.39445 -1.6299,-2.28683 -5.29004,-5.85413 -7.58509,-7.39335 -4.11454,-2.75774 -8.20577,-3.89846 -13.02168,-3.62821 -3.19459,0.17739 -5.82616,0.81421 -9.81992,2.37604 l -2.8638,1.11811 -2.03343,-1.99757 c -3.88661,-3.81923 -7.76892,-5.85303 -12.79231,-6.70167 -2.30438,-0.38885 -3.08637,-0.40643 -5.57027,-0.12077 -3.22828,0.37127 -7.34282,1.62487 -10.41554,3.17198 -1.9288,0.97191 -1.94638,0.97444 -1.94638,0.35014 0,-2.0069 2.09009,-13.07115 3.89449,-20.612131 0.61143,-2.555571 0.99991,-4.725923 0.87015,-4.853155 -0.33006,-0.320373 -8.11905,-1.568616 -11.90353,-1.906567 -4.1131,-0.368411 -9.29848,-0.315015 -12.90482,0.132956 z"
       style="fill:none;stroke:#231f20;stroke-width:0.42519685;stroke-linecap:butt;stroke-linejoin:miter;stroke-miterlimit:4;stroke-dasharray:none;stroke-opacity:1"
       id="path12"
       inkscape:connector-curvature="0"
       sodipodi:nodetypes="ccccccccccccsccsccccccccccscccccccccccccccccccsccccccsccscccscccccccccccccccccccsscccccccccccccccccccccccscscccc" /></g></svg>