M48
;DRILL file {KiCad 4.0.4-stable} date Sat Dec  3 20:52:06 2016
;FORMAT={-:-/ absolute / inch / decimal}
FMAT,2
INCH,TZ
T1C0.012
T2C0.016
T3C0.020
T4C0.031
%
G90
G05
M72
T1
X4.8996Y-5.0453
X5.0098Y-5.0138
X5.0256Y-5.1476
X5.1358Y-5.0846
X5.2067Y-4.9902
X5.2146Y-4.5807
X5.2697Y-5.1791
X5.3051Y-4.7638
X5.3248Y-4.6358
X5.3406Y-4.5335
X5.3563Y-4.7067
X5.4055Y-4.1083
X5.4232Y-4.8819
X5.4429Y-4.7835
X5.4508Y-4.6516
X5.4626Y-5.2756
X5.5157Y-4.4941
X5.5472Y-4.4311
X5.5531Y-4.6122
X5.5551Y-4.1555
X5.563Y-4.3602
X5.5709Y-4.0374
X5.5945Y-4.4862
X5.6102Y-3.6673
X5.6102Y-4.4311
X5.626Y-4.2579
X5.6299Y-4.8898
X5.6654Y-4.4862
X5.6693Y-4.7835
X5.6732Y-4.4075
X5.6791Y-4.3366
X5.6969Y-3.628
X5.7185Y-5.2854
X5.7205Y-3.9114
X5.7362Y-3.7146
X5.7362Y-4.4783
X5.7382Y-4.6358
X5.748Y-4.9213
X5.752Y-4.4075
X5.7677Y-3.9823
X5.7835Y-3.565
X5.7972Y-4.3445
X5.7992Y-3.6516
X5.7992Y-4.0768
X5.8071Y-3.872
X5.8386Y-3.25
X5.8465Y-3.7933
X5.8524Y-5.3799
X5.8701Y-4.1319
X5.878Y-4.4154
X5.8858Y-4.0059
X5.8976Y-4.9055
X5.9016Y-3.7146
X5.9016Y-3.8406
X5.9094Y-4.2579
X5.9213Y-4.8031
X5.9488Y-3.187
X5.9646Y-3.2894
X5.9783Y-4.3839
X5.9783Y-4.4626
X5.9803Y-3.3996
X5.9882Y-3.4862
X6.0118Y-3.8957
X6.0197Y-3.5728
X6.0197Y-4.187
X6.0433Y-3.3287
X6.0827Y-3.4311
X6.0827Y-3.7776
X6.0827Y-3.9429
X6.0906Y-3.0531
X6.0906Y-4.0453
X6.0945Y-4.9449
X6.1063Y-3.5098
X6.1063Y-4.2657
X6.1122Y-5.4606
X6.1142Y-3.3287
X6.1299Y-4.3917
X6.1339Y-4.8976
X6.1358Y-5.374
X6.1535Y-3.124
X6.1614Y-2.9587
X6.1772Y-3.0531
X6.1772Y-4.187
X6.185Y-3.8406
X6.185Y-3.9587
X6.185Y-4.0453
X6.1969Y-4.811
X6.2008Y-3.1713
X6.2087Y-3.3287
X6.2087Y-3.4154
X6.2244Y-3.565
X6.2303Y-5.1083
X6.2303Y-5.2165
X6.2402Y-2.3524
X6.2402Y-3.7146
X6.248Y-2.4075
X6.248Y-2.4941
X6.2638Y-2.8248
X6.2638Y-2.9429
X6.2638Y-3.124
X6.2697Y-5.
X6.2717Y-3.4941
X6.2795Y-4.0768
X6.2874Y-4.2657
X6.2953Y-3.0531
X6.2992Y-5.6693
X6.3031Y-3.9744
X6.3268Y-3.1713
X6.3268Y-3.3524
X6.3268Y-4.4232
X6.3346Y-3.4311
X6.3819Y-3.1161
X6.3976Y-2.8327
X6.4055Y-3.4941
X6.4055Y-3.5886
X6.4213Y-2.3917
X6.4213Y-3.313
X6.4213Y-4.2106
X6.4291Y-3.4075
X6.4291Y-3.8169
X6.437Y-2.4783
X6.437Y-5.2165
X6.4469Y-4.5571
X6.4469Y-4.685
X6.4488Y-4.7874
X6.4606Y-2.9665
X6.4606Y-3.1713
X6.4685Y-4.0768
X6.4764Y-4.2343
X6.4764Y-4.8622
X6.4961Y-5.374
X6.5079Y-3.3602
X6.5079Y-3.4547
X6.5079Y-3.5492
X6.5079Y-3.6516
X6.5315Y-4.3051
X6.5472Y-3.935
X6.565Y-5.3543
X6.5787Y-3.0846
X6.5846Y-4.4193
X6.5945Y-4.0453
X6.624Y-4.5472
X6.6417Y-4.9646
X6.6417Y-5.0512
X6.6929Y-4.498
X6.6969Y-3.1634
X6.7205Y-3.9508
X6.7598Y-3.6909
X6.7598Y-3.7776
X6.7677Y-3.502
X6.7677Y-3.5807
X6.7756Y-3.2579
X6.7992Y-4.0059
X6.8996Y-4.8327
X6.9094Y-3.8799
X6.939Y-4.4291
X6.939Y-4.7539
X6.9646Y-3.628
X6.9646Y-3.7224
X6.9685Y-5.2264
X6.9783Y-4.8406
X6.9783Y-4.9429
X6.9803Y-3.9665
X6.9803Y-4.0768
X7.0039Y-4.2579
X7.0354Y-3.6673
X7.0669Y-4.3602
X7.0748Y-4.5965
X7.0768Y-5.2165
X7.0787Y-4.4567
X7.0787Y-4.5276
X7.1161Y-4.813
X7.1161Y-4.9213
X7.1201Y-4.7461
X7.1437Y-4.9902
X7.1457Y-4.061
X7.1457Y-4.439
X7.1575Y-4.5276
X7.1614Y-4.5965
X7.1654Y-5.2953
X7.1673Y-4.8563
X7.1772Y-4.1713
X7.1831Y-4.7854
X7.1831Y-4.9114
X7.2146Y-5.187
X7.2224Y-4.7303
X7.2343Y-4.5079
X7.2343Y-4.6161
X7.2539Y-4.813
X7.2717Y-4.1083
X7.313Y-5.2657
X7.3169Y-4.7461
X7.3169Y-4.8642
X7.3248Y-4.9665
X7.3524Y-5.1673
X7.3819Y-4.5276
X7.3819Y-4.8228
X7.3819Y-4.9114
X7.3819Y-4.9902
X7.3917Y-4.5965
X7.4705Y-4.5669
X7.4803Y-5.1575
X7.5Y-4.8917
X7.5Y-5.
X7.6575Y-5.1575
X7.7657Y-5.0295
X7.7815Y-5.1319
T2
X5.3051Y-4.8819
X5.3051Y-4.9508
X5.3543Y-4.8917
X5.374Y-4.9902
X5.4232Y-4.9409
X5.4528Y-5.0197
X5.4528Y-5.1673
X5.502Y-4.9902
X5.502Y-5.1969
X5.5217Y-5.0886
X5.5413Y-4.6949
X5.5413Y-4.8622
X5.5512Y-5.1476
X5.5709Y-5.2067
X5.6496Y-5.315
X5.6693Y-5.0098
X5.6988Y-4.9606
X5.7185Y-4.872
X5.7283Y-4.9803
X5.7283Y-5.1378
X5.7283Y-5.2067
X5.7402Y-4.7638
X5.7579Y-5.
X5.7795Y-4.6614
X5.8366Y-5.0787
X5.8583Y-4.5827
X5.8661Y-4.6457
X5.8661Y-5.187
X5.8976Y-4.9921
X5.9134Y-5.189
X5.9252Y-5.0689
X5.9606Y-4.685
X5.9646Y-5.0984
X5.9744Y-4.8327
X5.9843Y-4.5768
X5.9843Y-4.9213
X5.9941Y-4.6752
X6.0039Y-4.6063
X6.0236Y-4.8327
X6.0335Y-4.6358
X6.0335Y-4.6752
X6.0728Y-5.2854
X6.0728Y-5.3248
X6.0827Y-5.2362
X6.1122Y-4.7638
X6.1319Y-5.3248
X6.1516Y-4.7638
X6.1713Y-4.6457
X6.1909Y-4.7638
X6.2598Y-5.502
X6.2795Y-5.3839
X6.2992Y-5.3248
X6.3386Y-5.0984
X6.3386Y-5.3543
X6.3386Y-5.4823
X6.3681Y-5.4035
X6.4173Y-4.4567
X6.4567Y-4.4587
X6.4665Y-4.3996
X6.4961Y-4.3799
X6.5059Y-4.685
X6.5059Y-4.7933
X6.5059Y-5.2067
X6.5354Y-4.7047
X6.5551Y-5.2756
X6.565Y-5.1722
X6.6142Y-4.2618
X6.6535Y-4.3012
X6.6535Y-4.4291
X6.6732Y-4.2028
X6.6732Y-5.1673
X6.7008Y-4.9055
X6.7126Y-4.2421
X6.7126Y-4.3799
X6.7224Y-5.3248
X6.7323Y-4.6063
X6.7323Y-4.7047
X6.7323Y-4.9311
X6.752Y-4.9606
X6.7717Y-4.4587
X6.7717Y-4.6161
X6.7717Y-4.7244
X6.7815Y-4.2913
X6.7815Y-4.3996
X6.7815Y-4.9902
X6.7815Y-5.0787
X6.7913Y-5.2264
X6.811Y-4.2224
X6.811Y-4.3701
X6.811Y-4.6161
X6.811Y-4.7047
X6.811Y-4.7539
X6.811Y-4.9705
X6.8406Y-4.1929
X6.8406Y-4.3504
X6.8406Y-4.5965
X6.8406Y-4.9902
X6.8602Y-3.9469
X6.8602Y-4.0945
X6.8701Y-4.3209
X6.8701Y-4.6161
X6.8701Y-4.7047
X6.9094Y-5.1969
X6.9193Y-4.0157
X6.9193Y-4.1732
X6.9193Y-4.2618
X6.998Y-4.6457
X6.998Y-4.7146
X7.0374Y-5.0492
X7.0374Y-5.1083
X7.0768Y-5.0394
T4
X5.5807Y-5.0098
X6.0925Y-4.6358
X6.1024Y-5.0197
X6.378Y-5.3642
X6.5945Y-4.7441
X6.6929Y-4.7441
X6.9587Y-5.0689
T3
X6.252Y-4.7697G85X6.252Y-4.7972
G05
X6.3445Y-4.685G85X6.372Y-4.685
G05
X6.3445Y-4.8819G85X6.372Y-4.8819
G05
T0
M30
