G04 #@! TF.FileFunction,Soldermask,Top*
%FSLAX46Y46*%
G04 Gerber Fmt 4.6, Leading zero omitted, Abs format (unit mm)*
G04 Created by KiCad (PCBNEW 4.0.4-stable) date Sat Dec  3 20:50:57 2016*
%MOMM*%
%LPD*%
G01*
G04 APERTURE LIST*
%ADD10C,0.100000*%
%ADD11O,1.900000X1.200000*%
%ADD12O,1.200000X1.900000*%
%ADD13R,1.197560X1.197560*%
%ADD14R,1.850000X0.850000*%
%ADD15R,1.300000X0.900000*%
%ADD16R,0.900000X1.300000*%
%ADD17R,1.950000X1.700000*%
%ADD18R,1.200000X1.150000*%
%ADD19R,1.150000X1.200000*%
%ADD20R,1.460000X1.050000*%
%ADD21R,1.149300X0.798780*%
G04 APERTURE END LIST*
D10*
D11*
X161500000Y-124000000D03*
X161500000Y-119000000D03*
D12*
X158800000Y-121500000D03*
D13*
X184250000Y-128999300D03*
X184250000Y-127500700D03*
X175250000Y-128249300D03*
X175250000Y-126750700D03*
X166250000Y-127749300D03*
X166250000Y-126250700D03*
X157250000Y-126999300D03*
X157250000Y-125500700D03*
X148250000Y-126499300D03*
X148250000Y-125000700D03*
X139250000Y-125749300D03*
X139250000Y-124250700D03*
X130250000Y-124999300D03*
X130250000Y-123500700D03*
X185750000Y-118749300D03*
X185750000Y-117250700D03*
X176250000Y-117999300D03*
X176250000Y-116500700D03*
X166750000Y-117499300D03*
X166750000Y-116000700D03*
X157250000Y-116749300D03*
X157250000Y-115250700D03*
X147750000Y-116249300D03*
X147750000Y-114750700D03*
X138250000Y-115499300D03*
X138250000Y-114000700D03*
X179750000Y-106499300D03*
X179750000Y-105000700D03*
X170750000Y-105749300D03*
X170750000Y-104250700D03*
X161750000Y-105249300D03*
X161750000Y-103750700D03*
X152750000Y-104499300D03*
X152750000Y-103000700D03*
X143750000Y-103999300D03*
X143750000Y-102500700D03*
X175000000Y-94999300D03*
X175000000Y-93500700D03*
X161000000Y-92999300D03*
X161000000Y-91500700D03*
X149250000Y-91499300D03*
X149250000Y-90000700D03*
X167250000Y-83999300D03*
X167250000Y-82500700D03*
X153000000Y-81999300D03*
X153000000Y-80500700D03*
X161000000Y-61249300D03*
X161000000Y-59750700D03*
D14*
X137050000Y-128325000D03*
X137050000Y-128975000D03*
X137050000Y-129625000D03*
X137050000Y-130275000D03*
X137050000Y-130925000D03*
X137050000Y-131575000D03*
X137050000Y-132225000D03*
X137050000Y-132875000D03*
X137050000Y-133525000D03*
X137050000Y-134175000D03*
X142950000Y-134175000D03*
X142950000Y-133525000D03*
X142950000Y-132875000D03*
X142950000Y-132225000D03*
X142950000Y-131575000D03*
X142950000Y-130925000D03*
X142950000Y-130275000D03*
X142950000Y-129625000D03*
X142950000Y-128975000D03*
X142950000Y-128325000D03*
X147050000Y-128325000D03*
X147050000Y-128975000D03*
X147050000Y-129625000D03*
X147050000Y-130275000D03*
X147050000Y-130925000D03*
X147050000Y-131575000D03*
X147050000Y-132225000D03*
X147050000Y-132875000D03*
X147050000Y-133525000D03*
X147050000Y-134175000D03*
X152950000Y-134175000D03*
X152950000Y-133525000D03*
X152950000Y-132875000D03*
X152950000Y-132225000D03*
X152950000Y-131575000D03*
X152950000Y-130925000D03*
X152950000Y-130275000D03*
X152950000Y-129625000D03*
X152950000Y-128975000D03*
X152950000Y-128325000D03*
X168050000Y-130075000D03*
X168050000Y-130725000D03*
X168050000Y-131375000D03*
X168050000Y-132025000D03*
X168050000Y-132675000D03*
X168050000Y-133325000D03*
X168050000Y-133975000D03*
X168050000Y-134625000D03*
X168050000Y-135275000D03*
X168050000Y-135925000D03*
X173950000Y-135925000D03*
X173950000Y-135275000D03*
X173950000Y-134625000D03*
X173950000Y-133975000D03*
X173950000Y-133325000D03*
X173950000Y-132675000D03*
X173950000Y-132025000D03*
X173950000Y-131375000D03*
X173950000Y-130725000D03*
X173950000Y-130075000D03*
D13*
X193250000Y-129499300D03*
X193250000Y-128000700D03*
D15*
X184250000Y-124750000D03*
X184250000Y-126250000D03*
X175250000Y-124000000D03*
X175250000Y-125500000D03*
X166250000Y-123500000D03*
X166250000Y-125000000D03*
X157250000Y-122750000D03*
X157250000Y-124250000D03*
D16*
X149750000Y-123800000D03*
X148250000Y-123800000D03*
D15*
X139250000Y-121500000D03*
X139250000Y-123000000D03*
D16*
X133000000Y-123500000D03*
X131500000Y-123500000D03*
D15*
X185750000Y-114500000D03*
X185750000Y-116000000D03*
X176250000Y-113750000D03*
X176250000Y-115250000D03*
X166750000Y-113250000D03*
X166750000Y-114750000D03*
X157250000Y-112500000D03*
X157250000Y-114000000D03*
X147750000Y-112000000D03*
X147750000Y-113500000D03*
D16*
X139750000Y-112500000D03*
X138250000Y-112500000D03*
D15*
X179750000Y-102250000D03*
X179750000Y-103750000D03*
X170750000Y-101500000D03*
X170750000Y-103000000D03*
X161750000Y-101000000D03*
X161750000Y-102500000D03*
X152750000Y-100250000D03*
X152750000Y-101750000D03*
D16*
X145250000Y-101000000D03*
X143750000Y-101000000D03*
D15*
X175000000Y-90750000D03*
X175000000Y-92250000D03*
X161000000Y-88750000D03*
X161000000Y-90250000D03*
D16*
X150750000Y-88500000D03*
X149250000Y-88500000D03*
X154500000Y-79250000D03*
X153000000Y-79250000D03*
X161750000Y-62500000D03*
X160250000Y-62500000D03*
D15*
X167250000Y-79750000D03*
X167250000Y-81250000D03*
X193250000Y-125250000D03*
X193250000Y-126750000D03*
D17*
X156025000Y-129500000D03*
X163975000Y-129500000D03*
X156025000Y-134000000D03*
X163975000Y-134000000D03*
X163975000Y-146250000D03*
X156025000Y-146250000D03*
X163975000Y-141750000D03*
X156025000Y-141750000D03*
D18*
X156500000Y-136500000D03*
X158000000Y-136500000D03*
X164500000Y-136500000D03*
X163000000Y-136500000D03*
D19*
X143000000Y-125500000D03*
X143000000Y-127000000D03*
X153000000Y-125500000D03*
X153000000Y-127000000D03*
X177000000Y-131500000D03*
X177000000Y-130000000D03*
D20*
X156150000Y-137800000D03*
X156150000Y-138750000D03*
X156150000Y-139700000D03*
X158350000Y-139700000D03*
X158350000Y-137800000D03*
X158350000Y-138750000D03*
D21*
X163949960Y-139400240D03*
X163949960Y-138750000D03*
X163949960Y-138099760D03*
X162050040Y-138099760D03*
X162050040Y-138750000D03*
X162050040Y-139400240D03*
M02*
