G04 #@! TF.FileFunction,Profile,NP*
%FSLAX46Y46*%
G04 Gerber Fmt 4.6, Leading zero omitted, Abs format (unit mm)*
G04 Created by KiCad (PCBNEW 4.0.4-stable) date Sat Dec  3 20:50:57 2016*
%MOMM*%
%LPD*%
G01*
G04 APERTURE LIST*
%ADD10C,0.100000*%
%ADD11C,0.120000*%
G04 APERTURE END LIST*
D10*
D11*
X157749425Y-148265699D02*
X155525620Y-147854788D01*
X155525620Y-147854788D02*
X153814505Y-147227033D01*
X153814505Y-147227033D02*
X153340418Y-146989816D01*
X153340418Y-146989816D02*
X153521472Y-146276705D01*
X153521472Y-146276705D02*
X153789348Y-144771822D01*
X153789348Y-144771822D02*
X154045830Y-142581097D01*
X154045830Y-142581097D02*
X154249986Y-140117592D01*
X154249986Y-140117592D02*
X154360884Y-137794371D01*
X154360884Y-137794371D02*
X153588488Y-136629211D01*
X153588488Y-136629211D02*
X152185065Y-137411545D01*
X152185065Y-137411545D02*
X150712012Y-137986542D01*
X150712012Y-137986542D02*
X148789804Y-138282915D01*
X148789804Y-138282915D02*
X146900436Y-138057863D01*
X146900436Y-138057863D02*
X144967842Y-137291676D01*
X144967842Y-137291676D02*
X142915960Y-135964642D01*
X142915960Y-135964642D02*
X141930694Y-135220636D01*
X141930694Y-135220636D02*
X141291075Y-135415900D01*
X141291075Y-135415900D02*
X138684205Y-135894272D01*
X138684205Y-135894272D02*
X136372922Y-135762349D01*
X136372922Y-135762349D02*
X134445652Y-134848139D01*
X134445652Y-134848139D02*
X132913790Y-133209242D01*
X132913790Y-133209242D02*
X132492026Y-132615473D01*
X132492026Y-132615473D02*
X131591522Y-132823825D01*
X131591522Y-132823825D02*
X129105484Y-133105723D01*
X129105484Y-133105723D02*
X126683293Y-132778682D01*
X126683293Y-132778682D02*
X124436503Y-131886934D01*
X124436503Y-131886934D02*
X122476669Y-130474708D01*
X122476669Y-130474708D02*
X120915348Y-128586235D01*
X120915348Y-128586235D02*
X120142552Y-126779705D01*
X120142552Y-126779705D02*
X121046564Y-126375133D01*
X121046564Y-126375133D02*
X123394072Y-125518994D01*
X123394072Y-125518994D02*
X125795264Y-124449613D01*
X125795264Y-124449613D02*
X128195704Y-123195421D01*
X128195704Y-123195421D02*
X130540955Y-121784847D01*
X130540955Y-121784847D02*
X132776581Y-120246320D01*
X132776581Y-120246320D02*
X133477292Y-119730350D01*
X133477292Y-119730350D02*
X132621696Y-119106237D01*
X132621696Y-119106237D02*
X131022184Y-117795195D01*
X131022184Y-117795195D02*
X129628144Y-116299872D01*
X129628144Y-116299872D02*
X128847132Y-115305576D01*
X128847132Y-115305576D02*
X130278355Y-114810649D01*
X130278355Y-114810649D02*
X132719898Y-113861837D01*
X132719898Y-113861837D02*
X135118239Y-112676063D01*
X135118239Y-112676063D02*
X137484693Y-111247118D01*
X137484693Y-111247118D02*
X139830577Y-109568793D01*
X139830577Y-109568793D02*
X140973724Y-108583255D01*
X140973724Y-108583255D02*
X140262932Y-108240986D01*
X140262932Y-108240986D02*
X138166928Y-107442295D01*
X138166928Y-107442295D02*
X136059429Y-106225816D01*
X136059429Y-106225816D02*
X134167950Y-104723263D01*
X134167950Y-104723263D02*
X133263952Y-103793028D01*
X133263952Y-103793028D02*
X134684528Y-103226488D01*
X134684528Y-103226488D02*
X136807172Y-102388183D01*
X136807172Y-102388183D02*
X138923866Y-101328960D01*
X138923866Y-101328960D02*
X140999481Y-100070142D01*
X140999481Y-100070142D02*
X142998885Y-98633052D01*
X142998885Y-98633052D02*
X144886947Y-97039010D01*
X144886947Y-97039010D02*
X145609850Y-96377602D01*
X145609850Y-96377602D02*
X144989785Y-96256577D01*
X144989785Y-96256577D02*
X142562587Y-95525149D01*
X142562587Y-95525149D02*
X140414240Y-94403107D01*
X140414240Y-94403107D02*
X138547279Y-92794475D01*
X138547279Y-92794475D02*
X139823962Y-92375198D01*
X139823962Y-92375198D02*
X141777231Y-91607539D01*
X141777231Y-91607539D02*
X143721863Y-90588747D01*
X143721863Y-90588747D02*
X145650334Y-89323796D01*
X145650334Y-89323796D02*
X147555125Y-87817660D01*
X147555125Y-87817660D02*
X149428714Y-86075313D01*
X149428714Y-86075313D02*
X150664135Y-84837340D01*
X150664135Y-84837340D02*
X150358411Y-84764714D01*
X150358411Y-84764714D02*
X148035646Y-84107975D01*
X148035646Y-84107975D02*
X145742005Y-83062692D01*
X145742005Y-83062692D02*
X144370383Y-82374051D01*
X144370383Y-82374051D02*
X145661842Y-81936641D01*
X145661842Y-81936641D02*
X147516610Y-81235627D01*
X147516610Y-81235627D02*
X148963520Y-80449446D01*
X148963520Y-80449446D02*
X150898335Y-79071555D01*
X150898335Y-79071555D02*
X152757608Y-77385599D01*
X152757608Y-77385599D02*
X154537748Y-75395695D01*
X154537748Y-75395695D02*
X156235160Y-73105960D01*
X156235160Y-73105960D02*
X157846253Y-70520507D01*
X157846253Y-70520507D02*
X158425994Y-69197702D01*
X158425994Y-69197702D02*
X158678195Y-66980851D01*
X158678195Y-66980851D02*
X158942021Y-64957614D01*
X158942021Y-64957614D02*
X157805986Y-65345530D01*
X157805986Y-65345530D02*
X156610293Y-65848066D01*
X156610293Y-65848066D02*
X156997728Y-63410475D01*
X156997728Y-63410475D02*
X157387661Y-61102473D01*
X157387661Y-61102473D02*
X155650244Y-59396873D01*
X155650244Y-59396873D02*
X153957790Y-57646380D01*
X153957790Y-57646380D02*
X156159862Y-57291702D01*
X156159862Y-57291702D02*
X158542917Y-56933047D01*
X158542917Y-56933047D02*
X159828371Y-54714874D01*
X159828371Y-54714874D02*
X160947740Y-52545639D01*
X160947740Y-52545639D02*
X162087350Y-54711766D01*
X162087350Y-54711766D02*
X163428221Y-56933585D01*
X163428221Y-56933585D02*
X165790029Y-57289885D01*
X165790029Y-57289885D02*
X168050702Y-57608002D01*
X168050702Y-57608002D02*
X166311325Y-59347920D01*
X166311325Y-59347920D02*
X164523932Y-61087365D01*
X164523932Y-61087365D02*
X164942257Y-63531914D01*
X164942257Y-63531914D02*
X165343182Y-65976658D01*
X165343182Y-65976658D02*
X164217668Y-65397647D01*
X164217668Y-65397647D02*
X162791912Y-64828804D01*
X162791912Y-64828804D02*
X162891108Y-67261982D01*
X162891108Y-67261982D02*
X163001001Y-69179557D01*
X163001001Y-69179557D02*
X163696588Y-70496771D01*
X163696588Y-70496771D02*
X164874673Y-72570669D01*
X164874673Y-72570669D02*
X166120094Y-74458255D01*
X166120094Y-74458255D02*
X167429842Y-76155352D01*
X167429842Y-76155352D02*
X168800905Y-77657787D01*
X168800905Y-77657787D02*
X170632053Y-79304388D01*
X170632053Y-79304388D02*
X172467680Y-80541062D01*
X172467680Y-80541062D02*
X174433833Y-81438634D01*
X174433833Y-81438634D02*
X176656560Y-82067927D01*
X176656560Y-82067927D02*
X177534332Y-82258009D01*
X177534332Y-82258009D02*
X176398711Y-82868907D01*
X176398711Y-82868907D02*
X173822517Y-84026436D01*
X173822517Y-84026436D02*
X171312058Y-84583136D01*
X171312058Y-84583136D02*
X170358760Y-84703224D01*
X170358760Y-84703224D02*
X171153746Y-85578978D01*
X171153746Y-85578978D02*
X173228354Y-87636499D01*
X173228354Y-87636499D02*
X175418329Y-89372011D01*
X175418329Y-89372011D02*
X177705008Y-90774022D01*
X177705008Y-90774022D02*
X180069726Y-91831040D01*
X180069726Y-91831040D02*
X182493819Y-92531575D01*
X182493819Y-92531575D02*
X183677715Y-92799931D01*
X183677715Y-92799931D02*
X183212605Y-93189932D01*
X183212605Y-93189932D02*
X179685356Y-95102926D01*
X179685356Y-95102926D02*
X177642428Y-96015483D01*
X177642428Y-96015483D02*
X175778232Y-96510916D01*
X175778232Y-96510916D02*
X175468062Y-96578473D01*
X175468062Y-96578473D02*
X176191436Y-97253495D01*
X176191436Y-97253495D02*
X178274934Y-98944563D01*
X178274934Y-98944563D02*
X180582362Y-100542581D01*
X180582362Y-100542581D02*
X182902133Y-101773985D01*
X182902133Y-101773985D02*
X185379507Y-102777158D01*
X185379507Y-102777158D02*
X187736767Y-103439840D01*
X187736767Y-103439840D02*
X188640845Y-103700241D01*
X188640845Y-103700241D02*
X187575395Y-104732397D01*
X187575395Y-104732397D02*
X185852019Y-106160022D01*
X185852019Y-106160022D02*
X183395978Y-107724893D01*
X183395978Y-107724893D02*
X180995565Y-108805897D01*
X180995565Y-108805897D02*
X180337054Y-109072789D01*
X180337054Y-109072789D02*
X181354394Y-109959150D01*
X181354394Y-109959150D02*
X183521823Y-111444370D01*
X183521823Y-111444370D02*
X185538434Y-112606222D01*
X185538434Y-112606222D02*
X187544004Y-113558916D01*
X187544004Y-113558916D02*
X189601686Y-114329352D01*
X189601686Y-114329352D02*
X191774629Y-114944434D01*
X191774629Y-114944434D02*
X193040268Y-115283868D01*
X193040268Y-115283868D02*
X191702201Y-116671874D01*
X191702201Y-116671874D02*
X189794005Y-118386374D01*
X189794005Y-118386374D02*
X188112074Y-119387146D01*
X188112074Y-119387146D02*
X187085947Y-119900673D01*
X187085947Y-119900673D02*
X188221030Y-120700909D01*
X188221030Y-120700909D02*
X190507206Y-122200254D01*
X190507206Y-122200254D02*
X192828792Y-123499228D01*
X192828792Y-123499228D02*
X195198247Y-124603601D01*
X195198247Y-124603601D02*
X197628033Y-125519138D01*
X197628033Y-125519138D02*
X200130609Y-126251610D01*
X200130609Y-126251610D02*
X201857448Y-126688535D01*
X201857448Y-126688535D02*
X201332721Y-127611233D01*
X201332721Y-127611233D02*
X199752892Y-130279298D01*
X199752892Y-130279298D02*
X198714079Y-131533388D01*
X198714079Y-131533388D02*
X197112931Y-132737118D01*
X197112931Y-132737118D02*
X195676739Y-133249337D01*
X195676739Y-133249337D02*
X193974548Y-133308645D01*
X193974548Y-133308645D02*
X192540184Y-133159102D01*
X192540184Y-133159102D02*
X190707118Y-132664964D01*
X190707118Y-132664964D02*
X190145575Y-133189690D01*
X190145575Y-133189690D02*
X188812314Y-134686231D01*
X188812314Y-134686231D02*
X187291334Y-135971780D01*
X187291334Y-135971780D02*
X184940300Y-137081704D01*
X184940300Y-137081704D02*
X182391324Y-137337062D01*
X182391324Y-137337062D02*
X180656496Y-137085374D01*
X180656496Y-137085374D02*
X178696124Y-136442967D01*
X178696124Y-136442967D02*
X177618487Y-136022226D01*
X177618487Y-136022226D02*
X176853314Y-136773905D01*
X176853314Y-136773905D02*
X174606877Y-138453995D01*
X174606877Y-138453995D02*
X172039615Y-139295718D01*
X172039615Y-139295718D02*
X169943543Y-139341163D01*
X169943543Y-139341163D02*
X167961928Y-138910285D01*
X167961928Y-138910285D02*
X166024214Y-138147559D01*
X166024214Y-138147559D02*
X165291799Y-138015803D01*
X165291799Y-138015803D02*
X165520852Y-139731739D01*
X165520852Y-139731739D02*
X166075568Y-142667832D01*
X166075568Y-142667832D02*
X166757281Y-145772071D01*
X166757281Y-145772071D02*
X167084715Y-147598295D01*
X167084715Y-147598295D02*
X165332545Y-147954532D01*
X165332545Y-147954532D02*
X162605461Y-148315730D01*
X162605461Y-148315730D02*
X160105933Y-148405915D01*
X160105933Y-148405915D02*
X157749425Y-148265699D01*
M02*
