G04 #@! TF.FileFunction,Copper,L1,Top,Signal*
%FSLAX46Y46*%
G04 Gerber Fmt 4.6, Leading zero omitted, Abs format (unit mm)*
G04 Created by KiCad (PCBNEW 4.0.4-stable) date Sat Dec  3 20:50:57 2016*
%MOMM*%
%LPD*%
G01*
G04 APERTURE LIST*
%ADD10C,0.100000*%
%ADD11C,0.600000*%
%ADD12O,1.500000X0.800000*%
%ADD13O,0.800000X1.500000*%
%ADD14R,0.797560X0.797560*%
%ADD15R,1.450000X0.450000*%
%ADD16R,0.900000X0.500000*%
%ADD17R,0.500000X0.900000*%
%ADD18R,1.550000X1.300000*%
%ADD19R,0.800000X0.750000*%
%ADD20R,0.750000X0.800000*%
%ADD21R,1.060000X0.650000*%
%ADD22R,0.749300X0.398780*%
%ADD23C,1.000000*%
%ADD24C,0.500000*%
%ADD25C,0.250000*%
%ADD26C,0.254000*%
G04 APERTURE END LIST*
D10*
D11*
X168700000Y-126100000D03*
X168700000Y-128300000D03*
X148650000Y-136650000D03*
X149800000Y-124600000D03*
X155850000Y-136500000D03*
X155250000Y-138700000D03*
X147250000Y-110350000D03*
X144250000Y-110150000D03*
X151850000Y-111350000D03*
X151850000Y-113350000D03*
X135250000Y-117750000D03*
X135650000Y-115150000D03*
X132450000Y-116350000D03*
X141050000Y-117150000D03*
X138450000Y-118150000D03*
X136050000Y-119550000D03*
X124450000Y-128150000D03*
X130450000Y-129150000D03*
X127250000Y-127350000D03*
X127650000Y-130750000D03*
X133850000Y-131550000D03*
X197650000Y-130350000D03*
X186050000Y-126150000D03*
X185850000Y-123550000D03*
X185850000Y-120550000D03*
X183450000Y-120150000D03*
X180850000Y-120550000D03*
X182050000Y-123350000D03*
X182450000Y-121550000D03*
X182450000Y-124750000D03*
X181450000Y-126750000D03*
X177250000Y-125550000D03*
X177250000Y-122950000D03*
X176250000Y-120750000D03*
X158500000Y-59750000D03*
X158700000Y-61150000D03*
X158700000Y-63350000D03*
X163100000Y-60750000D03*
X163500000Y-62950000D03*
X159100000Y-79350000D03*
X156300000Y-79350000D03*
X157500000Y-80550000D03*
X160700000Y-80550000D03*
X164100000Y-80550000D03*
X162100000Y-79150000D03*
X159900000Y-77550000D03*
X156900000Y-77550000D03*
X154700000Y-77550000D03*
X156500000Y-75150000D03*
X159100000Y-74750000D03*
X159100000Y-71750000D03*
X162500000Y-71950000D03*
X164100000Y-75350000D03*
X167100000Y-78350000D03*
X170100000Y-80350000D03*
X172100000Y-82750000D03*
X171900000Y-88950000D03*
X171900000Y-90950000D03*
X175500000Y-98550000D03*
X176900000Y-92150000D03*
X176900000Y-94550000D03*
X178700000Y-93150000D03*
X171700000Y-93750000D03*
X171700000Y-95950000D03*
X167500000Y-102750000D03*
X165900000Y-109350000D03*
X163100000Y-106950000D03*
X164500000Y-107550000D03*
X164300000Y-103550000D03*
X160700000Y-112350000D03*
X155700000Y-111550000D03*
X152900000Y-106350000D03*
X156900000Y-106350000D03*
X155100000Y-108350000D03*
X159700000Y-108350000D03*
X150100000Y-108150000D03*
X147300000Y-103550000D03*
X149100000Y-104950000D03*
X147500000Y-98350000D03*
X148500000Y-96350000D03*
X145700000Y-94350000D03*
X147300000Y-92750000D03*
X144700000Y-92150000D03*
X142500000Y-93150000D03*
X146900000Y-90550000D03*
X151900000Y-86350000D03*
X151500000Y-83550000D03*
X151100000Y-80950000D03*
X148300000Y-82550000D03*
X163300000Y-86550000D03*
X162700000Y-91150000D03*
X165300000Y-92750000D03*
X165300000Y-90150000D03*
X165300000Y-87750000D03*
X165300000Y-85350000D03*
X163100000Y-84150000D03*
X160700000Y-85150000D03*
X157700000Y-86750000D03*
X154500000Y-87150000D03*
X157700000Y-84550000D03*
X155300000Y-84550000D03*
X153500000Y-84550000D03*
X149300000Y-112150000D03*
X145700000Y-113750000D03*
X142100000Y-113950000D03*
X142500000Y-112550000D03*
X144100000Y-111950000D03*
X146100000Y-111950000D03*
X143900000Y-113950000D03*
X140100000Y-114150000D03*
X140900000Y-112550000D03*
X141300000Y-110750000D03*
X142900000Y-108150000D03*
X141100000Y-105550000D03*
X137300000Y-104350000D03*
X141500000Y-102550000D03*
X145300000Y-99350000D03*
X146500000Y-101150000D03*
X149900000Y-97550000D03*
X149900000Y-94350000D03*
X154500000Y-95950000D03*
X157100000Y-97550000D03*
X154700000Y-102750000D03*
X157100000Y-100550000D03*
X157100000Y-102750000D03*
X159500000Y-103550000D03*
X160100000Y-100950000D03*
X152700000Y-98950000D03*
X154500000Y-100150000D03*
X158500000Y-94350000D03*
X155100000Y-89150000D03*
X152100000Y-88550000D03*
X152900000Y-90750000D03*
X158100000Y-90550000D03*
X159300000Y-88750000D03*
X160900000Y-87150000D03*
X162700000Y-88750000D03*
X181800000Y-115000000D03*
X181900000Y-116750000D03*
X179700000Y-116750000D03*
X179800000Y-115000000D03*
X181500000Y-112750000D03*
X179800000Y-113200000D03*
X179500000Y-110750000D03*
X177900000Y-108150000D03*
X182300000Y-105950000D03*
X184700000Y-104350000D03*
X181500000Y-103150000D03*
X177300000Y-103550000D03*
X177300000Y-100750000D03*
X172700000Y-101750000D03*
X170700000Y-100350000D03*
X166300000Y-99950000D03*
X163300000Y-96950000D03*
X150400000Y-122000000D03*
X154800000Y-125600000D03*
X155800000Y-124400000D03*
X157400000Y-122200000D03*
X163800000Y-121600000D03*
X163750000Y-119000000D03*
X163750000Y-115750000D03*
X167250000Y-112250000D03*
X168250000Y-115500000D03*
X170000000Y-114250000D03*
X176250000Y-112500000D03*
X183750000Y-117250000D03*
X189750000Y-116000000D03*
X187750000Y-116750000D03*
X187500000Y-115000000D03*
X183750000Y-114500000D03*
X185750000Y-133750000D03*
X182000000Y-134500000D03*
X183250000Y-131750000D03*
X186750000Y-131250000D03*
X190000000Y-131000000D03*
X194500000Y-131000000D03*
X197250000Y-127750000D03*
X190500000Y-127000000D03*
X190500000Y-124250000D03*
X187500000Y-126750000D03*
X187500000Y-124750000D03*
X187500000Y-122500000D03*
X184250000Y-122250000D03*
X180750000Y-122250000D03*
X180750000Y-125000000D03*
X179750000Y-132500000D03*
X177000000Y-132750000D03*
X175250000Y-122750000D03*
X164500000Y-123500000D03*
X166750000Y-136000000D03*
X160000000Y-144000000D03*
X165000000Y-136500000D03*
X163500000Y-132500000D03*
X159250000Y-127000000D03*
X158250000Y-132500000D03*
X158250000Y-129750000D03*
X145250000Y-134250000D03*
X138750000Y-134000000D03*
X132250000Y-126750000D03*
X134750000Y-121000000D03*
X138250000Y-121500000D03*
X137750000Y-124000000D03*
X146000000Y-125000000D03*
X143000000Y-124200000D03*
X144000000Y-121500000D03*
X145750000Y-117750000D03*
D12*
X161500000Y-124000000D03*
X161500000Y-119000000D03*
D13*
X158800000Y-121500000D03*
D14*
X184250000Y-128999300D03*
X184250000Y-127500700D03*
X175250000Y-128249300D03*
X175250000Y-126750700D03*
X166250000Y-127749300D03*
X166250000Y-126250700D03*
X157250000Y-126999300D03*
X157250000Y-125500700D03*
X148250000Y-126499300D03*
X148250000Y-125000700D03*
X139250000Y-125749300D03*
X139250000Y-124250700D03*
X130250000Y-124999300D03*
X130250000Y-123500700D03*
X185750000Y-118749300D03*
X185750000Y-117250700D03*
X176250000Y-117999300D03*
X176250000Y-116500700D03*
X166750000Y-117499300D03*
X166750000Y-116000700D03*
X157250000Y-116749300D03*
X157250000Y-115250700D03*
X147750000Y-116249300D03*
X147750000Y-114750700D03*
X138250000Y-115499300D03*
X138250000Y-114000700D03*
X179750000Y-106499300D03*
X179750000Y-105000700D03*
X170750000Y-105749300D03*
X170750000Y-104250700D03*
X161750000Y-105249300D03*
X161750000Y-103750700D03*
X152750000Y-104499300D03*
X152750000Y-103000700D03*
X143750000Y-103999300D03*
X143750000Y-102500700D03*
X175000000Y-94999300D03*
X175000000Y-93500700D03*
X161000000Y-92999300D03*
X161000000Y-91500700D03*
X149250000Y-91499300D03*
X149250000Y-90000700D03*
X167250000Y-83999300D03*
X167250000Y-82500700D03*
X153000000Y-81999300D03*
X153000000Y-80500700D03*
X161000000Y-61249300D03*
X161000000Y-59750700D03*
D15*
X137050000Y-128325000D03*
X137050000Y-128975000D03*
X137050000Y-129625000D03*
X137050000Y-130275000D03*
X137050000Y-130925000D03*
X137050000Y-131575000D03*
X137050000Y-132225000D03*
X137050000Y-132875000D03*
X137050000Y-133525000D03*
X137050000Y-134175000D03*
X142950000Y-134175000D03*
X142950000Y-133525000D03*
X142950000Y-132875000D03*
X142950000Y-132225000D03*
X142950000Y-131575000D03*
X142950000Y-130925000D03*
X142950000Y-130275000D03*
X142950000Y-129625000D03*
X142950000Y-128975000D03*
X142950000Y-128325000D03*
X147050000Y-128325000D03*
X147050000Y-128975000D03*
X147050000Y-129625000D03*
X147050000Y-130275000D03*
X147050000Y-130925000D03*
X147050000Y-131575000D03*
X147050000Y-132225000D03*
X147050000Y-132875000D03*
X147050000Y-133525000D03*
X147050000Y-134175000D03*
X152950000Y-134175000D03*
X152950000Y-133525000D03*
X152950000Y-132875000D03*
X152950000Y-132225000D03*
X152950000Y-131575000D03*
X152950000Y-130925000D03*
X152950000Y-130275000D03*
X152950000Y-129625000D03*
X152950000Y-128975000D03*
X152950000Y-128325000D03*
X168050000Y-130075000D03*
X168050000Y-130725000D03*
X168050000Y-131375000D03*
X168050000Y-132025000D03*
X168050000Y-132675000D03*
X168050000Y-133325000D03*
X168050000Y-133975000D03*
X168050000Y-134625000D03*
X168050000Y-135275000D03*
X168050000Y-135925000D03*
X173950000Y-135925000D03*
X173950000Y-135275000D03*
X173950000Y-134625000D03*
X173950000Y-133975000D03*
X173950000Y-133325000D03*
X173950000Y-132675000D03*
X173950000Y-132025000D03*
X173950000Y-131375000D03*
X173950000Y-130725000D03*
X173950000Y-130075000D03*
D14*
X193250000Y-129499300D03*
X193250000Y-128000700D03*
D16*
X184250000Y-124750000D03*
X184250000Y-126250000D03*
X175250000Y-124000000D03*
X175250000Y-125500000D03*
X166250000Y-123500000D03*
X166250000Y-125000000D03*
X157250000Y-122750000D03*
X157250000Y-124250000D03*
D17*
X149750000Y-123800000D03*
X148250000Y-123800000D03*
D16*
X139250000Y-121500000D03*
X139250000Y-123000000D03*
D17*
X133000000Y-123500000D03*
X131500000Y-123500000D03*
D16*
X185750000Y-114500000D03*
X185750000Y-116000000D03*
X176250000Y-113750000D03*
X176250000Y-115250000D03*
X166750000Y-113250000D03*
X166750000Y-114750000D03*
X157250000Y-112500000D03*
X157250000Y-114000000D03*
X147750000Y-112000000D03*
X147750000Y-113500000D03*
D17*
X139750000Y-112500000D03*
X138250000Y-112500000D03*
D16*
X179750000Y-102250000D03*
X179750000Y-103750000D03*
X170750000Y-101500000D03*
X170750000Y-103000000D03*
X161750000Y-101000000D03*
X161750000Y-102500000D03*
X152750000Y-100250000D03*
X152750000Y-101750000D03*
D17*
X145250000Y-101000000D03*
X143750000Y-101000000D03*
D16*
X175000000Y-90750000D03*
X175000000Y-92250000D03*
X161000000Y-88750000D03*
X161000000Y-90250000D03*
D17*
X150750000Y-88500000D03*
X149250000Y-88500000D03*
X154500000Y-79250000D03*
X153000000Y-79250000D03*
X161750000Y-62500000D03*
X160250000Y-62500000D03*
D16*
X167250000Y-79750000D03*
X167250000Y-81250000D03*
X193250000Y-125250000D03*
X193250000Y-126750000D03*
D18*
X156025000Y-129500000D03*
X163975000Y-129500000D03*
X156025000Y-134000000D03*
X163975000Y-134000000D03*
X163975000Y-146250000D03*
X156025000Y-146250000D03*
X163975000Y-141750000D03*
X156025000Y-141750000D03*
D19*
X156500000Y-136500000D03*
X158000000Y-136500000D03*
X164500000Y-136500000D03*
X163000000Y-136500000D03*
D20*
X143000000Y-125500000D03*
X143000000Y-127000000D03*
X153000000Y-125500000D03*
X153000000Y-127000000D03*
X177000000Y-131500000D03*
X177000000Y-130000000D03*
D21*
X156150000Y-137800000D03*
X156150000Y-138750000D03*
X156150000Y-139700000D03*
X158350000Y-139700000D03*
X158350000Y-137800000D03*
X158350000Y-138750000D03*
D22*
X163949960Y-139400240D03*
X163949960Y-138750000D03*
X163949960Y-138099760D03*
X162050040Y-138099760D03*
X162050040Y-138750000D03*
X162050040Y-139400240D03*
D11*
X149500000Y-101750000D03*
D23*
X154750000Y-117750000D03*
X141750000Y-127250000D03*
D11*
X159500000Y-136750000D03*
D23*
X162000000Y-136250000D03*
X167500000Y-120500000D03*
X170000000Y-120500000D03*
X176750000Y-128750000D03*
X155000000Y-127500000D03*
D11*
X179750000Y-128000000D03*
X137750000Y-125500000D03*
X136500000Y-126750000D03*
X140750000Y-123500000D03*
X140750000Y-119250000D03*
X134750000Y-124000000D03*
X134750000Y-125750000D03*
X138500000Y-131250000D03*
X136000000Y-124250000D03*
X145500000Y-126500000D03*
X141500000Y-132250000D03*
X146250000Y-127000000D03*
X145500000Y-130500000D03*
X139750000Y-126750000D03*
X141000000Y-130750000D03*
X138500000Y-127500000D03*
X140250000Y-129250000D03*
X144750000Y-126000000D03*
X144000000Y-127250000D03*
X156750000Y-118000000D03*
X155250000Y-121000000D03*
X145250000Y-123750000D03*
X145800000Y-121000000D03*
X152000000Y-116250000D03*
X148250000Y-129000000D03*
X152500000Y-117000000D03*
X149000000Y-131750000D03*
X145500000Y-132250000D03*
X152250000Y-118750000D03*
X153250000Y-117750000D03*
X146800000Y-118400000D03*
X149800000Y-126800000D03*
X148800000Y-116400000D03*
X149000000Y-118000000D03*
X151400000Y-119000000D03*
X152000000Y-125000000D03*
X150200000Y-131800000D03*
X154500000Y-133000000D03*
X153250000Y-118750000D03*
X150500000Y-128750000D03*
X156250000Y-121000000D03*
X151750000Y-122750000D03*
X163000000Y-113200000D03*
X164000000Y-113250000D03*
X157250000Y-121000000D03*
X153000000Y-122750000D03*
X151500000Y-129500000D03*
X168000000Y-108250000D03*
X169000000Y-109250000D03*
X169000000Y-112500000D03*
X166750000Y-131375000D03*
X169500000Y-131250000D03*
X166000000Y-119500000D03*
X165000000Y-111250000D03*
X170200000Y-124600000D03*
X165250000Y-132250000D03*
X164250000Y-111750000D03*
X165250000Y-119000000D03*
X165250000Y-121750000D03*
X166500000Y-134000000D03*
X171000000Y-125250000D03*
X172250000Y-109000000D03*
X172250000Y-111750000D03*
X171000000Y-117000000D03*
X171000000Y-119500000D03*
X170750000Y-135250000D03*
X171500000Y-126000000D03*
X169500000Y-106750000D03*
X170500000Y-107750000D03*
X170500000Y-111250000D03*
X172000000Y-113250000D03*
X172000000Y-117250000D03*
X172000000Y-120000000D03*
X173000000Y-126250000D03*
X172250000Y-129000000D03*
X173000000Y-117250000D03*
X173000000Y-111000000D03*
X173000000Y-107250000D03*
X173000000Y-119500000D03*
X172250000Y-126750000D03*
X172500000Y-132750000D03*
X173750000Y-110500000D03*
X173750000Y-106500000D03*
X173750000Y-116750000D03*
X173000000Y-120750000D03*
X175500000Y-132000000D03*
X174250000Y-104000000D03*
X174500000Y-109750000D03*
X174500000Y-117250000D03*
X174500000Y-119500000D03*
X173750000Y-126750000D03*
X159000000Y-139750000D03*
X160000000Y-135250000D03*
X154250000Y-134250000D03*
X143500000Y-135000000D03*
X155750000Y-135250000D03*
X154250000Y-135250000D03*
X139750000Y-132000000D03*
X161000000Y-139250000D03*
X161750000Y-137250000D03*
X161000000Y-129500000D03*
X161000000Y-136000000D03*
X174250000Y-100250000D03*
X175750000Y-102000000D03*
X175750000Y-106000000D03*
X175750000Y-108250000D03*
X177750000Y-118000000D03*
X177750000Y-119750000D03*
X178750000Y-128250000D03*
X178750000Y-129750000D03*
D24*
X164500000Y-136500000D02*
X165000000Y-136500000D01*
X143000000Y-125500000D02*
X143000000Y-124200000D01*
X170750000Y-101500000D02*
X170750000Y-100400000D01*
X170750000Y-100400000D02*
X170700000Y-100350000D01*
X157250000Y-122750000D02*
X157250000Y-122350000D01*
X157250000Y-122350000D02*
X157400000Y-122200000D01*
X161750000Y-62500000D02*
X163050000Y-62500000D01*
X163050000Y-62500000D02*
X163500000Y-62950000D01*
X167250000Y-79750000D02*
X167250000Y-78500000D01*
X167250000Y-78500000D02*
X167100000Y-78350000D01*
X157250000Y-112500000D02*
X156650000Y-112500000D01*
X156650000Y-112500000D02*
X155700000Y-111550000D01*
X166750000Y-113250000D02*
X166750000Y-112750000D01*
X166750000Y-112750000D02*
X167250000Y-112250000D01*
D25*
X163949960Y-138750000D02*
X164550000Y-138750000D01*
X164400000Y-144000000D02*
X160000000Y-144000000D01*
X165200000Y-143200000D02*
X164400000Y-144000000D01*
X165200000Y-141000000D02*
X165200000Y-143200000D01*
X164800000Y-140600000D02*
X165200000Y-141000000D01*
X164800000Y-139000000D02*
X164800000Y-140600000D01*
X164550000Y-138750000D02*
X164800000Y-139000000D01*
D24*
X177000000Y-131500000D02*
X177000000Y-132750000D01*
D25*
X137050000Y-134175000D02*
X135975000Y-134175000D01*
X133850000Y-132050000D02*
X133850000Y-131550000D01*
X135975000Y-134175000D02*
X133850000Y-132050000D01*
X149750000Y-123800000D02*
X149750000Y-124550000D01*
X149750000Y-124550000D02*
X149800000Y-124600000D01*
D24*
X156500000Y-136500000D02*
X155850000Y-136500000D01*
X156150000Y-138750000D02*
X155300000Y-138750000D01*
X155300000Y-138750000D02*
X155250000Y-138700000D01*
X153000000Y-125500000D02*
X154700000Y-125500000D01*
X154700000Y-125500000D02*
X154800000Y-125600000D01*
X157250000Y-122750000D02*
X157550000Y-122750000D01*
X157550000Y-122750000D02*
X158800000Y-121500000D01*
D25*
X164500000Y-123500000D02*
X166250000Y-123500000D01*
X168050000Y-135925000D02*
X166825000Y-135925000D01*
X166825000Y-135925000D02*
X166750000Y-136000000D01*
X145250000Y-134250000D02*
X146975000Y-134250000D01*
X146975000Y-134250000D02*
X147050000Y-134175000D01*
X137050000Y-134175000D02*
X138575000Y-134175000D01*
X138575000Y-134175000D02*
X138750000Y-134000000D01*
X139250000Y-121500000D02*
X138250000Y-121500000D01*
D24*
X143000000Y-127000000D02*
X142000000Y-127000000D01*
X156000000Y-119000000D02*
X161500000Y-119000000D01*
X154750000Y-117750000D02*
X156000000Y-119000000D01*
X142000000Y-127000000D02*
X141750000Y-127250000D01*
X163000000Y-136500000D02*
X162250000Y-136500000D01*
X162250000Y-136500000D02*
X162000000Y-136250000D01*
X167500000Y-120500000D02*
X170000000Y-120500000D01*
X177000000Y-129000000D02*
X177000000Y-130000000D01*
X176750000Y-128750000D02*
X177000000Y-129000000D01*
X154500000Y-127000000D02*
X153000000Y-127000000D01*
X155000000Y-127500000D02*
X154500000Y-127000000D01*
D25*
X173950000Y-130075000D02*
X176925000Y-130075000D01*
X176925000Y-130075000D02*
X177000000Y-130000000D01*
X142950000Y-128325000D02*
X142950000Y-127050000D01*
X142950000Y-127050000D02*
X143000000Y-127000000D01*
X152950000Y-128325000D02*
X152950000Y-127050000D01*
X152950000Y-127050000D02*
X153000000Y-127000000D01*
X163000000Y-136500000D02*
X163000000Y-138500000D01*
X162750000Y-138750000D02*
X162050040Y-138750000D01*
X163000000Y-138500000D02*
X162750000Y-138750000D01*
X158350000Y-138750000D02*
X159250000Y-138750000D01*
X159250000Y-138750000D02*
X159500000Y-138500000D01*
X159500000Y-138500000D02*
X159500000Y-136750000D01*
X159250000Y-136500000D02*
X158000000Y-136500000D01*
X159500000Y-136750000D02*
X159250000Y-136500000D01*
X179750000Y-128000000D02*
X180000000Y-128250000D01*
X180000000Y-128250000D02*
X187750000Y-128250000D01*
X187750000Y-128250000D02*
X188999300Y-129499300D01*
X188999300Y-129499300D02*
X193250000Y-129499300D01*
X193250000Y-128000700D02*
X193250000Y-126750000D01*
X137050000Y-130275000D02*
X135775000Y-130275000D01*
X135500000Y-130000000D02*
X135500000Y-128500000D01*
X135775000Y-130275000D02*
X135500000Y-130000000D01*
X140250000Y-125000000D02*
X138250000Y-125000000D01*
X138250000Y-125000000D02*
X137750000Y-125500000D01*
X135725000Y-128975000D02*
X137050000Y-128975000D01*
X135500000Y-128750000D02*
X135725000Y-128975000D01*
X135500000Y-127750000D02*
X135500000Y-128500000D01*
X135500000Y-128500000D02*
X135500000Y-128750000D01*
X136500000Y-126750000D02*
X135500000Y-127750000D01*
X140750000Y-123500000D02*
X140750000Y-124500000D01*
X140750000Y-124500000D02*
X140250000Y-125000000D01*
X160250000Y-119750000D02*
X146750000Y-119750000D01*
X178249300Y-128999300D02*
X176750000Y-127500000D01*
X176750000Y-127500000D02*
X172000000Y-127500000D01*
X172000000Y-127500000D02*
X167000000Y-122500000D01*
X167000000Y-122500000D02*
X163000000Y-122500000D01*
X163000000Y-122500000D02*
X160250000Y-119750000D01*
X184250000Y-128999300D02*
X178249300Y-128999300D01*
X146250000Y-119250000D02*
X140750000Y-119250000D01*
X146750000Y-119750000D02*
X146250000Y-119250000D01*
X184250000Y-127500700D02*
X184250000Y-126250000D01*
X137050000Y-132225000D02*
X135975000Y-132225000D01*
X135675000Y-131925000D02*
X135675000Y-130925000D01*
X135975000Y-132225000D02*
X135675000Y-131925000D01*
X135675000Y-130925000D02*
X137050000Y-130925000D01*
X175250000Y-128249300D02*
X171999300Y-128249300D01*
X171999300Y-128249300D02*
X168000000Y-124250000D01*
X168000000Y-124250000D02*
X164000000Y-124250000D01*
X164000000Y-124250000D02*
X160000000Y-120250000D01*
X160000000Y-120250000D02*
X138500000Y-120250000D01*
X138500000Y-120250000D02*
X134750000Y-124000000D01*
X134750000Y-125750000D02*
X134750000Y-130000000D01*
X134750000Y-130000000D02*
X135675000Y-130925000D01*
X175250000Y-126750700D02*
X175250000Y-125500000D01*
X137050000Y-132875000D02*
X138125000Y-132875000D01*
X138500000Y-132500000D02*
X138500000Y-131250000D01*
X138125000Y-132875000D02*
X138500000Y-132500000D01*
X138175000Y-131575000D02*
X137050000Y-131575000D01*
X138500000Y-131250000D02*
X138175000Y-131575000D01*
X166250000Y-127749300D02*
X162499300Y-127749300D01*
X151250000Y-123500000D02*
X150750000Y-123000000D01*
X158250000Y-123500000D02*
X151250000Y-123500000D01*
X162499300Y-127749300D02*
X158250000Y-123500000D01*
X141250000Y-123000000D02*
X140500000Y-122250000D01*
X150750000Y-123000000D02*
X141250000Y-123000000D01*
X138000000Y-122250000D02*
X136000000Y-124250000D01*
X140500000Y-122250000D02*
X138000000Y-122250000D01*
X166250000Y-126250700D02*
X166250000Y-125000000D01*
X137050000Y-133525000D02*
X138111398Y-133525000D01*
X138761398Y-132875000D02*
X142950000Y-132875000D01*
X138111398Y-133525000D02*
X138761398Y-132875000D01*
X141000000Y-132875000D02*
X142950000Y-132875000D01*
X157250000Y-126999300D02*
X157249300Y-126999300D01*
X157249300Y-126999300D02*
X154500000Y-124250000D01*
X154500000Y-124250000D02*
X151250000Y-124250000D01*
X151250000Y-124250000D02*
X149750000Y-125750000D01*
X149750000Y-125750000D02*
X146250000Y-125750000D01*
X146250000Y-125750000D02*
X145500000Y-126500000D01*
X141500000Y-132250000D02*
X141000000Y-132750000D01*
X141000000Y-132750000D02*
X141000000Y-132875000D01*
X157250000Y-125500700D02*
X157250000Y-124250000D01*
X142950000Y-132225000D02*
X144200000Y-132225000D01*
X144200000Y-132225000D02*
X144200000Y-132200000D01*
X145500000Y-130500000D02*
X145300000Y-130500000D01*
X143875000Y-133525000D02*
X142950000Y-133525000D01*
X144200000Y-133200000D02*
X143875000Y-133525000D01*
X144200000Y-131600000D02*
X144200000Y-132200000D01*
X144200000Y-132200000D02*
X144200000Y-133200000D01*
X145300000Y-130500000D02*
X144200000Y-131600000D01*
X146750700Y-126499300D02*
X146250000Y-127000000D01*
X147750700Y-126499300D02*
X146750700Y-126499300D01*
X148250000Y-126499300D02*
X147750700Y-126499300D01*
X148250000Y-125000700D02*
X148250000Y-123800000D01*
X142950000Y-131575000D02*
X141825000Y-131575000D01*
X141725000Y-130275000D02*
X142950000Y-130275000D01*
X141500000Y-130500000D02*
X141725000Y-130275000D01*
X141500000Y-131250000D02*
X141500000Y-131000000D01*
X141500000Y-131000000D02*
X141500000Y-130500000D01*
X141825000Y-131575000D02*
X141500000Y-131250000D01*
X139250000Y-125749300D02*
X139250000Y-126250000D01*
X139250000Y-126250000D02*
X139750000Y-126750000D01*
X141250000Y-131000000D02*
X141500000Y-131000000D01*
X141000000Y-130750000D02*
X141250000Y-131000000D01*
X139250000Y-124250700D02*
X139250000Y-123000000D01*
X140625000Y-129625000D02*
X142950000Y-129625000D01*
X142950000Y-130925000D02*
X144075000Y-130925000D01*
X144125000Y-129625000D02*
X142950000Y-129625000D01*
X144500000Y-130000000D02*
X144125000Y-129625000D01*
X144500000Y-130500000D02*
X144500000Y-130000000D01*
X144075000Y-130925000D02*
X144500000Y-130500000D01*
X130250000Y-124999300D02*
X135999300Y-124999300D01*
X135999300Y-124999300D02*
X138500000Y-127500000D01*
X140250000Y-129250000D02*
X140625000Y-129625000D01*
X130250000Y-123500700D02*
X131499300Y-123500700D01*
X131499300Y-123500700D02*
X131500000Y-123500000D01*
X144750000Y-124250000D02*
X144750000Y-126000000D01*
X144000000Y-127250000D02*
X144250000Y-127500000D01*
X144250000Y-127500000D02*
X144250000Y-128975000D01*
X142950000Y-128975000D02*
X144250000Y-128975000D01*
X144250000Y-128975000D02*
X144475000Y-128975000D01*
X145125000Y-129625000D02*
X147050000Y-129625000D01*
X144475000Y-128975000D02*
X145125000Y-129625000D01*
X155250000Y-121000000D02*
X154899998Y-121000000D01*
X166249300Y-118749300D02*
X165500000Y-118000000D01*
X185750000Y-118749300D02*
X166249300Y-118749300D01*
X165500000Y-118000000D02*
X156750000Y-118000000D01*
X145250000Y-123750000D02*
X144750000Y-124250000D01*
X146099998Y-120700002D02*
X145800000Y-121000000D01*
X154600000Y-120700002D02*
X146099998Y-120700002D01*
X154899998Y-121000000D02*
X154600000Y-120700002D01*
X185750000Y-117250700D02*
X185750000Y-116000000D01*
X147050000Y-128975000D02*
X148225000Y-128975000D01*
X148225000Y-130275000D02*
X147050000Y-130275000D01*
X148500000Y-130000000D02*
X148225000Y-130275000D01*
X148500000Y-129250000D02*
X148500000Y-130000000D01*
X176250000Y-117999300D02*
X169249300Y-117999300D01*
X169249300Y-117999300D02*
X168000000Y-116750000D01*
X168000000Y-116750000D02*
X161750000Y-116750000D01*
X161750000Y-116750000D02*
X158250000Y-113250000D01*
X158250000Y-113250000D02*
X155000000Y-113250000D01*
X155000000Y-113250000D02*
X152000000Y-116250000D01*
X148250000Y-129000000D02*
X148225000Y-128975000D01*
X148225000Y-128975000D02*
X148500000Y-129250000D01*
X176250000Y-116500700D02*
X176250000Y-115250000D01*
X147050000Y-130925000D02*
X148175000Y-130925000D01*
X148275000Y-132225000D02*
X147050000Y-132225000D01*
X166750000Y-117499300D02*
X159999300Y-117499300D01*
X153500000Y-116000000D02*
X152500000Y-117000000D01*
X158500000Y-116000000D02*
X153500000Y-116000000D01*
X159999300Y-117499300D02*
X158500000Y-116000000D01*
X149000000Y-131750000D02*
X148500000Y-131750000D01*
X148500000Y-131250000D02*
X148500000Y-131750000D01*
X148500000Y-131750000D02*
X148500000Y-132000000D01*
X148500000Y-132000000D02*
X148275000Y-132225000D01*
X148175000Y-130925000D02*
X148500000Y-131250000D01*
X166750000Y-116000700D02*
X166750000Y-114750000D01*
X147050000Y-131575000D02*
X145925000Y-131575000D01*
X145875000Y-132875000D02*
X147050000Y-132875000D01*
X145500000Y-132500000D02*
X145875000Y-132875000D01*
X145500000Y-132000000D02*
X145500000Y-132250000D01*
X145500000Y-132250000D02*
X145500000Y-132500000D01*
X145925000Y-131575000D02*
X145500000Y-132000000D01*
X152250000Y-118750000D02*
X152250000Y-118650000D01*
X157250000Y-116749300D02*
X154250700Y-116749300D01*
X154250700Y-116749300D02*
X153250000Y-117750000D01*
X146800000Y-118000000D02*
X146800000Y-118400000D01*
X147600000Y-117200000D02*
X146800000Y-118000000D01*
X150800000Y-117200000D02*
X147600000Y-117200000D01*
X152250000Y-118650000D02*
X150800000Y-117200000D01*
X157250000Y-115250700D02*
X157250000Y-114000000D01*
X150125000Y-133125000D02*
X150125000Y-131875000D01*
X147050000Y-133525000D02*
X149725000Y-133525000D01*
X150375000Y-132875000D02*
X152950000Y-132875000D01*
X149725000Y-133525000D02*
X150125000Y-133125000D01*
X150125000Y-133125000D02*
X150375000Y-132875000D01*
X149800000Y-126800000D02*
X150200000Y-126800000D01*
X148649300Y-116249300D02*
X147750000Y-116249300D01*
X148800000Y-116400000D02*
X148649300Y-116249300D01*
X150400000Y-118000000D02*
X149000000Y-118000000D01*
X151400000Y-119000000D02*
X150400000Y-118000000D01*
X150200000Y-126800000D02*
X152000000Y-125000000D01*
X150125000Y-131875000D02*
X150200000Y-131800000D01*
X147750000Y-114750700D02*
X147750000Y-113500000D01*
X152950000Y-133525000D02*
X154225000Y-133525000D01*
X154225000Y-132225000D02*
X152950000Y-132225000D01*
X154500000Y-132500000D02*
X154225000Y-132225000D01*
X154500000Y-133250000D02*
X154500000Y-133000000D01*
X154500000Y-133000000D02*
X154500000Y-132500000D01*
X154225000Y-133525000D02*
X154500000Y-133250000D01*
X138250000Y-115499300D02*
X149999300Y-115499300D01*
X149999300Y-115499300D02*
X153250000Y-118750000D01*
X138250000Y-114000700D02*
X138250000Y-112500000D01*
X150500000Y-128750000D02*
X150500000Y-130750000D01*
X150500000Y-130750000D02*
X151325000Y-131575000D01*
X152950000Y-131575000D02*
X151325000Y-131575000D01*
X152950000Y-131575000D02*
X153925000Y-131575000D01*
X153775000Y-130275000D02*
X152950000Y-130275000D01*
X154250000Y-130750000D02*
X153775000Y-130275000D01*
X154250000Y-131250000D02*
X154250000Y-130750000D01*
X153925000Y-131575000D02*
X154250000Y-131250000D01*
X168750000Y-114000000D02*
X163800000Y-114000000D01*
X176250700Y-106499300D02*
X168750000Y-114000000D01*
X156250000Y-121000000D02*
X155250000Y-122000000D01*
X155250000Y-122000000D02*
X152500000Y-122000000D01*
X152500000Y-122000000D02*
X151750000Y-122750000D01*
X176250700Y-106499300D02*
X179750000Y-106499300D01*
X163800000Y-114000000D02*
X163000000Y-113200000D01*
X179750000Y-105000700D02*
X179750000Y-103750000D01*
X152950000Y-130925000D02*
X151925000Y-130925000D01*
X151875000Y-129625000D02*
X152950000Y-129625000D01*
X151500000Y-130000000D02*
X151875000Y-129625000D01*
X151500000Y-130500000D02*
X151500000Y-130250000D01*
X151500000Y-130250000D02*
X151500000Y-130000000D01*
X151925000Y-130925000D02*
X151500000Y-130500000D01*
X151500000Y-130250000D02*
X151500000Y-129500000D01*
X170750000Y-106500000D02*
X170750000Y-105749300D01*
X164000000Y-113250000D02*
X170750000Y-106500000D01*
X155500000Y-122750000D02*
X157250000Y-121000000D01*
X153000000Y-122750000D02*
X155500000Y-122750000D01*
X170750000Y-104250700D02*
X170750000Y-103000000D01*
X152950000Y-128975000D02*
X153975000Y-128975000D01*
X166750000Y-131375000D02*
X168050000Y-131375000D01*
X164999300Y-105249300D02*
X168000000Y-108250000D01*
X169000000Y-109250000D02*
X169000000Y-112500000D01*
X161750000Y-105249300D02*
X164999300Y-105249300D01*
X155375000Y-131375000D02*
X166500000Y-131375000D01*
X166500000Y-131375000D02*
X166750000Y-131375000D01*
X154750000Y-130750000D02*
X155375000Y-131375000D01*
X154750000Y-129750000D02*
X154750000Y-130750000D01*
X153975000Y-128975000D02*
X154750000Y-129750000D01*
X161750000Y-103750700D02*
X161750000Y-102500000D01*
X168050000Y-130725000D02*
X169225000Y-130725000D01*
X169225000Y-132025000D02*
X168050000Y-132025000D01*
X169500000Y-131750000D02*
X169225000Y-132025000D01*
X169500000Y-131000000D02*
X169500000Y-131250000D01*
X169500000Y-131250000D02*
X169500000Y-131500000D01*
X169500000Y-131500000D02*
X169500000Y-131750000D01*
X169225000Y-130725000D02*
X169500000Y-131000000D01*
X152750000Y-104499300D02*
X158249300Y-104499300D01*
X158249300Y-104499300D02*
X165000000Y-111250000D01*
X166000000Y-119500000D02*
X166000000Y-121000000D01*
X166000000Y-121000000D02*
X166400000Y-121400000D01*
X166400000Y-121400000D02*
X169749998Y-121400000D01*
X169749998Y-121400000D02*
X170200000Y-121850002D01*
X170200000Y-121850002D02*
X170200000Y-124600000D01*
X152750000Y-103000700D02*
X152750000Y-101750000D01*
X165675000Y-132675000D02*
X168050000Y-132675000D01*
X165250000Y-132250000D02*
X165675000Y-132675000D01*
X168050000Y-132675000D02*
X169175000Y-132675000D01*
X169275000Y-133975000D02*
X168050000Y-133975000D01*
X169500000Y-133750000D02*
X169275000Y-133975000D01*
X169500000Y-133000000D02*
X169500000Y-133750000D01*
X169175000Y-132675000D02*
X169500000Y-133000000D01*
X143750000Y-103999300D02*
X143750000Y-104750000D01*
X143750000Y-104750000D02*
X149000000Y-110000000D01*
X149000000Y-110000000D02*
X162500000Y-110000000D01*
X162500000Y-110000000D02*
X164250000Y-111750000D01*
X165250000Y-119000000D02*
X165250000Y-121750000D01*
X143750000Y-102500700D02*
X143750000Y-101000000D01*
X168050000Y-133325000D02*
X166925000Y-133325000D01*
X166925000Y-133325000D02*
X166500000Y-133750000D01*
X166500000Y-133750000D02*
X166500000Y-134000000D01*
X166500000Y-134000000D02*
X166500000Y-134250000D01*
X166500000Y-134250000D02*
X166875000Y-134625000D01*
X166875000Y-134625000D02*
X168050000Y-134625000D01*
X175000000Y-106250000D02*
X172250000Y-109000000D01*
X175000000Y-100000000D02*
X175000000Y-106250000D01*
X173000000Y-98000000D02*
X175000000Y-100000000D01*
X173000000Y-97000000D02*
X173000000Y-98000000D01*
X173000000Y-97000000D02*
X175000000Y-95000000D01*
X175000000Y-94999300D02*
X175000000Y-95000000D01*
X172250000Y-111750000D02*
X171000000Y-113000000D01*
X171000000Y-113000000D02*
X171000000Y-117000000D01*
X171000000Y-119500000D02*
X171000000Y-125250000D01*
X175000000Y-93500700D02*
X175000000Y-92250000D01*
X170750000Y-135275000D02*
X170850000Y-135275000D01*
X170750000Y-135250000D02*
X170750000Y-135275000D01*
X171750000Y-125750000D02*
X171500000Y-126000000D01*
X168050000Y-135275000D02*
X170850000Y-135275000D01*
X171500000Y-134625000D02*
X173950000Y-134625000D01*
X170850000Y-135275000D02*
X171500000Y-134625000D01*
X171750000Y-120250000D02*
X171750000Y-125750000D01*
X161000000Y-98250000D02*
X169500000Y-106750000D01*
X170500000Y-107750000D02*
X170500000Y-111250000D01*
X172000000Y-113250000D02*
X172000000Y-117250000D01*
X172000000Y-120000000D02*
X171750000Y-120250000D01*
X161000000Y-92999300D02*
X161000000Y-98250000D01*
X161000000Y-91500700D02*
X161000000Y-90250000D01*
X173950000Y-133975000D02*
X172475000Y-133975000D01*
X173000000Y-122000000D02*
X173000000Y-126250000D01*
X171750000Y-129500000D02*
X172250000Y-129000000D01*
X171750000Y-133250000D02*
X171750000Y-129500000D01*
X172475000Y-133975000D02*
X171750000Y-133250000D01*
X173950000Y-135275000D02*
X175225000Y-135275000D01*
X175225000Y-133975000D02*
X173950000Y-133975000D01*
X175500000Y-134250000D02*
X175225000Y-133975000D01*
X175500000Y-135000000D02*
X175500000Y-134250000D01*
X175225000Y-135275000D02*
X175500000Y-135000000D01*
X169000000Y-99250000D02*
X169000000Y-104500000D01*
X149250000Y-92250000D02*
X162000000Y-92250000D01*
X162000000Y-92250000D02*
X169000000Y-99250000D01*
X149250000Y-92250000D02*
X149250000Y-91499300D01*
X173000000Y-111000000D02*
X173000000Y-117250000D01*
X173000000Y-106500000D02*
X173000000Y-107250000D01*
X171500000Y-105000000D02*
X173000000Y-106500000D01*
X169500000Y-105000000D02*
X171500000Y-105000000D01*
X169000000Y-104500000D02*
X169500000Y-105000000D01*
X173000000Y-119500000D02*
X174000000Y-120500000D01*
X174000000Y-120500000D02*
X174000000Y-121000000D01*
X174000000Y-121000000D02*
X173000000Y-122000000D01*
X149250000Y-90000700D02*
X149250000Y-88500000D01*
X173950000Y-133325000D02*
X172825000Y-133325000D01*
X172725000Y-132025000D02*
X173950000Y-132025000D01*
X172500000Y-132250000D02*
X172725000Y-132025000D01*
X172500000Y-133000000D02*
X172500000Y-132750000D01*
X172500000Y-132750000D02*
X172500000Y-132250000D01*
X172825000Y-133325000D02*
X172500000Y-133000000D01*
X167250000Y-96000000D02*
X167250000Y-83999300D01*
X173750000Y-104500000D02*
X173750000Y-106500000D01*
X171500000Y-102250000D02*
X173750000Y-104500000D01*
X169750000Y-102250000D02*
X171500000Y-102250000D01*
X169450002Y-101950002D02*
X169750000Y-102250000D01*
X169450002Y-98200002D02*
X169450002Y-101950002D01*
X167250000Y-96000000D02*
X169450002Y-98200002D01*
X173750000Y-110500000D02*
X173750000Y-116750000D01*
X173000000Y-120750000D02*
X172250000Y-121500000D01*
X172250000Y-122000000D02*
X172250000Y-126750000D01*
X172250000Y-121500000D02*
X172250000Y-122000000D01*
X167250000Y-82500700D02*
X167250000Y-81250000D01*
X173950000Y-131375000D02*
X175125000Y-131375000D01*
X175075000Y-132675000D02*
X173950000Y-132675000D01*
X175500000Y-132250000D02*
X175250000Y-132500000D01*
X175250000Y-132500000D02*
X175075000Y-132675000D01*
X175500000Y-131750000D02*
X175500000Y-132000000D01*
X175500000Y-132000000D02*
X175500000Y-132250000D01*
X175125000Y-131375000D02*
X175500000Y-131750000D01*
X164749300Y-81999300D02*
X166000000Y-83250000D01*
X166000000Y-83250000D02*
X168000000Y-83250000D01*
X168000000Y-83250000D02*
X168500000Y-83750000D01*
X168500000Y-83750000D02*
X168500000Y-95750000D01*
X168500000Y-95750000D02*
X174250000Y-101500000D01*
X174250000Y-101500000D02*
X174250000Y-104000000D01*
X174500000Y-109750000D02*
X174500000Y-117250000D01*
X153000000Y-81999300D02*
X164749300Y-81999300D01*
X174500000Y-121500000D02*
X174500000Y-119500000D01*
X173750000Y-122250000D02*
X174500000Y-121500000D01*
X173750000Y-126750000D02*
X173750000Y-122250000D01*
X153000000Y-80500700D02*
X153000000Y-79250000D01*
X156025000Y-134000000D02*
X155500000Y-134000000D01*
X155500000Y-134000000D02*
X155000000Y-134500000D01*
X155000000Y-136650000D02*
X156150000Y-137800000D01*
X155000000Y-134500000D02*
X155000000Y-136650000D01*
X163975000Y-134000000D02*
X156025000Y-134000000D01*
X156025000Y-141750000D02*
X156025000Y-139825000D01*
X156025000Y-139825000D02*
X156150000Y-139700000D01*
X163975000Y-141750000D02*
X156025000Y-141750000D01*
X158350000Y-139700000D02*
X158950000Y-139700000D01*
X158950000Y-139700000D02*
X159000000Y-139750000D01*
X154175000Y-134175000D02*
X154250000Y-134250000D01*
X152950000Y-134175000D02*
X154175000Y-134175000D01*
X160000000Y-135250000D02*
X161000000Y-135250000D01*
X172825000Y-135925000D02*
X173950000Y-135925000D01*
X171750000Y-137000000D02*
X172825000Y-135925000D01*
X166750000Y-137000000D02*
X171750000Y-137000000D01*
X165000000Y-135250000D02*
X166750000Y-137000000D01*
X160000000Y-135250000D02*
X161000000Y-135250000D01*
X161000000Y-135250000D02*
X165000000Y-135250000D01*
X142950000Y-134175000D02*
X143675000Y-134175000D01*
X143675000Y-134175000D02*
X144750000Y-135250000D01*
X144750000Y-135250000D02*
X150750000Y-135250000D01*
X150750000Y-135250000D02*
X151825000Y-134175000D01*
X151825000Y-134175000D02*
X152950000Y-134175000D01*
X158350000Y-137800000D02*
X157700000Y-137800000D01*
X162850200Y-140500000D02*
X163949960Y-139400240D01*
X157500000Y-140500000D02*
X162850200Y-140500000D01*
X157250000Y-140250000D02*
X157500000Y-140500000D01*
X157250000Y-138250000D02*
X157250000Y-140250000D01*
X157700000Y-137800000D02*
X157250000Y-138250000D01*
X154250000Y-135250000D02*
X153750000Y-135750000D01*
X153750000Y-135750000D02*
X144250000Y-135750000D01*
X144250000Y-135750000D02*
X143500000Y-135000000D01*
X159000000Y-135250000D02*
X155750000Y-135250000D01*
X160250000Y-136500000D02*
X159000000Y-135250000D01*
X160250000Y-137000000D02*
X160250000Y-136500000D01*
X161349760Y-138099760D02*
X160250000Y-137000000D01*
X162050040Y-138099760D02*
X161349760Y-138099760D01*
X138875000Y-129625000D02*
X137050000Y-129625000D01*
X139500000Y-130250000D02*
X138875000Y-129625000D01*
X139500000Y-131750000D02*
X139500000Y-130250000D01*
X139750000Y-132000000D02*
X139500000Y-131750000D01*
X161000000Y-136250000D02*
X161000000Y-136000000D01*
X161150240Y-139400240D02*
X161000000Y-139250000D01*
X161750000Y-137250000D02*
X161000000Y-136500000D01*
X161000000Y-136500000D02*
X161000000Y-136250000D01*
X161000000Y-128250000D02*
X161000000Y-129500000D01*
X161150240Y-139400240D02*
X162050040Y-139400240D01*
X154750000Y-126250000D02*
X155500000Y-126250000D01*
X149925000Y-128325000D02*
X152000000Y-126250000D01*
X152000000Y-126250000D02*
X154750000Y-126250000D01*
X161000000Y-128250000D02*
X160750000Y-128250000D01*
X156750000Y-128250000D02*
X160750000Y-128250000D01*
X149925000Y-128325000D02*
X147050000Y-128325000D01*
X156250000Y-127750000D02*
X156750000Y-128250000D01*
X156250000Y-127000000D02*
X156250000Y-127750000D01*
X155500000Y-126250000D02*
X156250000Y-127000000D01*
X166825000Y-130075000D02*
X168050000Y-130075000D01*
X165000000Y-128250000D02*
X166825000Y-130075000D01*
X161000000Y-128250000D02*
X161250000Y-128250000D01*
X161250000Y-128250000D02*
X165000000Y-128250000D01*
X137050000Y-128325000D02*
X139425000Y-128325000D01*
X139425000Y-128325000D02*
X141500000Y-126250000D01*
X141500000Y-126250000D02*
X144000000Y-126250000D01*
X144000000Y-126250000D02*
X146075000Y-128325000D01*
X146075000Y-128325000D02*
X147050000Y-128325000D01*
X161000000Y-59750700D02*
X160749300Y-59750700D01*
X160749300Y-59750700D02*
X160250000Y-60250000D01*
X160250000Y-60250000D02*
X160250000Y-62500000D01*
X161000000Y-61249300D02*
X161000000Y-75500000D01*
X161000000Y-75500000D02*
X166000000Y-80500000D01*
X166000000Y-80500000D02*
X167750000Y-80500000D01*
X167750000Y-80500000D02*
X169500000Y-82250000D01*
X169500000Y-82250000D02*
X169500000Y-95500000D01*
X169500000Y-95500000D02*
X174250000Y-100250000D01*
X175750000Y-102000000D02*
X175750000Y-106000000D01*
X175750000Y-108250000D02*
X177750000Y-110250000D01*
X177750000Y-110250000D02*
X177750000Y-118000000D01*
X177750000Y-119750000D02*
X178750000Y-120750000D01*
X178750000Y-120750000D02*
X178750000Y-128250000D01*
X178750000Y-129750000D02*
X178750000Y-130000000D01*
X178750000Y-130000000D02*
X178750000Y-130500000D01*
X178750000Y-130500000D02*
X178500000Y-130750000D01*
X178500000Y-130750000D02*
X178500000Y-133000000D01*
X178500000Y-133000000D02*
X176000000Y-135500000D01*
X175000000Y-130750000D02*
X175000000Y-130725000D01*
X178500000Y-130750000D02*
X175000000Y-130750000D01*
X176000000Y-135500000D02*
X174750000Y-136750000D01*
X176000000Y-135500000D02*
X176000000Y-135500000D01*
X174750000Y-136750000D02*
X172750000Y-136750000D01*
X172750000Y-136750000D02*
X172000000Y-137500000D01*
X172000000Y-137500000D02*
X166500000Y-137500000D01*
X166500000Y-137500000D02*
X166000000Y-137000000D01*
X166000000Y-137000000D02*
X165500000Y-137000000D01*
X165500000Y-137000000D02*
X165000000Y-137500000D01*
X165000000Y-137500000D02*
X164500000Y-137500000D01*
X164500000Y-137500000D02*
X163949960Y-138050040D01*
X163949960Y-138099760D02*
X163949960Y-138050040D01*
X175000000Y-130725000D02*
X173950000Y-130725000D01*
D26*
G36*
X162596838Y-142635317D02*
X162735910Y-142851441D01*
X162948110Y-142996431D01*
X163200000Y-143047440D01*
X164750000Y-143047440D01*
X164985317Y-143003162D01*
X165201441Y-142864090D01*
X165346431Y-142651890D01*
X165356172Y-142603786D01*
X165392649Y-142796856D01*
X165396538Y-142806506D01*
X165396744Y-142816907D01*
X166075569Y-145907993D01*
X166280779Y-147052526D01*
X165290767Y-147253808D01*
X165385000Y-147026310D01*
X165385000Y-146535750D01*
X165226250Y-146377000D01*
X164102000Y-146377000D01*
X164102000Y-146397000D01*
X163848000Y-146397000D01*
X163848000Y-146377000D01*
X162723750Y-146377000D01*
X162565000Y-146535750D01*
X162565000Y-147026310D01*
X162661673Y-147259699D01*
X162840302Y-147438327D01*
X163073691Y-147535000D01*
X163206906Y-147535000D01*
X162648097Y-147609013D01*
X162494244Y-147623000D01*
X158649071Y-147623000D01*
X157833527Y-147574474D01*
X157140269Y-147446375D01*
X157159698Y-147438327D01*
X157338327Y-147259699D01*
X157435000Y-147026310D01*
X157435000Y-146535750D01*
X157276250Y-146377000D01*
X156152000Y-146377000D01*
X156152000Y-146397000D01*
X155898000Y-146397000D01*
X155898000Y-146377000D01*
X154773750Y-146377000D01*
X154615000Y-146535750D01*
X154615000Y-146780415D01*
X154244788Y-146644596D01*
X154306796Y-146613592D01*
X154346515Y-146582546D01*
X154375272Y-146520879D01*
X154549803Y-145473690D01*
X154615000Y-145473690D01*
X154615000Y-145964250D01*
X154773750Y-146123000D01*
X155898000Y-146123000D01*
X155898000Y-145123750D01*
X156152000Y-145123750D01*
X156152000Y-146123000D01*
X157276250Y-146123000D01*
X157435000Y-145964250D01*
X157435000Y-145473690D01*
X162565000Y-145473690D01*
X162565000Y-145964250D01*
X162723750Y-146123000D01*
X163848000Y-146123000D01*
X163848000Y-145123750D01*
X164102000Y-145123750D01*
X164102000Y-146123000D01*
X165226250Y-146123000D01*
X165385000Y-145964250D01*
X165385000Y-145473690D01*
X165288327Y-145240301D01*
X165109698Y-145061673D01*
X164876309Y-144965000D01*
X164260750Y-144965000D01*
X164102000Y-145123750D01*
X163848000Y-145123750D01*
X163689250Y-144965000D01*
X163073691Y-144965000D01*
X162840302Y-145061673D01*
X162661673Y-145240301D01*
X162565000Y-145473690D01*
X157435000Y-145473690D01*
X157338327Y-145240301D01*
X157159698Y-145061673D01*
X156926309Y-144965000D01*
X156310750Y-144965000D01*
X156152000Y-145123750D01*
X155898000Y-145123750D01*
X155739250Y-144965000D01*
X155123691Y-144965000D01*
X154890302Y-145061673D01*
X154711673Y-145240301D01*
X154615000Y-145473690D01*
X154549803Y-145473690D01*
X154625272Y-145020879D01*
X154626699Y-145008738D01*
X154776488Y-142836799D01*
X154785910Y-142851441D01*
X154998110Y-142996431D01*
X155250000Y-143047440D01*
X156800000Y-143047440D01*
X157035317Y-143003162D01*
X157251441Y-142864090D01*
X157396431Y-142651890D01*
X157425164Y-142510000D01*
X162573258Y-142510000D01*
X162596838Y-142635317D01*
X162596838Y-142635317D01*
G37*
X162596838Y-142635317D02*
X162735910Y-142851441D01*
X162948110Y-142996431D01*
X163200000Y-143047440D01*
X164750000Y-143047440D01*
X164985317Y-143003162D01*
X165201441Y-142864090D01*
X165346431Y-142651890D01*
X165356172Y-142603786D01*
X165392649Y-142796856D01*
X165396538Y-142806506D01*
X165396744Y-142816907D01*
X166075569Y-145907993D01*
X166280779Y-147052526D01*
X165290767Y-147253808D01*
X165385000Y-147026310D01*
X165385000Y-146535750D01*
X165226250Y-146377000D01*
X164102000Y-146377000D01*
X164102000Y-146397000D01*
X163848000Y-146397000D01*
X163848000Y-146377000D01*
X162723750Y-146377000D01*
X162565000Y-146535750D01*
X162565000Y-147026310D01*
X162661673Y-147259699D01*
X162840302Y-147438327D01*
X163073691Y-147535000D01*
X163206906Y-147535000D01*
X162648097Y-147609013D01*
X162494244Y-147623000D01*
X158649071Y-147623000D01*
X157833527Y-147574474D01*
X157140269Y-147446375D01*
X157159698Y-147438327D01*
X157338327Y-147259699D01*
X157435000Y-147026310D01*
X157435000Y-146535750D01*
X157276250Y-146377000D01*
X156152000Y-146377000D01*
X156152000Y-146397000D01*
X155898000Y-146397000D01*
X155898000Y-146377000D01*
X154773750Y-146377000D01*
X154615000Y-146535750D01*
X154615000Y-146780415D01*
X154244788Y-146644596D01*
X154306796Y-146613592D01*
X154346515Y-146582546D01*
X154375272Y-146520879D01*
X154549803Y-145473690D01*
X154615000Y-145473690D01*
X154615000Y-145964250D01*
X154773750Y-146123000D01*
X155898000Y-146123000D01*
X155898000Y-145123750D01*
X156152000Y-145123750D01*
X156152000Y-146123000D01*
X157276250Y-146123000D01*
X157435000Y-145964250D01*
X157435000Y-145473690D01*
X162565000Y-145473690D01*
X162565000Y-145964250D01*
X162723750Y-146123000D01*
X163848000Y-146123000D01*
X163848000Y-145123750D01*
X164102000Y-145123750D01*
X164102000Y-146123000D01*
X165226250Y-146123000D01*
X165385000Y-145964250D01*
X165385000Y-145473690D01*
X165288327Y-145240301D01*
X165109698Y-145061673D01*
X164876309Y-144965000D01*
X164260750Y-144965000D01*
X164102000Y-145123750D01*
X163848000Y-145123750D01*
X163689250Y-144965000D01*
X163073691Y-144965000D01*
X162840302Y-145061673D01*
X162661673Y-145240301D01*
X162565000Y-145473690D01*
X157435000Y-145473690D01*
X157338327Y-145240301D01*
X157159698Y-145061673D01*
X156926309Y-144965000D01*
X156310750Y-144965000D01*
X156152000Y-145123750D01*
X155898000Y-145123750D01*
X155739250Y-144965000D01*
X155123691Y-144965000D01*
X154890302Y-145061673D01*
X154711673Y-145240301D01*
X154615000Y-145473690D01*
X154549803Y-145473690D01*
X154625272Y-145020879D01*
X154626699Y-145008738D01*
X154776488Y-142836799D01*
X154785910Y-142851441D01*
X154998110Y-142996431D01*
X155250000Y-143047440D01*
X156800000Y-143047440D01*
X157035317Y-143003162D01*
X157251441Y-142864090D01*
X157396431Y-142651890D01*
X157425164Y-142510000D01*
X162573258Y-142510000D01*
X162596838Y-142635317D01*
G36*
X151210875Y-136878596D02*
X148993923Y-137371252D01*
X147025477Y-137125197D01*
X145287536Y-136628642D01*
X145153179Y-136583856D01*
X145038981Y-136510000D01*
X152070933Y-136510000D01*
X151210875Y-136878596D01*
X151210875Y-136878596D01*
G37*
X151210875Y-136878596D02*
X148993923Y-137371252D01*
X147025477Y-137125197D01*
X145287536Y-136628642D01*
X145153179Y-136583856D01*
X145038981Y-136510000D01*
X152070933Y-136510000D01*
X151210875Y-136878596D01*
G36*
X164627000Y-136373000D02*
X164647000Y-136373000D01*
X164647000Y-136627000D01*
X164627000Y-136627000D01*
X164627000Y-136647000D01*
X164373000Y-136647000D01*
X164373000Y-136627000D01*
X164353000Y-136627000D01*
X164353000Y-136373000D01*
X164373000Y-136373000D01*
X164373000Y-136353000D01*
X164627000Y-136353000D01*
X164627000Y-136373000D01*
X164627000Y-136373000D01*
G37*
X164627000Y-136373000D02*
X164647000Y-136373000D01*
X164647000Y-136627000D01*
X164627000Y-136627000D01*
X164627000Y-136647000D01*
X164373000Y-136647000D01*
X164373000Y-136627000D01*
X164353000Y-136627000D01*
X164353000Y-136373000D01*
X164373000Y-136373000D01*
X164373000Y-136353000D01*
X164627000Y-136353000D01*
X164627000Y-136373000D01*
G36*
X156627000Y-136373000D02*
X156647000Y-136373000D01*
X156647000Y-136627000D01*
X156627000Y-136627000D01*
X156627000Y-136647000D01*
X156373000Y-136647000D01*
X156373000Y-136627000D01*
X156353000Y-136627000D01*
X156353000Y-136373000D01*
X156373000Y-136373000D01*
X156373000Y-136353000D01*
X156627000Y-136353000D01*
X156627000Y-136373000D01*
X156627000Y-136373000D01*
G37*
X156627000Y-136373000D02*
X156647000Y-136373000D01*
X156647000Y-136627000D01*
X156627000Y-136627000D01*
X156627000Y-136647000D01*
X156373000Y-136647000D01*
X156373000Y-136627000D01*
X156353000Y-136627000D01*
X156353000Y-136373000D01*
X156373000Y-136373000D01*
X156373000Y-136353000D01*
X156627000Y-136353000D01*
X156627000Y-136373000D01*
G36*
X184887130Y-119599521D02*
X185099330Y-119744511D01*
X185351220Y-119795520D01*
X186148780Y-119795520D01*
X186373000Y-119753330D01*
X186373000Y-120000000D01*
X186383006Y-120049410D01*
X186410197Y-120089803D01*
X186438861Y-120118467D01*
X186464432Y-120211711D01*
X186485973Y-120239445D01*
X186498594Y-120272212D01*
X186568528Y-120345737D01*
X186630772Y-120425878D01*
X186661285Y-120443257D01*
X186685486Y-120468701D01*
X187820569Y-121268937D01*
X187831418Y-121273752D01*
X187839884Y-121282074D01*
X190126060Y-122781419D01*
X190149014Y-122790697D01*
X190167848Y-122806770D01*
X192489434Y-124105744D01*
X192514193Y-124113778D01*
X192535186Y-124129165D01*
X193122998Y-124403136D01*
X193122998Y-124523748D01*
X192964250Y-124365000D01*
X192673690Y-124365000D01*
X192440301Y-124461673D01*
X192261673Y-124640302D01*
X192165000Y-124873691D01*
X192165000Y-124966250D01*
X192323750Y-125125000D01*
X193123000Y-125125000D01*
X193123000Y-125103000D01*
X193377000Y-125103000D01*
X193377000Y-125125000D01*
X194176250Y-125125000D01*
X194333782Y-124967468D01*
X194904642Y-125233538D01*
X194930548Y-125239872D01*
X194953192Y-125253965D01*
X197382977Y-126169502D01*
X197409224Y-126173845D01*
X197432806Y-126186155D01*
X199935381Y-126918627D01*
X199948363Y-126919777D01*
X199960132Y-126925378D01*
X200802086Y-127138409D01*
X200731584Y-127262382D01*
X199182753Y-129878097D01*
X198231045Y-131027031D01*
X196779838Y-132118036D01*
X195544806Y-132558512D01*
X193998591Y-132612385D01*
X193542957Y-132564882D01*
X192541863Y-132439745D01*
X190888011Y-131993918D01*
X190808371Y-131988577D01*
X190730660Y-131970363D01*
X190674362Y-131979591D01*
X190630581Y-131976655D01*
X190284890Y-131877886D01*
X190234632Y-131873933D01*
X190186796Y-131889845D01*
X190148400Y-131923800D01*
X189399582Y-132922224D01*
X188928958Y-133510504D01*
X188326105Y-134187186D01*
X187457053Y-134921718D01*
X187183455Y-135140597D01*
X184967064Y-136125660D01*
X182501575Y-136372209D01*
X180528234Y-136125541D01*
X178290161Y-135379517D01*
X178250000Y-135373000D01*
X177861012Y-135373000D01*
X177747608Y-135352847D01*
X177624670Y-135327254D01*
X177614477Y-135329187D01*
X177604261Y-135327372D01*
X177481634Y-135354385D01*
X177383493Y-135373000D01*
X177250000Y-135373000D01*
X177200590Y-135383006D01*
X177173684Y-135401118D01*
X179037401Y-133537401D01*
X179202148Y-133290839D01*
X179260000Y-133000000D01*
X179260000Y-131064802D01*
X179287401Y-131037401D01*
X179452148Y-130790840D01*
X179510000Y-130500000D01*
X179510000Y-130312463D01*
X179542192Y-130280327D01*
X179684838Y-129936799D01*
X179684993Y-129759300D01*
X183329074Y-129759300D01*
X183387130Y-129849521D01*
X183599330Y-129994511D01*
X183851220Y-130045520D01*
X184648780Y-130045520D01*
X184884097Y-130001242D01*
X185100221Y-129862170D01*
X185245211Y-129649970D01*
X185296220Y-129398080D01*
X185296220Y-129010000D01*
X187435198Y-129010000D01*
X188461899Y-130036701D01*
X188708461Y-130201448D01*
X188999300Y-130259300D01*
X192329074Y-130259300D01*
X192387130Y-130349521D01*
X192599330Y-130494511D01*
X192851220Y-130545520D01*
X193648780Y-130545520D01*
X193884097Y-130501242D01*
X194100221Y-130362170D01*
X194245211Y-130149970D01*
X194296220Y-129898080D01*
X194296220Y-129100520D01*
X194251942Y-128865203D01*
X194177815Y-128750007D01*
X194245211Y-128651370D01*
X194296220Y-128399480D01*
X194296220Y-127601920D01*
X194251942Y-127366603D01*
X194235505Y-127341059D01*
X194296431Y-127251890D01*
X194347440Y-127000000D01*
X194347440Y-126500000D01*
X194303162Y-126264683D01*
X194164090Y-126048559D01*
X194095994Y-126002031D01*
X194238327Y-125859698D01*
X194335000Y-125626309D01*
X194335000Y-125533750D01*
X194176250Y-125375000D01*
X193377000Y-125375000D01*
X193377000Y-125397000D01*
X193123000Y-125397000D01*
X193123000Y-125375000D01*
X192323750Y-125375000D01*
X192165000Y-125533750D01*
X192165000Y-125626309D01*
X192261673Y-125859698D01*
X192402910Y-126000936D01*
X192348559Y-126035910D01*
X192203569Y-126248110D01*
X192152560Y-126500000D01*
X192152560Y-127000000D01*
X192196838Y-127235317D01*
X192262959Y-127338072D01*
X192254789Y-127350030D01*
X192203780Y-127601920D01*
X192203780Y-128399480D01*
X192248058Y-128634797D01*
X192315304Y-128739300D01*
X189314102Y-128739300D01*
X188287401Y-127712599D01*
X188040839Y-127547852D01*
X187750000Y-127490000D01*
X185296220Y-127490000D01*
X185296220Y-127101920D01*
X185251942Y-126866603D01*
X185235505Y-126841059D01*
X185296431Y-126751890D01*
X185347440Y-126500000D01*
X185347440Y-126000000D01*
X185303162Y-125764683D01*
X185164090Y-125548559D01*
X185095994Y-125502031D01*
X185238327Y-125359698D01*
X185335000Y-125126309D01*
X185335000Y-125033750D01*
X185176250Y-124875000D01*
X184377000Y-124875000D01*
X184377000Y-124897000D01*
X184123000Y-124897000D01*
X184123000Y-124875000D01*
X183323750Y-124875000D01*
X183165000Y-125033750D01*
X183165000Y-125126309D01*
X183261673Y-125359698D01*
X183402910Y-125500936D01*
X183348559Y-125535910D01*
X183203569Y-125748110D01*
X183152560Y-126000000D01*
X183152560Y-126500000D01*
X183196838Y-126735317D01*
X183262959Y-126838072D01*
X183254789Y-126850030D01*
X183203780Y-127101920D01*
X183203780Y-127490000D01*
X180550944Y-127490000D01*
X180543117Y-127471057D01*
X180280327Y-127207808D01*
X179936799Y-127065162D01*
X179564833Y-127064838D01*
X179510000Y-127087494D01*
X179510000Y-124373691D01*
X183165000Y-124373691D01*
X183165000Y-124466250D01*
X183323750Y-124625000D01*
X184123000Y-124625000D01*
X184123000Y-124023750D01*
X184377000Y-124023750D01*
X184377000Y-124625000D01*
X185176250Y-124625000D01*
X185335000Y-124466250D01*
X185335000Y-124373691D01*
X185238327Y-124140302D01*
X185059699Y-123961673D01*
X184826310Y-123865000D01*
X184535750Y-123865000D01*
X184377000Y-124023750D01*
X184123000Y-124023750D01*
X183964250Y-123865000D01*
X183673690Y-123865000D01*
X183440301Y-123961673D01*
X183261673Y-124140302D01*
X183165000Y-124373691D01*
X179510000Y-124373691D01*
X179510000Y-120750000D01*
X179452148Y-120459161D01*
X179287401Y-120212599D01*
X178685122Y-119610320D01*
X178685162Y-119564833D01*
X178662216Y-119509300D01*
X184829074Y-119509300D01*
X184887130Y-119599521D01*
X184887130Y-119599521D01*
G37*
X184887130Y-119599521D02*
X185099330Y-119744511D01*
X185351220Y-119795520D01*
X186148780Y-119795520D01*
X186373000Y-119753330D01*
X186373000Y-120000000D01*
X186383006Y-120049410D01*
X186410197Y-120089803D01*
X186438861Y-120118467D01*
X186464432Y-120211711D01*
X186485973Y-120239445D01*
X186498594Y-120272212D01*
X186568528Y-120345737D01*
X186630772Y-120425878D01*
X186661285Y-120443257D01*
X186685486Y-120468701D01*
X187820569Y-121268937D01*
X187831418Y-121273752D01*
X187839884Y-121282074D01*
X190126060Y-122781419D01*
X190149014Y-122790697D01*
X190167848Y-122806770D01*
X192489434Y-124105744D01*
X192514193Y-124113778D01*
X192535186Y-124129165D01*
X193122998Y-124403136D01*
X193122998Y-124523748D01*
X192964250Y-124365000D01*
X192673690Y-124365000D01*
X192440301Y-124461673D01*
X192261673Y-124640302D01*
X192165000Y-124873691D01*
X192165000Y-124966250D01*
X192323750Y-125125000D01*
X193123000Y-125125000D01*
X193123000Y-125103000D01*
X193377000Y-125103000D01*
X193377000Y-125125000D01*
X194176250Y-125125000D01*
X194333782Y-124967468D01*
X194904642Y-125233538D01*
X194930548Y-125239872D01*
X194953192Y-125253965D01*
X197382977Y-126169502D01*
X197409224Y-126173845D01*
X197432806Y-126186155D01*
X199935381Y-126918627D01*
X199948363Y-126919777D01*
X199960132Y-126925378D01*
X200802086Y-127138409D01*
X200731584Y-127262382D01*
X199182753Y-129878097D01*
X198231045Y-131027031D01*
X196779838Y-132118036D01*
X195544806Y-132558512D01*
X193998591Y-132612385D01*
X193542957Y-132564882D01*
X192541863Y-132439745D01*
X190888011Y-131993918D01*
X190808371Y-131988577D01*
X190730660Y-131970363D01*
X190674362Y-131979591D01*
X190630581Y-131976655D01*
X190284890Y-131877886D01*
X190234632Y-131873933D01*
X190186796Y-131889845D01*
X190148400Y-131923800D01*
X189399582Y-132922224D01*
X188928958Y-133510504D01*
X188326105Y-134187186D01*
X187457053Y-134921718D01*
X187183455Y-135140597D01*
X184967064Y-136125660D01*
X182501575Y-136372209D01*
X180528234Y-136125541D01*
X178290161Y-135379517D01*
X178250000Y-135373000D01*
X177861012Y-135373000D01*
X177747608Y-135352847D01*
X177624670Y-135327254D01*
X177614477Y-135329187D01*
X177604261Y-135327372D01*
X177481634Y-135354385D01*
X177383493Y-135373000D01*
X177250000Y-135373000D01*
X177200590Y-135383006D01*
X177173684Y-135401118D01*
X179037401Y-133537401D01*
X179202148Y-133290839D01*
X179260000Y-133000000D01*
X179260000Y-131064802D01*
X179287401Y-131037401D01*
X179452148Y-130790840D01*
X179510000Y-130500000D01*
X179510000Y-130312463D01*
X179542192Y-130280327D01*
X179684838Y-129936799D01*
X179684993Y-129759300D01*
X183329074Y-129759300D01*
X183387130Y-129849521D01*
X183599330Y-129994511D01*
X183851220Y-130045520D01*
X184648780Y-130045520D01*
X184884097Y-130001242D01*
X185100221Y-129862170D01*
X185245211Y-129649970D01*
X185296220Y-129398080D01*
X185296220Y-129010000D01*
X187435198Y-129010000D01*
X188461899Y-130036701D01*
X188708461Y-130201448D01*
X188999300Y-130259300D01*
X192329074Y-130259300D01*
X192387130Y-130349521D01*
X192599330Y-130494511D01*
X192851220Y-130545520D01*
X193648780Y-130545520D01*
X193884097Y-130501242D01*
X194100221Y-130362170D01*
X194245211Y-130149970D01*
X194296220Y-129898080D01*
X194296220Y-129100520D01*
X194251942Y-128865203D01*
X194177815Y-128750007D01*
X194245211Y-128651370D01*
X194296220Y-128399480D01*
X194296220Y-127601920D01*
X194251942Y-127366603D01*
X194235505Y-127341059D01*
X194296431Y-127251890D01*
X194347440Y-127000000D01*
X194347440Y-126500000D01*
X194303162Y-126264683D01*
X194164090Y-126048559D01*
X194095994Y-126002031D01*
X194238327Y-125859698D01*
X194335000Y-125626309D01*
X194335000Y-125533750D01*
X194176250Y-125375000D01*
X193377000Y-125375000D01*
X193377000Y-125397000D01*
X193123000Y-125397000D01*
X193123000Y-125375000D01*
X192323750Y-125375000D01*
X192165000Y-125533750D01*
X192165000Y-125626309D01*
X192261673Y-125859698D01*
X192402910Y-126000936D01*
X192348559Y-126035910D01*
X192203569Y-126248110D01*
X192152560Y-126500000D01*
X192152560Y-127000000D01*
X192196838Y-127235317D01*
X192262959Y-127338072D01*
X192254789Y-127350030D01*
X192203780Y-127601920D01*
X192203780Y-128399480D01*
X192248058Y-128634797D01*
X192315304Y-128739300D01*
X189314102Y-128739300D01*
X188287401Y-127712599D01*
X188040839Y-127547852D01*
X187750000Y-127490000D01*
X185296220Y-127490000D01*
X185296220Y-127101920D01*
X185251942Y-126866603D01*
X185235505Y-126841059D01*
X185296431Y-126751890D01*
X185347440Y-126500000D01*
X185347440Y-126000000D01*
X185303162Y-125764683D01*
X185164090Y-125548559D01*
X185095994Y-125502031D01*
X185238327Y-125359698D01*
X185335000Y-125126309D01*
X185335000Y-125033750D01*
X185176250Y-124875000D01*
X184377000Y-124875000D01*
X184377000Y-124897000D01*
X184123000Y-124897000D01*
X184123000Y-124875000D01*
X183323750Y-124875000D01*
X183165000Y-125033750D01*
X183165000Y-125126309D01*
X183261673Y-125359698D01*
X183402910Y-125500936D01*
X183348559Y-125535910D01*
X183203569Y-125748110D01*
X183152560Y-126000000D01*
X183152560Y-126500000D01*
X183196838Y-126735317D01*
X183262959Y-126838072D01*
X183254789Y-126850030D01*
X183203780Y-127101920D01*
X183203780Y-127490000D01*
X180550944Y-127490000D01*
X180543117Y-127471057D01*
X180280327Y-127207808D01*
X179936799Y-127065162D01*
X179564833Y-127064838D01*
X179510000Y-127087494D01*
X179510000Y-124373691D01*
X183165000Y-124373691D01*
X183165000Y-124466250D01*
X183323750Y-124625000D01*
X184123000Y-124625000D01*
X184123000Y-124023750D01*
X184377000Y-124023750D01*
X184377000Y-124625000D01*
X185176250Y-124625000D01*
X185335000Y-124466250D01*
X185335000Y-124373691D01*
X185238327Y-124140302D01*
X185059699Y-123961673D01*
X184826310Y-123865000D01*
X184535750Y-123865000D01*
X184377000Y-124023750D01*
X184123000Y-124023750D01*
X183964250Y-123865000D01*
X183673690Y-123865000D01*
X183440301Y-123961673D01*
X183261673Y-124140302D01*
X183165000Y-124373691D01*
X179510000Y-124373691D01*
X179510000Y-120750000D01*
X179452148Y-120459161D01*
X179287401Y-120212599D01*
X178685122Y-119610320D01*
X178685162Y-119564833D01*
X178662216Y-119509300D01*
X184829074Y-119509300D01*
X184887130Y-119599521D01*
G36*
X141577560Y-133750000D02*
X141597067Y-133853671D01*
X141577560Y-133950000D01*
X141577560Y-134400000D01*
X141613465Y-134590816D01*
X141508041Y-134623000D01*
X141500000Y-134623000D01*
X141443204Y-134636408D01*
X141410410Y-134652805D01*
X141126354Y-134739522D01*
X139487292Y-135040297D01*
X138742968Y-135123000D01*
X137367747Y-135123000D01*
X136587492Y-135078465D01*
X136514221Y-135060147D01*
X136461209Y-135035000D01*
X136764250Y-135035000D01*
X136923000Y-134876250D01*
X136923000Y-134397440D01*
X137177000Y-134397440D01*
X137177000Y-134876250D01*
X137335750Y-135035000D01*
X137901309Y-135035000D01*
X138134698Y-134938327D01*
X138313327Y-134759699D01*
X138410000Y-134526310D01*
X138410000Y-134446250D01*
X138265752Y-134302002D01*
X138410000Y-134302002D01*
X138410000Y-134221961D01*
X138648799Y-134062401D01*
X139076200Y-133635000D01*
X141577560Y-133635000D01*
X141577560Y-133750000D01*
X141577560Y-133750000D01*
G37*
X141577560Y-133750000D02*
X141597067Y-133853671D01*
X141577560Y-133950000D01*
X141577560Y-134400000D01*
X141613465Y-134590816D01*
X141508041Y-134623000D01*
X141500000Y-134623000D01*
X141443204Y-134636408D01*
X141410410Y-134652805D01*
X141126354Y-134739522D01*
X139487292Y-135040297D01*
X138742968Y-135123000D01*
X137367747Y-135123000D01*
X136587492Y-135078465D01*
X136514221Y-135060147D01*
X136461209Y-135035000D01*
X136764250Y-135035000D01*
X136923000Y-134876250D01*
X136923000Y-134397440D01*
X137177000Y-134397440D01*
X137177000Y-134876250D01*
X137335750Y-135035000D01*
X137901309Y-135035000D01*
X138134698Y-134938327D01*
X138313327Y-134759699D01*
X138410000Y-134526310D01*
X138410000Y-134446250D01*
X138265752Y-134302002D01*
X138410000Y-134302002D01*
X138410000Y-134221961D01*
X138648799Y-134062401D01*
X139076200Y-133635000D01*
X141577560Y-133635000D01*
X141577560Y-133750000D01*
G36*
X129203780Y-123899480D02*
X129248058Y-124134797D01*
X129322185Y-124249993D01*
X129254789Y-124348630D01*
X129203780Y-124600520D01*
X129203780Y-125398080D01*
X129248058Y-125633397D01*
X129387130Y-125849521D01*
X129599330Y-125994511D01*
X129851220Y-126045520D01*
X130648780Y-126045520D01*
X130884097Y-126001242D01*
X131100221Y-125862170D01*
X131170509Y-125759300D01*
X133814991Y-125759300D01*
X133814838Y-125935167D01*
X133956883Y-126278943D01*
X133990000Y-126312118D01*
X133990000Y-130000000D01*
X134047852Y-130290839D01*
X134212599Y-130537401D01*
X134915000Y-131239802D01*
X134915000Y-131925000D01*
X134972852Y-132215839D01*
X135137599Y-132462401D01*
X135437599Y-132762401D01*
X135677560Y-132922737D01*
X135677560Y-133100000D01*
X135697067Y-133203671D01*
X135677560Y-133300000D01*
X135677560Y-133750000D01*
X135690980Y-133821323D01*
X135690000Y-133823690D01*
X135690000Y-133903750D01*
X135710312Y-133924062D01*
X135721838Y-133985317D01*
X135860910Y-134201441D01*
X135986862Y-134287500D01*
X135848750Y-134287500D01*
X135690000Y-134446250D01*
X135690000Y-134526310D01*
X135763646Y-134704108D01*
X134863050Y-134276905D01*
X133453388Y-132768748D01*
X133058632Y-132213003D01*
X133057999Y-132212405D01*
X133057642Y-132211614D01*
X132959665Y-132119535D01*
X132861483Y-132026808D01*
X132860669Y-132026498D01*
X132860037Y-132025904D01*
X132734141Y-131978275D01*
X132608088Y-131930233D01*
X132607220Y-131930258D01*
X132606406Y-131929950D01*
X132471783Y-131934128D01*
X132337023Y-131937978D01*
X132336228Y-131938334D01*
X132335360Y-131938361D01*
X131537345Y-132123000D01*
X131500000Y-132123000D01*
X131487363Y-132123630D01*
X129007649Y-132371601D01*
X126786250Y-131877957D01*
X124810227Y-131136949D01*
X123082374Y-129902768D01*
X122061842Y-128882236D01*
X121514893Y-128220682D01*
X121050394Y-127134843D01*
X121307908Y-127019598D01*
X123632197Y-126171927D01*
X123653038Y-126159262D01*
X123676820Y-126153878D01*
X126078012Y-125084498D01*
X126095987Y-125071792D01*
X126117108Y-125065601D01*
X128517548Y-123811409D01*
X128534018Y-123798150D01*
X128553918Y-123790995D01*
X129203780Y-123400129D01*
X129203780Y-123899480D01*
X129203780Y-123899480D01*
G37*
X129203780Y-123899480D02*
X129248058Y-124134797D01*
X129322185Y-124249993D01*
X129254789Y-124348630D01*
X129203780Y-124600520D01*
X129203780Y-125398080D01*
X129248058Y-125633397D01*
X129387130Y-125849521D01*
X129599330Y-125994511D01*
X129851220Y-126045520D01*
X130648780Y-126045520D01*
X130884097Y-126001242D01*
X131100221Y-125862170D01*
X131170509Y-125759300D01*
X133814991Y-125759300D01*
X133814838Y-125935167D01*
X133956883Y-126278943D01*
X133990000Y-126312118D01*
X133990000Y-130000000D01*
X134047852Y-130290839D01*
X134212599Y-130537401D01*
X134915000Y-131239802D01*
X134915000Y-131925000D01*
X134972852Y-132215839D01*
X135137599Y-132462401D01*
X135437599Y-132762401D01*
X135677560Y-132922737D01*
X135677560Y-133100000D01*
X135697067Y-133203671D01*
X135677560Y-133300000D01*
X135677560Y-133750000D01*
X135690980Y-133821323D01*
X135690000Y-133823690D01*
X135690000Y-133903750D01*
X135710312Y-133924062D01*
X135721838Y-133985317D01*
X135860910Y-134201441D01*
X135986862Y-134287500D01*
X135848750Y-134287500D01*
X135690000Y-134446250D01*
X135690000Y-134526310D01*
X135763646Y-134704108D01*
X134863050Y-134276905D01*
X133453388Y-132768748D01*
X133058632Y-132213003D01*
X133057999Y-132212405D01*
X133057642Y-132211614D01*
X132959665Y-132119535D01*
X132861483Y-132026808D01*
X132860669Y-132026498D01*
X132860037Y-132025904D01*
X132734141Y-131978275D01*
X132608088Y-131930233D01*
X132607220Y-131930258D01*
X132606406Y-131929950D01*
X132471783Y-131934128D01*
X132337023Y-131937978D01*
X132336228Y-131938334D01*
X132335360Y-131938361D01*
X131537345Y-132123000D01*
X131500000Y-132123000D01*
X131487363Y-132123630D01*
X129007649Y-132371601D01*
X126786250Y-131877957D01*
X124810227Y-131136949D01*
X123082374Y-129902768D01*
X122061842Y-128882236D01*
X121514893Y-128220682D01*
X121050394Y-127134843D01*
X121307908Y-127019598D01*
X123632197Y-126171927D01*
X123653038Y-126159262D01*
X123676820Y-126153878D01*
X126078012Y-125084498D01*
X126095987Y-125071792D01*
X126117108Y-125065601D01*
X128517548Y-123811409D01*
X128534018Y-123798150D01*
X128553918Y-123790995D01*
X129203780Y-123400129D01*
X129203780Y-123899480D01*
G36*
X171365991Y-128690793D02*
X171315162Y-128813201D01*
X171315121Y-128860077D01*
X171212599Y-128962599D01*
X171047852Y-129209161D01*
X170990000Y-129500000D01*
X170990000Y-133250000D01*
X171047852Y-133540839D01*
X171212599Y-133787401D01*
X171325007Y-133899809D01*
X171209161Y-133922852D01*
X170962599Y-134087599D01*
X170735212Y-134314986D01*
X170564833Y-134314838D01*
X170221057Y-134456883D01*
X170162838Y-134515000D01*
X169808511Y-134515000D01*
X169812401Y-134512401D01*
X170037401Y-134287401D01*
X170202148Y-134040839D01*
X170260000Y-133750000D01*
X170260000Y-133000000D01*
X170210271Y-132750000D01*
X170202148Y-132709160D01*
X170037401Y-132462599D01*
X169949802Y-132375000D01*
X170037401Y-132287401D01*
X170202148Y-132040839D01*
X170244497Y-131827939D01*
X170292192Y-131780327D01*
X170434838Y-131436799D01*
X170435162Y-131064833D01*
X170293117Y-130721057D01*
X170042039Y-130469541D01*
X170037401Y-130462599D01*
X169762401Y-130187599D01*
X169515839Y-130022852D01*
X169422440Y-130004274D01*
X169422440Y-129850000D01*
X169378162Y-129614683D01*
X169239090Y-129398559D01*
X169026890Y-129253569D01*
X168775000Y-129202560D01*
X167325000Y-129202560D01*
X167089683Y-129246838D01*
X167078704Y-129253902D01*
X166620322Y-128795520D01*
X166648780Y-128795520D01*
X166884097Y-128751242D01*
X167100221Y-128612170D01*
X167245211Y-128399970D01*
X167296220Y-128148080D01*
X167296220Y-127350520D01*
X167251942Y-127115203D01*
X167177815Y-127000007D01*
X167245211Y-126901370D01*
X167296220Y-126649480D01*
X167296220Y-125851920D01*
X167251942Y-125616603D01*
X167235505Y-125591059D01*
X167296431Y-125501890D01*
X167347440Y-125250000D01*
X167347440Y-125010000D01*
X167685198Y-125010000D01*
X171365991Y-128690793D01*
X171365991Y-128690793D01*
G37*
X171365991Y-128690793D02*
X171315162Y-128813201D01*
X171315121Y-128860077D01*
X171212599Y-128962599D01*
X171047852Y-129209161D01*
X170990000Y-129500000D01*
X170990000Y-133250000D01*
X171047852Y-133540839D01*
X171212599Y-133787401D01*
X171325007Y-133899809D01*
X171209161Y-133922852D01*
X170962599Y-134087599D01*
X170735212Y-134314986D01*
X170564833Y-134314838D01*
X170221057Y-134456883D01*
X170162838Y-134515000D01*
X169808511Y-134515000D01*
X169812401Y-134512401D01*
X170037401Y-134287401D01*
X170202148Y-134040839D01*
X170260000Y-133750000D01*
X170260000Y-133000000D01*
X170210271Y-132750000D01*
X170202148Y-132709160D01*
X170037401Y-132462599D01*
X169949802Y-132375000D01*
X170037401Y-132287401D01*
X170202148Y-132040839D01*
X170244497Y-131827939D01*
X170292192Y-131780327D01*
X170434838Y-131436799D01*
X170435162Y-131064833D01*
X170293117Y-130721057D01*
X170042039Y-130469541D01*
X170037401Y-130462599D01*
X169762401Y-130187599D01*
X169515839Y-130022852D01*
X169422440Y-130004274D01*
X169422440Y-129850000D01*
X169378162Y-129614683D01*
X169239090Y-129398559D01*
X169026890Y-129253569D01*
X168775000Y-129202560D01*
X167325000Y-129202560D01*
X167089683Y-129246838D01*
X167078704Y-129253902D01*
X166620322Y-128795520D01*
X166648780Y-128795520D01*
X166884097Y-128751242D01*
X167100221Y-128612170D01*
X167245211Y-128399970D01*
X167296220Y-128148080D01*
X167296220Y-127350520D01*
X167251942Y-127115203D01*
X167177815Y-127000007D01*
X167245211Y-126901370D01*
X167296220Y-126649480D01*
X167296220Y-125851920D01*
X167251942Y-125616603D01*
X167235505Y-125591059D01*
X167296431Y-125501890D01*
X167347440Y-125250000D01*
X167347440Y-125010000D01*
X167685198Y-125010000D01*
X171365991Y-128690793D01*
G36*
X144962599Y-133037401D02*
X145337599Y-133412401D01*
X145584161Y-133577148D01*
X145677560Y-133595726D01*
X145677560Y-133750000D01*
X145690980Y-133821323D01*
X145690000Y-133823690D01*
X145690000Y-133903750D01*
X145710312Y-133924062D01*
X145721838Y-133985317D01*
X145860910Y-134201441D01*
X145986862Y-134287500D01*
X145848750Y-134287500D01*
X145690000Y-134446250D01*
X145690000Y-134490000D01*
X145064802Y-134490000D01*
X144524802Y-133950000D01*
X144737401Y-133737401D01*
X144902148Y-133490840D01*
X144915196Y-133425245D01*
X144960000Y-133200000D01*
X144960000Y-133033511D01*
X144962599Y-133037401D01*
X144962599Y-133037401D01*
G37*
X144962599Y-133037401D02*
X145337599Y-133412401D01*
X145584161Y-133577148D01*
X145677560Y-133595726D01*
X145677560Y-133750000D01*
X145690980Y-133821323D01*
X145690000Y-133823690D01*
X145690000Y-133903750D01*
X145710312Y-133924062D01*
X145721838Y-133985317D01*
X145860910Y-134201441D01*
X145986862Y-134287500D01*
X145848750Y-134287500D01*
X145690000Y-134446250D01*
X145690000Y-134490000D01*
X145064802Y-134490000D01*
X144524802Y-133950000D01*
X144737401Y-133737401D01*
X144902148Y-133490840D01*
X144915196Y-133425245D01*
X144960000Y-133200000D01*
X144960000Y-133033511D01*
X144962599Y-133037401D01*
G36*
X177147000Y-131627000D02*
X177127000Y-131627000D01*
X177127000Y-132376250D01*
X177285750Y-132535000D01*
X177501310Y-132535000D01*
X177734699Y-132438327D01*
X177740000Y-132433026D01*
X177740000Y-132685198D01*
X176245930Y-134179268D01*
X176202148Y-133959161D01*
X176037401Y-133712599D01*
X175762401Y-133437599D01*
X175518884Y-133274887D01*
X175612401Y-133212401D01*
X176037401Y-132787401D01*
X176042874Y-132779211D01*
X176292192Y-132530327D01*
X176320841Y-132461333D01*
X176498690Y-132535000D01*
X176714250Y-132535000D01*
X176873000Y-132376250D01*
X176873000Y-131627000D01*
X176853000Y-131627000D01*
X176853000Y-131510000D01*
X177147000Y-131510000D01*
X177147000Y-131627000D01*
X177147000Y-131627000D01*
G37*
X177147000Y-131627000D02*
X177127000Y-131627000D01*
X177127000Y-132376250D01*
X177285750Y-132535000D01*
X177501310Y-132535000D01*
X177734699Y-132438327D01*
X177740000Y-132433026D01*
X177740000Y-132685198D01*
X176245930Y-134179268D01*
X176202148Y-133959161D01*
X176037401Y-133712599D01*
X175762401Y-133437599D01*
X175518884Y-133274887D01*
X175612401Y-133212401D01*
X176037401Y-132787401D01*
X176042874Y-132779211D01*
X176292192Y-132530327D01*
X176320841Y-132461333D01*
X176498690Y-132535000D01*
X176714250Y-132535000D01*
X176873000Y-132376250D01*
X176873000Y-131627000D01*
X176853000Y-131627000D01*
X176853000Y-131510000D01*
X177147000Y-131510000D01*
X177147000Y-131627000D01*
G36*
X155375000Y-132135000D02*
X164315099Y-132135000D01*
X164314838Y-132435167D01*
X164425322Y-132702560D01*
X163200000Y-132702560D01*
X162964683Y-132746838D01*
X162748559Y-132885910D01*
X162603569Y-133098110D01*
X162574836Y-133240000D01*
X157426742Y-133240000D01*
X157403162Y-133114683D01*
X157264090Y-132898559D01*
X157051890Y-132753569D01*
X156800000Y-132702560D01*
X155388772Y-132702560D01*
X155293117Y-132471057D01*
X155244569Y-132422424D01*
X155202148Y-132209161D01*
X155118505Y-132083979D01*
X155375000Y-132135000D01*
X155375000Y-132135000D01*
G37*
X155375000Y-132135000D02*
X164315099Y-132135000D01*
X164314838Y-132435167D01*
X164425322Y-132702560D01*
X163200000Y-132702560D01*
X162964683Y-132746838D01*
X162748559Y-132885910D01*
X162603569Y-133098110D01*
X162574836Y-133240000D01*
X157426742Y-133240000D01*
X157403162Y-133114683D01*
X157264090Y-132898559D01*
X157051890Y-132753569D01*
X156800000Y-132702560D01*
X155388772Y-132702560D01*
X155293117Y-132471057D01*
X155244569Y-132422424D01*
X155202148Y-132209161D01*
X155118505Y-132083979D01*
X155375000Y-132135000D01*
G36*
X160065162Y-129313201D02*
X160064838Y-129685167D01*
X160206883Y-130028943D01*
X160469673Y-130292192D01*
X160813201Y-130434838D01*
X161185167Y-130435162D01*
X161528943Y-130293117D01*
X161792192Y-130030327D01*
X161934838Y-129686799D01*
X161935162Y-129314833D01*
X161809208Y-129010000D01*
X162565000Y-129010000D01*
X162565000Y-129214250D01*
X162723750Y-129373000D01*
X163848000Y-129373000D01*
X163848000Y-129353000D01*
X164102000Y-129353000D01*
X164102000Y-129373000D01*
X164122000Y-129373000D01*
X164122000Y-129627000D01*
X164102000Y-129627000D01*
X164102000Y-129647000D01*
X163848000Y-129647000D01*
X163848000Y-129627000D01*
X162723750Y-129627000D01*
X162565000Y-129785750D01*
X162565000Y-130276310D01*
X162661673Y-130509699D01*
X162766975Y-130615000D01*
X157233025Y-130615000D01*
X157338327Y-130509699D01*
X157435000Y-130276310D01*
X157435000Y-129785750D01*
X157276250Y-129627000D01*
X156152000Y-129627000D01*
X156152000Y-129647000D01*
X155898000Y-129647000D01*
X155898000Y-129627000D01*
X155878000Y-129627000D01*
X155878000Y-129373000D01*
X155898000Y-129373000D01*
X155898000Y-129353000D01*
X156152000Y-129353000D01*
X156152000Y-129373000D01*
X157276250Y-129373000D01*
X157435000Y-129214250D01*
X157435000Y-129010000D01*
X160191063Y-129010000D01*
X160065162Y-129313201D01*
X160065162Y-129313201D01*
G37*
X160065162Y-129313201D02*
X160064838Y-129685167D01*
X160206883Y-130028943D01*
X160469673Y-130292192D01*
X160813201Y-130434838D01*
X161185167Y-130435162D01*
X161528943Y-130293117D01*
X161792192Y-130030327D01*
X161934838Y-129686799D01*
X161935162Y-129314833D01*
X161809208Y-129010000D01*
X162565000Y-129010000D01*
X162565000Y-129214250D01*
X162723750Y-129373000D01*
X163848000Y-129373000D01*
X163848000Y-129353000D01*
X164102000Y-129353000D01*
X164102000Y-129373000D01*
X164122000Y-129373000D01*
X164122000Y-129627000D01*
X164102000Y-129627000D01*
X164102000Y-129647000D01*
X163848000Y-129647000D01*
X163848000Y-129627000D01*
X162723750Y-129627000D01*
X162565000Y-129785750D01*
X162565000Y-130276310D01*
X162661673Y-130509699D01*
X162766975Y-130615000D01*
X157233025Y-130615000D01*
X157338327Y-130509699D01*
X157435000Y-130276310D01*
X157435000Y-129785750D01*
X157276250Y-129627000D01*
X156152000Y-129627000D01*
X156152000Y-129647000D01*
X155898000Y-129647000D01*
X155898000Y-129627000D01*
X155878000Y-129627000D01*
X155878000Y-129373000D01*
X155898000Y-129373000D01*
X155898000Y-129353000D01*
X156152000Y-129353000D01*
X156152000Y-129373000D01*
X157276250Y-129373000D01*
X157435000Y-129214250D01*
X157435000Y-129010000D01*
X160191063Y-129010000D01*
X160065162Y-129313201D01*
G36*
X176815162Y-119563201D02*
X176814838Y-119935167D01*
X176956883Y-120278943D01*
X177219673Y-120542192D01*
X177563201Y-120684838D01*
X177610077Y-120684879D01*
X177990000Y-121064802D01*
X177990000Y-127665198D01*
X177287401Y-126962599D01*
X177040839Y-126797852D01*
X176750000Y-126740000D01*
X176296220Y-126740000D01*
X176296220Y-126351920D01*
X176251942Y-126116603D01*
X176235505Y-126091059D01*
X176296431Y-126001890D01*
X176347440Y-125750000D01*
X176347440Y-125250000D01*
X176303162Y-125014683D01*
X176164090Y-124798559D01*
X176095994Y-124752031D01*
X176238327Y-124609698D01*
X176335000Y-124376309D01*
X176335000Y-124283750D01*
X176176250Y-124125000D01*
X175377000Y-124125000D01*
X175377000Y-124147000D01*
X175123000Y-124147000D01*
X175123000Y-124125000D01*
X175103000Y-124125000D01*
X175103000Y-123875000D01*
X175123000Y-123875000D01*
X175123000Y-123273750D01*
X175377000Y-123273750D01*
X175377000Y-123875000D01*
X176176250Y-123875000D01*
X176335000Y-123716250D01*
X176335000Y-123623691D01*
X176238327Y-123390302D01*
X176059699Y-123211673D01*
X175826310Y-123115000D01*
X175535750Y-123115000D01*
X175377000Y-123273750D01*
X175123000Y-123273750D01*
X174964250Y-123115000D01*
X174673690Y-123115000D01*
X174510000Y-123182803D01*
X174510000Y-122564802D01*
X175037401Y-122037401D01*
X175202148Y-121790840D01*
X175260000Y-121500000D01*
X175260000Y-120062463D01*
X175292192Y-120030327D01*
X175434838Y-119686799D01*
X175434993Y-119509300D01*
X176837544Y-119509300D01*
X176815162Y-119563201D01*
X176815162Y-119563201D01*
G37*
X176815162Y-119563201D02*
X176814838Y-119935167D01*
X176956883Y-120278943D01*
X177219673Y-120542192D01*
X177563201Y-120684838D01*
X177610077Y-120684879D01*
X177990000Y-121064802D01*
X177990000Y-127665198D01*
X177287401Y-126962599D01*
X177040839Y-126797852D01*
X176750000Y-126740000D01*
X176296220Y-126740000D01*
X176296220Y-126351920D01*
X176251942Y-126116603D01*
X176235505Y-126091059D01*
X176296431Y-126001890D01*
X176347440Y-125750000D01*
X176347440Y-125250000D01*
X176303162Y-125014683D01*
X176164090Y-124798559D01*
X176095994Y-124752031D01*
X176238327Y-124609698D01*
X176335000Y-124376309D01*
X176335000Y-124283750D01*
X176176250Y-124125000D01*
X175377000Y-124125000D01*
X175377000Y-124147000D01*
X175123000Y-124147000D01*
X175123000Y-124125000D01*
X175103000Y-124125000D01*
X175103000Y-123875000D01*
X175123000Y-123875000D01*
X175123000Y-123273750D01*
X175377000Y-123273750D01*
X175377000Y-123875000D01*
X176176250Y-123875000D01*
X176335000Y-123716250D01*
X176335000Y-123623691D01*
X176238327Y-123390302D01*
X176059699Y-123211673D01*
X175826310Y-123115000D01*
X175535750Y-123115000D01*
X175377000Y-123273750D01*
X175123000Y-123273750D01*
X174964250Y-123115000D01*
X174673690Y-123115000D01*
X174510000Y-123182803D01*
X174510000Y-122564802D01*
X175037401Y-122037401D01*
X175202148Y-121790840D01*
X175260000Y-121500000D01*
X175260000Y-120062463D01*
X175292192Y-120030327D01*
X175434838Y-119686799D01*
X175434993Y-119509300D01*
X176837544Y-119509300D01*
X176815162Y-119563201D01*
G36*
X161165198Y-127490000D02*
X158277606Y-127490000D01*
X158296220Y-127398080D01*
X158296220Y-126600520D01*
X158251942Y-126365203D01*
X158177815Y-126250007D01*
X158245211Y-126151370D01*
X158296220Y-125899480D01*
X158296220Y-125101920D01*
X158251942Y-124866603D01*
X158235505Y-124841059D01*
X158296431Y-124751890D01*
X158318434Y-124643236D01*
X161165198Y-127490000D01*
X161165198Y-127490000D01*
G37*
X161165198Y-127490000D02*
X158277606Y-127490000D01*
X158296220Y-127398080D01*
X158296220Y-126600520D01*
X158251942Y-126365203D01*
X158177815Y-126250007D01*
X158245211Y-126151370D01*
X158296220Y-125899480D01*
X158296220Y-125101920D01*
X158251942Y-124866603D01*
X158235505Y-124841059D01*
X158296431Y-124751890D01*
X158318434Y-124643236D01*
X161165198Y-127490000D01*
G36*
X161640198Y-122965000D02*
X161627000Y-122965000D01*
X161627000Y-123873000D01*
X161647000Y-123873000D01*
X161647000Y-124127000D01*
X161627000Y-124127000D01*
X161627000Y-125035000D01*
X161977000Y-125035000D01*
X162363410Y-124907615D01*
X162671658Y-124642053D01*
X162844666Y-124286123D01*
X162717000Y-124127002D01*
X162802200Y-124127002D01*
X163462599Y-124787401D01*
X163709160Y-124952148D01*
X164000000Y-125010000D01*
X165152560Y-125010000D01*
X165152560Y-125250000D01*
X165196838Y-125485317D01*
X165262959Y-125588072D01*
X165254789Y-125600030D01*
X165203780Y-125851920D01*
X165203780Y-126649480D01*
X165248058Y-126884797D01*
X165315304Y-126989300D01*
X162814102Y-126989300D01*
X160779543Y-124954741D01*
X161023000Y-125035000D01*
X161373000Y-125035000D01*
X161373000Y-124127000D01*
X160283002Y-124127000D01*
X160155334Y-124286123D01*
X160197336Y-124372534D01*
X159538679Y-123713877D01*
X160155334Y-123713877D01*
X160283002Y-123873000D01*
X161373000Y-123873000D01*
X161373000Y-122965000D01*
X161023000Y-122965000D01*
X160636590Y-123092385D01*
X160328342Y-123357947D01*
X160155334Y-123713877D01*
X159538679Y-123713877D01*
X158787401Y-122962599D01*
X158557964Y-122809294D01*
X158673000Y-122716998D01*
X158673000Y-121627000D01*
X158927000Y-121627000D01*
X158927000Y-122716998D01*
X159086123Y-122844666D01*
X159442053Y-122671658D01*
X159707615Y-122363410D01*
X159835000Y-121977000D01*
X159835000Y-121627000D01*
X158927000Y-121627000D01*
X158673000Y-121627000D01*
X158653000Y-121627000D01*
X158653000Y-121373000D01*
X158673000Y-121373000D01*
X158673000Y-121353000D01*
X158927000Y-121353000D01*
X158927000Y-121373000D01*
X159835000Y-121373000D01*
X159835000Y-121159802D01*
X161640198Y-122965000D01*
X161640198Y-122965000D01*
G37*
X161640198Y-122965000D02*
X161627000Y-122965000D01*
X161627000Y-123873000D01*
X161647000Y-123873000D01*
X161647000Y-124127000D01*
X161627000Y-124127000D01*
X161627000Y-125035000D01*
X161977000Y-125035000D01*
X162363410Y-124907615D01*
X162671658Y-124642053D01*
X162844666Y-124286123D01*
X162717000Y-124127002D01*
X162802200Y-124127002D01*
X163462599Y-124787401D01*
X163709160Y-124952148D01*
X164000000Y-125010000D01*
X165152560Y-125010000D01*
X165152560Y-125250000D01*
X165196838Y-125485317D01*
X165262959Y-125588072D01*
X165254789Y-125600030D01*
X165203780Y-125851920D01*
X165203780Y-126649480D01*
X165248058Y-126884797D01*
X165315304Y-126989300D01*
X162814102Y-126989300D01*
X160779543Y-124954741D01*
X161023000Y-125035000D01*
X161373000Y-125035000D01*
X161373000Y-124127000D01*
X160283002Y-124127000D01*
X160155334Y-124286123D01*
X160197336Y-124372534D01*
X159538679Y-123713877D01*
X160155334Y-123713877D01*
X160283002Y-123873000D01*
X161373000Y-123873000D01*
X161373000Y-122965000D01*
X161023000Y-122965000D01*
X160636590Y-123092385D01*
X160328342Y-123357947D01*
X160155334Y-123713877D01*
X159538679Y-123713877D01*
X158787401Y-122962599D01*
X158557964Y-122809294D01*
X158673000Y-122716998D01*
X158673000Y-121627000D01*
X158927000Y-121627000D01*
X158927000Y-122716998D01*
X159086123Y-122844666D01*
X159442053Y-122671658D01*
X159707615Y-122363410D01*
X159835000Y-121977000D01*
X159835000Y-121627000D01*
X158927000Y-121627000D01*
X158673000Y-121627000D01*
X158653000Y-121627000D01*
X158653000Y-121373000D01*
X158673000Y-121373000D01*
X158673000Y-121353000D01*
X158927000Y-121353000D01*
X158927000Y-121373000D01*
X159835000Y-121373000D01*
X159835000Y-121159802D01*
X161640198Y-122965000D01*
G36*
X144047852Y-123959161D02*
X143990000Y-124250000D01*
X143990000Y-124925407D01*
X143913327Y-124740302D01*
X143734699Y-124561673D01*
X143501310Y-124465000D01*
X143285750Y-124465000D01*
X143127000Y-124623750D01*
X143127000Y-125373000D01*
X143147000Y-125373000D01*
X143147000Y-125490000D01*
X142853000Y-125490000D01*
X142853000Y-125373000D01*
X142873000Y-125373000D01*
X142873000Y-124623750D01*
X142714250Y-124465000D01*
X142498690Y-124465000D01*
X142265301Y-124561673D01*
X142086673Y-124740302D01*
X141990000Y-124973691D01*
X141990000Y-125214250D01*
X142148748Y-125372998D01*
X141990000Y-125372998D01*
X141990000Y-125490000D01*
X141500000Y-125490000D01*
X141209161Y-125547852D01*
X140962599Y-125712599D01*
X140498668Y-126176530D01*
X140296220Y-125973729D01*
X140296220Y-125750806D01*
X140540839Y-125702148D01*
X140787401Y-125537401D01*
X141287401Y-125037401D01*
X141452148Y-124790839D01*
X141510000Y-124500000D01*
X141510000Y-124062463D01*
X141542192Y-124030327D01*
X141654442Y-123760000D01*
X144180927Y-123760000D01*
X144047852Y-123959161D01*
X144047852Y-123959161D01*
G37*
X144047852Y-123959161D02*
X143990000Y-124250000D01*
X143990000Y-124925407D01*
X143913327Y-124740302D01*
X143734699Y-124561673D01*
X143501310Y-124465000D01*
X143285750Y-124465000D01*
X143127000Y-124623750D01*
X143127000Y-125373000D01*
X143147000Y-125373000D01*
X143147000Y-125490000D01*
X142853000Y-125490000D01*
X142853000Y-125373000D01*
X142873000Y-125373000D01*
X142873000Y-124623750D01*
X142714250Y-124465000D01*
X142498690Y-124465000D01*
X142265301Y-124561673D01*
X142086673Y-124740302D01*
X141990000Y-124973691D01*
X141990000Y-125214250D01*
X142148748Y-125372998D01*
X141990000Y-125372998D01*
X141990000Y-125490000D01*
X141500000Y-125490000D01*
X141209161Y-125547852D01*
X140962599Y-125712599D01*
X140498668Y-126176530D01*
X140296220Y-125973729D01*
X140296220Y-125750806D01*
X140540839Y-125702148D01*
X140787401Y-125537401D01*
X141287401Y-125037401D01*
X141452148Y-124790839D01*
X141510000Y-124500000D01*
X141510000Y-124062463D01*
X141542192Y-124030327D01*
X141654442Y-123760000D01*
X144180927Y-123760000D01*
X144047852Y-123959161D01*
G36*
X147352560Y-124206937D02*
X147254789Y-124350030D01*
X147203780Y-124601920D01*
X147203780Y-124990000D01*
X146250000Y-124990000D01*
X145959160Y-125047852D01*
X145712599Y-125212599D01*
X145510000Y-125415198D01*
X145510000Y-124654242D01*
X145778943Y-124543117D01*
X146042192Y-124280327D01*
X146184838Y-123936799D01*
X146184992Y-123760000D01*
X147352560Y-123760000D01*
X147352560Y-124206937D01*
X147352560Y-124206937D01*
G37*
X147352560Y-124206937D02*
X147254789Y-124350030D01*
X147203780Y-124601920D01*
X147203780Y-124990000D01*
X146250000Y-124990000D01*
X145959160Y-125047852D01*
X145712599Y-125212599D01*
X145510000Y-125415198D01*
X145510000Y-124654242D01*
X145778943Y-124543117D01*
X146042192Y-124280327D01*
X146184838Y-123936799D01*
X146184992Y-123760000D01*
X147352560Y-123760000D01*
X147352560Y-124206937D01*
G36*
X138152560Y-123250000D02*
X138196838Y-123485317D01*
X138262959Y-123588072D01*
X138254789Y-123600030D01*
X138203780Y-123851920D01*
X138203780Y-124249194D01*
X137959161Y-124297852D01*
X137712599Y-124462599D01*
X137610320Y-124564878D01*
X137564833Y-124564838D01*
X137221057Y-124706883D01*
X137001179Y-124926377D01*
X136810658Y-124735856D01*
X136934838Y-124436799D01*
X136934879Y-124389923D01*
X138152560Y-123172242D01*
X138152560Y-123250000D01*
X138152560Y-123250000D01*
G37*
X138152560Y-123250000D02*
X138196838Y-123485317D01*
X138262959Y-123588072D01*
X138254789Y-123600030D01*
X138203780Y-123851920D01*
X138203780Y-124249194D01*
X137959161Y-124297852D01*
X137712599Y-124462599D01*
X137610320Y-124564878D01*
X137564833Y-124564838D01*
X137221057Y-124706883D01*
X137001179Y-124926377D01*
X136810658Y-124735856D01*
X136934838Y-124436799D01*
X136934879Y-124389923D01*
X138152560Y-123172242D01*
X138152560Y-123250000D01*
G36*
X156152560Y-124500000D02*
X156196838Y-124735317D01*
X156262959Y-124838072D01*
X156254789Y-124850030D01*
X156241324Y-124916522D01*
X155584802Y-124260000D01*
X156152560Y-124260000D01*
X156152560Y-124500000D01*
X156152560Y-124500000D01*
G37*
X156152560Y-124500000D02*
X156196838Y-124735317D01*
X156262959Y-124838072D01*
X156254789Y-124850030D01*
X156241324Y-124916522D01*
X155584802Y-124260000D01*
X156152560Y-124260000D01*
X156152560Y-124500000D01*
G36*
X149897000Y-123927000D02*
X149875000Y-123927000D01*
X149875000Y-123947000D01*
X149625000Y-123947000D01*
X149625000Y-123927000D01*
X149603000Y-123927000D01*
X149603000Y-123760000D01*
X149897000Y-123760000D01*
X149897000Y-123927000D01*
X149897000Y-123927000D01*
G37*
X149897000Y-123927000D02*
X149875000Y-123927000D01*
X149875000Y-123947000D01*
X149625000Y-123947000D01*
X149625000Y-123927000D01*
X149603000Y-123927000D01*
X149603000Y-123760000D01*
X149897000Y-123760000D01*
X149897000Y-123927000D01*
G36*
X137352560Y-112950000D02*
X137390467Y-113151458D01*
X137254789Y-113350030D01*
X137203780Y-113601920D01*
X137203780Y-114399480D01*
X137248058Y-114634797D01*
X137322185Y-114749993D01*
X137254789Y-114848630D01*
X137203780Y-115100520D01*
X137203780Y-115898080D01*
X137248058Y-116133397D01*
X137387130Y-116349521D01*
X137599330Y-116494511D01*
X137851220Y-116545520D01*
X138648780Y-116545520D01*
X138884097Y-116501242D01*
X139100221Y-116362170D01*
X139170509Y-116259300D01*
X146703780Y-116259300D01*
X146703780Y-116648080D01*
X146748058Y-116883397D01*
X146784762Y-116940436D01*
X146262599Y-117462599D01*
X146097852Y-117709161D01*
X146080323Y-117797284D01*
X146007808Y-117869673D01*
X145865162Y-118213201D01*
X145864921Y-118490000D01*
X141312463Y-118490000D01*
X141280327Y-118457808D01*
X140936799Y-118315162D01*
X140564833Y-118314838D01*
X140221057Y-118456883D01*
X139957808Y-118719673D01*
X139815162Y-119063201D01*
X139814838Y-119435167D01*
X139837494Y-119490000D01*
X138500000Y-119490000D01*
X138209161Y-119547852D01*
X137962599Y-119712599D01*
X134610320Y-123064878D01*
X134564833Y-123064838D01*
X134221057Y-123206883D01*
X133957808Y-123469673D01*
X133843707Y-123744457D01*
X133726250Y-123627000D01*
X133125000Y-123627000D01*
X133125000Y-123647000D01*
X132875000Y-123647000D01*
X132875000Y-123627000D01*
X132853000Y-123627000D01*
X132853000Y-123373000D01*
X132875000Y-123373000D01*
X132875000Y-122573750D01*
X133125000Y-122573750D01*
X133125000Y-123373000D01*
X133726250Y-123373000D01*
X133885000Y-123214250D01*
X133885000Y-122923690D01*
X133788327Y-122690301D01*
X133609698Y-122511673D01*
X133376309Y-122415000D01*
X133283750Y-122415000D01*
X133125000Y-122573750D01*
X132875000Y-122573750D01*
X132716250Y-122415000D01*
X132623691Y-122415000D01*
X132390302Y-122511673D01*
X132249064Y-122652910D01*
X132214090Y-122598559D01*
X132001890Y-122453569D01*
X131750000Y-122402560D01*
X131250000Y-122402560D01*
X131014683Y-122446838D01*
X130911761Y-122513067D01*
X130900670Y-122505489D01*
X130743983Y-122473759D01*
X130899169Y-122380421D01*
X130915137Y-122365903D01*
X130934959Y-122357373D01*
X133170585Y-120818846D01*
X133178456Y-120810756D01*
X133188677Y-120805965D01*
X133889387Y-120289995D01*
X133960824Y-120211717D01*
X134038782Y-120139928D01*
X134051613Y-120112234D01*
X134072185Y-120089692D01*
X134108227Y-119990041D01*
X134152780Y-119893878D01*
X134154036Y-119863382D01*
X134164416Y-119834683D01*
X134159579Y-119728818D01*
X134163940Y-119622932D01*
X134153431Y-119594279D01*
X134152038Y-119563791D01*
X134107057Y-119467837D01*
X134070565Y-119368340D01*
X134049890Y-119345888D01*
X134036936Y-119318255D01*
X133958663Y-119246822D01*
X133886870Y-119168860D01*
X133047106Y-118556296D01*
X131498779Y-117287207D01*
X130156539Y-115847448D01*
X129996373Y-115643543D01*
X130505494Y-115467485D01*
X130516988Y-115460762D01*
X130530099Y-115458453D01*
X132971642Y-114509641D01*
X132997883Y-114492932D01*
X133027924Y-114484850D01*
X135426265Y-113299076D01*
X135449695Y-113281060D01*
X135477489Y-113271012D01*
X137352560Y-112138781D01*
X137352560Y-112950000D01*
X137352560Y-112950000D01*
G37*
X137352560Y-112950000D02*
X137390467Y-113151458D01*
X137254789Y-113350030D01*
X137203780Y-113601920D01*
X137203780Y-114399480D01*
X137248058Y-114634797D01*
X137322185Y-114749993D01*
X137254789Y-114848630D01*
X137203780Y-115100520D01*
X137203780Y-115898080D01*
X137248058Y-116133397D01*
X137387130Y-116349521D01*
X137599330Y-116494511D01*
X137851220Y-116545520D01*
X138648780Y-116545520D01*
X138884097Y-116501242D01*
X139100221Y-116362170D01*
X139170509Y-116259300D01*
X146703780Y-116259300D01*
X146703780Y-116648080D01*
X146748058Y-116883397D01*
X146784762Y-116940436D01*
X146262599Y-117462599D01*
X146097852Y-117709161D01*
X146080323Y-117797284D01*
X146007808Y-117869673D01*
X145865162Y-118213201D01*
X145864921Y-118490000D01*
X141312463Y-118490000D01*
X141280327Y-118457808D01*
X140936799Y-118315162D01*
X140564833Y-118314838D01*
X140221057Y-118456883D01*
X139957808Y-118719673D01*
X139815162Y-119063201D01*
X139814838Y-119435167D01*
X139837494Y-119490000D01*
X138500000Y-119490000D01*
X138209161Y-119547852D01*
X137962599Y-119712599D01*
X134610320Y-123064878D01*
X134564833Y-123064838D01*
X134221057Y-123206883D01*
X133957808Y-123469673D01*
X133843707Y-123744457D01*
X133726250Y-123627000D01*
X133125000Y-123627000D01*
X133125000Y-123647000D01*
X132875000Y-123647000D01*
X132875000Y-123627000D01*
X132853000Y-123627000D01*
X132853000Y-123373000D01*
X132875000Y-123373000D01*
X132875000Y-122573750D01*
X133125000Y-122573750D01*
X133125000Y-123373000D01*
X133726250Y-123373000D01*
X133885000Y-123214250D01*
X133885000Y-122923690D01*
X133788327Y-122690301D01*
X133609698Y-122511673D01*
X133376309Y-122415000D01*
X133283750Y-122415000D01*
X133125000Y-122573750D01*
X132875000Y-122573750D01*
X132716250Y-122415000D01*
X132623691Y-122415000D01*
X132390302Y-122511673D01*
X132249064Y-122652910D01*
X132214090Y-122598559D01*
X132001890Y-122453569D01*
X131750000Y-122402560D01*
X131250000Y-122402560D01*
X131014683Y-122446838D01*
X130911761Y-122513067D01*
X130900670Y-122505489D01*
X130743983Y-122473759D01*
X130899169Y-122380421D01*
X130915137Y-122365903D01*
X130934959Y-122357373D01*
X133170585Y-120818846D01*
X133178456Y-120810756D01*
X133188677Y-120805965D01*
X133889387Y-120289995D01*
X133960824Y-120211717D01*
X134038782Y-120139928D01*
X134051613Y-120112234D01*
X134072185Y-120089692D01*
X134108227Y-119990041D01*
X134152780Y-119893878D01*
X134154036Y-119863382D01*
X134164416Y-119834683D01*
X134159579Y-119728818D01*
X134163940Y-119622932D01*
X134153431Y-119594279D01*
X134152038Y-119563791D01*
X134107057Y-119467837D01*
X134070565Y-119368340D01*
X134049890Y-119345888D01*
X134036936Y-119318255D01*
X133958663Y-119246822D01*
X133886870Y-119168860D01*
X133047106Y-118556296D01*
X131498779Y-117287207D01*
X130156539Y-115847448D01*
X129996373Y-115643543D01*
X130505494Y-115467485D01*
X130516988Y-115460762D01*
X130530099Y-115458453D01*
X132971642Y-114509641D01*
X132997883Y-114492932D01*
X133027924Y-114484850D01*
X135426265Y-113299076D01*
X135449695Y-113281060D01*
X135477489Y-113271012D01*
X137352560Y-112138781D01*
X137352560Y-112950000D01*
G36*
X144864838Y-121185167D02*
X145006883Y-121528943D01*
X145269673Y-121792192D01*
X145613201Y-121934838D01*
X145985167Y-121935162D01*
X146328943Y-121793117D01*
X146592192Y-121530327D01*
X146621394Y-121460002D01*
X151966486Y-121460002D01*
X151962599Y-121462599D01*
X151610320Y-121814878D01*
X151564833Y-121814838D01*
X151221057Y-121956883D01*
X150957808Y-122219673D01*
X150934157Y-122276631D01*
X150750000Y-122240000D01*
X141564802Y-122240000D01*
X141037401Y-121712599D01*
X140790839Y-121547852D01*
X140500000Y-121490000D01*
X140335000Y-121490000D01*
X140335000Y-121372998D01*
X140178252Y-121372998D01*
X140335000Y-121216250D01*
X140335000Y-121123691D01*
X140287908Y-121010000D01*
X144864991Y-121010000D01*
X144864838Y-121185167D01*
X144864838Y-121185167D01*
G37*
X144864838Y-121185167D02*
X145006883Y-121528943D01*
X145269673Y-121792192D01*
X145613201Y-121934838D01*
X145985167Y-121935162D01*
X146328943Y-121793117D01*
X146592192Y-121530327D01*
X146621394Y-121460002D01*
X151966486Y-121460002D01*
X151962599Y-121462599D01*
X151610320Y-121814878D01*
X151564833Y-121814838D01*
X151221057Y-121956883D01*
X150957808Y-122219673D01*
X150934157Y-122276631D01*
X150750000Y-122240000D01*
X141564802Y-122240000D01*
X141037401Y-121712599D01*
X140790839Y-121547852D01*
X140500000Y-121490000D01*
X140335000Y-121490000D01*
X140335000Y-121372998D01*
X140178252Y-121372998D01*
X140335000Y-121216250D01*
X140335000Y-121123691D01*
X140287908Y-121010000D01*
X144864991Y-121010000D01*
X144864838Y-121185167D01*
G36*
X164315162Y-118813201D02*
X164314838Y-119185167D01*
X164456883Y-119528943D01*
X164490000Y-119562118D01*
X164490000Y-121187537D01*
X164457808Y-121219673D01*
X164315162Y-121563201D01*
X164315008Y-121740000D01*
X163314802Y-121740000D01*
X161609802Y-120035000D01*
X161877134Y-120035000D01*
X162273211Y-119956215D01*
X162608990Y-119731856D01*
X162833349Y-119396077D01*
X162912134Y-119000000D01*
X162864395Y-118760000D01*
X164337253Y-118760000D01*
X164315162Y-118813201D01*
X164315162Y-118813201D01*
G37*
X164315162Y-118813201D02*
X164314838Y-119185167D01*
X164456883Y-119528943D01*
X164490000Y-119562118D01*
X164490000Y-121187537D01*
X164457808Y-121219673D01*
X164315162Y-121563201D01*
X164315008Y-121740000D01*
X163314802Y-121740000D01*
X161609802Y-120035000D01*
X161877134Y-120035000D01*
X162273211Y-119956215D01*
X162608990Y-119731856D01*
X162833349Y-119396077D01*
X162912134Y-119000000D01*
X162864395Y-118760000D01*
X164337253Y-118760000D01*
X164315162Y-118813201D01*
G36*
X174888873Y-96188520D02*
X174885850Y-96200227D01*
X174883294Y-96202878D01*
X174856177Y-96271851D01*
X174817159Y-96334855D01*
X174807046Y-96396818D01*
X174784073Y-96455250D01*
X174785415Y-96529347D01*
X174773477Y-96602489D01*
X174787846Y-96663607D01*
X174788983Y-96726381D01*
X174818579Y-96794325D01*
X174835540Y-96866467D01*
X174872204Y-96917434D01*
X174897277Y-96974994D01*
X174950621Y-97026441D01*
X174993899Y-97086601D01*
X175717272Y-97761623D01*
X175737934Y-97774419D01*
X175753451Y-97793119D01*
X177836949Y-99484187D01*
X177860626Y-99496678D01*
X177879238Y-99515921D01*
X180186666Y-101113939D01*
X180224525Y-101130365D01*
X180256500Y-101156453D01*
X182576271Y-102387857D01*
X182610985Y-102398279D01*
X182641279Y-102418174D01*
X185118653Y-103421347D01*
X185156800Y-103428620D01*
X185191417Y-103446222D01*
X187294038Y-104037319D01*
X187111218Y-104214425D01*
X185442025Y-105597165D01*
X183064845Y-107111791D01*
X180722227Y-108166768D01*
X180075999Y-108428681D01*
X180053558Y-108443429D01*
X180027643Y-108450463D01*
X179940939Y-108517441D01*
X179849381Y-108577612D01*
X179844647Y-108584581D01*
X179709839Y-108629517D01*
X179660197Y-108660197D01*
X179410197Y-108910197D01*
X179382334Y-108952211D01*
X179373012Y-109001754D01*
X179383700Y-109051022D01*
X179410197Y-109089803D01*
X179660197Y-109339803D01*
X179670664Y-109349170D01*
X179719220Y-109388015D01*
X179781706Y-109468904D01*
X179841877Y-109560462D01*
X179864089Y-109575550D01*
X179880506Y-109596802D01*
X180897846Y-110483162D01*
X180933123Y-110503377D01*
X180961535Y-110532462D01*
X183128963Y-112017682D01*
X183154208Y-112028486D01*
X183174869Y-112046573D01*
X185191480Y-113208425D01*
X185217875Y-113217358D01*
X185240227Y-113233994D01*
X186042304Y-113615000D01*
X186035750Y-113615000D01*
X185877000Y-113773750D01*
X185877000Y-114375000D01*
X186676250Y-114375000D01*
X186835000Y-114216250D01*
X186835000Y-114123691D01*
X186766857Y-113959180D01*
X187245797Y-114186688D01*
X187274841Y-114194015D01*
X187300305Y-114209789D01*
X189357986Y-114980225D01*
X189386588Y-114984897D01*
X189412394Y-114998077D01*
X191531992Y-115598059D01*
X191154050Y-116164973D01*
X189425477Y-117646607D01*
X186934659Y-119141098D01*
X186910197Y-119160197D01*
X186807592Y-119262802D01*
X186774909Y-119279158D01*
X186768699Y-119283981D01*
X186796220Y-119148080D01*
X186796220Y-118350520D01*
X186751942Y-118115203D01*
X186677815Y-118000007D01*
X186745211Y-117901370D01*
X186796220Y-117649480D01*
X186796220Y-116851920D01*
X186751942Y-116616603D01*
X186735505Y-116591059D01*
X186796431Y-116501890D01*
X186847440Y-116250000D01*
X186847440Y-115750000D01*
X186803162Y-115514683D01*
X186664090Y-115298559D01*
X186595994Y-115252031D01*
X186738327Y-115109698D01*
X186835000Y-114876309D01*
X186835000Y-114783750D01*
X186676250Y-114625000D01*
X185877000Y-114625000D01*
X185877000Y-114647000D01*
X185623000Y-114647000D01*
X185623000Y-114625000D01*
X184823750Y-114625000D01*
X184665000Y-114783750D01*
X184665000Y-114876309D01*
X184761673Y-115109698D01*
X184902910Y-115250936D01*
X184848559Y-115285910D01*
X184703569Y-115498110D01*
X184652560Y-115750000D01*
X184652560Y-116250000D01*
X184696838Y-116485317D01*
X184762959Y-116588072D01*
X184754789Y-116600030D01*
X184703780Y-116851920D01*
X184703780Y-117649480D01*
X184748058Y-117884797D01*
X184815304Y-117989300D01*
X178685010Y-117989300D01*
X178685162Y-117814833D01*
X178543117Y-117471057D01*
X178510000Y-117437882D01*
X178510000Y-114123691D01*
X184665000Y-114123691D01*
X184665000Y-114216250D01*
X184823750Y-114375000D01*
X185623000Y-114375000D01*
X185623000Y-113773750D01*
X185464250Y-113615000D01*
X185173690Y-113615000D01*
X184940301Y-113711673D01*
X184761673Y-113890302D01*
X184665000Y-114123691D01*
X178510000Y-114123691D01*
X178510000Y-110250000D01*
X178452148Y-109959161D01*
X178287401Y-109712599D01*
X176685122Y-108110320D01*
X176685162Y-108064833D01*
X176543117Y-107721057D01*
X176323623Y-107501179D01*
X176565502Y-107259300D01*
X178829074Y-107259300D01*
X178887130Y-107349521D01*
X179099330Y-107494511D01*
X179351220Y-107545520D01*
X180148780Y-107545520D01*
X180384097Y-107501242D01*
X180600221Y-107362170D01*
X180745211Y-107149970D01*
X180796220Y-106898080D01*
X180796220Y-106100520D01*
X180751942Y-105865203D01*
X180677815Y-105750007D01*
X180745211Y-105651370D01*
X180796220Y-105399480D01*
X180796220Y-104601920D01*
X180751942Y-104366603D01*
X180735505Y-104341059D01*
X180796431Y-104251890D01*
X180847440Y-104000000D01*
X180847440Y-103500000D01*
X180803162Y-103264683D01*
X180664090Y-103048559D01*
X180595994Y-103002031D01*
X180738327Y-102859698D01*
X180835000Y-102626309D01*
X180835000Y-102533750D01*
X180676250Y-102375000D01*
X179877000Y-102375000D01*
X179877000Y-102397000D01*
X179623000Y-102397000D01*
X179623000Y-102375000D01*
X178823750Y-102375000D01*
X178665000Y-102533750D01*
X178665000Y-102626309D01*
X178761673Y-102859698D01*
X178902910Y-103000936D01*
X178848559Y-103035910D01*
X178703569Y-103248110D01*
X178652560Y-103500000D01*
X178652560Y-104000000D01*
X178696838Y-104235317D01*
X178762959Y-104338072D01*
X178754789Y-104350030D01*
X178703780Y-104601920D01*
X178703780Y-105399480D01*
X178748058Y-105634797D01*
X178815304Y-105739300D01*
X176653952Y-105739300D01*
X176543117Y-105471057D01*
X176510000Y-105437882D01*
X176510000Y-102562463D01*
X176542192Y-102530327D01*
X176684838Y-102186799D01*
X176685110Y-101873691D01*
X178665000Y-101873691D01*
X178665000Y-101966250D01*
X178823750Y-102125000D01*
X179623000Y-102125000D01*
X179623000Y-101523750D01*
X179877000Y-101523750D01*
X179877000Y-102125000D01*
X180676250Y-102125000D01*
X180835000Y-101966250D01*
X180835000Y-101873691D01*
X180738327Y-101640302D01*
X180559699Y-101461673D01*
X180326310Y-101365000D01*
X180035750Y-101365000D01*
X179877000Y-101523750D01*
X179623000Y-101523750D01*
X179464250Y-101365000D01*
X179173690Y-101365000D01*
X178940301Y-101461673D01*
X178761673Y-101640302D01*
X178665000Y-101873691D01*
X176685110Y-101873691D01*
X176685162Y-101814833D01*
X176543117Y-101471057D01*
X176280327Y-101207808D01*
X175936799Y-101065162D01*
X175760000Y-101065008D01*
X175760000Y-100000000D01*
X175702148Y-99709161D01*
X175537401Y-99462599D01*
X173760000Y-97685198D01*
X173760000Y-97314802D01*
X174903684Y-96171118D01*
X174888873Y-96188520D01*
X174888873Y-96188520D01*
G37*
X174888873Y-96188520D02*
X174885850Y-96200227D01*
X174883294Y-96202878D01*
X174856177Y-96271851D01*
X174817159Y-96334855D01*
X174807046Y-96396818D01*
X174784073Y-96455250D01*
X174785415Y-96529347D01*
X174773477Y-96602489D01*
X174787846Y-96663607D01*
X174788983Y-96726381D01*
X174818579Y-96794325D01*
X174835540Y-96866467D01*
X174872204Y-96917434D01*
X174897277Y-96974994D01*
X174950621Y-97026441D01*
X174993899Y-97086601D01*
X175717272Y-97761623D01*
X175737934Y-97774419D01*
X175753451Y-97793119D01*
X177836949Y-99484187D01*
X177860626Y-99496678D01*
X177879238Y-99515921D01*
X180186666Y-101113939D01*
X180224525Y-101130365D01*
X180256500Y-101156453D01*
X182576271Y-102387857D01*
X182610985Y-102398279D01*
X182641279Y-102418174D01*
X185118653Y-103421347D01*
X185156800Y-103428620D01*
X185191417Y-103446222D01*
X187294038Y-104037319D01*
X187111218Y-104214425D01*
X185442025Y-105597165D01*
X183064845Y-107111791D01*
X180722227Y-108166768D01*
X180075999Y-108428681D01*
X180053558Y-108443429D01*
X180027643Y-108450463D01*
X179940939Y-108517441D01*
X179849381Y-108577612D01*
X179844647Y-108584581D01*
X179709839Y-108629517D01*
X179660197Y-108660197D01*
X179410197Y-108910197D01*
X179382334Y-108952211D01*
X179373012Y-109001754D01*
X179383700Y-109051022D01*
X179410197Y-109089803D01*
X179660197Y-109339803D01*
X179670664Y-109349170D01*
X179719220Y-109388015D01*
X179781706Y-109468904D01*
X179841877Y-109560462D01*
X179864089Y-109575550D01*
X179880506Y-109596802D01*
X180897846Y-110483162D01*
X180933123Y-110503377D01*
X180961535Y-110532462D01*
X183128963Y-112017682D01*
X183154208Y-112028486D01*
X183174869Y-112046573D01*
X185191480Y-113208425D01*
X185217875Y-113217358D01*
X185240227Y-113233994D01*
X186042304Y-113615000D01*
X186035750Y-113615000D01*
X185877000Y-113773750D01*
X185877000Y-114375000D01*
X186676250Y-114375000D01*
X186835000Y-114216250D01*
X186835000Y-114123691D01*
X186766857Y-113959180D01*
X187245797Y-114186688D01*
X187274841Y-114194015D01*
X187300305Y-114209789D01*
X189357986Y-114980225D01*
X189386588Y-114984897D01*
X189412394Y-114998077D01*
X191531992Y-115598059D01*
X191154050Y-116164973D01*
X189425477Y-117646607D01*
X186934659Y-119141098D01*
X186910197Y-119160197D01*
X186807592Y-119262802D01*
X186774909Y-119279158D01*
X186768699Y-119283981D01*
X186796220Y-119148080D01*
X186796220Y-118350520D01*
X186751942Y-118115203D01*
X186677815Y-118000007D01*
X186745211Y-117901370D01*
X186796220Y-117649480D01*
X186796220Y-116851920D01*
X186751942Y-116616603D01*
X186735505Y-116591059D01*
X186796431Y-116501890D01*
X186847440Y-116250000D01*
X186847440Y-115750000D01*
X186803162Y-115514683D01*
X186664090Y-115298559D01*
X186595994Y-115252031D01*
X186738327Y-115109698D01*
X186835000Y-114876309D01*
X186835000Y-114783750D01*
X186676250Y-114625000D01*
X185877000Y-114625000D01*
X185877000Y-114647000D01*
X185623000Y-114647000D01*
X185623000Y-114625000D01*
X184823750Y-114625000D01*
X184665000Y-114783750D01*
X184665000Y-114876309D01*
X184761673Y-115109698D01*
X184902910Y-115250936D01*
X184848559Y-115285910D01*
X184703569Y-115498110D01*
X184652560Y-115750000D01*
X184652560Y-116250000D01*
X184696838Y-116485317D01*
X184762959Y-116588072D01*
X184754789Y-116600030D01*
X184703780Y-116851920D01*
X184703780Y-117649480D01*
X184748058Y-117884797D01*
X184815304Y-117989300D01*
X178685010Y-117989300D01*
X178685162Y-117814833D01*
X178543117Y-117471057D01*
X178510000Y-117437882D01*
X178510000Y-114123691D01*
X184665000Y-114123691D01*
X184665000Y-114216250D01*
X184823750Y-114375000D01*
X185623000Y-114375000D01*
X185623000Y-113773750D01*
X185464250Y-113615000D01*
X185173690Y-113615000D01*
X184940301Y-113711673D01*
X184761673Y-113890302D01*
X184665000Y-114123691D01*
X178510000Y-114123691D01*
X178510000Y-110250000D01*
X178452148Y-109959161D01*
X178287401Y-109712599D01*
X176685122Y-108110320D01*
X176685162Y-108064833D01*
X176543117Y-107721057D01*
X176323623Y-107501179D01*
X176565502Y-107259300D01*
X178829074Y-107259300D01*
X178887130Y-107349521D01*
X179099330Y-107494511D01*
X179351220Y-107545520D01*
X180148780Y-107545520D01*
X180384097Y-107501242D01*
X180600221Y-107362170D01*
X180745211Y-107149970D01*
X180796220Y-106898080D01*
X180796220Y-106100520D01*
X180751942Y-105865203D01*
X180677815Y-105750007D01*
X180745211Y-105651370D01*
X180796220Y-105399480D01*
X180796220Y-104601920D01*
X180751942Y-104366603D01*
X180735505Y-104341059D01*
X180796431Y-104251890D01*
X180847440Y-104000000D01*
X180847440Y-103500000D01*
X180803162Y-103264683D01*
X180664090Y-103048559D01*
X180595994Y-103002031D01*
X180738327Y-102859698D01*
X180835000Y-102626309D01*
X180835000Y-102533750D01*
X180676250Y-102375000D01*
X179877000Y-102375000D01*
X179877000Y-102397000D01*
X179623000Y-102397000D01*
X179623000Y-102375000D01*
X178823750Y-102375000D01*
X178665000Y-102533750D01*
X178665000Y-102626309D01*
X178761673Y-102859698D01*
X178902910Y-103000936D01*
X178848559Y-103035910D01*
X178703569Y-103248110D01*
X178652560Y-103500000D01*
X178652560Y-104000000D01*
X178696838Y-104235317D01*
X178762959Y-104338072D01*
X178754789Y-104350030D01*
X178703780Y-104601920D01*
X178703780Y-105399480D01*
X178748058Y-105634797D01*
X178815304Y-105739300D01*
X176653952Y-105739300D01*
X176543117Y-105471057D01*
X176510000Y-105437882D01*
X176510000Y-102562463D01*
X176542192Y-102530327D01*
X176684838Y-102186799D01*
X176685110Y-101873691D01*
X178665000Y-101873691D01*
X178665000Y-101966250D01*
X178823750Y-102125000D01*
X179623000Y-102125000D01*
X179623000Y-101523750D01*
X179877000Y-101523750D01*
X179877000Y-102125000D01*
X180676250Y-102125000D01*
X180835000Y-101966250D01*
X180835000Y-101873691D01*
X180738327Y-101640302D01*
X180559699Y-101461673D01*
X180326310Y-101365000D01*
X180035750Y-101365000D01*
X179877000Y-101523750D01*
X179623000Y-101523750D01*
X179464250Y-101365000D01*
X179173690Y-101365000D01*
X178940301Y-101461673D01*
X178761673Y-101640302D01*
X178665000Y-101873691D01*
X176685110Y-101873691D01*
X176685162Y-101814833D01*
X176543117Y-101471057D01*
X176280327Y-101207808D01*
X175936799Y-101065162D01*
X175760000Y-101065008D01*
X175760000Y-100000000D01*
X175702148Y-99709161D01*
X175537401Y-99462599D01*
X173760000Y-97685198D01*
X173760000Y-97314802D01*
X174903684Y-96171118D01*
X174888873Y-96188520D01*
G36*
X170240000Y-116437537D02*
X170207808Y-116469673D01*
X170065162Y-116813201D01*
X170064838Y-117185167D01*
X170087205Y-117239300D01*
X169564102Y-117239300D01*
X168537401Y-116212599D01*
X168290839Y-116047852D01*
X168000000Y-115990000D01*
X167796220Y-115990000D01*
X167796220Y-115601920D01*
X167751942Y-115366603D01*
X167735505Y-115341059D01*
X167796431Y-115251890D01*
X167847440Y-115000000D01*
X167847440Y-114760000D01*
X168750000Y-114760000D01*
X169040839Y-114702148D01*
X169287401Y-114537401D01*
X170240000Y-113584802D01*
X170240000Y-116437537D01*
X170240000Y-116437537D01*
G37*
X170240000Y-116437537D02*
X170207808Y-116469673D01*
X170065162Y-116813201D01*
X170064838Y-117185167D01*
X170087205Y-117239300D01*
X169564102Y-117239300D01*
X168537401Y-116212599D01*
X168290839Y-116047852D01*
X168000000Y-115990000D01*
X167796220Y-115990000D01*
X167796220Y-115601920D01*
X167751942Y-115366603D01*
X167735505Y-115341059D01*
X167796431Y-115251890D01*
X167847440Y-115000000D01*
X167847440Y-114760000D01*
X168750000Y-114760000D01*
X169040839Y-114702148D01*
X169287401Y-114537401D01*
X170240000Y-113584802D01*
X170240000Y-116437537D01*
G36*
X148352560Y-88050000D02*
X148352560Y-88950000D01*
X148390467Y-89151458D01*
X148254789Y-89350030D01*
X148203780Y-89601920D01*
X148203780Y-90399480D01*
X148248058Y-90634797D01*
X148322185Y-90749993D01*
X148254789Y-90848630D01*
X148203780Y-91100520D01*
X148203780Y-91898080D01*
X148248058Y-92133397D01*
X148387130Y-92349521D01*
X148529090Y-92446518D01*
X148547852Y-92540839D01*
X148712599Y-92787401D01*
X148959161Y-92952148D01*
X149250000Y-93010000D01*
X159953780Y-93010000D01*
X159953780Y-93398080D01*
X159998058Y-93633397D01*
X160137130Y-93849521D01*
X160240000Y-93919809D01*
X160240000Y-98250000D01*
X160297852Y-98540839D01*
X160462599Y-98787401D01*
X161912974Y-100237776D01*
X161877000Y-100273750D01*
X161877000Y-100875000D01*
X161897000Y-100875000D01*
X161897000Y-101125000D01*
X161877000Y-101125000D01*
X161877000Y-101147000D01*
X161623000Y-101147000D01*
X161623000Y-101125000D01*
X160823750Y-101125000D01*
X160665000Y-101283750D01*
X160665000Y-101376309D01*
X160761673Y-101609698D01*
X160902910Y-101750936D01*
X160848559Y-101785910D01*
X160703569Y-101998110D01*
X160652560Y-102250000D01*
X160652560Y-102750000D01*
X160696838Y-102985317D01*
X160762959Y-103088072D01*
X160754789Y-103100030D01*
X160703780Y-103351920D01*
X160703780Y-104149480D01*
X160748058Y-104384797D01*
X160822185Y-104499993D01*
X160754789Y-104598630D01*
X160703780Y-104850520D01*
X160703780Y-105648080D01*
X160748058Y-105883397D01*
X160819999Y-105995197D01*
X158786701Y-103961899D01*
X158540139Y-103797152D01*
X158249300Y-103739300D01*
X153685131Y-103739300D01*
X153745211Y-103651370D01*
X153796220Y-103399480D01*
X153796220Y-102601920D01*
X153751942Y-102366603D01*
X153735505Y-102341059D01*
X153796431Y-102251890D01*
X153847440Y-102000000D01*
X153847440Y-101500000D01*
X153803162Y-101264683D01*
X153664090Y-101048559D01*
X153595994Y-101002031D01*
X153738327Y-100859698D01*
X153835000Y-100626309D01*
X153835000Y-100623691D01*
X160665000Y-100623691D01*
X160665000Y-100716250D01*
X160823750Y-100875000D01*
X161623000Y-100875000D01*
X161623000Y-100273750D01*
X161464250Y-100115000D01*
X161173690Y-100115000D01*
X160940301Y-100211673D01*
X160761673Y-100390302D01*
X160665000Y-100623691D01*
X153835000Y-100623691D01*
X153835000Y-100533750D01*
X153676250Y-100375000D01*
X152877000Y-100375000D01*
X152877000Y-100397000D01*
X152623000Y-100397000D01*
X152623000Y-100375000D01*
X151823750Y-100375000D01*
X151665000Y-100533750D01*
X151665000Y-100626309D01*
X151761673Y-100859698D01*
X151902910Y-101000936D01*
X151848559Y-101035910D01*
X151703569Y-101248110D01*
X151652560Y-101500000D01*
X151652560Y-102000000D01*
X151696838Y-102235317D01*
X151762959Y-102338072D01*
X151754789Y-102350030D01*
X151703780Y-102601920D01*
X151703780Y-103399480D01*
X151748058Y-103634797D01*
X151822185Y-103749993D01*
X151754789Y-103848630D01*
X151703780Y-104100520D01*
X151703780Y-104898080D01*
X151748058Y-105133397D01*
X151887130Y-105349521D01*
X152099330Y-105494511D01*
X152351220Y-105545520D01*
X153148780Y-105545520D01*
X153384097Y-105501242D01*
X153600221Y-105362170D01*
X153670509Y-105259300D01*
X157934498Y-105259300D01*
X161915197Y-109240000D01*
X149314802Y-109240000D01*
X144736914Y-104662112D01*
X144745211Y-104649970D01*
X144796220Y-104398080D01*
X144796220Y-103600520D01*
X144751942Y-103365203D01*
X144677815Y-103250007D01*
X144745211Y-103151370D01*
X144796220Y-102899480D01*
X144796220Y-102101920D01*
X144786219Y-102048768D01*
X144873691Y-102085000D01*
X144966250Y-102085000D01*
X145125000Y-101926250D01*
X145125000Y-101127000D01*
X145375000Y-101127000D01*
X145375000Y-101926250D01*
X145533750Y-102085000D01*
X145626309Y-102085000D01*
X145859698Y-101988327D01*
X146038327Y-101809699D01*
X146135000Y-101576310D01*
X146135000Y-101285750D01*
X145976250Y-101127000D01*
X145375000Y-101127000D01*
X145125000Y-101127000D01*
X145103000Y-101127000D01*
X145103000Y-100873000D01*
X145125000Y-100873000D01*
X145125000Y-100073750D01*
X145375000Y-100073750D01*
X145375000Y-100873000D01*
X145976250Y-100873000D01*
X146135000Y-100714250D01*
X146135000Y-100423690D01*
X146038327Y-100190301D01*
X145859698Y-100011673D01*
X145626309Y-99915000D01*
X145533750Y-99915000D01*
X145375000Y-100073750D01*
X145125000Y-100073750D01*
X144966250Y-99915000D01*
X144873691Y-99915000D01*
X144640302Y-100011673D01*
X144499064Y-100152910D01*
X144464090Y-100098559D01*
X144251890Y-99953569D01*
X144000000Y-99902560D01*
X143500000Y-99902560D01*
X143264683Y-99946838D01*
X143048559Y-100085910D01*
X142903569Y-100298110D01*
X142852560Y-100550000D01*
X142852560Y-101450000D01*
X142890467Y-101651458D01*
X142754789Y-101850030D01*
X142703780Y-102101920D01*
X142703780Y-102899480D01*
X142748058Y-103134797D01*
X142822185Y-103249993D01*
X142754789Y-103348630D01*
X142703780Y-103600520D01*
X142703780Y-104398080D01*
X142748058Y-104633397D01*
X142887130Y-104849521D01*
X143029090Y-104946518D01*
X143047852Y-105040839D01*
X143212599Y-105287401D01*
X148462599Y-110537401D01*
X148709160Y-110702148D01*
X149000000Y-110760000D01*
X162185198Y-110760000D01*
X163314878Y-111889680D01*
X163314838Y-111935167D01*
X163456883Y-112278943D01*
X163586780Y-112409067D01*
X163547702Y-112425214D01*
X163530327Y-112407808D01*
X163186799Y-112265162D01*
X162814833Y-112264838D01*
X162471057Y-112406883D01*
X162207808Y-112669673D01*
X162065162Y-113013201D01*
X162064838Y-113385167D01*
X162206883Y-113728943D01*
X162469673Y-113992192D01*
X162813201Y-114134838D01*
X162860077Y-114134879D01*
X163262599Y-114537401D01*
X163509161Y-114702148D01*
X163800000Y-114760000D01*
X165652560Y-114760000D01*
X165652560Y-115000000D01*
X165696838Y-115235317D01*
X165762959Y-115338072D01*
X165754789Y-115350030D01*
X165703780Y-115601920D01*
X165703780Y-115990000D01*
X162064802Y-115990000D01*
X158787401Y-112712599D01*
X158540839Y-112547852D01*
X158250000Y-112490000D01*
X157103000Y-112490000D01*
X157103000Y-112375000D01*
X157123000Y-112375000D01*
X157123000Y-111773750D01*
X157377000Y-111773750D01*
X157377000Y-112375000D01*
X158176250Y-112375000D01*
X158335000Y-112216250D01*
X158335000Y-112123691D01*
X158238327Y-111890302D01*
X158059699Y-111711673D01*
X157826310Y-111615000D01*
X157535750Y-111615000D01*
X157377000Y-111773750D01*
X157123000Y-111773750D01*
X156964250Y-111615000D01*
X156673690Y-111615000D01*
X156440301Y-111711673D01*
X156261673Y-111890302D01*
X156165000Y-112123691D01*
X156165000Y-112216250D01*
X156321748Y-112372998D01*
X156165000Y-112372998D01*
X156165000Y-112490000D01*
X155000000Y-112490000D01*
X154709161Y-112547852D01*
X154462599Y-112712599D01*
X151860320Y-115314878D01*
X151814833Y-115314838D01*
X151471057Y-115456883D01*
X151251179Y-115676377D01*
X150536701Y-114961899D01*
X150290139Y-114797152D01*
X149999300Y-114739300D01*
X148796220Y-114739300D01*
X148796220Y-114351920D01*
X148751942Y-114116603D01*
X148735505Y-114091059D01*
X148796431Y-114001890D01*
X148847440Y-113750000D01*
X148847440Y-113250000D01*
X148803162Y-113014683D01*
X148664090Y-112798559D01*
X148595994Y-112752031D01*
X148738327Y-112609698D01*
X148835000Y-112376309D01*
X148835000Y-112283750D01*
X148676250Y-112125000D01*
X147877000Y-112125000D01*
X147877000Y-112147000D01*
X147623000Y-112147000D01*
X147623000Y-112125000D01*
X146823750Y-112125000D01*
X146665000Y-112283750D01*
X146665000Y-112376309D01*
X146761673Y-112609698D01*
X146902910Y-112750936D01*
X146848559Y-112785910D01*
X146703569Y-112998110D01*
X146652560Y-113250000D01*
X146652560Y-113750000D01*
X146696838Y-113985317D01*
X146762959Y-114088072D01*
X146754789Y-114100030D01*
X146703780Y-114351920D01*
X146703780Y-114739300D01*
X139185131Y-114739300D01*
X139245211Y-114651370D01*
X139296220Y-114399480D01*
X139296220Y-113601920D01*
X139286219Y-113548768D01*
X139373691Y-113585000D01*
X139466250Y-113585000D01*
X139625000Y-113426250D01*
X139625000Y-112627000D01*
X139875000Y-112627000D01*
X139875000Y-113426250D01*
X140033750Y-113585000D01*
X140126309Y-113585000D01*
X140359698Y-113488327D01*
X140538327Y-113309699D01*
X140635000Y-113076310D01*
X140635000Y-112785750D01*
X140476250Y-112627000D01*
X139875000Y-112627000D01*
X139625000Y-112627000D01*
X139603000Y-112627000D01*
X139603000Y-112373000D01*
X139625000Y-112373000D01*
X139625000Y-111573750D01*
X139875000Y-111573750D01*
X139875000Y-112373000D01*
X140476250Y-112373000D01*
X140635000Y-112214250D01*
X140635000Y-111923690D01*
X140538327Y-111690301D01*
X140471717Y-111623691D01*
X146665000Y-111623691D01*
X146665000Y-111716250D01*
X146823750Y-111875000D01*
X147623000Y-111875000D01*
X147623000Y-111273750D01*
X147877000Y-111273750D01*
X147877000Y-111875000D01*
X148676250Y-111875000D01*
X148835000Y-111716250D01*
X148835000Y-111623691D01*
X148738327Y-111390302D01*
X148559699Y-111211673D01*
X148326310Y-111115000D01*
X148035750Y-111115000D01*
X147877000Y-111273750D01*
X147623000Y-111273750D01*
X147464250Y-111115000D01*
X147173690Y-111115000D01*
X146940301Y-111211673D01*
X146761673Y-111390302D01*
X146665000Y-111623691D01*
X140471717Y-111623691D01*
X140359698Y-111511673D01*
X140126309Y-111415000D01*
X140033750Y-111415000D01*
X139875000Y-111573750D01*
X139625000Y-111573750D01*
X139466250Y-111415000D01*
X139373691Y-111415000D01*
X139140302Y-111511673D01*
X138999064Y-111652910D01*
X138964090Y-111598559D01*
X138751890Y-111453569D01*
X138500000Y-111402560D01*
X138461876Y-111402560D01*
X140234967Y-110134030D01*
X140256717Y-110110843D01*
X140284388Y-110095178D01*
X141427535Y-109109640D01*
X141431420Y-109104664D01*
X141436852Y-109101460D01*
X141514691Y-108998023D01*
X141594429Y-108895905D01*
X141596114Y-108889822D01*
X141599907Y-108884782D01*
X141632237Y-108759433D01*
X141666827Y-108634573D01*
X141666056Y-108628307D01*
X141667631Y-108622200D01*
X141649531Y-108494026D01*
X141633706Y-108365427D01*
X141630596Y-108359933D01*
X141629714Y-108353688D01*
X141563932Y-108242180D01*
X141500109Y-108129444D01*
X141495134Y-108125560D01*
X141491929Y-108120126D01*
X141388456Y-108042261D01*
X141286374Y-107962550D01*
X141280293Y-107960865D01*
X141275251Y-107957071D01*
X140564459Y-107614802D01*
X140535626Y-107607366D01*
X140510406Y-107591539D01*
X138466284Y-106812618D01*
X136451432Y-105649616D01*
X134877000Y-104398918D01*
X134877000Y-103897960D01*
X134941013Y-103872431D01*
X137062463Y-103034597D01*
X137088414Y-103017872D01*
X137118191Y-103009707D01*
X138023587Y-102556634D01*
X139050028Y-102116731D01*
X139070447Y-102105670D01*
X139820447Y-101605670D01*
X139823239Y-101603755D01*
X139897863Y-101551079D01*
X141359883Y-100664394D01*
X141380126Y-100645854D01*
X141405111Y-100634490D01*
X142463600Y-99873691D01*
X151665000Y-99873691D01*
X151665000Y-99966250D01*
X151823750Y-100125000D01*
X152623000Y-100125000D01*
X152623000Y-99523750D01*
X152877000Y-99523750D01*
X152877000Y-100125000D01*
X153676250Y-100125000D01*
X153835000Y-99966250D01*
X153835000Y-99873691D01*
X153738327Y-99640302D01*
X153559699Y-99461673D01*
X153326310Y-99365000D01*
X153035750Y-99365000D01*
X152877000Y-99523750D01*
X152623000Y-99523750D01*
X152464250Y-99365000D01*
X152173690Y-99365000D01*
X151940301Y-99461673D01*
X151761673Y-99640302D01*
X151665000Y-99873691D01*
X142463600Y-99873691D01*
X143404515Y-99197400D01*
X143423231Y-99177360D01*
X143447233Y-99164097D01*
X145335295Y-97570055D01*
X145344064Y-97559061D01*
X145356092Y-97551775D01*
X146078995Y-96890367D01*
X146129264Y-96821917D01*
X146189105Y-96761645D01*
X146208794Y-96713625D01*
X146239510Y-96671800D01*
X146259757Y-96589328D01*
X146291979Y-96510741D01*
X146291793Y-96458841D01*
X146295867Y-96442246D01*
X146363592Y-96306796D01*
X146376740Y-96258128D01*
X146363592Y-96193204D01*
X146113592Y-95693204D01*
X146082546Y-95653485D01*
X146040161Y-95629517D01*
X143045976Y-94631455D01*
X140804208Y-93635114D01*
X140288214Y-93377117D01*
X139932878Y-93070948D01*
X140040813Y-93035501D01*
X140058354Y-93025605D01*
X140078177Y-93022036D01*
X142031446Y-92254377D01*
X142063367Y-92233880D01*
X142099759Y-92223169D01*
X144044391Y-91204377D01*
X144071161Y-91182776D01*
X144103051Y-91169884D01*
X146031522Y-89904933D01*
X146053703Y-89883126D01*
X146081402Y-89868962D01*
X147986193Y-88362826D01*
X148004450Y-88341386D01*
X148028416Y-88326601D01*
X148358757Y-88019400D01*
X148352560Y-88050000D01*
X148352560Y-88050000D01*
G37*
X148352560Y-88050000D02*
X148352560Y-88950000D01*
X148390467Y-89151458D01*
X148254789Y-89350030D01*
X148203780Y-89601920D01*
X148203780Y-90399480D01*
X148248058Y-90634797D01*
X148322185Y-90749993D01*
X148254789Y-90848630D01*
X148203780Y-91100520D01*
X148203780Y-91898080D01*
X148248058Y-92133397D01*
X148387130Y-92349521D01*
X148529090Y-92446518D01*
X148547852Y-92540839D01*
X148712599Y-92787401D01*
X148959161Y-92952148D01*
X149250000Y-93010000D01*
X159953780Y-93010000D01*
X159953780Y-93398080D01*
X159998058Y-93633397D01*
X160137130Y-93849521D01*
X160240000Y-93919809D01*
X160240000Y-98250000D01*
X160297852Y-98540839D01*
X160462599Y-98787401D01*
X161912974Y-100237776D01*
X161877000Y-100273750D01*
X161877000Y-100875000D01*
X161897000Y-100875000D01*
X161897000Y-101125000D01*
X161877000Y-101125000D01*
X161877000Y-101147000D01*
X161623000Y-101147000D01*
X161623000Y-101125000D01*
X160823750Y-101125000D01*
X160665000Y-101283750D01*
X160665000Y-101376309D01*
X160761673Y-101609698D01*
X160902910Y-101750936D01*
X160848559Y-101785910D01*
X160703569Y-101998110D01*
X160652560Y-102250000D01*
X160652560Y-102750000D01*
X160696838Y-102985317D01*
X160762959Y-103088072D01*
X160754789Y-103100030D01*
X160703780Y-103351920D01*
X160703780Y-104149480D01*
X160748058Y-104384797D01*
X160822185Y-104499993D01*
X160754789Y-104598630D01*
X160703780Y-104850520D01*
X160703780Y-105648080D01*
X160748058Y-105883397D01*
X160819999Y-105995197D01*
X158786701Y-103961899D01*
X158540139Y-103797152D01*
X158249300Y-103739300D01*
X153685131Y-103739300D01*
X153745211Y-103651370D01*
X153796220Y-103399480D01*
X153796220Y-102601920D01*
X153751942Y-102366603D01*
X153735505Y-102341059D01*
X153796431Y-102251890D01*
X153847440Y-102000000D01*
X153847440Y-101500000D01*
X153803162Y-101264683D01*
X153664090Y-101048559D01*
X153595994Y-101002031D01*
X153738327Y-100859698D01*
X153835000Y-100626309D01*
X153835000Y-100623691D01*
X160665000Y-100623691D01*
X160665000Y-100716250D01*
X160823750Y-100875000D01*
X161623000Y-100875000D01*
X161623000Y-100273750D01*
X161464250Y-100115000D01*
X161173690Y-100115000D01*
X160940301Y-100211673D01*
X160761673Y-100390302D01*
X160665000Y-100623691D01*
X153835000Y-100623691D01*
X153835000Y-100533750D01*
X153676250Y-100375000D01*
X152877000Y-100375000D01*
X152877000Y-100397000D01*
X152623000Y-100397000D01*
X152623000Y-100375000D01*
X151823750Y-100375000D01*
X151665000Y-100533750D01*
X151665000Y-100626309D01*
X151761673Y-100859698D01*
X151902910Y-101000936D01*
X151848559Y-101035910D01*
X151703569Y-101248110D01*
X151652560Y-101500000D01*
X151652560Y-102000000D01*
X151696838Y-102235317D01*
X151762959Y-102338072D01*
X151754789Y-102350030D01*
X151703780Y-102601920D01*
X151703780Y-103399480D01*
X151748058Y-103634797D01*
X151822185Y-103749993D01*
X151754789Y-103848630D01*
X151703780Y-104100520D01*
X151703780Y-104898080D01*
X151748058Y-105133397D01*
X151887130Y-105349521D01*
X152099330Y-105494511D01*
X152351220Y-105545520D01*
X153148780Y-105545520D01*
X153384097Y-105501242D01*
X153600221Y-105362170D01*
X153670509Y-105259300D01*
X157934498Y-105259300D01*
X161915197Y-109240000D01*
X149314802Y-109240000D01*
X144736914Y-104662112D01*
X144745211Y-104649970D01*
X144796220Y-104398080D01*
X144796220Y-103600520D01*
X144751942Y-103365203D01*
X144677815Y-103250007D01*
X144745211Y-103151370D01*
X144796220Y-102899480D01*
X144796220Y-102101920D01*
X144786219Y-102048768D01*
X144873691Y-102085000D01*
X144966250Y-102085000D01*
X145125000Y-101926250D01*
X145125000Y-101127000D01*
X145375000Y-101127000D01*
X145375000Y-101926250D01*
X145533750Y-102085000D01*
X145626309Y-102085000D01*
X145859698Y-101988327D01*
X146038327Y-101809699D01*
X146135000Y-101576310D01*
X146135000Y-101285750D01*
X145976250Y-101127000D01*
X145375000Y-101127000D01*
X145125000Y-101127000D01*
X145103000Y-101127000D01*
X145103000Y-100873000D01*
X145125000Y-100873000D01*
X145125000Y-100073750D01*
X145375000Y-100073750D01*
X145375000Y-100873000D01*
X145976250Y-100873000D01*
X146135000Y-100714250D01*
X146135000Y-100423690D01*
X146038327Y-100190301D01*
X145859698Y-100011673D01*
X145626309Y-99915000D01*
X145533750Y-99915000D01*
X145375000Y-100073750D01*
X145125000Y-100073750D01*
X144966250Y-99915000D01*
X144873691Y-99915000D01*
X144640302Y-100011673D01*
X144499064Y-100152910D01*
X144464090Y-100098559D01*
X144251890Y-99953569D01*
X144000000Y-99902560D01*
X143500000Y-99902560D01*
X143264683Y-99946838D01*
X143048559Y-100085910D01*
X142903569Y-100298110D01*
X142852560Y-100550000D01*
X142852560Y-101450000D01*
X142890467Y-101651458D01*
X142754789Y-101850030D01*
X142703780Y-102101920D01*
X142703780Y-102899480D01*
X142748058Y-103134797D01*
X142822185Y-103249993D01*
X142754789Y-103348630D01*
X142703780Y-103600520D01*
X142703780Y-104398080D01*
X142748058Y-104633397D01*
X142887130Y-104849521D01*
X143029090Y-104946518D01*
X143047852Y-105040839D01*
X143212599Y-105287401D01*
X148462599Y-110537401D01*
X148709160Y-110702148D01*
X149000000Y-110760000D01*
X162185198Y-110760000D01*
X163314878Y-111889680D01*
X163314838Y-111935167D01*
X163456883Y-112278943D01*
X163586780Y-112409067D01*
X163547702Y-112425214D01*
X163530327Y-112407808D01*
X163186799Y-112265162D01*
X162814833Y-112264838D01*
X162471057Y-112406883D01*
X162207808Y-112669673D01*
X162065162Y-113013201D01*
X162064838Y-113385167D01*
X162206883Y-113728943D01*
X162469673Y-113992192D01*
X162813201Y-114134838D01*
X162860077Y-114134879D01*
X163262599Y-114537401D01*
X163509161Y-114702148D01*
X163800000Y-114760000D01*
X165652560Y-114760000D01*
X165652560Y-115000000D01*
X165696838Y-115235317D01*
X165762959Y-115338072D01*
X165754789Y-115350030D01*
X165703780Y-115601920D01*
X165703780Y-115990000D01*
X162064802Y-115990000D01*
X158787401Y-112712599D01*
X158540839Y-112547852D01*
X158250000Y-112490000D01*
X157103000Y-112490000D01*
X157103000Y-112375000D01*
X157123000Y-112375000D01*
X157123000Y-111773750D01*
X157377000Y-111773750D01*
X157377000Y-112375000D01*
X158176250Y-112375000D01*
X158335000Y-112216250D01*
X158335000Y-112123691D01*
X158238327Y-111890302D01*
X158059699Y-111711673D01*
X157826310Y-111615000D01*
X157535750Y-111615000D01*
X157377000Y-111773750D01*
X157123000Y-111773750D01*
X156964250Y-111615000D01*
X156673690Y-111615000D01*
X156440301Y-111711673D01*
X156261673Y-111890302D01*
X156165000Y-112123691D01*
X156165000Y-112216250D01*
X156321748Y-112372998D01*
X156165000Y-112372998D01*
X156165000Y-112490000D01*
X155000000Y-112490000D01*
X154709161Y-112547852D01*
X154462599Y-112712599D01*
X151860320Y-115314878D01*
X151814833Y-115314838D01*
X151471057Y-115456883D01*
X151251179Y-115676377D01*
X150536701Y-114961899D01*
X150290139Y-114797152D01*
X149999300Y-114739300D01*
X148796220Y-114739300D01*
X148796220Y-114351920D01*
X148751942Y-114116603D01*
X148735505Y-114091059D01*
X148796431Y-114001890D01*
X148847440Y-113750000D01*
X148847440Y-113250000D01*
X148803162Y-113014683D01*
X148664090Y-112798559D01*
X148595994Y-112752031D01*
X148738327Y-112609698D01*
X148835000Y-112376309D01*
X148835000Y-112283750D01*
X148676250Y-112125000D01*
X147877000Y-112125000D01*
X147877000Y-112147000D01*
X147623000Y-112147000D01*
X147623000Y-112125000D01*
X146823750Y-112125000D01*
X146665000Y-112283750D01*
X146665000Y-112376309D01*
X146761673Y-112609698D01*
X146902910Y-112750936D01*
X146848559Y-112785910D01*
X146703569Y-112998110D01*
X146652560Y-113250000D01*
X146652560Y-113750000D01*
X146696838Y-113985317D01*
X146762959Y-114088072D01*
X146754789Y-114100030D01*
X146703780Y-114351920D01*
X146703780Y-114739300D01*
X139185131Y-114739300D01*
X139245211Y-114651370D01*
X139296220Y-114399480D01*
X139296220Y-113601920D01*
X139286219Y-113548768D01*
X139373691Y-113585000D01*
X139466250Y-113585000D01*
X139625000Y-113426250D01*
X139625000Y-112627000D01*
X139875000Y-112627000D01*
X139875000Y-113426250D01*
X140033750Y-113585000D01*
X140126309Y-113585000D01*
X140359698Y-113488327D01*
X140538327Y-113309699D01*
X140635000Y-113076310D01*
X140635000Y-112785750D01*
X140476250Y-112627000D01*
X139875000Y-112627000D01*
X139625000Y-112627000D01*
X139603000Y-112627000D01*
X139603000Y-112373000D01*
X139625000Y-112373000D01*
X139625000Y-111573750D01*
X139875000Y-111573750D01*
X139875000Y-112373000D01*
X140476250Y-112373000D01*
X140635000Y-112214250D01*
X140635000Y-111923690D01*
X140538327Y-111690301D01*
X140471717Y-111623691D01*
X146665000Y-111623691D01*
X146665000Y-111716250D01*
X146823750Y-111875000D01*
X147623000Y-111875000D01*
X147623000Y-111273750D01*
X147877000Y-111273750D01*
X147877000Y-111875000D01*
X148676250Y-111875000D01*
X148835000Y-111716250D01*
X148835000Y-111623691D01*
X148738327Y-111390302D01*
X148559699Y-111211673D01*
X148326310Y-111115000D01*
X148035750Y-111115000D01*
X147877000Y-111273750D01*
X147623000Y-111273750D01*
X147464250Y-111115000D01*
X147173690Y-111115000D01*
X146940301Y-111211673D01*
X146761673Y-111390302D01*
X146665000Y-111623691D01*
X140471717Y-111623691D01*
X140359698Y-111511673D01*
X140126309Y-111415000D01*
X140033750Y-111415000D01*
X139875000Y-111573750D01*
X139625000Y-111573750D01*
X139466250Y-111415000D01*
X139373691Y-111415000D01*
X139140302Y-111511673D01*
X138999064Y-111652910D01*
X138964090Y-111598559D01*
X138751890Y-111453569D01*
X138500000Y-111402560D01*
X138461876Y-111402560D01*
X140234967Y-110134030D01*
X140256717Y-110110843D01*
X140284388Y-110095178D01*
X141427535Y-109109640D01*
X141431420Y-109104664D01*
X141436852Y-109101460D01*
X141514691Y-108998023D01*
X141594429Y-108895905D01*
X141596114Y-108889822D01*
X141599907Y-108884782D01*
X141632237Y-108759433D01*
X141666827Y-108634573D01*
X141666056Y-108628307D01*
X141667631Y-108622200D01*
X141649531Y-108494026D01*
X141633706Y-108365427D01*
X141630596Y-108359933D01*
X141629714Y-108353688D01*
X141563932Y-108242180D01*
X141500109Y-108129444D01*
X141495134Y-108125560D01*
X141491929Y-108120126D01*
X141388456Y-108042261D01*
X141286374Y-107962550D01*
X141280293Y-107960865D01*
X141275251Y-107957071D01*
X140564459Y-107614802D01*
X140535626Y-107607366D01*
X140510406Y-107591539D01*
X138466284Y-106812618D01*
X136451432Y-105649616D01*
X134877000Y-104398918D01*
X134877000Y-103897960D01*
X134941013Y-103872431D01*
X137062463Y-103034597D01*
X137088414Y-103017872D01*
X137118191Y-103009707D01*
X138023587Y-102556634D01*
X139050028Y-102116731D01*
X139070447Y-102105670D01*
X139820447Y-101605670D01*
X139823239Y-101603755D01*
X139897863Y-101551079D01*
X141359883Y-100664394D01*
X141380126Y-100645854D01*
X141405111Y-100634490D01*
X142463600Y-99873691D01*
X151665000Y-99873691D01*
X151665000Y-99966250D01*
X151823750Y-100125000D01*
X152623000Y-100125000D01*
X152623000Y-99523750D01*
X152877000Y-99523750D01*
X152877000Y-100125000D01*
X153676250Y-100125000D01*
X153835000Y-99966250D01*
X153835000Y-99873691D01*
X153738327Y-99640302D01*
X153559699Y-99461673D01*
X153326310Y-99365000D01*
X153035750Y-99365000D01*
X152877000Y-99523750D01*
X152623000Y-99523750D01*
X152464250Y-99365000D01*
X152173690Y-99365000D01*
X151940301Y-99461673D01*
X151761673Y-99640302D01*
X151665000Y-99873691D01*
X142463600Y-99873691D01*
X143404515Y-99197400D01*
X143423231Y-99177360D01*
X143447233Y-99164097D01*
X145335295Y-97570055D01*
X145344064Y-97559061D01*
X145356092Y-97551775D01*
X146078995Y-96890367D01*
X146129264Y-96821917D01*
X146189105Y-96761645D01*
X146208794Y-96713625D01*
X146239510Y-96671800D01*
X146259757Y-96589328D01*
X146291979Y-96510741D01*
X146291793Y-96458841D01*
X146295867Y-96442246D01*
X146363592Y-96306796D01*
X146376740Y-96258128D01*
X146363592Y-96193204D01*
X146113592Y-95693204D01*
X146082546Y-95653485D01*
X146040161Y-95629517D01*
X143045976Y-94631455D01*
X140804208Y-93635114D01*
X140288214Y-93377117D01*
X139932878Y-93070948D01*
X140040813Y-93035501D01*
X140058354Y-93025605D01*
X140078177Y-93022036D01*
X142031446Y-92254377D01*
X142063367Y-92233880D01*
X142099759Y-92223169D01*
X144044391Y-91204377D01*
X144071161Y-91182776D01*
X144103051Y-91169884D01*
X146031522Y-89904933D01*
X146053703Y-89883126D01*
X146081402Y-89868962D01*
X147986193Y-88362826D01*
X148004450Y-88341386D01*
X148028416Y-88326601D01*
X148358757Y-88019400D01*
X148352560Y-88050000D01*
G36*
X175219673Y-109042192D02*
X175563201Y-109184838D01*
X175610077Y-109184879D01*
X176990000Y-110564802D01*
X176990000Y-112932803D01*
X176826310Y-112865000D01*
X176535750Y-112865000D01*
X176377000Y-113023750D01*
X176377000Y-113625000D01*
X176397000Y-113625000D01*
X176397000Y-113875000D01*
X176377000Y-113875000D01*
X176377000Y-113897000D01*
X176123000Y-113897000D01*
X176123000Y-113875000D01*
X176103000Y-113875000D01*
X176103000Y-113625000D01*
X176123000Y-113625000D01*
X176123000Y-113023750D01*
X175964250Y-112865000D01*
X175673690Y-112865000D01*
X175440301Y-112961673D01*
X175261673Y-113140302D01*
X175260000Y-113144341D01*
X175260000Y-110312463D01*
X175292192Y-110280327D01*
X175434838Y-109936799D01*
X175435162Y-109564833D01*
X175293117Y-109221057D01*
X175030327Y-108957808D01*
X174914917Y-108909885D01*
X175001332Y-108823470D01*
X175219673Y-109042192D01*
X175219673Y-109042192D01*
G37*
X175219673Y-109042192D02*
X175563201Y-109184838D01*
X175610077Y-109184879D01*
X176990000Y-110564802D01*
X176990000Y-112932803D01*
X176826310Y-112865000D01*
X176535750Y-112865000D01*
X176377000Y-113023750D01*
X176377000Y-113625000D01*
X176397000Y-113625000D01*
X176397000Y-113875000D01*
X176377000Y-113875000D01*
X176377000Y-113897000D01*
X176123000Y-113897000D01*
X176123000Y-113875000D01*
X176103000Y-113875000D01*
X176103000Y-113625000D01*
X176123000Y-113625000D01*
X176123000Y-113023750D01*
X175964250Y-112865000D01*
X175673690Y-112865000D01*
X175440301Y-112961673D01*
X175261673Y-113140302D01*
X175260000Y-113144341D01*
X175260000Y-110312463D01*
X175292192Y-110280327D01*
X175434838Y-109936799D01*
X175435162Y-109564833D01*
X175293117Y-109221057D01*
X175030327Y-108957808D01*
X174914917Y-108909885D01*
X175001332Y-108823470D01*
X175219673Y-109042192D01*
G36*
X168240000Y-111937537D02*
X168207808Y-111969673D01*
X168065162Y-112313201D01*
X168064838Y-112685167D01*
X168206883Y-113028943D01*
X168417572Y-113240000D01*
X167835000Y-113240000D01*
X167835000Y-113122998D01*
X167678252Y-113122998D01*
X167835000Y-112966250D01*
X167835000Y-112873691D01*
X167738327Y-112640302D01*
X167559699Y-112461673D01*
X167326310Y-112365000D01*
X167035750Y-112365000D01*
X166877000Y-112523750D01*
X166877000Y-113125000D01*
X166897000Y-113125000D01*
X166897000Y-113240000D01*
X166603000Y-113240000D01*
X166603000Y-113125000D01*
X166623000Y-113125000D01*
X166623000Y-112523750D01*
X166464250Y-112365000D01*
X166173690Y-112365000D01*
X165940301Y-112461673D01*
X165761673Y-112640302D01*
X165665000Y-112873691D01*
X165665000Y-112966250D01*
X165821748Y-113122998D01*
X165665000Y-113122998D01*
X165665000Y-113240000D01*
X165084802Y-113240000D01*
X168240000Y-110084802D01*
X168240000Y-111937537D01*
X168240000Y-111937537D01*
G37*
X168240000Y-111937537D02*
X168207808Y-111969673D01*
X168065162Y-112313201D01*
X168064838Y-112685167D01*
X168206883Y-113028943D01*
X168417572Y-113240000D01*
X167835000Y-113240000D01*
X167835000Y-113122998D01*
X167678252Y-113122998D01*
X167835000Y-112966250D01*
X167835000Y-112873691D01*
X167738327Y-112640302D01*
X167559699Y-112461673D01*
X167326310Y-112365000D01*
X167035750Y-112365000D01*
X166877000Y-112523750D01*
X166877000Y-113125000D01*
X166897000Y-113125000D01*
X166897000Y-113240000D01*
X166603000Y-113240000D01*
X166603000Y-113125000D01*
X166623000Y-113125000D01*
X166623000Y-112523750D01*
X166464250Y-112365000D01*
X166173690Y-112365000D01*
X165940301Y-112461673D01*
X165761673Y-112640302D01*
X165665000Y-112873691D01*
X165665000Y-112966250D01*
X165821748Y-113122998D01*
X165665000Y-113122998D01*
X165665000Y-113240000D01*
X165084802Y-113240000D01*
X168240000Y-110084802D01*
X168240000Y-111937537D01*
G36*
X167064878Y-108389680D02*
X167064838Y-108435167D01*
X167206883Y-108778943D01*
X167301486Y-108873712D01*
X165623777Y-110551421D01*
X165530327Y-110457808D01*
X165186799Y-110315162D01*
X165139924Y-110315121D01*
X161004559Y-106179757D01*
X161099330Y-106244511D01*
X161351220Y-106295520D01*
X162148780Y-106295520D01*
X162384097Y-106251242D01*
X162600221Y-106112170D01*
X162670509Y-106009300D01*
X164684498Y-106009300D01*
X167064878Y-108389680D01*
X167064878Y-108389680D01*
G37*
X167064878Y-108389680D02*
X167064838Y-108435167D01*
X167206883Y-108778943D01*
X167301486Y-108873712D01*
X165623777Y-110551421D01*
X165530327Y-110457808D01*
X165186799Y-110315162D01*
X165139924Y-110315121D01*
X161004559Y-106179757D01*
X161099330Y-106244511D01*
X161351220Y-106295520D01*
X162148780Y-106295520D01*
X162384097Y-106251242D01*
X162600221Y-106112170D01*
X162670509Y-106009300D01*
X164684498Y-106009300D01*
X167064878Y-108389680D01*
G36*
X168564878Y-106889680D02*
X168564838Y-106935167D01*
X168706883Y-107278943D01*
X168801486Y-107373712D01*
X168623777Y-107551421D01*
X168530327Y-107457808D01*
X168186799Y-107315162D01*
X168139923Y-107315121D01*
X165536701Y-104711899D01*
X165290139Y-104547152D01*
X164999300Y-104489300D01*
X162685131Y-104489300D01*
X162745211Y-104401370D01*
X162796220Y-104149480D01*
X162796220Y-103351920D01*
X162751942Y-103116603D01*
X162735505Y-103091059D01*
X162796431Y-103001890D01*
X162847440Y-102750000D01*
X162847440Y-102250000D01*
X162803162Y-102014683D01*
X162664090Y-101798559D01*
X162595994Y-101752031D01*
X162738327Y-101609698D01*
X162835000Y-101376309D01*
X162835000Y-101283750D01*
X162678252Y-101127002D01*
X162802200Y-101127002D01*
X168564878Y-106889680D01*
X168564878Y-106889680D01*
G37*
X168564878Y-106889680D02*
X168564838Y-106935167D01*
X168706883Y-107278943D01*
X168801486Y-107373712D01*
X168623777Y-107551421D01*
X168530327Y-107457808D01*
X168186799Y-107315162D01*
X168139923Y-107315121D01*
X165536701Y-104711899D01*
X165290139Y-104547152D01*
X164999300Y-104489300D01*
X162685131Y-104489300D01*
X162745211Y-104401370D01*
X162796220Y-104149480D01*
X162796220Y-103351920D01*
X162751942Y-103116603D01*
X162735505Y-103091059D01*
X162796431Y-103001890D01*
X162847440Y-102750000D01*
X162847440Y-102250000D01*
X162803162Y-102014683D01*
X162664090Y-101798559D01*
X162595994Y-101752031D01*
X162738327Y-101609698D01*
X162835000Y-101376309D01*
X162835000Y-101283750D01*
X162678252Y-101127002D01*
X162802200Y-101127002D01*
X168564878Y-106889680D01*
G36*
X168240000Y-99564802D02*
X168240000Y-104415198D01*
X161760000Y-97935198D01*
X161760000Y-93920226D01*
X161850221Y-93862170D01*
X161995211Y-93649970D01*
X162046220Y-93398080D01*
X162046220Y-93371022D01*
X168240000Y-99564802D01*
X168240000Y-99564802D01*
G37*
X168240000Y-99564802D02*
X168240000Y-104415198D01*
X161760000Y-97935198D01*
X161760000Y-93920226D01*
X161850221Y-93862170D01*
X161995211Y-93649970D01*
X162046220Y-93398080D01*
X162046220Y-93371022D01*
X168240000Y-99564802D01*
G36*
X173490000Y-101814802D02*
X173490000Y-103165198D01*
X172037401Y-101712599D01*
X171790839Y-101547852D01*
X171500000Y-101490000D01*
X170603000Y-101490000D01*
X170603000Y-101375000D01*
X170623000Y-101375000D01*
X170623000Y-100773750D01*
X170877000Y-100773750D01*
X170877000Y-101375000D01*
X171676250Y-101375000D01*
X171835000Y-101216250D01*
X171835000Y-101123691D01*
X171738327Y-100890302D01*
X171559699Y-100711673D01*
X171326310Y-100615000D01*
X171035750Y-100615000D01*
X170877000Y-100773750D01*
X170623000Y-100773750D01*
X170464250Y-100615000D01*
X170210002Y-100615000D01*
X170210002Y-98534804D01*
X173490000Y-101814802D01*
X173490000Y-101814802D01*
G37*
X173490000Y-101814802D02*
X173490000Y-103165198D01*
X172037401Y-101712599D01*
X171790839Y-101547852D01*
X171500000Y-101490000D01*
X170603000Y-101490000D01*
X170603000Y-101375000D01*
X170623000Y-101375000D01*
X170623000Y-100773750D01*
X170877000Y-100773750D01*
X170877000Y-101375000D01*
X171676250Y-101375000D01*
X171835000Y-101216250D01*
X171835000Y-101123691D01*
X171738327Y-100890302D01*
X171559699Y-100711673D01*
X171326310Y-100615000D01*
X171035750Y-100615000D01*
X170877000Y-100773750D01*
X170623000Y-100773750D01*
X170464250Y-100615000D01*
X170210002Y-100615000D01*
X170210002Y-98534804D01*
X173490000Y-101814802D01*
G36*
X170639150Y-86046114D02*
X170654008Y-86057116D01*
X170664343Y-86072445D01*
X172738951Y-88129966D01*
X172771452Y-88151489D01*
X172796693Y-88181195D01*
X174921421Y-89865000D01*
X174872998Y-89865000D01*
X174872998Y-90023748D01*
X174714250Y-89865000D01*
X174423690Y-89865000D01*
X174190301Y-89961673D01*
X174011673Y-90140302D01*
X173915000Y-90373691D01*
X173915000Y-90466250D01*
X174073750Y-90625000D01*
X174873000Y-90625000D01*
X174873000Y-90603000D01*
X175127000Y-90603000D01*
X175127000Y-90625000D01*
X175926250Y-90625000D01*
X176004571Y-90546679D01*
X177341733Y-91366522D01*
X177384340Y-91382252D01*
X177421391Y-91408519D01*
X179786109Y-92465537D01*
X179833557Y-92476347D01*
X179876775Y-92498719D01*
X181933413Y-93093064D01*
X179377504Y-94479255D01*
X177409952Y-95358142D01*
X175924951Y-95752799D01*
X175995211Y-95649970D01*
X176046220Y-95398080D01*
X176046220Y-94600520D01*
X176001942Y-94365203D01*
X175927815Y-94250007D01*
X175995211Y-94151370D01*
X176046220Y-93899480D01*
X176046220Y-93101920D01*
X176001942Y-92866603D01*
X175985505Y-92841059D01*
X176046431Y-92751890D01*
X176097440Y-92500000D01*
X176097440Y-92000000D01*
X176053162Y-91764683D01*
X175914090Y-91548559D01*
X175845994Y-91502031D01*
X175988327Y-91359698D01*
X176085000Y-91126309D01*
X176085000Y-91033750D01*
X175926250Y-90875000D01*
X175127000Y-90875000D01*
X175127000Y-90897000D01*
X174873000Y-90897000D01*
X174873000Y-90875000D01*
X174073750Y-90875000D01*
X173915000Y-91033750D01*
X173915000Y-91126309D01*
X174011673Y-91359698D01*
X174152910Y-91500936D01*
X174098559Y-91535910D01*
X173953569Y-91748110D01*
X173902560Y-92000000D01*
X173902560Y-92500000D01*
X173946838Y-92735317D01*
X174012959Y-92838072D01*
X174004789Y-92850030D01*
X173953780Y-93101920D01*
X173953780Y-93899480D01*
X173998058Y-94134797D01*
X174072185Y-94249993D01*
X174004789Y-94348630D01*
X173953780Y-94600520D01*
X173953780Y-94971418D01*
X172462599Y-96462599D01*
X172297852Y-96709161D01*
X172240000Y-97000000D01*
X172240000Y-97165198D01*
X170260000Y-95185198D01*
X170260000Y-85628444D01*
X170639150Y-86046114D01*
X170639150Y-86046114D01*
G37*
X170639150Y-86046114D02*
X170654008Y-86057116D01*
X170664343Y-86072445D01*
X172738951Y-88129966D01*
X172771452Y-88151489D01*
X172796693Y-88181195D01*
X174921421Y-89865000D01*
X174872998Y-89865000D01*
X174872998Y-90023748D01*
X174714250Y-89865000D01*
X174423690Y-89865000D01*
X174190301Y-89961673D01*
X174011673Y-90140302D01*
X173915000Y-90373691D01*
X173915000Y-90466250D01*
X174073750Y-90625000D01*
X174873000Y-90625000D01*
X174873000Y-90603000D01*
X175127000Y-90603000D01*
X175127000Y-90625000D01*
X175926250Y-90625000D01*
X176004571Y-90546679D01*
X177341733Y-91366522D01*
X177384340Y-91382252D01*
X177421391Y-91408519D01*
X179786109Y-92465537D01*
X179833557Y-92476347D01*
X179876775Y-92498719D01*
X181933413Y-93093064D01*
X179377504Y-94479255D01*
X177409952Y-95358142D01*
X175924951Y-95752799D01*
X175995211Y-95649970D01*
X176046220Y-95398080D01*
X176046220Y-94600520D01*
X176001942Y-94365203D01*
X175927815Y-94250007D01*
X175995211Y-94151370D01*
X176046220Y-93899480D01*
X176046220Y-93101920D01*
X176001942Y-92866603D01*
X175985505Y-92841059D01*
X176046431Y-92751890D01*
X176097440Y-92500000D01*
X176097440Y-92000000D01*
X176053162Y-91764683D01*
X175914090Y-91548559D01*
X175845994Y-91502031D01*
X175988327Y-91359698D01*
X176085000Y-91126309D01*
X176085000Y-91033750D01*
X175926250Y-90875000D01*
X175127000Y-90875000D01*
X175127000Y-90897000D01*
X174873000Y-90897000D01*
X174873000Y-90875000D01*
X174073750Y-90875000D01*
X173915000Y-91033750D01*
X173915000Y-91126309D01*
X174011673Y-91359698D01*
X174152910Y-91500936D01*
X174098559Y-91535910D01*
X173953569Y-91748110D01*
X173902560Y-92000000D01*
X173902560Y-92500000D01*
X173946838Y-92735317D01*
X174012959Y-92838072D01*
X174004789Y-92850030D01*
X173953780Y-93101920D01*
X173953780Y-93899480D01*
X173998058Y-94134797D01*
X174072185Y-94249993D01*
X174004789Y-94348630D01*
X173953780Y-94600520D01*
X173953780Y-94971418D01*
X172462599Y-96462599D01*
X172297852Y-96709161D01*
X172240000Y-97000000D01*
X172240000Y-97165198D01*
X170260000Y-95185198D01*
X170260000Y-85628444D01*
X170639150Y-86046114D01*
G36*
X152102560Y-79700000D02*
X152103583Y-79705439D01*
X152004789Y-79850030D01*
X151953780Y-80101920D01*
X151953780Y-80899480D01*
X151998058Y-81134797D01*
X152072185Y-81249993D01*
X152004789Y-81348630D01*
X151953780Y-81600520D01*
X151953780Y-82398080D01*
X151998058Y-82633397D01*
X152137130Y-82849521D01*
X152349330Y-82994511D01*
X152601220Y-83045520D01*
X153398780Y-83045520D01*
X153634097Y-83001242D01*
X153850221Y-82862170D01*
X153920509Y-82759300D01*
X164434498Y-82759300D01*
X165462599Y-83787401D01*
X165709161Y-83952148D01*
X166000000Y-84010000D01*
X166203780Y-84010000D01*
X166203780Y-84398080D01*
X166248058Y-84633397D01*
X166387130Y-84849521D01*
X166490000Y-84919809D01*
X166490000Y-95665198D01*
X162537401Y-91712599D01*
X162290839Y-91547852D01*
X162046220Y-91499194D01*
X162046220Y-91101920D01*
X162001942Y-90866603D01*
X161985505Y-90841059D01*
X162046431Y-90751890D01*
X162097440Y-90500000D01*
X162097440Y-90000000D01*
X162053162Y-89764683D01*
X161914090Y-89548559D01*
X161845994Y-89502031D01*
X161988327Y-89359698D01*
X162085000Y-89126309D01*
X162085000Y-89033750D01*
X161926250Y-88875000D01*
X161127000Y-88875000D01*
X161127000Y-88897000D01*
X160873000Y-88897000D01*
X160873000Y-88875000D01*
X160073750Y-88875000D01*
X159915000Y-89033750D01*
X159915000Y-89126309D01*
X160011673Y-89359698D01*
X160152910Y-89500936D01*
X160098559Y-89535910D01*
X159953569Y-89748110D01*
X159902560Y-90000000D01*
X159902560Y-90500000D01*
X159946838Y-90735317D01*
X160012959Y-90838072D01*
X160004789Y-90850030D01*
X159953780Y-91101920D01*
X159953780Y-91490000D01*
X150296220Y-91490000D01*
X150296220Y-91100520D01*
X150251942Y-90865203D01*
X150177815Y-90750007D01*
X150245211Y-90651370D01*
X150296220Y-90399480D01*
X150296220Y-89601920D01*
X150286219Y-89548768D01*
X150373691Y-89585000D01*
X150466250Y-89585000D01*
X150625000Y-89426250D01*
X150625000Y-88627000D01*
X150875000Y-88627000D01*
X150875000Y-89426250D01*
X151033750Y-89585000D01*
X151126309Y-89585000D01*
X151359698Y-89488327D01*
X151538327Y-89309699D01*
X151635000Y-89076310D01*
X151635000Y-88785750D01*
X151476250Y-88627000D01*
X150875000Y-88627000D01*
X150625000Y-88627000D01*
X150603000Y-88627000D01*
X150603000Y-88373691D01*
X159915000Y-88373691D01*
X159915000Y-88466250D01*
X160073750Y-88625000D01*
X160873000Y-88625000D01*
X160873000Y-88023750D01*
X161127000Y-88023750D01*
X161127000Y-88625000D01*
X161926250Y-88625000D01*
X162085000Y-88466250D01*
X162085000Y-88373691D01*
X161988327Y-88140302D01*
X161809699Y-87961673D01*
X161576310Y-87865000D01*
X161285750Y-87865000D01*
X161127000Y-88023750D01*
X160873000Y-88023750D01*
X160714250Y-87865000D01*
X160423690Y-87865000D01*
X160190301Y-87961673D01*
X160011673Y-88140302D01*
X159915000Y-88373691D01*
X150603000Y-88373691D01*
X150603000Y-88373000D01*
X150625000Y-88373000D01*
X150625000Y-87573750D01*
X150875000Y-87573750D01*
X150875000Y-88373000D01*
X151476250Y-88373000D01*
X151635000Y-88214250D01*
X151635000Y-87923690D01*
X151538327Y-87690301D01*
X151359698Y-87511673D01*
X151126309Y-87415000D01*
X151033750Y-87415000D01*
X150875000Y-87573750D01*
X150625000Y-87573750D01*
X150466250Y-87415000D01*
X150373691Y-87415000D01*
X150140302Y-87511673D01*
X149999064Y-87652910D01*
X149964090Y-87598559D01*
X149751890Y-87453569D01*
X149500000Y-87402560D01*
X149022060Y-87402560D01*
X149902004Y-86584254D01*
X149909714Y-86573575D01*
X149920660Y-86566245D01*
X151156081Y-85328272D01*
X151186799Y-85282196D01*
X151227376Y-85244507D01*
X151261311Y-85170430D01*
X151306505Y-85102642D01*
X151317252Y-85048319D01*
X151340318Y-84997970D01*
X151343322Y-84916549D01*
X151354731Y-84858883D01*
X151595577Y-84583630D01*
X151620584Y-84539856D01*
X151626590Y-84489802D01*
X151612649Y-84441355D01*
X151580958Y-84402149D01*
X151534890Y-84377886D01*
X150955500Y-84212346D01*
X150929437Y-84194970D01*
X150875114Y-84184223D01*
X150824765Y-84161157D01*
X150537480Y-84092912D01*
X149784890Y-83877886D01*
X149770879Y-83874728D01*
X149756909Y-83872400D01*
X148275683Y-83453597D01*
X146162314Y-82490470D01*
X147762322Y-81885743D01*
X147782913Y-81872899D01*
X147790161Y-81870483D01*
X147806796Y-81863592D01*
X147829793Y-81852094D01*
X147848422Y-81846303D01*
X147929712Y-81802134D01*
X149306796Y-81113592D01*
X149326200Y-81101600D01*
X150837963Y-79967777D01*
X151301497Y-79637669D01*
X151329797Y-79607631D01*
X151365191Y-79586405D01*
X152102560Y-78917772D01*
X152102560Y-79700000D01*
X152102560Y-79700000D01*
G37*
X152102560Y-79700000D02*
X152103583Y-79705439D01*
X152004789Y-79850030D01*
X151953780Y-80101920D01*
X151953780Y-80899480D01*
X151998058Y-81134797D01*
X152072185Y-81249993D01*
X152004789Y-81348630D01*
X151953780Y-81600520D01*
X151953780Y-82398080D01*
X151998058Y-82633397D01*
X152137130Y-82849521D01*
X152349330Y-82994511D01*
X152601220Y-83045520D01*
X153398780Y-83045520D01*
X153634097Y-83001242D01*
X153850221Y-82862170D01*
X153920509Y-82759300D01*
X164434498Y-82759300D01*
X165462599Y-83787401D01*
X165709161Y-83952148D01*
X166000000Y-84010000D01*
X166203780Y-84010000D01*
X166203780Y-84398080D01*
X166248058Y-84633397D01*
X166387130Y-84849521D01*
X166490000Y-84919809D01*
X166490000Y-95665198D01*
X162537401Y-91712599D01*
X162290839Y-91547852D01*
X162046220Y-91499194D01*
X162046220Y-91101920D01*
X162001942Y-90866603D01*
X161985505Y-90841059D01*
X162046431Y-90751890D01*
X162097440Y-90500000D01*
X162097440Y-90000000D01*
X162053162Y-89764683D01*
X161914090Y-89548559D01*
X161845994Y-89502031D01*
X161988327Y-89359698D01*
X162085000Y-89126309D01*
X162085000Y-89033750D01*
X161926250Y-88875000D01*
X161127000Y-88875000D01*
X161127000Y-88897000D01*
X160873000Y-88897000D01*
X160873000Y-88875000D01*
X160073750Y-88875000D01*
X159915000Y-89033750D01*
X159915000Y-89126309D01*
X160011673Y-89359698D01*
X160152910Y-89500936D01*
X160098559Y-89535910D01*
X159953569Y-89748110D01*
X159902560Y-90000000D01*
X159902560Y-90500000D01*
X159946838Y-90735317D01*
X160012959Y-90838072D01*
X160004789Y-90850030D01*
X159953780Y-91101920D01*
X159953780Y-91490000D01*
X150296220Y-91490000D01*
X150296220Y-91100520D01*
X150251942Y-90865203D01*
X150177815Y-90750007D01*
X150245211Y-90651370D01*
X150296220Y-90399480D01*
X150296220Y-89601920D01*
X150286219Y-89548768D01*
X150373691Y-89585000D01*
X150466250Y-89585000D01*
X150625000Y-89426250D01*
X150625000Y-88627000D01*
X150875000Y-88627000D01*
X150875000Y-89426250D01*
X151033750Y-89585000D01*
X151126309Y-89585000D01*
X151359698Y-89488327D01*
X151538327Y-89309699D01*
X151635000Y-89076310D01*
X151635000Y-88785750D01*
X151476250Y-88627000D01*
X150875000Y-88627000D01*
X150625000Y-88627000D01*
X150603000Y-88627000D01*
X150603000Y-88373691D01*
X159915000Y-88373691D01*
X159915000Y-88466250D01*
X160073750Y-88625000D01*
X160873000Y-88625000D01*
X160873000Y-88023750D01*
X161127000Y-88023750D01*
X161127000Y-88625000D01*
X161926250Y-88625000D01*
X162085000Y-88466250D01*
X162085000Y-88373691D01*
X161988327Y-88140302D01*
X161809699Y-87961673D01*
X161576310Y-87865000D01*
X161285750Y-87865000D01*
X161127000Y-88023750D01*
X160873000Y-88023750D01*
X160714250Y-87865000D01*
X160423690Y-87865000D01*
X160190301Y-87961673D01*
X160011673Y-88140302D01*
X159915000Y-88373691D01*
X150603000Y-88373691D01*
X150603000Y-88373000D01*
X150625000Y-88373000D01*
X150625000Y-87573750D01*
X150875000Y-87573750D01*
X150875000Y-88373000D01*
X151476250Y-88373000D01*
X151635000Y-88214250D01*
X151635000Y-87923690D01*
X151538327Y-87690301D01*
X151359698Y-87511673D01*
X151126309Y-87415000D01*
X151033750Y-87415000D01*
X150875000Y-87573750D01*
X150625000Y-87573750D01*
X150466250Y-87415000D01*
X150373691Y-87415000D01*
X150140302Y-87511673D01*
X149999064Y-87652910D01*
X149964090Y-87598559D01*
X149751890Y-87453569D01*
X149500000Y-87402560D01*
X149022060Y-87402560D01*
X149902004Y-86584254D01*
X149909714Y-86573575D01*
X149920660Y-86566245D01*
X151156081Y-85328272D01*
X151186799Y-85282196D01*
X151227376Y-85244507D01*
X151261311Y-85170430D01*
X151306505Y-85102642D01*
X151317252Y-85048319D01*
X151340318Y-84997970D01*
X151343322Y-84916549D01*
X151354731Y-84858883D01*
X151595577Y-84583630D01*
X151620584Y-84539856D01*
X151626590Y-84489802D01*
X151612649Y-84441355D01*
X151580958Y-84402149D01*
X151534890Y-84377886D01*
X150955500Y-84212346D01*
X150929437Y-84194970D01*
X150875114Y-84184223D01*
X150824765Y-84161157D01*
X150537480Y-84092912D01*
X149784890Y-83877886D01*
X149770879Y-83874728D01*
X149756909Y-83872400D01*
X148275683Y-83453597D01*
X146162314Y-82490470D01*
X147762322Y-81885743D01*
X147782913Y-81872899D01*
X147790161Y-81870483D01*
X147806796Y-81863592D01*
X147829793Y-81852094D01*
X147848422Y-81846303D01*
X147929712Y-81802134D01*
X149306796Y-81113592D01*
X149326200Y-81101600D01*
X150837963Y-79967777D01*
X151301497Y-79637669D01*
X151329797Y-79607631D01*
X151365191Y-79586405D01*
X152102560Y-78917772D01*
X152102560Y-79700000D01*
G36*
X161472279Y-55035359D02*
X161485290Y-55051427D01*
X161492314Y-55070871D01*
X162833185Y-57292690D01*
X162855123Y-57316748D01*
X162868972Y-57346217D01*
X162945845Y-57416237D01*
X163015903Y-57493065D01*
X163045377Y-57506896D01*
X163069450Y-57528823D01*
X163167268Y-57564096D01*
X163261393Y-57608265D01*
X163293917Y-57609764D01*
X163324547Y-57620809D01*
X165686355Y-57977109D01*
X165689865Y-57976945D01*
X165693184Y-57978105D01*
X166574070Y-58102061D01*
X165823181Y-58853184D01*
X164039219Y-60589291D01*
X164003010Y-60641919D01*
X163956642Y-60685860D01*
X163926898Y-60752542D01*
X163885511Y-60812696D01*
X163872198Y-60875174D01*
X163846175Y-60933515D01*
X163844213Y-61006506D01*
X163828997Y-61077917D01*
X163840606Y-61140732D01*
X163838890Y-61204593D01*
X164256798Y-63646706D01*
X164435482Y-64736275D01*
X163198347Y-64242688D01*
X162561677Y-63888982D01*
X162513625Y-63873733D01*
X162463427Y-63878380D01*
X162418991Y-63902191D01*
X162379517Y-63959839D01*
X162206628Y-64478505D01*
X162146393Y-64571257D01*
X162144611Y-64580872D01*
X162139515Y-64589215D01*
X162119963Y-64713850D01*
X162096972Y-64837891D01*
X162099004Y-64847454D01*
X162097489Y-64857114D01*
X162123000Y-65482873D01*
X162123000Y-69250000D01*
X162141098Y-69315341D01*
X163738799Y-71978177D01*
X164270367Y-72913947D01*
X164285713Y-72931695D01*
X164294565Y-72953422D01*
X165539986Y-74841008D01*
X165558304Y-74859540D01*
X165569893Y-74882877D01*
X166879641Y-76579974D01*
X166901485Y-76599024D01*
X166916471Y-76623834D01*
X168287534Y-78126269D01*
X168315443Y-78146821D01*
X168336198Y-78174577D01*
X170167346Y-79821178D01*
X170209332Y-79846120D01*
X170243732Y-79880783D01*
X172079358Y-81117457D01*
X172132405Y-81139667D01*
X172179057Y-81173298D01*
X174145210Y-82070870D01*
X174197063Y-82083115D01*
X174244508Y-82107350D01*
X175565507Y-82481348D01*
X174015884Y-83177621D01*
X171222138Y-83876057D01*
X170980153Y-83924454D01*
X170271897Y-84013674D01*
X170260000Y-84017638D01*
X170260000Y-82250000D01*
X170202148Y-81959161D01*
X170037401Y-81712599D01*
X168287401Y-79962599D01*
X168216423Y-79915173D01*
X168176250Y-79875000D01*
X168156299Y-79875000D01*
X168040839Y-79797852D01*
X167750000Y-79740000D01*
X167103000Y-79740000D01*
X167103000Y-79625000D01*
X167123000Y-79625000D01*
X167123000Y-79023750D01*
X167377000Y-79023750D01*
X167377000Y-79625000D01*
X168176250Y-79625000D01*
X168335000Y-79466250D01*
X168335000Y-79373691D01*
X168238327Y-79140302D01*
X168059699Y-78961673D01*
X167826310Y-78865000D01*
X167535750Y-78865000D01*
X167377000Y-79023750D01*
X167123000Y-79023750D01*
X166964250Y-78865000D01*
X166673690Y-78865000D01*
X166440301Y-78961673D01*
X166261673Y-79140302D01*
X166165000Y-79373691D01*
X166165000Y-79466250D01*
X166321748Y-79622998D01*
X166197800Y-79622998D01*
X161760000Y-75185198D01*
X161760000Y-63585000D01*
X161877002Y-63585000D01*
X161877002Y-63428252D01*
X162033750Y-63585000D01*
X162126309Y-63585000D01*
X162359698Y-63488327D01*
X162538327Y-63309699D01*
X162635000Y-63076310D01*
X162635000Y-62785750D01*
X162476250Y-62627000D01*
X161875000Y-62627000D01*
X161875000Y-62647000D01*
X161760000Y-62647000D01*
X161760000Y-62353000D01*
X161875000Y-62353000D01*
X161875000Y-62373000D01*
X162476250Y-62373000D01*
X162635000Y-62214250D01*
X162635000Y-61923690D01*
X162538327Y-61690301D01*
X162359698Y-61511673D01*
X162126309Y-61415000D01*
X162046220Y-61415000D01*
X162046220Y-60850520D01*
X162001942Y-60615203D01*
X161927815Y-60500007D01*
X161995211Y-60401370D01*
X162046220Y-60149480D01*
X162046220Y-59351920D01*
X162001942Y-59116603D01*
X161862870Y-58900479D01*
X161830242Y-58878185D01*
X162173461Y-58535564D01*
X162384759Y-58026702D01*
X162385240Y-57475715D01*
X162174831Y-56966485D01*
X161785564Y-56576539D01*
X161276702Y-56365241D01*
X160725715Y-56364760D01*
X160216485Y-56575169D01*
X159826539Y-56964436D01*
X159615241Y-57473298D01*
X159614760Y-58024285D01*
X159825169Y-58533515D01*
X160167490Y-58876433D01*
X160149779Y-58887830D01*
X160004789Y-59100030D01*
X159953780Y-59351920D01*
X159953780Y-59471418D01*
X159712599Y-59712599D01*
X159547852Y-59959161D01*
X159490000Y-60250000D01*
X159490000Y-61671614D01*
X159403569Y-61798110D01*
X159352560Y-62050000D01*
X159352560Y-62950000D01*
X159396838Y-63185317D01*
X159535910Y-63401441D01*
X159748110Y-63546431D01*
X160000000Y-63597440D01*
X160240000Y-63597440D01*
X160240000Y-75500000D01*
X160297852Y-75790839D01*
X160462599Y-76037401D01*
X165462599Y-81037401D01*
X165709161Y-81202148D01*
X166000000Y-81260000D01*
X166152560Y-81260000D01*
X166152560Y-81500000D01*
X166196838Y-81735317D01*
X166262959Y-81838072D01*
X166254789Y-81850030D01*
X166203780Y-82101920D01*
X166203780Y-82378978D01*
X165286701Y-81461899D01*
X165040139Y-81297152D01*
X164749300Y-81239300D01*
X153935131Y-81239300D01*
X153995211Y-81151370D01*
X154046220Y-80899480D01*
X154046220Y-80302910D01*
X154123691Y-80335000D01*
X154216250Y-80335000D01*
X154375000Y-80176250D01*
X154375000Y-79377000D01*
X154625000Y-79377000D01*
X154625000Y-80176250D01*
X154783750Y-80335000D01*
X154876309Y-80335000D01*
X155109698Y-80238327D01*
X155288327Y-80059699D01*
X155385000Y-79826310D01*
X155385000Y-79535750D01*
X155226250Y-79377000D01*
X154625000Y-79377000D01*
X154375000Y-79377000D01*
X154353000Y-79377000D01*
X154353000Y-79123000D01*
X154375000Y-79123000D01*
X154375000Y-78323750D01*
X154625000Y-78323750D01*
X154625000Y-79123000D01*
X155226250Y-79123000D01*
X155385000Y-78964250D01*
X155385000Y-78673690D01*
X155288327Y-78440301D01*
X155109698Y-78261673D01*
X154876309Y-78165000D01*
X154783750Y-78165000D01*
X154625000Y-78323750D01*
X154375000Y-78323750D01*
X154216250Y-78165000D01*
X154123691Y-78165000D01*
X153890302Y-78261673D01*
X153749064Y-78402910D01*
X153714090Y-78348559D01*
X153501890Y-78203569D01*
X153250000Y-78152560D01*
X152946436Y-78152560D01*
X153224464Y-77900449D01*
X153246291Y-77871004D01*
X153275590Y-77848978D01*
X155055730Y-75859074D01*
X155072149Y-75831273D01*
X155096067Y-75809585D01*
X156793479Y-73519849D01*
X156805601Y-73494205D01*
X156825012Y-73473519D01*
X158436105Y-70888066D01*
X158453922Y-70840860D01*
X158482803Y-70799486D01*
X159062544Y-69476680D01*
X159084882Y-69375219D01*
X159094655Y-69344669D01*
X159113592Y-69306796D01*
X159126130Y-69264839D01*
X159540201Y-65745232D01*
X159631187Y-65047479D01*
X159629638Y-65024282D01*
X159635613Y-65001820D01*
X159620653Y-64889743D01*
X159613117Y-64776907D01*
X159602810Y-64756071D01*
X159599734Y-64733028D01*
X159543016Y-64635198D01*
X159492879Y-64533845D01*
X159475383Y-64518539D01*
X159463723Y-64498428D01*
X159373889Y-64429753D01*
X159288778Y-64355298D01*
X159266755Y-64347852D01*
X159248288Y-64333735D01*
X159139023Y-64304669D01*
X159031887Y-64268448D01*
X159008688Y-64269997D01*
X158986226Y-64264022D01*
X158874148Y-64278982D01*
X158761314Y-64286518D01*
X158740478Y-64296825D01*
X158717435Y-64299901D01*
X158039845Y-64531274D01*
X157648593Y-64596483D01*
X158125886Y-61016785D01*
X158122498Y-60966486D01*
X158093619Y-60914183D01*
X158030301Y-60845108D01*
X158027272Y-60830586D01*
X157984897Y-60768418D01*
X157954101Y-60699768D01*
X157909260Y-60657453D01*
X157874538Y-60606514D01*
X157245802Y-59989292D01*
X155513706Y-58099733D01*
X156014300Y-58019104D01*
X158767961Y-57625724D01*
X158815459Y-57608831D01*
X158860267Y-57563010D01*
X158874481Y-57538135D01*
X158901481Y-57528410D01*
X158930227Y-57502244D01*
X158965113Y-57485111D01*
X159029705Y-57411698D01*
X159102022Y-57345874D01*
X159118566Y-57310702D01*
X159144241Y-57281521D01*
X160429696Y-55063347D01*
X160435258Y-55047048D01*
X160445990Y-55033578D01*
X160913803Y-54127000D01*
X160994387Y-54127000D01*
X161472279Y-55035359D01*
X161472279Y-55035359D01*
G37*
X161472279Y-55035359D02*
X161485290Y-55051427D01*
X161492314Y-55070871D01*
X162833185Y-57292690D01*
X162855123Y-57316748D01*
X162868972Y-57346217D01*
X162945845Y-57416237D01*
X163015903Y-57493065D01*
X163045377Y-57506896D01*
X163069450Y-57528823D01*
X163167268Y-57564096D01*
X163261393Y-57608265D01*
X163293917Y-57609764D01*
X163324547Y-57620809D01*
X165686355Y-57977109D01*
X165689865Y-57976945D01*
X165693184Y-57978105D01*
X166574070Y-58102061D01*
X165823181Y-58853184D01*
X164039219Y-60589291D01*
X164003010Y-60641919D01*
X163956642Y-60685860D01*
X163926898Y-60752542D01*
X163885511Y-60812696D01*
X163872198Y-60875174D01*
X163846175Y-60933515D01*
X163844213Y-61006506D01*
X163828997Y-61077917D01*
X163840606Y-61140732D01*
X163838890Y-61204593D01*
X164256798Y-63646706D01*
X164435482Y-64736275D01*
X163198347Y-64242688D01*
X162561677Y-63888982D01*
X162513625Y-63873733D01*
X162463427Y-63878380D01*
X162418991Y-63902191D01*
X162379517Y-63959839D01*
X162206628Y-64478505D01*
X162146393Y-64571257D01*
X162144611Y-64580872D01*
X162139515Y-64589215D01*
X162119963Y-64713850D01*
X162096972Y-64837891D01*
X162099004Y-64847454D01*
X162097489Y-64857114D01*
X162123000Y-65482873D01*
X162123000Y-69250000D01*
X162141098Y-69315341D01*
X163738799Y-71978177D01*
X164270367Y-72913947D01*
X164285713Y-72931695D01*
X164294565Y-72953422D01*
X165539986Y-74841008D01*
X165558304Y-74859540D01*
X165569893Y-74882877D01*
X166879641Y-76579974D01*
X166901485Y-76599024D01*
X166916471Y-76623834D01*
X168287534Y-78126269D01*
X168315443Y-78146821D01*
X168336198Y-78174577D01*
X170167346Y-79821178D01*
X170209332Y-79846120D01*
X170243732Y-79880783D01*
X172079358Y-81117457D01*
X172132405Y-81139667D01*
X172179057Y-81173298D01*
X174145210Y-82070870D01*
X174197063Y-82083115D01*
X174244508Y-82107350D01*
X175565507Y-82481348D01*
X174015884Y-83177621D01*
X171222138Y-83876057D01*
X170980153Y-83924454D01*
X170271897Y-84013674D01*
X170260000Y-84017638D01*
X170260000Y-82250000D01*
X170202148Y-81959161D01*
X170037401Y-81712599D01*
X168287401Y-79962599D01*
X168216423Y-79915173D01*
X168176250Y-79875000D01*
X168156299Y-79875000D01*
X168040839Y-79797852D01*
X167750000Y-79740000D01*
X167103000Y-79740000D01*
X167103000Y-79625000D01*
X167123000Y-79625000D01*
X167123000Y-79023750D01*
X167377000Y-79023750D01*
X167377000Y-79625000D01*
X168176250Y-79625000D01*
X168335000Y-79466250D01*
X168335000Y-79373691D01*
X168238327Y-79140302D01*
X168059699Y-78961673D01*
X167826310Y-78865000D01*
X167535750Y-78865000D01*
X167377000Y-79023750D01*
X167123000Y-79023750D01*
X166964250Y-78865000D01*
X166673690Y-78865000D01*
X166440301Y-78961673D01*
X166261673Y-79140302D01*
X166165000Y-79373691D01*
X166165000Y-79466250D01*
X166321748Y-79622998D01*
X166197800Y-79622998D01*
X161760000Y-75185198D01*
X161760000Y-63585000D01*
X161877002Y-63585000D01*
X161877002Y-63428252D01*
X162033750Y-63585000D01*
X162126309Y-63585000D01*
X162359698Y-63488327D01*
X162538327Y-63309699D01*
X162635000Y-63076310D01*
X162635000Y-62785750D01*
X162476250Y-62627000D01*
X161875000Y-62627000D01*
X161875000Y-62647000D01*
X161760000Y-62647000D01*
X161760000Y-62353000D01*
X161875000Y-62353000D01*
X161875000Y-62373000D01*
X162476250Y-62373000D01*
X162635000Y-62214250D01*
X162635000Y-61923690D01*
X162538327Y-61690301D01*
X162359698Y-61511673D01*
X162126309Y-61415000D01*
X162046220Y-61415000D01*
X162046220Y-60850520D01*
X162001942Y-60615203D01*
X161927815Y-60500007D01*
X161995211Y-60401370D01*
X162046220Y-60149480D01*
X162046220Y-59351920D01*
X162001942Y-59116603D01*
X161862870Y-58900479D01*
X161830242Y-58878185D01*
X162173461Y-58535564D01*
X162384759Y-58026702D01*
X162385240Y-57475715D01*
X162174831Y-56966485D01*
X161785564Y-56576539D01*
X161276702Y-56365241D01*
X160725715Y-56364760D01*
X160216485Y-56575169D01*
X159826539Y-56964436D01*
X159615241Y-57473298D01*
X159614760Y-58024285D01*
X159825169Y-58533515D01*
X160167490Y-58876433D01*
X160149779Y-58887830D01*
X160004789Y-59100030D01*
X159953780Y-59351920D01*
X159953780Y-59471418D01*
X159712599Y-59712599D01*
X159547852Y-59959161D01*
X159490000Y-60250000D01*
X159490000Y-61671614D01*
X159403569Y-61798110D01*
X159352560Y-62050000D01*
X159352560Y-62950000D01*
X159396838Y-63185317D01*
X159535910Y-63401441D01*
X159748110Y-63546431D01*
X160000000Y-63597440D01*
X160240000Y-63597440D01*
X160240000Y-75500000D01*
X160297852Y-75790839D01*
X160462599Y-76037401D01*
X165462599Y-81037401D01*
X165709161Y-81202148D01*
X166000000Y-81260000D01*
X166152560Y-81260000D01*
X166152560Y-81500000D01*
X166196838Y-81735317D01*
X166262959Y-81838072D01*
X166254789Y-81850030D01*
X166203780Y-82101920D01*
X166203780Y-82378978D01*
X165286701Y-81461899D01*
X165040139Y-81297152D01*
X164749300Y-81239300D01*
X153935131Y-81239300D01*
X153995211Y-81151370D01*
X154046220Y-80899480D01*
X154046220Y-80302910D01*
X154123691Y-80335000D01*
X154216250Y-80335000D01*
X154375000Y-80176250D01*
X154375000Y-79377000D01*
X154625000Y-79377000D01*
X154625000Y-80176250D01*
X154783750Y-80335000D01*
X154876309Y-80335000D01*
X155109698Y-80238327D01*
X155288327Y-80059699D01*
X155385000Y-79826310D01*
X155385000Y-79535750D01*
X155226250Y-79377000D01*
X154625000Y-79377000D01*
X154375000Y-79377000D01*
X154353000Y-79377000D01*
X154353000Y-79123000D01*
X154375000Y-79123000D01*
X154375000Y-78323750D01*
X154625000Y-78323750D01*
X154625000Y-79123000D01*
X155226250Y-79123000D01*
X155385000Y-78964250D01*
X155385000Y-78673690D01*
X155288327Y-78440301D01*
X155109698Y-78261673D01*
X154876309Y-78165000D01*
X154783750Y-78165000D01*
X154625000Y-78323750D01*
X154375000Y-78323750D01*
X154216250Y-78165000D01*
X154123691Y-78165000D01*
X153890302Y-78261673D01*
X153749064Y-78402910D01*
X153714090Y-78348559D01*
X153501890Y-78203569D01*
X153250000Y-78152560D01*
X152946436Y-78152560D01*
X153224464Y-77900449D01*
X153246291Y-77871004D01*
X153275590Y-77848978D01*
X155055730Y-75859074D01*
X155072149Y-75831273D01*
X155096067Y-75809585D01*
X156793479Y-73519849D01*
X156805601Y-73494205D01*
X156825012Y-73473519D01*
X158436105Y-70888066D01*
X158453922Y-70840860D01*
X158482803Y-70799486D01*
X159062544Y-69476680D01*
X159084882Y-69375219D01*
X159094655Y-69344669D01*
X159113592Y-69306796D01*
X159126130Y-69264839D01*
X159540201Y-65745232D01*
X159631187Y-65047479D01*
X159629638Y-65024282D01*
X159635613Y-65001820D01*
X159620653Y-64889743D01*
X159613117Y-64776907D01*
X159602810Y-64756071D01*
X159599734Y-64733028D01*
X159543016Y-64635198D01*
X159492879Y-64533845D01*
X159475383Y-64518539D01*
X159463723Y-64498428D01*
X159373889Y-64429753D01*
X159288778Y-64355298D01*
X159266755Y-64347852D01*
X159248288Y-64333735D01*
X159139023Y-64304669D01*
X159031887Y-64268448D01*
X159008688Y-64269997D01*
X158986226Y-64264022D01*
X158874148Y-64278982D01*
X158761314Y-64286518D01*
X158740478Y-64296825D01*
X158717435Y-64299901D01*
X158039845Y-64531274D01*
X157648593Y-64596483D01*
X158125886Y-61016785D01*
X158122498Y-60966486D01*
X158093619Y-60914183D01*
X158030301Y-60845108D01*
X158027272Y-60830586D01*
X157984897Y-60768418D01*
X157954101Y-60699768D01*
X157909260Y-60657453D01*
X157874538Y-60606514D01*
X157245802Y-59989292D01*
X155513706Y-58099733D01*
X156014300Y-58019104D01*
X158767961Y-57625724D01*
X158815459Y-57608831D01*
X158860267Y-57563010D01*
X158874481Y-57538135D01*
X158901481Y-57528410D01*
X158930227Y-57502244D01*
X158965113Y-57485111D01*
X159029705Y-57411698D01*
X159102022Y-57345874D01*
X159118566Y-57310702D01*
X159144241Y-57281521D01*
X160429696Y-55063347D01*
X160435258Y-55047048D01*
X160445990Y-55033578D01*
X160913803Y-54127000D01*
X160994387Y-54127000D01*
X161472279Y-55035359D01*
M02*
