G04 #@! TF.FileFunction,Legend,Bot*
%FSLAX46Y46*%
G04 Gerber Fmt 4.6, Leading zero omitted, Abs format (unit mm)*
G04 Created by KiCad (PCBNEW 4.0.4-stable) date Sat Dec  3 20:50:57 2016*
%MOMM*%
%LPD*%
G01*
G04 APERTURE LIST*
%ADD10C,0.100000*%
%ADD11C,0.300000*%
%ADD12C,0.400000*%
%ADD13C,0.150000*%
G04 APERTURE END LIST*
D10*
D11*
X181321428Y-118428571D02*
X181821428Y-117714286D01*
X182178571Y-118428571D02*
X182178571Y-116928571D01*
X181607143Y-116928571D01*
X181464285Y-117000000D01*
X181392857Y-117071429D01*
X181321428Y-117214286D01*
X181321428Y-117428571D01*
X181392857Y-117571429D01*
X181464285Y-117642857D01*
X181607143Y-117714286D01*
X182178571Y-117714286D01*
X180678571Y-117642857D02*
X180178571Y-117642857D01*
X179964285Y-118428571D02*
X180678571Y-118428571D01*
X180678571Y-116928571D01*
X179964285Y-116928571D01*
X179535714Y-116928571D02*
X179035714Y-118428571D01*
X178535714Y-116928571D01*
X177250000Y-118428571D02*
X178107143Y-118428571D01*
X177678571Y-118428571D02*
X177678571Y-116928571D01*
X177821428Y-117142857D01*
X177964286Y-117285714D01*
X178107143Y-117357143D01*
X159178571Y-112321429D02*
X159107142Y-112250000D01*
X158964285Y-112178571D01*
X158607142Y-112178571D01*
X158464285Y-112250000D01*
X158392856Y-112321429D01*
X158321428Y-112464286D01*
X158321428Y-112607143D01*
X158392856Y-112821429D01*
X159249999Y-113678571D01*
X158321428Y-113678571D01*
D12*
X182011905Y-115380952D02*
X182011905Y-112880952D01*
X182011905Y-114071429D02*
X180583333Y-114071429D01*
X180583333Y-115380952D02*
X180583333Y-112880952D01*
X179035714Y-115380952D02*
X179273809Y-115261905D01*
X179392857Y-115142857D01*
X179511905Y-114904762D01*
X179511905Y-114190476D01*
X179392857Y-113952381D01*
X179273809Y-113833333D01*
X179035714Y-113714286D01*
X178678571Y-113714286D01*
X178440476Y-113833333D01*
X178321428Y-113952381D01*
X178202381Y-114190476D01*
X178202381Y-114904762D01*
X178321428Y-115142857D01*
X178440476Y-115261905D01*
X178678571Y-115380952D01*
X179035714Y-115380952D01*
X176773809Y-115380952D02*
X177011904Y-115261905D01*
X177130952Y-115023810D01*
X177130952Y-112880952D01*
X175821428Y-115380952D02*
X175821428Y-113714286D01*
X175821428Y-112880952D02*
X175940476Y-113000000D01*
X175821428Y-113119048D01*
X175702380Y-113000000D01*
X175821428Y-112880952D01*
X175821428Y-113119048D01*
X173559523Y-115380952D02*
X173559523Y-112880952D01*
X173559523Y-115261905D02*
X173797619Y-115380952D01*
X174273809Y-115380952D01*
X174511904Y-115261905D01*
X174630952Y-115142857D01*
X174750000Y-114904762D01*
X174750000Y-114190476D01*
X174630952Y-113952381D01*
X174511904Y-113833333D01*
X174273809Y-113714286D01*
X173797619Y-113714286D01*
X173559523Y-113833333D01*
X171297618Y-115380952D02*
X171297618Y-114071429D01*
X171416666Y-113833333D01*
X171654761Y-113714286D01*
X172130952Y-113714286D01*
X172369047Y-113833333D01*
X171297618Y-115261905D02*
X171535714Y-115380952D01*
X172130952Y-115380952D01*
X172369047Y-115261905D01*
X172488095Y-115023810D01*
X172488095Y-114785714D01*
X172369047Y-114547619D01*
X172130952Y-114428571D01*
X171535714Y-114428571D01*
X171297618Y-114309524D01*
X170345237Y-113714286D02*
X169749999Y-115380952D01*
X169154761Y-113714286D02*
X169749999Y-115380952D01*
X169988094Y-115976190D01*
X170107142Y-116095238D01*
X170345237Y-116214286D01*
X166654761Y-112880952D02*
X165226189Y-112880952D01*
X165940475Y-115380952D02*
X165940475Y-112880952D01*
X164392856Y-115380952D02*
X164392856Y-113714286D01*
X164392856Y-114190476D02*
X164273808Y-113952381D01*
X164154761Y-113833333D01*
X163916665Y-113714286D01*
X163678570Y-113714286D01*
X161892856Y-115261905D02*
X162130951Y-115380952D01*
X162607142Y-115380952D01*
X162845237Y-115261905D01*
X162964285Y-115023810D01*
X162964285Y-114071429D01*
X162845237Y-113833333D01*
X162607142Y-113714286D01*
X162130951Y-113714286D01*
X161892856Y-113833333D01*
X161773808Y-114071429D01*
X161773808Y-114309524D01*
X162964285Y-114547619D01*
X159749999Y-115261905D02*
X159988094Y-115380952D01*
X160464285Y-115380952D01*
X160702380Y-115261905D01*
X160821428Y-115023810D01*
X160821428Y-114071429D01*
X160702380Y-113833333D01*
X160464285Y-113714286D01*
X159988094Y-113714286D01*
X159749999Y-113833333D01*
X159630951Y-114071429D01*
X159630951Y-114309524D01*
X160821428Y-114547619D01*
X156178570Y-112880952D02*
X155702380Y-112880952D01*
X155464285Y-113000000D01*
X155226189Y-113238095D01*
X155107142Y-113714286D01*
X155107142Y-114547619D01*
X155226189Y-115023810D01*
X155464285Y-115261905D01*
X155702380Y-115380952D01*
X156178570Y-115380952D01*
X156416666Y-115261905D01*
X156654761Y-115023810D01*
X156773809Y-114547619D01*
X156773809Y-113714286D01*
X156654761Y-113238095D01*
X156416666Y-113000000D01*
X156178570Y-112880952D01*
X154035713Y-115380952D02*
X154035713Y-113714286D01*
X154035713Y-114190476D02*
X153916665Y-113952381D01*
X153797618Y-113833333D01*
X153559522Y-113714286D01*
X153321427Y-113714286D01*
X152488094Y-113714286D02*
X152488094Y-115380952D01*
X152488094Y-113952381D02*
X152369046Y-113833333D01*
X152130951Y-113714286D01*
X151773808Y-113714286D01*
X151535713Y-113833333D01*
X151416665Y-114071429D01*
X151416665Y-115380952D01*
X149154760Y-115380952D02*
X149154760Y-114071429D01*
X149273808Y-113833333D01*
X149511903Y-113714286D01*
X149988094Y-113714286D01*
X150226189Y-113833333D01*
X149154760Y-115261905D02*
X149392856Y-115380952D01*
X149988094Y-115380952D01*
X150226189Y-115261905D01*
X150345237Y-115023810D01*
X150345237Y-114785714D01*
X150226189Y-114547619D01*
X149988094Y-114428571D01*
X149392856Y-114428571D01*
X149154760Y-114309524D01*
X147964284Y-115380952D02*
X147964284Y-113714286D01*
X147964284Y-113952381D02*
X147845236Y-113833333D01*
X147607141Y-113714286D01*
X147249998Y-113714286D01*
X147011903Y-113833333D01*
X146892855Y-114071429D01*
X146892855Y-115380952D01*
X146892855Y-114071429D02*
X146773808Y-113833333D01*
X146535712Y-113714286D01*
X146178570Y-113714286D01*
X145940474Y-113833333D01*
X145821427Y-114071429D01*
X145821427Y-115380952D01*
X143678570Y-115261905D02*
X143916665Y-115380952D01*
X144392856Y-115380952D01*
X144630951Y-115261905D01*
X144749999Y-115023810D01*
X144749999Y-114071429D01*
X144630951Y-113833333D01*
X144392856Y-113714286D01*
X143916665Y-113714286D01*
X143678570Y-113833333D01*
X143559522Y-114071429D01*
X143559522Y-114309524D01*
X144749999Y-114547619D01*
X142488094Y-113714286D02*
X142488094Y-115380952D01*
X142488094Y-113952381D02*
X142369046Y-113833333D01*
X142130951Y-113714286D01*
X141773808Y-113714286D01*
X141535713Y-113833333D01*
X141416665Y-114071429D01*
X141416665Y-115380952D01*
X140583332Y-113714286D02*
X139630951Y-113714286D01*
X140226189Y-112880952D02*
X140226189Y-115023810D01*
X140107141Y-115261905D01*
X139869046Y-115380952D01*
X139630951Y-115380952D01*
D11*
X188535713Y-131071429D02*
X188464284Y-131000000D01*
X188321427Y-130928571D01*
X187964284Y-130928571D01*
X187821427Y-131000000D01*
X187749998Y-131071429D01*
X187678570Y-131214286D01*
X187678570Y-131357143D01*
X187749998Y-131571429D01*
X188607141Y-132428571D01*
X187678570Y-132428571D01*
X186749999Y-130928571D02*
X186607142Y-130928571D01*
X186464285Y-131000000D01*
X186392856Y-131071429D01*
X186321427Y-131214286D01*
X186249999Y-131500000D01*
X186249999Y-131857143D01*
X186321427Y-132142857D01*
X186392856Y-132285714D01*
X186464285Y-132357143D01*
X186607142Y-132428571D01*
X186749999Y-132428571D01*
X186892856Y-132357143D01*
X186964285Y-132285714D01*
X187035713Y-132142857D01*
X187107142Y-131857143D01*
X187107142Y-131500000D01*
X187035713Y-131214286D01*
X186964285Y-131071429D01*
X186892856Y-131000000D01*
X186749999Y-130928571D01*
X184821428Y-132428571D02*
X185678571Y-132428571D01*
X185249999Y-132428571D02*
X185249999Y-130928571D01*
X185392856Y-131142857D01*
X185535714Y-131285714D01*
X185678571Y-131357143D01*
X183535714Y-130928571D02*
X183821428Y-130928571D01*
X183964285Y-131000000D01*
X184035714Y-131071429D01*
X184178571Y-131285714D01*
X184250000Y-131571429D01*
X184250000Y-132142857D01*
X184178571Y-132285714D01*
X184107143Y-132357143D01*
X183964285Y-132428571D01*
X183678571Y-132428571D01*
X183535714Y-132357143D01*
X183464285Y-132285714D01*
X183392857Y-132142857D01*
X183392857Y-131785714D01*
X183464285Y-131642857D01*
X183535714Y-131571429D01*
X183678571Y-131500000D01*
X183964285Y-131500000D01*
X184107143Y-131571429D01*
X184178571Y-131642857D01*
X184250000Y-131785714D01*
X182750000Y-131857143D02*
X181607143Y-131857143D01*
X180107143Y-132428571D02*
X180964286Y-132428571D01*
X180535714Y-132428571D02*
X180535714Y-130928571D01*
X180678571Y-131142857D01*
X180821429Y-131285714D01*
X180964286Y-131357143D01*
X179535715Y-131071429D02*
X179464286Y-131000000D01*
X179321429Y-130928571D01*
X178964286Y-130928571D01*
X178821429Y-131000000D01*
X178750000Y-131071429D01*
X178678572Y-131214286D01*
X178678572Y-131357143D01*
X178750000Y-131571429D01*
X179607143Y-132428571D01*
X178678572Y-132428571D01*
X178035715Y-131857143D02*
X176892858Y-131857143D01*
X175892858Y-130928571D02*
X175750001Y-130928571D01*
X175607144Y-131000000D01*
X175535715Y-131071429D01*
X175464286Y-131214286D01*
X175392858Y-131500000D01*
X175392858Y-131857143D01*
X175464286Y-132142857D01*
X175535715Y-132285714D01*
X175607144Y-132357143D01*
X175750001Y-132428571D01*
X175892858Y-132428571D01*
X176035715Y-132357143D01*
X176107144Y-132285714D01*
X176178572Y-132142857D01*
X176250001Y-131857143D01*
X176250001Y-131500000D01*
X176178572Y-131214286D01*
X176107144Y-131071429D01*
X176035715Y-131000000D01*
X175892858Y-130928571D01*
X174892858Y-130928571D02*
X173964287Y-130928571D01*
X174464287Y-131500000D01*
X174250001Y-131500000D01*
X174107144Y-131571429D01*
X174035715Y-131642857D01*
X173964287Y-131785714D01*
X173964287Y-132142857D01*
X174035715Y-132285714D01*
X174107144Y-132357143D01*
X174250001Y-132428571D01*
X174678573Y-132428571D01*
X174821430Y-132357143D01*
X174892858Y-132285714D01*
D13*
X158800000Y-128200000D02*
X158800000Y-119000000D01*
X158800000Y-119000000D02*
X164200000Y-119000000D01*
X164200000Y-119000000D02*
X164100000Y-119000000D01*
X164200000Y-128200000D02*
X164200000Y-130200000D01*
X164200000Y-130200000D02*
X158800000Y-130200000D01*
X158800000Y-130200000D02*
X158800000Y-128200000D01*
X158800000Y-128200000D02*
X164200000Y-128200000D01*
X164200000Y-128200000D02*
X164200000Y-119000000D01*
X157757143Y-122785715D02*
X157804762Y-122738096D01*
X157852381Y-122595239D01*
X157852381Y-122500001D01*
X157804762Y-122357143D01*
X157709524Y-122261905D01*
X157614286Y-122214286D01*
X157423810Y-122166667D01*
X157280952Y-122166667D01*
X157090476Y-122214286D01*
X156995238Y-122261905D01*
X156900000Y-122357143D01*
X156852381Y-122500001D01*
X156852381Y-122595239D01*
X156900000Y-122738096D01*
X156947619Y-122785715D01*
X156852381Y-123404762D02*
X156852381Y-123595239D01*
X156900000Y-123690477D01*
X156995238Y-123785715D01*
X157185714Y-123833334D01*
X157519048Y-123833334D01*
X157709524Y-123785715D01*
X157804762Y-123690477D01*
X157852381Y-123595239D01*
X157852381Y-123404762D01*
X157804762Y-123309524D01*
X157709524Y-123214286D01*
X157519048Y-123166667D01*
X157185714Y-123166667D01*
X156995238Y-123214286D01*
X156900000Y-123309524D01*
X156852381Y-123404762D01*
X157852381Y-124261905D02*
X156852381Y-124261905D01*
X157852381Y-124833334D01*
X156852381Y-124833334D01*
X157852381Y-125833334D02*
X157852381Y-125261905D01*
X157852381Y-125547619D02*
X156852381Y-125547619D01*
X156995238Y-125452381D01*
X157090476Y-125357143D01*
X157138095Y-125261905D01*
M02*
