G04 #@! TF.FileFunction,Copper,L2,Bot,Signal*
%FSLAX46Y46*%
G04 Gerber Fmt 4.6, Leading zero omitted, Abs format (unit mm)*
G04 Created by KiCad (PCBNEW 4.0.4-stable) date Sat Dec  3 20:50:57 2016*
%MOMM*%
%LPD*%
G01*
G04 APERTURE LIST*
%ADD10C,0.100000*%
%ADD11C,0.600000*%
%ADD12O,1.500000X0.800000*%
%ADD13O,0.800000X1.500000*%
%ADD14C,1.000000*%
%ADD15C,0.500000*%
%ADD16C,0.250000*%
%ADD17C,0.254000*%
G04 APERTURE END LIST*
D10*
D11*
X168700000Y-126100000D03*
X168700000Y-128300000D03*
X148650000Y-136650000D03*
X149800000Y-124600000D03*
X155850000Y-136500000D03*
X155250000Y-138700000D03*
X147250000Y-110350000D03*
X144250000Y-110150000D03*
X151850000Y-111350000D03*
X151850000Y-113350000D03*
X135250000Y-117750000D03*
X135650000Y-115150000D03*
X132450000Y-116350000D03*
X141050000Y-117150000D03*
X138450000Y-118150000D03*
X136050000Y-119550000D03*
X124450000Y-128150000D03*
X130450000Y-129150000D03*
X127250000Y-127350000D03*
X127650000Y-130750000D03*
X133850000Y-131550000D03*
X197650000Y-130350000D03*
X186050000Y-126150000D03*
X185850000Y-123550000D03*
X185850000Y-120550000D03*
X183450000Y-120150000D03*
X180850000Y-120550000D03*
X182050000Y-123350000D03*
X182450000Y-121550000D03*
X182450000Y-124750000D03*
X181450000Y-126750000D03*
X177250000Y-125550000D03*
X177250000Y-122950000D03*
X176250000Y-120750000D03*
X158500000Y-59750000D03*
X158700000Y-61150000D03*
X158700000Y-63350000D03*
X163100000Y-60750000D03*
X163500000Y-62950000D03*
X159100000Y-79350000D03*
X156300000Y-79350000D03*
X157500000Y-80550000D03*
X160700000Y-80550000D03*
X164100000Y-80550000D03*
X162100000Y-79150000D03*
X159900000Y-77550000D03*
X156900000Y-77550000D03*
X154700000Y-77550000D03*
X156500000Y-75150000D03*
X159100000Y-74750000D03*
X159100000Y-71750000D03*
X162500000Y-71950000D03*
X164100000Y-75350000D03*
X167100000Y-78350000D03*
X170100000Y-80350000D03*
X172100000Y-82750000D03*
X171900000Y-88950000D03*
X171900000Y-90950000D03*
X175500000Y-98550000D03*
X176900000Y-92150000D03*
X176900000Y-94550000D03*
X178700000Y-93150000D03*
X171700000Y-93750000D03*
X171700000Y-95950000D03*
X167500000Y-102750000D03*
X165900000Y-109350000D03*
X163100000Y-106950000D03*
X164500000Y-107550000D03*
X164300000Y-103550000D03*
X160700000Y-112350000D03*
X155700000Y-111550000D03*
X152900000Y-106350000D03*
X156900000Y-106350000D03*
X155100000Y-108350000D03*
X159700000Y-108350000D03*
X150100000Y-108150000D03*
X147300000Y-103550000D03*
X149100000Y-104950000D03*
X147500000Y-98350000D03*
X148500000Y-96350000D03*
X145700000Y-94350000D03*
X147300000Y-92750000D03*
X144700000Y-92150000D03*
X142500000Y-93150000D03*
X146900000Y-90550000D03*
X151900000Y-86350000D03*
X151500000Y-83550000D03*
X151100000Y-80950000D03*
X148300000Y-82550000D03*
X163300000Y-86550000D03*
X162700000Y-91150000D03*
X165300000Y-92750000D03*
X165300000Y-90150000D03*
X165300000Y-87750000D03*
X165300000Y-85350000D03*
X163100000Y-84150000D03*
X160700000Y-85150000D03*
X157700000Y-86750000D03*
X154500000Y-87150000D03*
X157700000Y-84550000D03*
X155300000Y-84550000D03*
X153500000Y-84550000D03*
X149300000Y-112150000D03*
X145700000Y-113750000D03*
X142100000Y-113950000D03*
X142500000Y-112550000D03*
X144100000Y-111950000D03*
X146100000Y-111950000D03*
X143900000Y-113950000D03*
X140100000Y-114150000D03*
X140900000Y-112550000D03*
X141300000Y-110750000D03*
X142900000Y-108150000D03*
X141100000Y-105550000D03*
X137300000Y-104350000D03*
X141500000Y-102550000D03*
X145300000Y-99350000D03*
X146500000Y-101150000D03*
X149900000Y-97550000D03*
X149900000Y-94350000D03*
X154500000Y-95950000D03*
X157100000Y-97550000D03*
X154700000Y-102750000D03*
X157100000Y-100550000D03*
X157100000Y-102750000D03*
X159500000Y-103550000D03*
X160100000Y-100950000D03*
X152700000Y-98950000D03*
X154500000Y-100150000D03*
X158500000Y-94350000D03*
X155100000Y-89150000D03*
X152100000Y-88550000D03*
X152900000Y-90750000D03*
X158100000Y-90550000D03*
X159300000Y-88750000D03*
X160900000Y-87150000D03*
X162700000Y-88750000D03*
X181800000Y-115000000D03*
X181900000Y-116750000D03*
X179700000Y-116750000D03*
X179800000Y-115000000D03*
X181500000Y-112750000D03*
X179800000Y-113200000D03*
X179500000Y-110750000D03*
X177900000Y-108150000D03*
X182300000Y-105950000D03*
X184700000Y-104350000D03*
X181500000Y-103150000D03*
X177300000Y-103550000D03*
X177300000Y-100750000D03*
X172700000Y-101750000D03*
X170700000Y-100350000D03*
X166300000Y-99950000D03*
X163300000Y-96950000D03*
X150400000Y-122000000D03*
X154800000Y-125600000D03*
X155800000Y-124400000D03*
X157400000Y-122200000D03*
X163800000Y-121600000D03*
X163750000Y-119000000D03*
X163750000Y-115750000D03*
X167250000Y-112250000D03*
X168250000Y-115500000D03*
X170000000Y-114250000D03*
X176250000Y-112500000D03*
X183750000Y-117250000D03*
X189750000Y-116000000D03*
X187750000Y-116750000D03*
X187500000Y-115000000D03*
X183750000Y-114500000D03*
X185750000Y-133750000D03*
X182000000Y-134500000D03*
X183250000Y-131750000D03*
X186750000Y-131250000D03*
X190000000Y-131000000D03*
X194500000Y-131000000D03*
X197250000Y-127750000D03*
X190500000Y-127000000D03*
X190500000Y-124250000D03*
X187500000Y-126750000D03*
X187500000Y-124750000D03*
X187500000Y-122500000D03*
X184250000Y-122250000D03*
X180750000Y-122250000D03*
X180750000Y-125000000D03*
X179750000Y-132500000D03*
X177000000Y-132750000D03*
X175250000Y-122750000D03*
X164500000Y-123500000D03*
X166750000Y-136000000D03*
X160000000Y-144000000D03*
X165000000Y-136500000D03*
X163500000Y-132500000D03*
X159250000Y-127000000D03*
X158250000Y-132500000D03*
X158250000Y-129750000D03*
X145250000Y-134250000D03*
X138750000Y-134000000D03*
X132250000Y-126750000D03*
X134750000Y-121000000D03*
X138250000Y-121500000D03*
X137750000Y-124000000D03*
X146000000Y-125000000D03*
X143000000Y-124200000D03*
X144000000Y-121500000D03*
X145750000Y-117750000D03*
D12*
X161500000Y-124000000D03*
X161500000Y-119000000D03*
D13*
X158800000Y-121500000D03*
D11*
X149500000Y-101750000D03*
D14*
X154750000Y-117750000D03*
X141750000Y-127250000D03*
D11*
X159500000Y-136750000D03*
D14*
X162000000Y-136250000D03*
X167500000Y-120500000D03*
X170000000Y-120500000D03*
X176750000Y-128750000D03*
X155000000Y-127500000D03*
D11*
X179750000Y-128000000D03*
X137750000Y-125500000D03*
X136500000Y-126750000D03*
X140750000Y-123500000D03*
X140750000Y-119250000D03*
X134750000Y-124000000D03*
X134750000Y-125750000D03*
X138500000Y-131250000D03*
X136000000Y-124250000D03*
X145500000Y-126500000D03*
X141500000Y-132250000D03*
X146250000Y-127000000D03*
X145500000Y-130500000D03*
X139750000Y-126750000D03*
X141000000Y-130750000D03*
X138500000Y-127500000D03*
X140250000Y-129250000D03*
X144750000Y-126000000D03*
X144000000Y-127250000D03*
X156750000Y-118000000D03*
X155250000Y-121000000D03*
X145250000Y-123750000D03*
X145800000Y-121000000D03*
X152000000Y-116250000D03*
X148250000Y-129000000D03*
X152500000Y-117000000D03*
X149000000Y-131750000D03*
X145500000Y-132250000D03*
X152250000Y-118750000D03*
X153250000Y-117750000D03*
X146800000Y-118400000D03*
X149800000Y-126800000D03*
X148800000Y-116400000D03*
X149000000Y-118000000D03*
X151400000Y-119000000D03*
X152000000Y-125000000D03*
X150200000Y-131800000D03*
X154500000Y-133000000D03*
X153250000Y-118750000D03*
X150500000Y-128750000D03*
X156250000Y-121000000D03*
X151750000Y-122750000D03*
X163000000Y-113200000D03*
X164000000Y-113250000D03*
X157250000Y-121000000D03*
X153000000Y-122750000D03*
X151500000Y-129500000D03*
X168000000Y-108250000D03*
X169000000Y-109250000D03*
X169000000Y-112500000D03*
X166750000Y-131375000D03*
X169500000Y-131250000D03*
X166000000Y-119500000D03*
X165000000Y-111250000D03*
X170200000Y-124600000D03*
X165250000Y-132250000D03*
X164250000Y-111750000D03*
X165250000Y-119000000D03*
X165250000Y-121750000D03*
X166500000Y-134000000D03*
X171000000Y-125250000D03*
X172250000Y-109000000D03*
X172250000Y-111750000D03*
X171000000Y-117000000D03*
X171000000Y-119500000D03*
X170750000Y-135250000D03*
X171500000Y-126000000D03*
X169500000Y-106750000D03*
X170500000Y-107750000D03*
X170500000Y-111250000D03*
X172000000Y-113250000D03*
X172000000Y-117250000D03*
X172000000Y-120000000D03*
X173000000Y-126250000D03*
X172250000Y-129000000D03*
X173000000Y-117250000D03*
X173000000Y-111000000D03*
X173000000Y-107250000D03*
X173000000Y-119500000D03*
X172250000Y-126750000D03*
X172500000Y-132750000D03*
X173750000Y-110500000D03*
X173750000Y-106500000D03*
X173750000Y-116750000D03*
X173000000Y-120750000D03*
X175500000Y-132000000D03*
X174250000Y-104000000D03*
X174500000Y-109750000D03*
X174500000Y-117250000D03*
X174500000Y-119500000D03*
X173750000Y-126750000D03*
X159000000Y-139750000D03*
X160000000Y-135250000D03*
X154250000Y-134250000D03*
X143500000Y-135000000D03*
X155750000Y-135250000D03*
X154250000Y-135250000D03*
X139750000Y-132000000D03*
X161000000Y-139250000D03*
X161750000Y-137250000D03*
X161000000Y-129500000D03*
X161000000Y-136000000D03*
X174250000Y-100250000D03*
X175750000Y-102000000D03*
X175750000Y-106000000D03*
X175750000Y-108250000D03*
X177750000Y-118000000D03*
X177750000Y-119750000D03*
X178750000Y-128250000D03*
X178750000Y-129750000D03*
D15*
X168250000Y-115500000D02*
X168250000Y-113250000D01*
X168250000Y-113250000D02*
X167250000Y-112250000D01*
X155850000Y-136500000D02*
X154500000Y-136500000D01*
X149100000Y-136200000D02*
X148650000Y-136650000D01*
X154200000Y-136200000D02*
X149100000Y-136200000D01*
X154500000Y-136500000D02*
X154200000Y-136200000D01*
D16*
X149800000Y-124600000D02*
X149800000Y-122600000D01*
X149800000Y-122600000D02*
X150400000Y-122000000D01*
D15*
X161500000Y-124000000D02*
X164000000Y-124000000D01*
X164000000Y-124000000D02*
X164500000Y-123500000D01*
X164500000Y-123500000D02*
X164674998Y-123500000D01*
X164674998Y-123500000D02*
X164500000Y-123500000D01*
X151750000Y-114750000D02*
X154750000Y-117750000D01*
X146500000Y-114750000D02*
X151750000Y-114750000D01*
X141750000Y-119500000D02*
X146500000Y-114750000D01*
X141750000Y-127250000D02*
X141750000Y-119500000D01*
D16*
X162000000Y-136250000D02*
X161750000Y-136250000D01*
X161250000Y-136750000D02*
X159500000Y-136750000D01*
X161750000Y-136250000D02*
X161250000Y-136750000D01*
D15*
X159000000Y-124750000D02*
X159000000Y-123500000D01*
X162000000Y-127750000D02*
X159000000Y-124750000D01*
X162000000Y-136250000D02*
X162000000Y-127750000D01*
X161500000Y-119000000D02*
X161500000Y-119500000D01*
X161500000Y-119500000D02*
X162500000Y-120500000D01*
X162500000Y-120500000D02*
X167500000Y-120500000D01*
X170000000Y-120500000D02*
X176750000Y-127250000D01*
X176750000Y-127250000D02*
X176750000Y-128750000D01*
X161500000Y-119000000D02*
X161500000Y-121000000D01*
X161500000Y-121000000D02*
X159000000Y-123500000D01*
X159000000Y-123500000D02*
X155000000Y-127500000D01*
D16*
X176750000Y-127250000D02*
X179000000Y-127250000D01*
X179000000Y-127250000D02*
X179750000Y-128000000D01*
X137750000Y-125500000D02*
X136500000Y-126750000D01*
X140750000Y-121750000D02*
X140750000Y-123500000D01*
X140750000Y-119250000D02*
X140750000Y-121750000D01*
X140750000Y-121500000D02*
X140750000Y-121750000D01*
X134750000Y-124000000D02*
X134750000Y-125750000D01*
X138500000Y-130000000D02*
X138500000Y-131250000D01*
X135750000Y-127250000D02*
X138500000Y-130000000D01*
X135750000Y-124500000D02*
X135750000Y-127250000D01*
X136000000Y-124250000D02*
X135750000Y-124500000D01*
X145500000Y-126500000D02*
X144750000Y-127250000D01*
X144750000Y-127250000D02*
X144750000Y-129000000D01*
X144750000Y-129000000D02*
X141500000Y-132250000D01*
X146250000Y-127000000D02*
X145500000Y-127750000D01*
X145500000Y-127750000D02*
X145500000Y-130500000D01*
X139750000Y-126750000D02*
X141000000Y-128000000D01*
X141000000Y-128000000D02*
X141000000Y-130750000D01*
X138500000Y-127500000D02*
X140250000Y-129250000D01*
X144750000Y-126000000D02*
X144250000Y-126500000D01*
X144250000Y-126500000D02*
X144250000Y-127000000D01*
X144250000Y-127000000D02*
X144000000Y-127250000D01*
X156750000Y-118000000D02*
X155250000Y-119500000D01*
X155250000Y-119500000D02*
X155250000Y-121000000D01*
X145250000Y-121550000D02*
X145250000Y-123750000D01*
X145800000Y-121000000D02*
X145250000Y-121550000D01*
X152000000Y-116250000D02*
X148250000Y-120000000D01*
X148250000Y-120000000D02*
X148250000Y-129000000D01*
X152500000Y-117000000D02*
X149000000Y-120500000D01*
X149000000Y-120500000D02*
X149000000Y-131750000D01*
X147000000Y-130750000D02*
X147000000Y-124800000D01*
X145500000Y-132250000D02*
X147000000Y-130750000D01*
X146800000Y-121000000D02*
X146800000Y-119200000D01*
X146200000Y-121600000D02*
X146800000Y-121000000D01*
X146200000Y-124000000D02*
X146200000Y-121600000D01*
X147000000Y-124800000D02*
X146200000Y-124000000D01*
X153250000Y-117750000D02*
X152250000Y-118750000D01*
X146800000Y-118400000D02*
X146800000Y-119200000D01*
X146800000Y-119200000D02*
X146800000Y-119000000D01*
X148800000Y-117800000D02*
X148800000Y-116400000D01*
X149000000Y-118000000D02*
X148800000Y-117800000D01*
X153800000Y-121400000D02*
X151400000Y-119000000D01*
X153800000Y-123200000D02*
X153800000Y-121400000D01*
X152000000Y-125000000D02*
X153800000Y-123200000D01*
X149800000Y-131400000D02*
X149800000Y-126800000D01*
X150200000Y-131800000D02*
X149800000Y-131400000D01*
X153750000Y-133000000D02*
X154500000Y-133000000D01*
X153250000Y-125750000D02*
X154500000Y-124500000D01*
X154500000Y-124500000D02*
X154500000Y-120000000D01*
X153250000Y-118750000D02*
X154500000Y-120000000D01*
X153750000Y-133000000D02*
X153250000Y-132500000D01*
X153250000Y-132500000D02*
X153250000Y-125750000D01*
X150500000Y-124000000D02*
X150500000Y-128750000D01*
X161250000Y-115000000D02*
X156250000Y-120000000D01*
X156250000Y-120000000D02*
X156250000Y-121000000D01*
X151750000Y-122750000D02*
X150500000Y-124000000D01*
X161250000Y-114950000D02*
X161250000Y-115000000D01*
X163000000Y-113200000D02*
X161250000Y-114950000D01*
X157750000Y-119500000D02*
X164000000Y-113250000D01*
X157750000Y-120500000D02*
X157750000Y-119500000D01*
X157250000Y-121000000D02*
X157750000Y-120500000D01*
X151250000Y-124500000D02*
X153000000Y-122750000D01*
X151250000Y-129250000D02*
X151250000Y-124500000D01*
X151500000Y-129500000D02*
X151250000Y-129250000D01*
X168000000Y-108250000D02*
X169000000Y-109250000D01*
X169000000Y-112500000D02*
X169000000Y-121750000D01*
X167500000Y-123250000D02*
X169000000Y-121750000D01*
X167500000Y-130625000D02*
X167500000Y-123250000D01*
X167500000Y-130625000D02*
X166750000Y-131375000D01*
X166000000Y-112250000D02*
X166000000Y-119500000D01*
X165000000Y-111250000D02*
X166000000Y-112250000D01*
X170200000Y-124600000D02*
X169799998Y-125000002D01*
X169799998Y-125000002D02*
X169799998Y-130950002D01*
X169799998Y-130950002D02*
X169500000Y-131250000D01*
X165250000Y-121750000D02*
X165250000Y-132250000D01*
X164250000Y-111750000D02*
X165250000Y-112750000D01*
X165250000Y-112750000D02*
X165250000Y-119000000D01*
X170750000Y-125500000D02*
X170250000Y-126000000D01*
X166500000Y-134000000D02*
X168000000Y-134000000D01*
X171000000Y-125250000D02*
X170750000Y-125500000D01*
X170250000Y-131750000D02*
X168000000Y-134000000D01*
X170250000Y-126000000D02*
X170250000Y-131750000D01*
X172250000Y-109000000D02*
X172250000Y-111750000D01*
X171000000Y-117000000D02*
X171000000Y-119500000D01*
X170750000Y-126750000D02*
X170750000Y-135250000D01*
X171500000Y-126000000D02*
X170750000Y-126750000D01*
X169500000Y-106750000D02*
X170500000Y-107750000D01*
X170500000Y-111250000D02*
X172000000Y-112750000D01*
X172000000Y-112750000D02*
X172000000Y-113250000D01*
X172000000Y-117250000D02*
X172000000Y-120000000D01*
X173000000Y-126250000D02*
X173000000Y-127250000D01*
X173000000Y-128250000D02*
X173000000Y-127250000D01*
X172250000Y-129000000D02*
X173000000Y-128250000D01*
X173000000Y-117250000D02*
X173000000Y-119500000D01*
X173000000Y-107250000D02*
X173000000Y-111000000D01*
X172250000Y-126750000D02*
X171200002Y-127799998D01*
X171200002Y-127799998D02*
X171200002Y-131450002D01*
X172500000Y-132750000D02*
X171200002Y-131450002D01*
X173750000Y-106500000D02*
X173750000Y-110500000D01*
X173750000Y-116750000D02*
X173750000Y-120000000D01*
X173750000Y-120000000D02*
X173000000Y-120750000D01*
X174250000Y-104000000D02*
X174500000Y-104250000D01*
X174500000Y-104250000D02*
X174500000Y-109750000D01*
X174500000Y-119500000D02*
X174500000Y-117250000D01*
X173750000Y-130250000D02*
X173750000Y-126750000D01*
X173750000Y-130250000D02*
X175500000Y-132000000D01*
X158500000Y-136750000D02*
X160000000Y-135250000D01*
X158500000Y-139250000D02*
X158500000Y-136750000D01*
X159000000Y-139750000D02*
X158500000Y-139250000D01*
X157750000Y-134250000D02*
X159000000Y-134250000D01*
X154250000Y-134250000D02*
X157750000Y-134250000D01*
X159000000Y-134250000D02*
X160000000Y-135250000D01*
X155750000Y-135250000D02*
X154250000Y-135250000D01*
X141250000Y-133500000D02*
X139750000Y-132000000D01*
X142000000Y-133500000D02*
X141250000Y-133500000D01*
X143500000Y-135000000D02*
X142000000Y-133500000D01*
X161000000Y-139250000D02*
X161750000Y-138500000D01*
X161750000Y-138500000D02*
X161750000Y-137250000D01*
X161000000Y-136000000D02*
X161000000Y-129500000D01*
X174250000Y-100250000D02*
X175750000Y-101750000D01*
X175750000Y-101750000D02*
X175750000Y-102000000D01*
X175750000Y-106000000D02*
X175750000Y-108250000D01*
X177750000Y-118000000D02*
X177750000Y-119750000D01*
X178750000Y-128250000D02*
X178750000Y-129750000D01*
D17*
G36*
X161472279Y-55035359D02*
X161485290Y-55051427D01*
X161492314Y-55070871D01*
X162833185Y-57292690D01*
X162855123Y-57316748D01*
X162868972Y-57346217D01*
X162945845Y-57416237D01*
X163015903Y-57493065D01*
X163045377Y-57506896D01*
X163069450Y-57528823D01*
X163167268Y-57564096D01*
X163261393Y-57608265D01*
X163293917Y-57609764D01*
X163324547Y-57620809D01*
X165686355Y-57977109D01*
X165689865Y-57976945D01*
X165693184Y-57978105D01*
X166574070Y-58102061D01*
X165823181Y-58853184D01*
X164039219Y-60589291D01*
X164003010Y-60641919D01*
X163956642Y-60685860D01*
X163926898Y-60752542D01*
X163885511Y-60812696D01*
X163872198Y-60875174D01*
X163846175Y-60933515D01*
X163844213Y-61006506D01*
X163828997Y-61077917D01*
X163840606Y-61140732D01*
X163838890Y-61204593D01*
X164256798Y-63646706D01*
X164435482Y-64736275D01*
X163198347Y-64242688D01*
X162561677Y-63888982D01*
X162513625Y-63873733D01*
X162463427Y-63878380D01*
X162418991Y-63902191D01*
X162379517Y-63959839D01*
X162206628Y-64478505D01*
X162146393Y-64571257D01*
X162144611Y-64580872D01*
X162139515Y-64589215D01*
X162119963Y-64713850D01*
X162096972Y-64837891D01*
X162099004Y-64847454D01*
X162097489Y-64857114D01*
X162123000Y-65482873D01*
X162123000Y-69250000D01*
X162141098Y-69315341D01*
X163738799Y-71978177D01*
X164270367Y-72913947D01*
X164285713Y-72931695D01*
X164294565Y-72953422D01*
X165539986Y-74841008D01*
X165558304Y-74859540D01*
X165569893Y-74882877D01*
X166879641Y-76579974D01*
X166901485Y-76599024D01*
X166916471Y-76623834D01*
X168287534Y-78126269D01*
X168315443Y-78146821D01*
X168336198Y-78174577D01*
X170167346Y-79821178D01*
X170209332Y-79846120D01*
X170243732Y-79880783D01*
X172079358Y-81117457D01*
X172132405Y-81139667D01*
X172179057Y-81173298D01*
X174145210Y-82070870D01*
X174197063Y-82083115D01*
X174244508Y-82107350D01*
X175565507Y-82481348D01*
X174015884Y-83177621D01*
X171222138Y-83876057D01*
X170980153Y-83924454D01*
X170271897Y-84013674D01*
X170199545Y-84037784D01*
X170124110Y-84049034D01*
X170072138Y-84080240D01*
X170014629Y-84099404D01*
X169987416Y-84123001D01*
X169975093Y-84125466D01*
X169910197Y-84160197D01*
X169660197Y-84410197D01*
X169632334Y-84452211D01*
X169623000Y-84500000D01*
X169623000Y-85000000D01*
X169633006Y-85049410D01*
X169679553Y-85105670D01*
X169947745Y-85284465D01*
X170639150Y-86046114D01*
X170654008Y-86057116D01*
X170664343Y-86072445D01*
X172738951Y-88129966D01*
X172771452Y-88151489D01*
X172796693Y-88181195D01*
X174986668Y-89916707D01*
X175024140Y-89935921D01*
X175055055Y-89964511D01*
X177341733Y-91366522D01*
X177384340Y-91382252D01*
X177421391Y-91408519D01*
X179786109Y-92465537D01*
X179833557Y-92476347D01*
X179876775Y-92498719D01*
X181933413Y-93093064D01*
X179377504Y-94479255D01*
X177409952Y-95358142D01*
X175614949Y-95835186D01*
X175320154Y-95899394D01*
X175252210Y-95928990D01*
X175180068Y-95945951D01*
X175129101Y-95982615D01*
X175071541Y-96007688D01*
X175020094Y-96061032D01*
X174959934Y-96104310D01*
X174936088Y-96142815D01*
X174921548Y-96150129D01*
X174888873Y-96188520D01*
X174885850Y-96200227D01*
X174883294Y-96202878D01*
X174856177Y-96271851D01*
X174817159Y-96334855D01*
X174807046Y-96396818D01*
X174784073Y-96455250D01*
X174785415Y-96529347D01*
X174773477Y-96602489D01*
X174787846Y-96663607D01*
X174788983Y-96726381D01*
X174818579Y-96794325D01*
X174835540Y-96866467D01*
X174872204Y-96917434D01*
X174897277Y-96974994D01*
X174950621Y-97026441D01*
X174993899Y-97086601D01*
X175717272Y-97761623D01*
X175737934Y-97774419D01*
X175753451Y-97793119D01*
X177836949Y-99484187D01*
X177860626Y-99496678D01*
X177879238Y-99515921D01*
X180186666Y-101113939D01*
X180224525Y-101130365D01*
X180256500Y-101156453D01*
X182576271Y-102387857D01*
X182610985Y-102398279D01*
X182641279Y-102418174D01*
X185118653Y-103421347D01*
X185156800Y-103428620D01*
X185191417Y-103446222D01*
X187294038Y-104037319D01*
X187111218Y-104214425D01*
X185442025Y-105597165D01*
X183064845Y-107111791D01*
X180722227Y-108166768D01*
X180075999Y-108428681D01*
X180053558Y-108443429D01*
X180027643Y-108450463D01*
X179940939Y-108517441D01*
X179849381Y-108577612D01*
X179844647Y-108584581D01*
X179709839Y-108629517D01*
X179660197Y-108660197D01*
X179410197Y-108910197D01*
X179382334Y-108952211D01*
X179373012Y-109001754D01*
X179383700Y-109051022D01*
X179410197Y-109089803D01*
X179660197Y-109339803D01*
X179670664Y-109349170D01*
X179719220Y-109388015D01*
X179781706Y-109468904D01*
X179841877Y-109560462D01*
X179864089Y-109575550D01*
X179880506Y-109596802D01*
X180897846Y-110483162D01*
X180933123Y-110503377D01*
X180961535Y-110532462D01*
X183128963Y-112017682D01*
X183154208Y-112028486D01*
X183174869Y-112046573D01*
X185191480Y-113208425D01*
X185217875Y-113217358D01*
X185240227Y-113233994D01*
X187245797Y-114186688D01*
X187274841Y-114194015D01*
X187300305Y-114209789D01*
X189357986Y-114980225D01*
X189386588Y-114984897D01*
X189412394Y-114998077D01*
X191531992Y-115598059D01*
X191154050Y-116164973D01*
X189425477Y-117646607D01*
X186934659Y-119141098D01*
X186910197Y-119160197D01*
X186807592Y-119262802D01*
X186774909Y-119279158D01*
X186747175Y-119300699D01*
X186714408Y-119313320D01*
X186640883Y-119383254D01*
X186560742Y-119445498D01*
X186543363Y-119476011D01*
X186517919Y-119500212D01*
X186476753Y-119592960D01*
X186475852Y-119594542D01*
X186410197Y-119660197D01*
X186382334Y-119702211D01*
X186373000Y-119750000D01*
X186373000Y-120000000D01*
X186383006Y-120049410D01*
X186410197Y-120089803D01*
X186438861Y-120118467D01*
X186464432Y-120211711D01*
X186485973Y-120239445D01*
X186498594Y-120272212D01*
X186568528Y-120345737D01*
X186630772Y-120425878D01*
X186661285Y-120443257D01*
X186685486Y-120468701D01*
X187820569Y-121268937D01*
X187831418Y-121273752D01*
X187839884Y-121282074D01*
X190126060Y-122781419D01*
X190149014Y-122790697D01*
X190167848Y-122806770D01*
X192489434Y-124105744D01*
X192514193Y-124113778D01*
X192535186Y-124129165D01*
X194904642Y-125233538D01*
X194930548Y-125239872D01*
X194953192Y-125253965D01*
X197382977Y-126169502D01*
X197409224Y-126173845D01*
X197432806Y-126186155D01*
X199935381Y-126918627D01*
X199948363Y-126919777D01*
X199960132Y-126925378D01*
X200802086Y-127138409D01*
X200731584Y-127262382D01*
X199182753Y-129878097D01*
X198231045Y-131027031D01*
X196779838Y-132118036D01*
X195544806Y-132558512D01*
X193998591Y-132612385D01*
X193542957Y-132564882D01*
X192541863Y-132439745D01*
X190888011Y-131993918D01*
X190808371Y-131988577D01*
X190730660Y-131970363D01*
X190674362Y-131979591D01*
X190630581Y-131976655D01*
X190284890Y-131877886D01*
X190234632Y-131873933D01*
X190186796Y-131889845D01*
X190148400Y-131923800D01*
X189399582Y-132922224D01*
X188928958Y-133510504D01*
X188326105Y-134187186D01*
X187457053Y-134921718D01*
X187183455Y-135140597D01*
X184967064Y-136125660D01*
X182501575Y-136372209D01*
X180528234Y-136125541D01*
X178290161Y-135379517D01*
X178250000Y-135373000D01*
X177861012Y-135373000D01*
X177747608Y-135352847D01*
X177624670Y-135327254D01*
X177614477Y-135329187D01*
X177604261Y-135327372D01*
X177481634Y-135354385D01*
X177383493Y-135373000D01*
X177250000Y-135373000D01*
X177200590Y-135383006D01*
X177160197Y-135410197D01*
X176415784Y-136154610D01*
X174248904Y-137839961D01*
X171921260Y-138603120D01*
X171004345Y-138623000D01*
X170015634Y-138623000D01*
X168037823Y-138128547D01*
X166044593Y-137381086D01*
X166000000Y-137373000D01*
X165643969Y-137373000D01*
X165414849Y-137331783D01*
X165307251Y-137333759D01*
X165199842Y-137326913D01*
X165172549Y-137336233D01*
X165143719Y-137336762D01*
X165045063Y-137379765D01*
X164943215Y-137414543D01*
X164921570Y-137433595D01*
X164895133Y-137445118D01*
X164820440Y-137522605D01*
X164739657Y-137593708D01*
X164726950Y-137619594D01*
X164706936Y-137640356D01*
X164667583Y-137740525D01*
X164620158Y-137837133D01*
X164618324Y-137865912D01*
X164607779Y-137892753D01*
X164609755Y-138000351D01*
X164602909Y-138107760D01*
X164831962Y-139823696D01*
X164838116Y-139841719D01*
X164837933Y-139860763D01*
X165392649Y-142796856D01*
X165396538Y-142806506D01*
X165396744Y-142816907D01*
X166075569Y-145907993D01*
X166280779Y-147052526D01*
X165217552Y-147268693D01*
X162648097Y-147609013D01*
X162494244Y-147623000D01*
X158649071Y-147623000D01*
X157833527Y-147574474D01*
X155709754Y-147182047D01*
X154244788Y-146644596D01*
X154306796Y-146613592D01*
X154346515Y-146582546D01*
X154375272Y-146520879D01*
X154625272Y-145020879D01*
X154626699Y-145008738D01*
X155126699Y-137758738D01*
X155120116Y-137708756D01*
X155105670Y-137679553D01*
X154962440Y-137464708D01*
X154940162Y-137410363D01*
X154167765Y-136245202D01*
X154111960Y-136188988D01*
X154109220Y-136184878D01*
X154435167Y-136185162D01*
X154778943Y-136043117D01*
X154812118Y-136010000D01*
X155187537Y-136010000D01*
X155219673Y-136042192D01*
X155563201Y-136184838D01*
X155935167Y-136185162D01*
X156278943Y-136043117D01*
X156542192Y-135780327D01*
X156684838Y-135436799D01*
X156685162Y-135064833D01*
X156662506Y-135010000D01*
X158685198Y-135010000D01*
X158925198Y-135250000D01*
X157962599Y-136212599D01*
X157797852Y-136459161D01*
X157740000Y-136750000D01*
X157740000Y-139250000D01*
X157797852Y-139540839D01*
X157962599Y-139787401D01*
X158064878Y-139889680D01*
X158064838Y-139935167D01*
X158206883Y-140278943D01*
X158469673Y-140542192D01*
X158813201Y-140684838D01*
X159185167Y-140685162D01*
X159528943Y-140543117D01*
X159792192Y-140280327D01*
X159934838Y-139936799D01*
X159935162Y-139564833D01*
X159793117Y-139221057D01*
X159530327Y-138957808D01*
X159260000Y-138845558D01*
X159260000Y-137662747D01*
X159313201Y-137684838D01*
X159685167Y-137685162D01*
X160028943Y-137543117D01*
X160062118Y-137510000D01*
X160845758Y-137510000D01*
X160956883Y-137778943D01*
X160990000Y-137812118D01*
X160990000Y-138185198D01*
X160860320Y-138314878D01*
X160814833Y-138314838D01*
X160471057Y-138456883D01*
X160207808Y-138719673D01*
X160065162Y-139063201D01*
X160064838Y-139435167D01*
X160206883Y-139778943D01*
X160469673Y-140042192D01*
X160813201Y-140184838D01*
X161185167Y-140185162D01*
X161528943Y-140043117D01*
X161792192Y-139780327D01*
X161934838Y-139436799D01*
X161934879Y-139389923D01*
X162287401Y-139037401D01*
X162452148Y-138790840D01*
X162510000Y-138500000D01*
X162510000Y-137812463D01*
X162542192Y-137780327D01*
X162684838Y-137436799D01*
X162685071Y-137169857D01*
X162961645Y-136893765D01*
X163134803Y-136476756D01*
X163135197Y-136025225D01*
X162962767Y-135607914D01*
X162885000Y-135530011D01*
X162885000Y-127750005D01*
X162885001Y-127750000D01*
X162817633Y-127411326D01*
X162817633Y-127411325D01*
X162625790Y-127124210D01*
X162625787Y-127124208D01*
X159885000Y-124383420D01*
X159885000Y-124286123D01*
X160155334Y-124286123D01*
X160328342Y-124642053D01*
X160636590Y-124907615D01*
X161023000Y-125035000D01*
X161373000Y-125035000D01*
X161373000Y-124127000D01*
X161627000Y-124127000D01*
X161627000Y-125035000D01*
X161977000Y-125035000D01*
X162363410Y-124907615D01*
X162671658Y-124642053D01*
X162844666Y-124286123D01*
X162716998Y-124127000D01*
X161627000Y-124127000D01*
X161373000Y-124127000D01*
X160283002Y-124127000D01*
X160155334Y-124286123D01*
X159885000Y-124286123D01*
X159885000Y-123866580D01*
X160266590Y-123484990D01*
X160155334Y-123713877D01*
X160283002Y-123873000D01*
X161373000Y-123873000D01*
X161373000Y-122965000D01*
X161627000Y-122965000D01*
X161627000Y-123873000D01*
X162716998Y-123873000D01*
X162844666Y-123713877D01*
X162671658Y-123357947D01*
X162363410Y-123092385D01*
X161977000Y-122965000D01*
X161627000Y-122965000D01*
X161373000Y-122965000D01*
X161023000Y-122965000D01*
X160670311Y-123081268D01*
X162125787Y-121625792D01*
X162125790Y-121625790D01*
X162311705Y-121347547D01*
X162500000Y-121385001D01*
X162500005Y-121385000D01*
X164389158Y-121385000D01*
X164315162Y-121563201D01*
X164314838Y-121935167D01*
X164456883Y-122278943D01*
X164490000Y-122312118D01*
X164490000Y-131687537D01*
X164457808Y-131719673D01*
X164315162Y-132063201D01*
X164314838Y-132435167D01*
X164456883Y-132778943D01*
X164719673Y-133042192D01*
X165063201Y-133184838D01*
X165435167Y-133185162D01*
X165778943Y-133043117D01*
X166042192Y-132780327D01*
X166184838Y-132436799D01*
X166185103Y-132132562D01*
X166219673Y-132167192D01*
X166563201Y-132309838D01*
X166935167Y-132310162D01*
X167278943Y-132168117D01*
X167542192Y-131905327D01*
X167684838Y-131561799D01*
X167684879Y-131514923D01*
X168037401Y-131162401D01*
X168202148Y-130915840D01*
X168260000Y-130625000D01*
X168260000Y-123564802D01*
X169537401Y-122287401D01*
X169702148Y-122040840D01*
X169760000Y-121750000D01*
X169760000Y-121629304D01*
X169773244Y-121634803D01*
X169883319Y-121634899D01*
X174153612Y-125905191D01*
X173936799Y-125815162D01*
X173831963Y-125815071D01*
X173793117Y-125721057D01*
X173530327Y-125457808D01*
X173186799Y-125315162D01*
X172814833Y-125314838D01*
X172471057Y-125456883D01*
X172340933Y-125586780D01*
X172293117Y-125471057D01*
X172030327Y-125207808D01*
X171935072Y-125168254D01*
X171935162Y-125064833D01*
X171793117Y-124721057D01*
X171530327Y-124457808D01*
X171186799Y-124315162D01*
X171093945Y-124315081D01*
X170993117Y-124071057D01*
X170730327Y-123807808D01*
X170386799Y-123665162D01*
X170014833Y-123664838D01*
X169671057Y-123806883D01*
X169407808Y-124069673D01*
X169265162Y-124413201D01*
X169265121Y-124460077D01*
X169262597Y-124462601D01*
X169097850Y-124709163D01*
X169039998Y-125000002D01*
X169039998Y-130428397D01*
X168971057Y-130456883D01*
X168707808Y-130719673D01*
X168565162Y-131063201D01*
X168564838Y-131435167D01*
X168706883Y-131778943D01*
X168926377Y-131998821D01*
X167685198Y-133240000D01*
X167062463Y-133240000D01*
X167030327Y-133207808D01*
X166686799Y-133065162D01*
X166314833Y-133064838D01*
X165971057Y-133206883D01*
X165707808Y-133469673D01*
X165565162Y-133813201D01*
X165564838Y-134185167D01*
X165706883Y-134528943D01*
X165969673Y-134792192D01*
X166313201Y-134934838D01*
X166685167Y-134935162D01*
X167028943Y-134793117D01*
X167062118Y-134760000D01*
X168000000Y-134760000D01*
X168290839Y-134702148D01*
X168537401Y-134537401D01*
X169990000Y-133084802D01*
X169990000Y-134687537D01*
X169957808Y-134719673D01*
X169815162Y-135063201D01*
X169814838Y-135435167D01*
X169956883Y-135778943D01*
X170219673Y-136042192D01*
X170563201Y-136184838D01*
X170935167Y-136185162D01*
X171278943Y-136043117D01*
X171542192Y-135780327D01*
X171684838Y-135436799D01*
X171685162Y-135064833D01*
X171543117Y-134721057D01*
X171510000Y-134687882D01*
X171510000Y-132834802D01*
X171564878Y-132889680D01*
X171564838Y-132935167D01*
X171706883Y-133278943D01*
X171969673Y-133542192D01*
X172313201Y-133684838D01*
X172685167Y-133685162D01*
X173028943Y-133543117D01*
X173292192Y-133280327D01*
X173434838Y-132936799D01*
X173435162Y-132564833D01*
X173293117Y-132221057D01*
X173030327Y-131957808D01*
X172686799Y-131815162D01*
X172639923Y-131815121D01*
X171960002Y-131135200D01*
X171960002Y-129891986D01*
X172063201Y-129934838D01*
X172435167Y-129935162D01*
X172778943Y-129793117D01*
X172990000Y-129582428D01*
X172990000Y-130250000D01*
X173047852Y-130540839D01*
X173212599Y-130787401D01*
X174564878Y-132139680D01*
X174564838Y-132185167D01*
X174706883Y-132528943D01*
X174969673Y-132792192D01*
X175313201Y-132934838D01*
X175685167Y-132935162D01*
X176028943Y-132793117D01*
X176292192Y-132530327D01*
X176434838Y-132186799D01*
X176435162Y-131814833D01*
X176293117Y-131471057D01*
X176030327Y-131207808D01*
X175686799Y-131065162D01*
X175639923Y-131065121D01*
X174510000Y-129935198D01*
X174510000Y-127312463D01*
X174542192Y-127280327D01*
X174684838Y-126936799D01*
X174685162Y-126564833D01*
X174594969Y-126346548D01*
X175865000Y-127616579D01*
X175865000Y-128029724D01*
X175788355Y-128106235D01*
X175615197Y-128523244D01*
X175614803Y-128974775D01*
X175787233Y-129392086D01*
X176106235Y-129711645D01*
X176523244Y-129884803D01*
X176974775Y-129885197D01*
X177392086Y-129712767D01*
X177711645Y-129393765D01*
X177884803Y-128976756D01*
X177885127Y-128605280D01*
X177956883Y-128778943D01*
X177990000Y-128812118D01*
X177990000Y-129187537D01*
X177957808Y-129219673D01*
X177815162Y-129563201D01*
X177814838Y-129935167D01*
X177956883Y-130278943D01*
X178219673Y-130542192D01*
X178563201Y-130684838D01*
X178935167Y-130685162D01*
X179278943Y-130543117D01*
X179542192Y-130280327D01*
X179684838Y-129936799D01*
X179685162Y-129564833D01*
X179543117Y-129221057D01*
X179510000Y-129187882D01*
X179510000Y-128912747D01*
X179563201Y-128934838D01*
X179935167Y-128935162D01*
X180278943Y-128793117D01*
X180542192Y-128530327D01*
X180684838Y-128186799D01*
X180685162Y-127814833D01*
X180543117Y-127471057D01*
X180280327Y-127207808D01*
X179936799Y-127065162D01*
X179889923Y-127065121D01*
X179537401Y-126712599D01*
X179290839Y-126547852D01*
X179000000Y-126490000D01*
X177241579Y-126490000D01*
X171596389Y-120844809D01*
X171813201Y-120934838D01*
X172064838Y-120935057D01*
X172064838Y-120935167D01*
X172206883Y-121278943D01*
X172469673Y-121542192D01*
X172813201Y-121684838D01*
X173185167Y-121685162D01*
X173528943Y-121543117D01*
X173792192Y-121280327D01*
X173934838Y-120936799D01*
X173934879Y-120889923D01*
X174287401Y-120537401D01*
X174355907Y-120434875D01*
X174685167Y-120435162D01*
X175028943Y-120293117D01*
X175292192Y-120030327D01*
X175434838Y-119686799D01*
X175435162Y-119314833D01*
X175293117Y-118971057D01*
X175260000Y-118937882D01*
X175260000Y-118185167D01*
X176814838Y-118185167D01*
X176956883Y-118528943D01*
X176990000Y-118562118D01*
X176990000Y-119187537D01*
X176957808Y-119219673D01*
X176815162Y-119563201D01*
X176814838Y-119935167D01*
X176956883Y-120278943D01*
X177219673Y-120542192D01*
X177563201Y-120684838D01*
X177935167Y-120685162D01*
X178278943Y-120543117D01*
X178542192Y-120280327D01*
X178684838Y-119936799D01*
X178685162Y-119564833D01*
X178543117Y-119221057D01*
X178510000Y-119187882D01*
X178510000Y-118562463D01*
X178542192Y-118530327D01*
X178684838Y-118186799D01*
X178685162Y-117814833D01*
X178543117Y-117471057D01*
X178280327Y-117207808D01*
X177936799Y-117065162D01*
X177564833Y-117064838D01*
X177221057Y-117206883D01*
X176957808Y-117469673D01*
X176815162Y-117813201D01*
X176814838Y-118185167D01*
X175260000Y-118185167D01*
X175260000Y-117812463D01*
X175292192Y-117780327D01*
X175434838Y-117436799D01*
X175435162Y-117064833D01*
X175293117Y-116721057D01*
X175030327Y-116457808D01*
X174686799Y-116315162D01*
X174581963Y-116315071D01*
X174543117Y-116221057D01*
X174280327Y-115957808D01*
X173936799Y-115815162D01*
X173564833Y-115814838D01*
X173221057Y-115956883D01*
X172957808Y-116219673D01*
X172918254Y-116314928D01*
X172814833Y-116314838D01*
X172499649Y-116445069D01*
X172186799Y-116315162D01*
X171814833Y-116314838D01*
X171689051Y-116366810D01*
X171530327Y-116207808D01*
X171186799Y-116065162D01*
X170814833Y-116064838D01*
X170471057Y-116206883D01*
X170207808Y-116469673D01*
X170065162Y-116813201D01*
X170064838Y-117185167D01*
X170206883Y-117528943D01*
X170240000Y-117562118D01*
X170240000Y-118937537D01*
X170207808Y-118969673D01*
X170065162Y-119313201D01*
X170065117Y-119365056D01*
X169775225Y-119364803D01*
X169760000Y-119371094D01*
X169760000Y-113062463D01*
X169792192Y-113030327D01*
X169934838Y-112686799D01*
X169935162Y-112314833D01*
X169793117Y-111971057D01*
X169530327Y-111707808D01*
X169186799Y-111565162D01*
X168814833Y-111564838D01*
X168471057Y-111706883D01*
X168207808Y-111969673D01*
X168065162Y-112313201D01*
X168064838Y-112685167D01*
X168206883Y-113028943D01*
X168240000Y-113062118D01*
X168240000Y-119634758D01*
X168143765Y-119538355D01*
X167726756Y-119365197D01*
X167275225Y-119364803D01*
X166934996Y-119505383D01*
X166935162Y-119314833D01*
X166793117Y-118971057D01*
X166760000Y-118937882D01*
X166760000Y-112250000D01*
X166702148Y-111959161D01*
X166537401Y-111712599D01*
X166259969Y-111435167D01*
X169564838Y-111435167D01*
X169706883Y-111778943D01*
X169969673Y-112042192D01*
X170313201Y-112184838D01*
X170360077Y-112184879D01*
X171115991Y-112940793D01*
X171065162Y-113063201D01*
X171064838Y-113435167D01*
X171206883Y-113778943D01*
X171469673Y-114042192D01*
X171813201Y-114184838D01*
X172185167Y-114185162D01*
X172528943Y-114043117D01*
X172792192Y-113780327D01*
X172934838Y-113436799D01*
X172935162Y-113064833D01*
X172793117Y-112721057D01*
X172744569Y-112672424D01*
X172723412Y-112566062D01*
X172778943Y-112543117D01*
X173042192Y-112280327D01*
X173184838Y-111936799D01*
X173184839Y-111935162D01*
X173185167Y-111935162D01*
X173528943Y-111793117D01*
X173792192Y-111530327D01*
X173831746Y-111435072D01*
X173935167Y-111435162D01*
X174278943Y-111293117D01*
X174542192Y-111030327D01*
X174684838Y-110686799D01*
X174684839Y-110685162D01*
X174685167Y-110685162D01*
X175028943Y-110543117D01*
X175292192Y-110280327D01*
X175434838Y-109936799D01*
X175435162Y-109564833D01*
X175293117Y-109221057D01*
X175260000Y-109187882D01*
X175260000Y-109058937D01*
X175563201Y-109184838D01*
X175935167Y-109185162D01*
X176278943Y-109043117D01*
X176542192Y-108780327D01*
X176684838Y-108436799D01*
X176685162Y-108064833D01*
X176543117Y-107721057D01*
X176510000Y-107687882D01*
X176510000Y-106562463D01*
X176542192Y-106530327D01*
X176684838Y-106186799D01*
X176685162Y-105814833D01*
X176543117Y-105471057D01*
X176280327Y-105207808D01*
X175936799Y-105065162D01*
X175564833Y-105064838D01*
X175260000Y-105190792D01*
X175260000Y-104250000D01*
X175220174Y-104049782D01*
X175202148Y-103959160D01*
X175185059Y-103933584D01*
X175185162Y-103814833D01*
X175043117Y-103471057D01*
X174780327Y-103207808D01*
X174436799Y-103065162D01*
X174064833Y-103064838D01*
X173721057Y-103206883D01*
X173457808Y-103469673D01*
X173315162Y-103813201D01*
X173314838Y-104185167D01*
X173456883Y-104528943D01*
X173719673Y-104792192D01*
X173740000Y-104800633D01*
X173740000Y-105564991D01*
X173564833Y-105564838D01*
X173221057Y-105706883D01*
X172957808Y-105969673D01*
X172815162Y-106313201D01*
X172815161Y-106314838D01*
X172471057Y-106456883D01*
X172207808Y-106719673D01*
X172065162Y-107063201D01*
X172064838Y-107435167D01*
X172206883Y-107778943D01*
X172240000Y-107812118D01*
X172240000Y-108064991D01*
X172064833Y-108064838D01*
X171721057Y-108206883D01*
X171457808Y-108469673D01*
X171315162Y-108813201D01*
X171314838Y-109185167D01*
X171456883Y-109528943D01*
X171490000Y-109562118D01*
X171490000Y-111165198D01*
X171435122Y-111110320D01*
X171435162Y-111064833D01*
X171293117Y-110721057D01*
X171030327Y-110457808D01*
X170686799Y-110315162D01*
X170314833Y-110314838D01*
X169971057Y-110456883D01*
X169707808Y-110719673D01*
X169565162Y-111063201D01*
X169564838Y-111435167D01*
X166259969Y-111435167D01*
X165935122Y-111110320D01*
X165935162Y-111064833D01*
X165793117Y-110721057D01*
X165530327Y-110457808D01*
X165186799Y-110315162D01*
X164814833Y-110314838D01*
X164471057Y-110456883D01*
X164207808Y-110719673D01*
X164168254Y-110814928D01*
X164064833Y-110814838D01*
X163721057Y-110956883D01*
X163457808Y-111219673D01*
X163315162Y-111563201D01*
X163314838Y-111935167D01*
X163456883Y-112278943D01*
X163586780Y-112409067D01*
X163547702Y-112425214D01*
X163530327Y-112407808D01*
X163186799Y-112265162D01*
X162814833Y-112264838D01*
X162471057Y-112406883D01*
X162207808Y-112669673D01*
X162065162Y-113013201D01*
X162065121Y-113060077D01*
X160712599Y-114412599D01*
X160611916Y-114563282D01*
X157590197Y-117585001D01*
X157543117Y-117471057D01*
X157280327Y-117207808D01*
X156936799Y-117065162D01*
X156564833Y-117064838D01*
X156221057Y-117206883D01*
X155957808Y-117469673D01*
X155885093Y-117644790D01*
X155885197Y-117525225D01*
X155712767Y-117107914D01*
X155393765Y-116788355D01*
X154976756Y-116615197D01*
X154866680Y-116615101D01*
X152375790Y-114124210D01*
X152301634Y-114074661D01*
X152088675Y-113932367D01*
X152032484Y-113921190D01*
X151750000Y-113864999D01*
X151749995Y-113865000D01*
X146500000Y-113865000D01*
X146161325Y-113932367D01*
X145874210Y-114124210D01*
X145874208Y-114124213D01*
X141410356Y-118588064D01*
X141280327Y-118457808D01*
X140936799Y-118315162D01*
X140564833Y-118314838D01*
X140221057Y-118456883D01*
X139957808Y-118719673D01*
X139815162Y-119063201D01*
X139814838Y-119435167D01*
X139956883Y-119778943D01*
X139990000Y-119812118D01*
X139990000Y-122937537D01*
X139957808Y-122969673D01*
X139815162Y-123313201D01*
X139814838Y-123685167D01*
X139956883Y-124028943D01*
X140219673Y-124292192D01*
X140563201Y-124434838D01*
X140865000Y-124435101D01*
X140865000Y-126529724D01*
X140788355Y-126606235D01*
X140756867Y-126682065D01*
X140685122Y-126610320D01*
X140685162Y-126564833D01*
X140543117Y-126221057D01*
X140280327Y-125957808D01*
X139936799Y-125815162D01*
X139564833Y-125814838D01*
X139221057Y-125956883D01*
X138957808Y-126219673D01*
X138815162Y-126563201D01*
X138815114Y-126618443D01*
X138686799Y-126565162D01*
X138314833Y-126564838D01*
X137971057Y-126706883D01*
X137707808Y-126969673D01*
X137565162Y-127313201D01*
X137564838Y-127685167D01*
X137706883Y-128028943D01*
X137969673Y-128292192D01*
X138313201Y-128434838D01*
X138360077Y-128434879D01*
X139314878Y-129389680D01*
X139314838Y-129435167D01*
X139456883Y-129778943D01*
X139719673Y-130042192D01*
X140063201Y-130184838D01*
X140240000Y-130184992D01*
X140240000Y-130187537D01*
X140207808Y-130219673D01*
X140065162Y-130563201D01*
X140064838Y-130935167D01*
X140156193Y-131156263D01*
X139936799Y-131065162D01*
X139564833Y-131064838D01*
X139435115Y-131118436D01*
X139435162Y-131064833D01*
X139293117Y-130721057D01*
X139260000Y-130687882D01*
X139260000Y-130000000D01*
X139223169Y-129814838D01*
X139202148Y-129709160D01*
X139037401Y-129462599D01*
X137073470Y-127498668D01*
X137292192Y-127280327D01*
X137434838Y-126936799D01*
X137434879Y-126889923D01*
X137889680Y-126435122D01*
X137935167Y-126435162D01*
X138278943Y-126293117D01*
X138542192Y-126030327D01*
X138684838Y-125686799D01*
X138685162Y-125314833D01*
X138543117Y-124971057D01*
X138280327Y-124707808D01*
X137936799Y-124565162D01*
X137564833Y-124564838D01*
X137221057Y-124706883D01*
X136957808Y-124969673D01*
X136815162Y-125313201D01*
X136815121Y-125360077D01*
X136510000Y-125665198D01*
X136510000Y-125050944D01*
X136528943Y-125043117D01*
X136792192Y-124780327D01*
X136934838Y-124436799D01*
X136935162Y-124064833D01*
X136793117Y-123721057D01*
X136530327Y-123457808D01*
X136186799Y-123315162D01*
X135814833Y-123314838D01*
X135512057Y-123439942D01*
X135280327Y-123207808D01*
X134936799Y-123065162D01*
X134564833Y-123064838D01*
X134221057Y-123206883D01*
X133957808Y-123469673D01*
X133815162Y-123813201D01*
X133814838Y-124185167D01*
X133956883Y-124528943D01*
X133990000Y-124562118D01*
X133990000Y-125187537D01*
X133957808Y-125219673D01*
X133815162Y-125563201D01*
X133814838Y-125935167D01*
X133956883Y-126278943D01*
X134219673Y-126542192D01*
X134563201Y-126684838D01*
X134935167Y-126685162D01*
X134990000Y-126662506D01*
X134990000Y-127250000D01*
X135047852Y-127540839D01*
X135212599Y-127787401D01*
X137740000Y-130314802D01*
X137740000Y-130687537D01*
X137707808Y-130719673D01*
X137565162Y-131063201D01*
X137564838Y-131435167D01*
X137706883Y-131778943D01*
X137969673Y-132042192D01*
X138313201Y-132184838D01*
X138685167Y-132185162D01*
X138814885Y-132131564D01*
X138814838Y-132185167D01*
X138956883Y-132528943D01*
X139219673Y-132792192D01*
X139563201Y-132934838D01*
X139610077Y-132934879D01*
X140712599Y-134037401D01*
X140959160Y-134202148D01*
X141250000Y-134260000D01*
X141685198Y-134260000D01*
X141958028Y-134532830D01*
X141916260Y-134537019D01*
X141834661Y-134532303D01*
X141782609Y-134550421D01*
X141727768Y-134555921D01*
X141508040Y-134623000D01*
X141500000Y-134623000D01*
X141443204Y-134636408D01*
X141410411Y-134652804D01*
X141126354Y-134739522D01*
X139487292Y-135040297D01*
X138742968Y-135123000D01*
X137367747Y-135123000D01*
X136587492Y-135078465D01*
X136514221Y-135060147D01*
X134863050Y-134276905D01*
X133453388Y-132768748D01*
X133058632Y-132213003D01*
X133057999Y-132212405D01*
X133057642Y-132211614D01*
X132959665Y-132119535D01*
X132861483Y-132026808D01*
X132860669Y-132026498D01*
X132860037Y-132025904D01*
X132734141Y-131978275D01*
X132608088Y-131930233D01*
X132607220Y-131930258D01*
X132606406Y-131929950D01*
X132471783Y-131934128D01*
X132337023Y-131937978D01*
X132336228Y-131938334D01*
X132335360Y-131938361D01*
X131537345Y-132123000D01*
X131500000Y-132123000D01*
X131487363Y-132123630D01*
X129007649Y-132371601D01*
X126786250Y-131877957D01*
X124810227Y-131136949D01*
X123082374Y-129902768D01*
X122061842Y-128882236D01*
X121514893Y-128220682D01*
X121050394Y-127134843D01*
X121307908Y-127019598D01*
X123632197Y-126171927D01*
X123653038Y-126159262D01*
X123676820Y-126153878D01*
X126078012Y-125084498D01*
X126095987Y-125071792D01*
X126117108Y-125065601D01*
X128517548Y-123811409D01*
X128534018Y-123798150D01*
X128553918Y-123790995D01*
X130899169Y-122380421D01*
X130915137Y-122365903D01*
X130934959Y-122357373D01*
X133170585Y-120818846D01*
X133178456Y-120810756D01*
X133188677Y-120805965D01*
X133889387Y-120289995D01*
X133960824Y-120211717D01*
X134038782Y-120139928D01*
X134051613Y-120112234D01*
X134072185Y-120089692D01*
X134108227Y-119990041D01*
X134152780Y-119893878D01*
X134154036Y-119863382D01*
X134164416Y-119834683D01*
X134159579Y-119728818D01*
X134163940Y-119622932D01*
X134153431Y-119594279D01*
X134152038Y-119563791D01*
X134107057Y-119467837D01*
X134070565Y-119368340D01*
X134049890Y-119345888D01*
X134036936Y-119318255D01*
X133958663Y-119246822D01*
X133886870Y-119168860D01*
X133047106Y-118556296D01*
X131498779Y-117287207D01*
X130156539Y-115847448D01*
X129996373Y-115643543D01*
X130505494Y-115467485D01*
X130516988Y-115460762D01*
X130530099Y-115458453D01*
X132971642Y-114509641D01*
X132997883Y-114492932D01*
X133027924Y-114484850D01*
X135426265Y-113299076D01*
X135449695Y-113281060D01*
X135477489Y-113271012D01*
X137843944Y-111842067D01*
X137864155Y-111823628D01*
X137889083Y-111812356D01*
X140234967Y-110134030D01*
X140256717Y-110110843D01*
X140284388Y-110095178D01*
X141427535Y-109109640D01*
X141431420Y-109104664D01*
X141436852Y-109101460D01*
X141514691Y-108998023D01*
X141594429Y-108895905D01*
X141596114Y-108889822D01*
X141599907Y-108884782D01*
X141632237Y-108759433D01*
X141666827Y-108634573D01*
X141666056Y-108628307D01*
X141667631Y-108622200D01*
X141649531Y-108494026D01*
X141642288Y-108435167D01*
X167064838Y-108435167D01*
X167206883Y-108778943D01*
X167469673Y-109042192D01*
X167813201Y-109184838D01*
X167860077Y-109184879D01*
X168064878Y-109389680D01*
X168064838Y-109435167D01*
X168206883Y-109778943D01*
X168469673Y-110042192D01*
X168813201Y-110184838D01*
X169185167Y-110185162D01*
X169528943Y-110043117D01*
X169792192Y-109780327D01*
X169934838Y-109436799D01*
X169935162Y-109064833D01*
X169793117Y-108721057D01*
X169530327Y-108457808D01*
X169186799Y-108315162D01*
X169139923Y-108315121D01*
X168935122Y-108110320D01*
X168935162Y-108064833D01*
X168793117Y-107721057D01*
X168530327Y-107457808D01*
X168186799Y-107315162D01*
X167814833Y-107314838D01*
X167471057Y-107456883D01*
X167207808Y-107719673D01*
X167065162Y-108063201D01*
X167064838Y-108435167D01*
X141642288Y-108435167D01*
X141633706Y-108365427D01*
X141630596Y-108359933D01*
X141629714Y-108353688D01*
X141563932Y-108242180D01*
X141500109Y-108129444D01*
X141495134Y-108125560D01*
X141491929Y-108120126D01*
X141388456Y-108042261D01*
X141286374Y-107962550D01*
X141280293Y-107960865D01*
X141275251Y-107957071D01*
X140564459Y-107614802D01*
X140535626Y-107607366D01*
X140510406Y-107591539D01*
X138787890Y-106935167D01*
X168564838Y-106935167D01*
X168706883Y-107278943D01*
X168969673Y-107542192D01*
X169313201Y-107684838D01*
X169360077Y-107684879D01*
X169564878Y-107889680D01*
X169564838Y-107935167D01*
X169706883Y-108278943D01*
X169969673Y-108542192D01*
X170313201Y-108684838D01*
X170685167Y-108685162D01*
X171028943Y-108543117D01*
X171292192Y-108280327D01*
X171434838Y-107936799D01*
X171435162Y-107564833D01*
X171293117Y-107221057D01*
X171030327Y-106957808D01*
X170686799Y-106815162D01*
X170639923Y-106815121D01*
X170435122Y-106610320D01*
X170435162Y-106564833D01*
X170293117Y-106221057D01*
X170030327Y-105957808D01*
X169686799Y-105815162D01*
X169314833Y-105814838D01*
X168971057Y-105956883D01*
X168707808Y-106219673D01*
X168565162Y-106563201D01*
X168564838Y-106935167D01*
X138787890Y-106935167D01*
X138466284Y-106812618D01*
X136451432Y-105649616D01*
X134877000Y-104398918D01*
X134877000Y-103897960D01*
X134941013Y-103872431D01*
X137062463Y-103034597D01*
X137088414Y-103017872D01*
X137118191Y-103009707D01*
X138023587Y-102556634D01*
X139050028Y-102116731D01*
X139070447Y-102105670D01*
X139820447Y-101605670D01*
X139823239Y-101603755D01*
X139897863Y-101551079D01*
X141359883Y-100664394D01*
X141380126Y-100645854D01*
X141405111Y-100634490D01*
X141682426Y-100435167D01*
X173314838Y-100435167D01*
X173456883Y-100778943D01*
X173719673Y-101042192D01*
X174063201Y-101184838D01*
X174110077Y-101184879D01*
X174815095Y-101889897D01*
X174814838Y-102185167D01*
X174956883Y-102528943D01*
X175219673Y-102792192D01*
X175563201Y-102934838D01*
X175935167Y-102935162D01*
X176278943Y-102793117D01*
X176542192Y-102530327D01*
X176684838Y-102186799D01*
X176685162Y-101814833D01*
X176543117Y-101471057D01*
X176292039Y-101219541D01*
X176287401Y-101212599D01*
X175185122Y-100110320D01*
X175185162Y-100064833D01*
X175043117Y-99721057D01*
X174780327Y-99457808D01*
X174436799Y-99315162D01*
X174064833Y-99314838D01*
X173721057Y-99456883D01*
X173457808Y-99719673D01*
X173315162Y-100063201D01*
X173314838Y-100435167D01*
X141682426Y-100435167D01*
X143404515Y-99197400D01*
X143423231Y-99177360D01*
X143447233Y-99164097D01*
X145335295Y-97570055D01*
X145344064Y-97559061D01*
X145356092Y-97551775D01*
X146078995Y-96890367D01*
X146129264Y-96821917D01*
X146189105Y-96761645D01*
X146208794Y-96713625D01*
X146239510Y-96671800D01*
X146259757Y-96589328D01*
X146291979Y-96510741D01*
X146291793Y-96458841D01*
X146295867Y-96442246D01*
X146363592Y-96306796D01*
X146376740Y-96258128D01*
X146363592Y-96193204D01*
X146113592Y-95693204D01*
X146082546Y-95653485D01*
X146040161Y-95629517D01*
X143045976Y-94631455D01*
X140804208Y-93635114D01*
X140288214Y-93377117D01*
X139932878Y-93070948D01*
X140040813Y-93035501D01*
X140058354Y-93025605D01*
X140078177Y-93022036D01*
X142031446Y-92254377D01*
X142063367Y-92233880D01*
X142099759Y-92223169D01*
X144044391Y-91204377D01*
X144071161Y-91182776D01*
X144103051Y-91169884D01*
X146031522Y-89904933D01*
X146053703Y-89883126D01*
X146081402Y-89868962D01*
X147986193Y-88362826D01*
X148004450Y-88341386D01*
X148028416Y-88326601D01*
X149902004Y-86584254D01*
X149909714Y-86573575D01*
X149920660Y-86566245D01*
X151156081Y-85328272D01*
X151186799Y-85282196D01*
X151227376Y-85244507D01*
X151261311Y-85170430D01*
X151306505Y-85102642D01*
X151317252Y-85048319D01*
X151340318Y-84997970D01*
X151343322Y-84916549D01*
X151354731Y-84858883D01*
X151595577Y-84583630D01*
X151620584Y-84539856D01*
X151626590Y-84489802D01*
X151612649Y-84441355D01*
X151580958Y-84402149D01*
X151534890Y-84377886D01*
X150955500Y-84212346D01*
X150929437Y-84194970D01*
X150875114Y-84184223D01*
X150824765Y-84161157D01*
X150537480Y-84092912D01*
X149784890Y-83877886D01*
X149770879Y-83874728D01*
X149756909Y-83872400D01*
X148275683Y-83453597D01*
X146162314Y-82490470D01*
X147762322Y-81885743D01*
X147782913Y-81872899D01*
X147790161Y-81870483D01*
X147806796Y-81863592D01*
X147829793Y-81852094D01*
X147848422Y-81846303D01*
X147929712Y-81802134D01*
X149306796Y-81113592D01*
X149326200Y-81101600D01*
X150837963Y-79967777D01*
X151301497Y-79637669D01*
X151329797Y-79607631D01*
X151365191Y-79586405D01*
X153224464Y-77900449D01*
X153246291Y-77871004D01*
X153275590Y-77848978D01*
X155055730Y-75859074D01*
X155072149Y-75831273D01*
X155096067Y-75809585D01*
X156793479Y-73519849D01*
X156805601Y-73494205D01*
X156825012Y-73473519D01*
X158436105Y-70888066D01*
X158453922Y-70840860D01*
X158482803Y-70799486D01*
X159062544Y-69476680D01*
X159084882Y-69375219D01*
X159094655Y-69344669D01*
X159113592Y-69306796D01*
X159126130Y-69264839D01*
X159540201Y-65745232D01*
X159631187Y-65047479D01*
X159629638Y-65024282D01*
X159635613Y-65001820D01*
X159620653Y-64889743D01*
X159613117Y-64776907D01*
X159602810Y-64756071D01*
X159599734Y-64733028D01*
X159543016Y-64635198D01*
X159492879Y-64533845D01*
X159475383Y-64518539D01*
X159463723Y-64498428D01*
X159373889Y-64429753D01*
X159288778Y-64355298D01*
X159266755Y-64347852D01*
X159248288Y-64333735D01*
X159139023Y-64304669D01*
X159031887Y-64268448D01*
X159008688Y-64269997D01*
X158986226Y-64264022D01*
X158874148Y-64278982D01*
X158761314Y-64286518D01*
X158740478Y-64296825D01*
X158717435Y-64299901D01*
X158039845Y-64531274D01*
X157648593Y-64596483D01*
X158125886Y-61016785D01*
X158122498Y-60966486D01*
X158093619Y-60914183D01*
X158030301Y-60845108D01*
X158027272Y-60830586D01*
X157984897Y-60768418D01*
X157954101Y-60699768D01*
X157909260Y-60657453D01*
X157874538Y-60606514D01*
X157245802Y-59989292D01*
X155513706Y-58099733D01*
X155982133Y-58024285D01*
X159614760Y-58024285D01*
X159825169Y-58533515D01*
X160214436Y-58923461D01*
X160723298Y-59134759D01*
X161274285Y-59135240D01*
X161783515Y-58924831D01*
X162173461Y-58535564D01*
X162384759Y-58026702D01*
X162385240Y-57475715D01*
X162174831Y-56966485D01*
X161785564Y-56576539D01*
X161276702Y-56365241D01*
X160725715Y-56364760D01*
X160216485Y-56575169D01*
X159826539Y-56964436D01*
X159615241Y-57473298D01*
X159614760Y-58024285D01*
X155982133Y-58024285D01*
X156014300Y-58019104D01*
X158767961Y-57625724D01*
X158815459Y-57608831D01*
X158860267Y-57563010D01*
X158874481Y-57538135D01*
X158901481Y-57528410D01*
X158930227Y-57502244D01*
X158965113Y-57485111D01*
X159029705Y-57411698D01*
X159102022Y-57345874D01*
X159118566Y-57310702D01*
X159144241Y-57281521D01*
X160429696Y-55063347D01*
X160435258Y-55047048D01*
X160445990Y-55033578D01*
X160913803Y-54127000D01*
X160994387Y-54127000D01*
X161472279Y-55035359D01*
X161472279Y-55035359D01*
G37*
X161472279Y-55035359D02*
X161485290Y-55051427D01*
X161492314Y-55070871D01*
X162833185Y-57292690D01*
X162855123Y-57316748D01*
X162868972Y-57346217D01*
X162945845Y-57416237D01*
X163015903Y-57493065D01*
X163045377Y-57506896D01*
X163069450Y-57528823D01*
X163167268Y-57564096D01*
X163261393Y-57608265D01*
X163293917Y-57609764D01*
X163324547Y-57620809D01*
X165686355Y-57977109D01*
X165689865Y-57976945D01*
X165693184Y-57978105D01*
X166574070Y-58102061D01*
X165823181Y-58853184D01*
X164039219Y-60589291D01*
X164003010Y-60641919D01*
X163956642Y-60685860D01*
X163926898Y-60752542D01*
X163885511Y-60812696D01*
X163872198Y-60875174D01*
X163846175Y-60933515D01*
X163844213Y-61006506D01*
X163828997Y-61077917D01*
X163840606Y-61140732D01*
X163838890Y-61204593D01*
X164256798Y-63646706D01*
X164435482Y-64736275D01*
X163198347Y-64242688D01*
X162561677Y-63888982D01*
X162513625Y-63873733D01*
X162463427Y-63878380D01*
X162418991Y-63902191D01*
X162379517Y-63959839D01*
X162206628Y-64478505D01*
X162146393Y-64571257D01*
X162144611Y-64580872D01*
X162139515Y-64589215D01*
X162119963Y-64713850D01*
X162096972Y-64837891D01*
X162099004Y-64847454D01*
X162097489Y-64857114D01*
X162123000Y-65482873D01*
X162123000Y-69250000D01*
X162141098Y-69315341D01*
X163738799Y-71978177D01*
X164270367Y-72913947D01*
X164285713Y-72931695D01*
X164294565Y-72953422D01*
X165539986Y-74841008D01*
X165558304Y-74859540D01*
X165569893Y-74882877D01*
X166879641Y-76579974D01*
X166901485Y-76599024D01*
X166916471Y-76623834D01*
X168287534Y-78126269D01*
X168315443Y-78146821D01*
X168336198Y-78174577D01*
X170167346Y-79821178D01*
X170209332Y-79846120D01*
X170243732Y-79880783D01*
X172079358Y-81117457D01*
X172132405Y-81139667D01*
X172179057Y-81173298D01*
X174145210Y-82070870D01*
X174197063Y-82083115D01*
X174244508Y-82107350D01*
X175565507Y-82481348D01*
X174015884Y-83177621D01*
X171222138Y-83876057D01*
X170980153Y-83924454D01*
X170271897Y-84013674D01*
X170199545Y-84037784D01*
X170124110Y-84049034D01*
X170072138Y-84080240D01*
X170014629Y-84099404D01*
X169987416Y-84123001D01*
X169975093Y-84125466D01*
X169910197Y-84160197D01*
X169660197Y-84410197D01*
X169632334Y-84452211D01*
X169623000Y-84500000D01*
X169623000Y-85000000D01*
X169633006Y-85049410D01*
X169679553Y-85105670D01*
X169947745Y-85284465D01*
X170639150Y-86046114D01*
X170654008Y-86057116D01*
X170664343Y-86072445D01*
X172738951Y-88129966D01*
X172771452Y-88151489D01*
X172796693Y-88181195D01*
X174986668Y-89916707D01*
X175024140Y-89935921D01*
X175055055Y-89964511D01*
X177341733Y-91366522D01*
X177384340Y-91382252D01*
X177421391Y-91408519D01*
X179786109Y-92465537D01*
X179833557Y-92476347D01*
X179876775Y-92498719D01*
X181933413Y-93093064D01*
X179377504Y-94479255D01*
X177409952Y-95358142D01*
X175614949Y-95835186D01*
X175320154Y-95899394D01*
X175252210Y-95928990D01*
X175180068Y-95945951D01*
X175129101Y-95982615D01*
X175071541Y-96007688D01*
X175020094Y-96061032D01*
X174959934Y-96104310D01*
X174936088Y-96142815D01*
X174921548Y-96150129D01*
X174888873Y-96188520D01*
X174885850Y-96200227D01*
X174883294Y-96202878D01*
X174856177Y-96271851D01*
X174817159Y-96334855D01*
X174807046Y-96396818D01*
X174784073Y-96455250D01*
X174785415Y-96529347D01*
X174773477Y-96602489D01*
X174787846Y-96663607D01*
X174788983Y-96726381D01*
X174818579Y-96794325D01*
X174835540Y-96866467D01*
X174872204Y-96917434D01*
X174897277Y-96974994D01*
X174950621Y-97026441D01*
X174993899Y-97086601D01*
X175717272Y-97761623D01*
X175737934Y-97774419D01*
X175753451Y-97793119D01*
X177836949Y-99484187D01*
X177860626Y-99496678D01*
X177879238Y-99515921D01*
X180186666Y-101113939D01*
X180224525Y-101130365D01*
X180256500Y-101156453D01*
X182576271Y-102387857D01*
X182610985Y-102398279D01*
X182641279Y-102418174D01*
X185118653Y-103421347D01*
X185156800Y-103428620D01*
X185191417Y-103446222D01*
X187294038Y-104037319D01*
X187111218Y-104214425D01*
X185442025Y-105597165D01*
X183064845Y-107111791D01*
X180722227Y-108166768D01*
X180075999Y-108428681D01*
X180053558Y-108443429D01*
X180027643Y-108450463D01*
X179940939Y-108517441D01*
X179849381Y-108577612D01*
X179844647Y-108584581D01*
X179709839Y-108629517D01*
X179660197Y-108660197D01*
X179410197Y-108910197D01*
X179382334Y-108952211D01*
X179373012Y-109001754D01*
X179383700Y-109051022D01*
X179410197Y-109089803D01*
X179660197Y-109339803D01*
X179670664Y-109349170D01*
X179719220Y-109388015D01*
X179781706Y-109468904D01*
X179841877Y-109560462D01*
X179864089Y-109575550D01*
X179880506Y-109596802D01*
X180897846Y-110483162D01*
X180933123Y-110503377D01*
X180961535Y-110532462D01*
X183128963Y-112017682D01*
X183154208Y-112028486D01*
X183174869Y-112046573D01*
X185191480Y-113208425D01*
X185217875Y-113217358D01*
X185240227Y-113233994D01*
X187245797Y-114186688D01*
X187274841Y-114194015D01*
X187300305Y-114209789D01*
X189357986Y-114980225D01*
X189386588Y-114984897D01*
X189412394Y-114998077D01*
X191531992Y-115598059D01*
X191154050Y-116164973D01*
X189425477Y-117646607D01*
X186934659Y-119141098D01*
X186910197Y-119160197D01*
X186807592Y-119262802D01*
X186774909Y-119279158D01*
X186747175Y-119300699D01*
X186714408Y-119313320D01*
X186640883Y-119383254D01*
X186560742Y-119445498D01*
X186543363Y-119476011D01*
X186517919Y-119500212D01*
X186476753Y-119592960D01*
X186475852Y-119594542D01*
X186410197Y-119660197D01*
X186382334Y-119702211D01*
X186373000Y-119750000D01*
X186373000Y-120000000D01*
X186383006Y-120049410D01*
X186410197Y-120089803D01*
X186438861Y-120118467D01*
X186464432Y-120211711D01*
X186485973Y-120239445D01*
X186498594Y-120272212D01*
X186568528Y-120345737D01*
X186630772Y-120425878D01*
X186661285Y-120443257D01*
X186685486Y-120468701D01*
X187820569Y-121268937D01*
X187831418Y-121273752D01*
X187839884Y-121282074D01*
X190126060Y-122781419D01*
X190149014Y-122790697D01*
X190167848Y-122806770D01*
X192489434Y-124105744D01*
X192514193Y-124113778D01*
X192535186Y-124129165D01*
X194904642Y-125233538D01*
X194930548Y-125239872D01*
X194953192Y-125253965D01*
X197382977Y-126169502D01*
X197409224Y-126173845D01*
X197432806Y-126186155D01*
X199935381Y-126918627D01*
X199948363Y-126919777D01*
X199960132Y-126925378D01*
X200802086Y-127138409D01*
X200731584Y-127262382D01*
X199182753Y-129878097D01*
X198231045Y-131027031D01*
X196779838Y-132118036D01*
X195544806Y-132558512D01*
X193998591Y-132612385D01*
X193542957Y-132564882D01*
X192541863Y-132439745D01*
X190888011Y-131993918D01*
X190808371Y-131988577D01*
X190730660Y-131970363D01*
X190674362Y-131979591D01*
X190630581Y-131976655D01*
X190284890Y-131877886D01*
X190234632Y-131873933D01*
X190186796Y-131889845D01*
X190148400Y-131923800D01*
X189399582Y-132922224D01*
X188928958Y-133510504D01*
X188326105Y-134187186D01*
X187457053Y-134921718D01*
X187183455Y-135140597D01*
X184967064Y-136125660D01*
X182501575Y-136372209D01*
X180528234Y-136125541D01*
X178290161Y-135379517D01*
X178250000Y-135373000D01*
X177861012Y-135373000D01*
X177747608Y-135352847D01*
X177624670Y-135327254D01*
X177614477Y-135329187D01*
X177604261Y-135327372D01*
X177481634Y-135354385D01*
X177383493Y-135373000D01*
X177250000Y-135373000D01*
X177200590Y-135383006D01*
X177160197Y-135410197D01*
X176415784Y-136154610D01*
X174248904Y-137839961D01*
X171921260Y-138603120D01*
X171004345Y-138623000D01*
X170015634Y-138623000D01*
X168037823Y-138128547D01*
X166044593Y-137381086D01*
X166000000Y-137373000D01*
X165643969Y-137373000D01*
X165414849Y-137331783D01*
X165307251Y-137333759D01*
X165199842Y-137326913D01*
X165172549Y-137336233D01*
X165143719Y-137336762D01*
X165045063Y-137379765D01*
X164943215Y-137414543D01*
X164921570Y-137433595D01*
X164895133Y-137445118D01*
X164820440Y-137522605D01*
X164739657Y-137593708D01*
X164726950Y-137619594D01*
X164706936Y-137640356D01*
X164667583Y-137740525D01*
X164620158Y-137837133D01*
X164618324Y-137865912D01*
X164607779Y-137892753D01*
X164609755Y-138000351D01*
X164602909Y-138107760D01*
X164831962Y-139823696D01*
X164838116Y-139841719D01*
X164837933Y-139860763D01*
X165392649Y-142796856D01*
X165396538Y-142806506D01*
X165396744Y-142816907D01*
X166075569Y-145907993D01*
X166280779Y-147052526D01*
X165217552Y-147268693D01*
X162648097Y-147609013D01*
X162494244Y-147623000D01*
X158649071Y-147623000D01*
X157833527Y-147574474D01*
X155709754Y-147182047D01*
X154244788Y-146644596D01*
X154306796Y-146613592D01*
X154346515Y-146582546D01*
X154375272Y-146520879D01*
X154625272Y-145020879D01*
X154626699Y-145008738D01*
X155126699Y-137758738D01*
X155120116Y-137708756D01*
X155105670Y-137679553D01*
X154962440Y-137464708D01*
X154940162Y-137410363D01*
X154167765Y-136245202D01*
X154111960Y-136188988D01*
X154109220Y-136184878D01*
X154435167Y-136185162D01*
X154778943Y-136043117D01*
X154812118Y-136010000D01*
X155187537Y-136010000D01*
X155219673Y-136042192D01*
X155563201Y-136184838D01*
X155935167Y-136185162D01*
X156278943Y-136043117D01*
X156542192Y-135780327D01*
X156684838Y-135436799D01*
X156685162Y-135064833D01*
X156662506Y-135010000D01*
X158685198Y-135010000D01*
X158925198Y-135250000D01*
X157962599Y-136212599D01*
X157797852Y-136459161D01*
X157740000Y-136750000D01*
X157740000Y-139250000D01*
X157797852Y-139540839D01*
X157962599Y-139787401D01*
X158064878Y-139889680D01*
X158064838Y-139935167D01*
X158206883Y-140278943D01*
X158469673Y-140542192D01*
X158813201Y-140684838D01*
X159185167Y-140685162D01*
X159528943Y-140543117D01*
X159792192Y-140280327D01*
X159934838Y-139936799D01*
X159935162Y-139564833D01*
X159793117Y-139221057D01*
X159530327Y-138957808D01*
X159260000Y-138845558D01*
X159260000Y-137662747D01*
X159313201Y-137684838D01*
X159685167Y-137685162D01*
X160028943Y-137543117D01*
X160062118Y-137510000D01*
X160845758Y-137510000D01*
X160956883Y-137778943D01*
X160990000Y-137812118D01*
X160990000Y-138185198D01*
X160860320Y-138314878D01*
X160814833Y-138314838D01*
X160471057Y-138456883D01*
X160207808Y-138719673D01*
X160065162Y-139063201D01*
X160064838Y-139435167D01*
X160206883Y-139778943D01*
X160469673Y-140042192D01*
X160813201Y-140184838D01*
X161185167Y-140185162D01*
X161528943Y-140043117D01*
X161792192Y-139780327D01*
X161934838Y-139436799D01*
X161934879Y-139389923D01*
X162287401Y-139037401D01*
X162452148Y-138790840D01*
X162510000Y-138500000D01*
X162510000Y-137812463D01*
X162542192Y-137780327D01*
X162684838Y-137436799D01*
X162685071Y-137169857D01*
X162961645Y-136893765D01*
X163134803Y-136476756D01*
X163135197Y-136025225D01*
X162962767Y-135607914D01*
X162885000Y-135530011D01*
X162885000Y-127750005D01*
X162885001Y-127750000D01*
X162817633Y-127411326D01*
X162817633Y-127411325D01*
X162625790Y-127124210D01*
X162625787Y-127124208D01*
X159885000Y-124383420D01*
X159885000Y-124286123D01*
X160155334Y-124286123D01*
X160328342Y-124642053D01*
X160636590Y-124907615D01*
X161023000Y-125035000D01*
X161373000Y-125035000D01*
X161373000Y-124127000D01*
X161627000Y-124127000D01*
X161627000Y-125035000D01*
X161977000Y-125035000D01*
X162363410Y-124907615D01*
X162671658Y-124642053D01*
X162844666Y-124286123D01*
X162716998Y-124127000D01*
X161627000Y-124127000D01*
X161373000Y-124127000D01*
X160283002Y-124127000D01*
X160155334Y-124286123D01*
X159885000Y-124286123D01*
X159885000Y-123866580D01*
X160266590Y-123484990D01*
X160155334Y-123713877D01*
X160283002Y-123873000D01*
X161373000Y-123873000D01*
X161373000Y-122965000D01*
X161627000Y-122965000D01*
X161627000Y-123873000D01*
X162716998Y-123873000D01*
X162844666Y-123713877D01*
X162671658Y-123357947D01*
X162363410Y-123092385D01*
X161977000Y-122965000D01*
X161627000Y-122965000D01*
X161373000Y-122965000D01*
X161023000Y-122965000D01*
X160670311Y-123081268D01*
X162125787Y-121625792D01*
X162125790Y-121625790D01*
X162311705Y-121347547D01*
X162500000Y-121385001D01*
X162500005Y-121385000D01*
X164389158Y-121385000D01*
X164315162Y-121563201D01*
X164314838Y-121935167D01*
X164456883Y-122278943D01*
X164490000Y-122312118D01*
X164490000Y-131687537D01*
X164457808Y-131719673D01*
X164315162Y-132063201D01*
X164314838Y-132435167D01*
X164456883Y-132778943D01*
X164719673Y-133042192D01*
X165063201Y-133184838D01*
X165435167Y-133185162D01*
X165778943Y-133043117D01*
X166042192Y-132780327D01*
X166184838Y-132436799D01*
X166185103Y-132132562D01*
X166219673Y-132167192D01*
X166563201Y-132309838D01*
X166935167Y-132310162D01*
X167278943Y-132168117D01*
X167542192Y-131905327D01*
X167684838Y-131561799D01*
X167684879Y-131514923D01*
X168037401Y-131162401D01*
X168202148Y-130915840D01*
X168260000Y-130625000D01*
X168260000Y-123564802D01*
X169537401Y-122287401D01*
X169702148Y-122040840D01*
X169760000Y-121750000D01*
X169760000Y-121629304D01*
X169773244Y-121634803D01*
X169883319Y-121634899D01*
X174153612Y-125905191D01*
X173936799Y-125815162D01*
X173831963Y-125815071D01*
X173793117Y-125721057D01*
X173530327Y-125457808D01*
X173186799Y-125315162D01*
X172814833Y-125314838D01*
X172471057Y-125456883D01*
X172340933Y-125586780D01*
X172293117Y-125471057D01*
X172030327Y-125207808D01*
X171935072Y-125168254D01*
X171935162Y-125064833D01*
X171793117Y-124721057D01*
X171530327Y-124457808D01*
X171186799Y-124315162D01*
X171093945Y-124315081D01*
X170993117Y-124071057D01*
X170730327Y-123807808D01*
X170386799Y-123665162D01*
X170014833Y-123664838D01*
X169671057Y-123806883D01*
X169407808Y-124069673D01*
X169265162Y-124413201D01*
X169265121Y-124460077D01*
X169262597Y-124462601D01*
X169097850Y-124709163D01*
X169039998Y-125000002D01*
X169039998Y-130428397D01*
X168971057Y-130456883D01*
X168707808Y-130719673D01*
X168565162Y-131063201D01*
X168564838Y-131435167D01*
X168706883Y-131778943D01*
X168926377Y-131998821D01*
X167685198Y-133240000D01*
X167062463Y-133240000D01*
X167030327Y-133207808D01*
X166686799Y-133065162D01*
X166314833Y-133064838D01*
X165971057Y-133206883D01*
X165707808Y-133469673D01*
X165565162Y-133813201D01*
X165564838Y-134185167D01*
X165706883Y-134528943D01*
X165969673Y-134792192D01*
X166313201Y-134934838D01*
X166685167Y-134935162D01*
X167028943Y-134793117D01*
X167062118Y-134760000D01*
X168000000Y-134760000D01*
X168290839Y-134702148D01*
X168537401Y-134537401D01*
X169990000Y-133084802D01*
X169990000Y-134687537D01*
X169957808Y-134719673D01*
X169815162Y-135063201D01*
X169814838Y-135435167D01*
X169956883Y-135778943D01*
X170219673Y-136042192D01*
X170563201Y-136184838D01*
X170935167Y-136185162D01*
X171278943Y-136043117D01*
X171542192Y-135780327D01*
X171684838Y-135436799D01*
X171685162Y-135064833D01*
X171543117Y-134721057D01*
X171510000Y-134687882D01*
X171510000Y-132834802D01*
X171564878Y-132889680D01*
X171564838Y-132935167D01*
X171706883Y-133278943D01*
X171969673Y-133542192D01*
X172313201Y-133684838D01*
X172685167Y-133685162D01*
X173028943Y-133543117D01*
X173292192Y-133280327D01*
X173434838Y-132936799D01*
X173435162Y-132564833D01*
X173293117Y-132221057D01*
X173030327Y-131957808D01*
X172686799Y-131815162D01*
X172639923Y-131815121D01*
X171960002Y-131135200D01*
X171960002Y-129891986D01*
X172063201Y-129934838D01*
X172435167Y-129935162D01*
X172778943Y-129793117D01*
X172990000Y-129582428D01*
X172990000Y-130250000D01*
X173047852Y-130540839D01*
X173212599Y-130787401D01*
X174564878Y-132139680D01*
X174564838Y-132185167D01*
X174706883Y-132528943D01*
X174969673Y-132792192D01*
X175313201Y-132934838D01*
X175685167Y-132935162D01*
X176028943Y-132793117D01*
X176292192Y-132530327D01*
X176434838Y-132186799D01*
X176435162Y-131814833D01*
X176293117Y-131471057D01*
X176030327Y-131207808D01*
X175686799Y-131065162D01*
X175639923Y-131065121D01*
X174510000Y-129935198D01*
X174510000Y-127312463D01*
X174542192Y-127280327D01*
X174684838Y-126936799D01*
X174685162Y-126564833D01*
X174594969Y-126346548D01*
X175865000Y-127616579D01*
X175865000Y-128029724D01*
X175788355Y-128106235D01*
X175615197Y-128523244D01*
X175614803Y-128974775D01*
X175787233Y-129392086D01*
X176106235Y-129711645D01*
X176523244Y-129884803D01*
X176974775Y-129885197D01*
X177392086Y-129712767D01*
X177711645Y-129393765D01*
X177884803Y-128976756D01*
X177885127Y-128605280D01*
X177956883Y-128778943D01*
X177990000Y-128812118D01*
X177990000Y-129187537D01*
X177957808Y-129219673D01*
X177815162Y-129563201D01*
X177814838Y-129935167D01*
X177956883Y-130278943D01*
X178219673Y-130542192D01*
X178563201Y-130684838D01*
X178935167Y-130685162D01*
X179278943Y-130543117D01*
X179542192Y-130280327D01*
X179684838Y-129936799D01*
X179685162Y-129564833D01*
X179543117Y-129221057D01*
X179510000Y-129187882D01*
X179510000Y-128912747D01*
X179563201Y-128934838D01*
X179935167Y-128935162D01*
X180278943Y-128793117D01*
X180542192Y-128530327D01*
X180684838Y-128186799D01*
X180685162Y-127814833D01*
X180543117Y-127471057D01*
X180280327Y-127207808D01*
X179936799Y-127065162D01*
X179889923Y-127065121D01*
X179537401Y-126712599D01*
X179290839Y-126547852D01*
X179000000Y-126490000D01*
X177241579Y-126490000D01*
X171596389Y-120844809D01*
X171813201Y-120934838D01*
X172064838Y-120935057D01*
X172064838Y-120935167D01*
X172206883Y-121278943D01*
X172469673Y-121542192D01*
X172813201Y-121684838D01*
X173185167Y-121685162D01*
X173528943Y-121543117D01*
X173792192Y-121280327D01*
X173934838Y-120936799D01*
X173934879Y-120889923D01*
X174287401Y-120537401D01*
X174355907Y-120434875D01*
X174685167Y-120435162D01*
X175028943Y-120293117D01*
X175292192Y-120030327D01*
X175434838Y-119686799D01*
X175435162Y-119314833D01*
X175293117Y-118971057D01*
X175260000Y-118937882D01*
X175260000Y-118185167D01*
X176814838Y-118185167D01*
X176956883Y-118528943D01*
X176990000Y-118562118D01*
X176990000Y-119187537D01*
X176957808Y-119219673D01*
X176815162Y-119563201D01*
X176814838Y-119935167D01*
X176956883Y-120278943D01*
X177219673Y-120542192D01*
X177563201Y-120684838D01*
X177935167Y-120685162D01*
X178278943Y-120543117D01*
X178542192Y-120280327D01*
X178684838Y-119936799D01*
X178685162Y-119564833D01*
X178543117Y-119221057D01*
X178510000Y-119187882D01*
X178510000Y-118562463D01*
X178542192Y-118530327D01*
X178684838Y-118186799D01*
X178685162Y-117814833D01*
X178543117Y-117471057D01*
X178280327Y-117207808D01*
X177936799Y-117065162D01*
X177564833Y-117064838D01*
X177221057Y-117206883D01*
X176957808Y-117469673D01*
X176815162Y-117813201D01*
X176814838Y-118185167D01*
X175260000Y-118185167D01*
X175260000Y-117812463D01*
X175292192Y-117780327D01*
X175434838Y-117436799D01*
X175435162Y-117064833D01*
X175293117Y-116721057D01*
X175030327Y-116457808D01*
X174686799Y-116315162D01*
X174581963Y-116315071D01*
X174543117Y-116221057D01*
X174280327Y-115957808D01*
X173936799Y-115815162D01*
X173564833Y-115814838D01*
X173221057Y-115956883D01*
X172957808Y-116219673D01*
X172918254Y-116314928D01*
X172814833Y-116314838D01*
X172499649Y-116445069D01*
X172186799Y-116315162D01*
X171814833Y-116314838D01*
X171689051Y-116366810D01*
X171530327Y-116207808D01*
X171186799Y-116065162D01*
X170814833Y-116064838D01*
X170471057Y-116206883D01*
X170207808Y-116469673D01*
X170065162Y-116813201D01*
X170064838Y-117185167D01*
X170206883Y-117528943D01*
X170240000Y-117562118D01*
X170240000Y-118937537D01*
X170207808Y-118969673D01*
X170065162Y-119313201D01*
X170065117Y-119365056D01*
X169775225Y-119364803D01*
X169760000Y-119371094D01*
X169760000Y-113062463D01*
X169792192Y-113030327D01*
X169934838Y-112686799D01*
X169935162Y-112314833D01*
X169793117Y-111971057D01*
X169530327Y-111707808D01*
X169186799Y-111565162D01*
X168814833Y-111564838D01*
X168471057Y-111706883D01*
X168207808Y-111969673D01*
X168065162Y-112313201D01*
X168064838Y-112685167D01*
X168206883Y-113028943D01*
X168240000Y-113062118D01*
X168240000Y-119634758D01*
X168143765Y-119538355D01*
X167726756Y-119365197D01*
X167275225Y-119364803D01*
X166934996Y-119505383D01*
X166935162Y-119314833D01*
X166793117Y-118971057D01*
X166760000Y-118937882D01*
X166760000Y-112250000D01*
X166702148Y-111959161D01*
X166537401Y-111712599D01*
X166259969Y-111435167D01*
X169564838Y-111435167D01*
X169706883Y-111778943D01*
X169969673Y-112042192D01*
X170313201Y-112184838D01*
X170360077Y-112184879D01*
X171115991Y-112940793D01*
X171065162Y-113063201D01*
X171064838Y-113435167D01*
X171206883Y-113778943D01*
X171469673Y-114042192D01*
X171813201Y-114184838D01*
X172185167Y-114185162D01*
X172528943Y-114043117D01*
X172792192Y-113780327D01*
X172934838Y-113436799D01*
X172935162Y-113064833D01*
X172793117Y-112721057D01*
X172744569Y-112672424D01*
X172723412Y-112566062D01*
X172778943Y-112543117D01*
X173042192Y-112280327D01*
X173184838Y-111936799D01*
X173184839Y-111935162D01*
X173185167Y-111935162D01*
X173528943Y-111793117D01*
X173792192Y-111530327D01*
X173831746Y-111435072D01*
X173935167Y-111435162D01*
X174278943Y-111293117D01*
X174542192Y-111030327D01*
X174684838Y-110686799D01*
X174684839Y-110685162D01*
X174685167Y-110685162D01*
X175028943Y-110543117D01*
X175292192Y-110280327D01*
X175434838Y-109936799D01*
X175435162Y-109564833D01*
X175293117Y-109221057D01*
X175260000Y-109187882D01*
X175260000Y-109058937D01*
X175563201Y-109184838D01*
X175935167Y-109185162D01*
X176278943Y-109043117D01*
X176542192Y-108780327D01*
X176684838Y-108436799D01*
X176685162Y-108064833D01*
X176543117Y-107721057D01*
X176510000Y-107687882D01*
X176510000Y-106562463D01*
X176542192Y-106530327D01*
X176684838Y-106186799D01*
X176685162Y-105814833D01*
X176543117Y-105471057D01*
X176280327Y-105207808D01*
X175936799Y-105065162D01*
X175564833Y-105064838D01*
X175260000Y-105190792D01*
X175260000Y-104250000D01*
X175220174Y-104049782D01*
X175202148Y-103959160D01*
X175185059Y-103933584D01*
X175185162Y-103814833D01*
X175043117Y-103471057D01*
X174780327Y-103207808D01*
X174436799Y-103065162D01*
X174064833Y-103064838D01*
X173721057Y-103206883D01*
X173457808Y-103469673D01*
X173315162Y-103813201D01*
X173314838Y-104185167D01*
X173456883Y-104528943D01*
X173719673Y-104792192D01*
X173740000Y-104800633D01*
X173740000Y-105564991D01*
X173564833Y-105564838D01*
X173221057Y-105706883D01*
X172957808Y-105969673D01*
X172815162Y-106313201D01*
X172815161Y-106314838D01*
X172471057Y-106456883D01*
X172207808Y-106719673D01*
X172065162Y-107063201D01*
X172064838Y-107435167D01*
X172206883Y-107778943D01*
X172240000Y-107812118D01*
X172240000Y-108064991D01*
X172064833Y-108064838D01*
X171721057Y-108206883D01*
X171457808Y-108469673D01*
X171315162Y-108813201D01*
X171314838Y-109185167D01*
X171456883Y-109528943D01*
X171490000Y-109562118D01*
X171490000Y-111165198D01*
X171435122Y-111110320D01*
X171435162Y-111064833D01*
X171293117Y-110721057D01*
X171030327Y-110457808D01*
X170686799Y-110315162D01*
X170314833Y-110314838D01*
X169971057Y-110456883D01*
X169707808Y-110719673D01*
X169565162Y-111063201D01*
X169564838Y-111435167D01*
X166259969Y-111435167D01*
X165935122Y-111110320D01*
X165935162Y-111064833D01*
X165793117Y-110721057D01*
X165530327Y-110457808D01*
X165186799Y-110315162D01*
X164814833Y-110314838D01*
X164471057Y-110456883D01*
X164207808Y-110719673D01*
X164168254Y-110814928D01*
X164064833Y-110814838D01*
X163721057Y-110956883D01*
X163457808Y-111219673D01*
X163315162Y-111563201D01*
X163314838Y-111935167D01*
X163456883Y-112278943D01*
X163586780Y-112409067D01*
X163547702Y-112425214D01*
X163530327Y-112407808D01*
X163186799Y-112265162D01*
X162814833Y-112264838D01*
X162471057Y-112406883D01*
X162207808Y-112669673D01*
X162065162Y-113013201D01*
X162065121Y-113060077D01*
X160712599Y-114412599D01*
X160611916Y-114563282D01*
X157590197Y-117585001D01*
X157543117Y-117471057D01*
X157280327Y-117207808D01*
X156936799Y-117065162D01*
X156564833Y-117064838D01*
X156221057Y-117206883D01*
X155957808Y-117469673D01*
X155885093Y-117644790D01*
X155885197Y-117525225D01*
X155712767Y-117107914D01*
X155393765Y-116788355D01*
X154976756Y-116615197D01*
X154866680Y-116615101D01*
X152375790Y-114124210D01*
X152301634Y-114074661D01*
X152088675Y-113932367D01*
X152032484Y-113921190D01*
X151750000Y-113864999D01*
X151749995Y-113865000D01*
X146500000Y-113865000D01*
X146161325Y-113932367D01*
X145874210Y-114124210D01*
X145874208Y-114124213D01*
X141410356Y-118588064D01*
X141280327Y-118457808D01*
X140936799Y-118315162D01*
X140564833Y-118314838D01*
X140221057Y-118456883D01*
X139957808Y-118719673D01*
X139815162Y-119063201D01*
X139814838Y-119435167D01*
X139956883Y-119778943D01*
X139990000Y-119812118D01*
X139990000Y-122937537D01*
X139957808Y-122969673D01*
X139815162Y-123313201D01*
X139814838Y-123685167D01*
X139956883Y-124028943D01*
X140219673Y-124292192D01*
X140563201Y-124434838D01*
X140865000Y-124435101D01*
X140865000Y-126529724D01*
X140788355Y-126606235D01*
X140756867Y-126682065D01*
X140685122Y-126610320D01*
X140685162Y-126564833D01*
X140543117Y-126221057D01*
X140280327Y-125957808D01*
X139936799Y-125815162D01*
X139564833Y-125814838D01*
X139221057Y-125956883D01*
X138957808Y-126219673D01*
X138815162Y-126563201D01*
X138815114Y-126618443D01*
X138686799Y-126565162D01*
X138314833Y-126564838D01*
X137971057Y-126706883D01*
X137707808Y-126969673D01*
X137565162Y-127313201D01*
X137564838Y-127685167D01*
X137706883Y-128028943D01*
X137969673Y-128292192D01*
X138313201Y-128434838D01*
X138360077Y-128434879D01*
X139314878Y-129389680D01*
X139314838Y-129435167D01*
X139456883Y-129778943D01*
X139719673Y-130042192D01*
X140063201Y-130184838D01*
X140240000Y-130184992D01*
X140240000Y-130187537D01*
X140207808Y-130219673D01*
X140065162Y-130563201D01*
X140064838Y-130935167D01*
X140156193Y-131156263D01*
X139936799Y-131065162D01*
X139564833Y-131064838D01*
X139435115Y-131118436D01*
X139435162Y-131064833D01*
X139293117Y-130721057D01*
X139260000Y-130687882D01*
X139260000Y-130000000D01*
X139223169Y-129814838D01*
X139202148Y-129709160D01*
X139037401Y-129462599D01*
X137073470Y-127498668D01*
X137292192Y-127280327D01*
X137434838Y-126936799D01*
X137434879Y-126889923D01*
X137889680Y-126435122D01*
X137935167Y-126435162D01*
X138278943Y-126293117D01*
X138542192Y-126030327D01*
X138684838Y-125686799D01*
X138685162Y-125314833D01*
X138543117Y-124971057D01*
X138280327Y-124707808D01*
X137936799Y-124565162D01*
X137564833Y-124564838D01*
X137221057Y-124706883D01*
X136957808Y-124969673D01*
X136815162Y-125313201D01*
X136815121Y-125360077D01*
X136510000Y-125665198D01*
X136510000Y-125050944D01*
X136528943Y-125043117D01*
X136792192Y-124780327D01*
X136934838Y-124436799D01*
X136935162Y-124064833D01*
X136793117Y-123721057D01*
X136530327Y-123457808D01*
X136186799Y-123315162D01*
X135814833Y-123314838D01*
X135512057Y-123439942D01*
X135280327Y-123207808D01*
X134936799Y-123065162D01*
X134564833Y-123064838D01*
X134221057Y-123206883D01*
X133957808Y-123469673D01*
X133815162Y-123813201D01*
X133814838Y-124185167D01*
X133956883Y-124528943D01*
X133990000Y-124562118D01*
X133990000Y-125187537D01*
X133957808Y-125219673D01*
X133815162Y-125563201D01*
X133814838Y-125935167D01*
X133956883Y-126278943D01*
X134219673Y-126542192D01*
X134563201Y-126684838D01*
X134935167Y-126685162D01*
X134990000Y-126662506D01*
X134990000Y-127250000D01*
X135047852Y-127540839D01*
X135212599Y-127787401D01*
X137740000Y-130314802D01*
X137740000Y-130687537D01*
X137707808Y-130719673D01*
X137565162Y-131063201D01*
X137564838Y-131435167D01*
X137706883Y-131778943D01*
X137969673Y-132042192D01*
X138313201Y-132184838D01*
X138685167Y-132185162D01*
X138814885Y-132131564D01*
X138814838Y-132185167D01*
X138956883Y-132528943D01*
X139219673Y-132792192D01*
X139563201Y-132934838D01*
X139610077Y-132934879D01*
X140712599Y-134037401D01*
X140959160Y-134202148D01*
X141250000Y-134260000D01*
X141685198Y-134260000D01*
X141958028Y-134532830D01*
X141916260Y-134537019D01*
X141834661Y-134532303D01*
X141782609Y-134550421D01*
X141727768Y-134555921D01*
X141508040Y-134623000D01*
X141500000Y-134623000D01*
X141443204Y-134636408D01*
X141410411Y-134652804D01*
X141126354Y-134739522D01*
X139487292Y-135040297D01*
X138742968Y-135123000D01*
X137367747Y-135123000D01*
X136587492Y-135078465D01*
X136514221Y-135060147D01*
X134863050Y-134276905D01*
X133453388Y-132768748D01*
X133058632Y-132213003D01*
X133057999Y-132212405D01*
X133057642Y-132211614D01*
X132959665Y-132119535D01*
X132861483Y-132026808D01*
X132860669Y-132026498D01*
X132860037Y-132025904D01*
X132734141Y-131978275D01*
X132608088Y-131930233D01*
X132607220Y-131930258D01*
X132606406Y-131929950D01*
X132471783Y-131934128D01*
X132337023Y-131937978D01*
X132336228Y-131938334D01*
X132335360Y-131938361D01*
X131537345Y-132123000D01*
X131500000Y-132123000D01*
X131487363Y-132123630D01*
X129007649Y-132371601D01*
X126786250Y-131877957D01*
X124810227Y-131136949D01*
X123082374Y-129902768D01*
X122061842Y-128882236D01*
X121514893Y-128220682D01*
X121050394Y-127134843D01*
X121307908Y-127019598D01*
X123632197Y-126171927D01*
X123653038Y-126159262D01*
X123676820Y-126153878D01*
X126078012Y-125084498D01*
X126095987Y-125071792D01*
X126117108Y-125065601D01*
X128517548Y-123811409D01*
X128534018Y-123798150D01*
X128553918Y-123790995D01*
X130899169Y-122380421D01*
X130915137Y-122365903D01*
X130934959Y-122357373D01*
X133170585Y-120818846D01*
X133178456Y-120810756D01*
X133188677Y-120805965D01*
X133889387Y-120289995D01*
X133960824Y-120211717D01*
X134038782Y-120139928D01*
X134051613Y-120112234D01*
X134072185Y-120089692D01*
X134108227Y-119990041D01*
X134152780Y-119893878D01*
X134154036Y-119863382D01*
X134164416Y-119834683D01*
X134159579Y-119728818D01*
X134163940Y-119622932D01*
X134153431Y-119594279D01*
X134152038Y-119563791D01*
X134107057Y-119467837D01*
X134070565Y-119368340D01*
X134049890Y-119345888D01*
X134036936Y-119318255D01*
X133958663Y-119246822D01*
X133886870Y-119168860D01*
X133047106Y-118556296D01*
X131498779Y-117287207D01*
X130156539Y-115847448D01*
X129996373Y-115643543D01*
X130505494Y-115467485D01*
X130516988Y-115460762D01*
X130530099Y-115458453D01*
X132971642Y-114509641D01*
X132997883Y-114492932D01*
X133027924Y-114484850D01*
X135426265Y-113299076D01*
X135449695Y-113281060D01*
X135477489Y-113271012D01*
X137843944Y-111842067D01*
X137864155Y-111823628D01*
X137889083Y-111812356D01*
X140234967Y-110134030D01*
X140256717Y-110110843D01*
X140284388Y-110095178D01*
X141427535Y-109109640D01*
X141431420Y-109104664D01*
X141436852Y-109101460D01*
X141514691Y-108998023D01*
X141594429Y-108895905D01*
X141596114Y-108889822D01*
X141599907Y-108884782D01*
X141632237Y-108759433D01*
X141666827Y-108634573D01*
X141666056Y-108628307D01*
X141667631Y-108622200D01*
X141649531Y-108494026D01*
X141642288Y-108435167D01*
X167064838Y-108435167D01*
X167206883Y-108778943D01*
X167469673Y-109042192D01*
X167813201Y-109184838D01*
X167860077Y-109184879D01*
X168064878Y-109389680D01*
X168064838Y-109435167D01*
X168206883Y-109778943D01*
X168469673Y-110042192D01*
X168813201Y-110184838D01*
X169185167Y-110185162D01*
X169528943Y-110043117D01*
X169792192Y-109780327D01*
X169934838Y-109436799D01*
X169935162Y-109064833D01*
X169793117Y-108721057D01*
X169530327Y-108457808D01*
X169186799Y-108315162D01*
X169139923Y-108315121D01*
X168935122Y-108110320D01*
X168935162Y-108064833D01*
X168793117Y-107721057D01*
X168530327Y-107457808D01*
X168186799Y-107315162D01*
X167814833Y-107314838D01*
X167471057Y-107456883D01*
X167207808Y-107719673D01*
X167065162Y-108063201D01*
X167064838Y-108435167D01*
X141642288Y-108435167D01*
X141633706Y-108365427D01*
X141630596Y-108359933D01*
X141629714Y-108353688D01*
X141563932Y-108242180D01*
X141500109Y-108129444D01*
X141495134Y-108125560D01*
X141491929Y-108120126D01*
X141388456Y-108042261D01*
X141286374Y-107962550D01*
X141280293Y-107960865D01*
X141275251Y-107957071D01*
X140564459Y-107614802D01*
X140535626Y-107607366D01*
X140510406Y-107591539D01*
X138787890Y-106935167D01*
X168564838Y-106935167D01*
X168706883Y-107278943D01*
X168969673Y-107542192D01*
X169313201Y-107684838D01*
X169360077Y-107684879D01*
X169564878Y-107889680D01*
X169564838Y-107935167D01*
X169706883Y-108278943D01*
X169969673Y-108542192D01*
X170313201Y-108684838D01*
X170685167Y-108685162D01*
X171028943Y-108543117D01*
X171292192Y-108280327D01*
X171434838Y-107936799D01*
X171435162Y-107564833D01*
X171293117Y-107221057D01*
X171030327Y-106957808D01*
X170686799Y-106815162D01*
X170639923Y-106815121D01*
X170435122Y-106610320D01*
X170435162Y-106564833D01*
X170293117Y-106221057D01*
X170030327Y-105957808D01*
X169686799Y-105815162D01*
X169314833Y-105814838D01*
X168971057Y-105956883D01*
X168707808Y-106219673D01*
X168565162Y-106563201D01*
X168564838Y-106935167D01*
X138787890Y-106935167D01*
X138466284Y-106812618D01*
X136451432Y-105649616D01*
X134877000Y-104398918D01*
X134877000Y-103897960D01*
X134941013Y-103872431D01*
X137062463Y-103034597D01*
X137088414Y-103017872D01*
X137118191Y-103009707D01*
X138023587Y-102556634D01*
X139050028Y-102116731D01*
X139070447Y-102105670D01*
X139820447Y-101605670D01*
X139823239Y-101603755D01*
X139897863Y-101551079D01*
X141359883Y-100664394D01*
X141380126Y-100645854D01*
X141405111Y-100634490D01*
X141682426Y-100435167D01*
X173314838Y-100435167D01*
X173456883Y-100778943D01*
X173719673Y-101042192D01*
X174063201Y-101184838D01*
X174110077Y-101184879D01*
X174815095Y-101889897D01*
X174814838Y-102185167D01*
X174956883Y-102528943D01*
X175219673Y-102792192D01*
X175563201Y-102934838D01*
X175935167Y-102935162D01*
X176278943Y-102793117D01*
X176542192Y-102530327D01*
X176684838Y-102186799D01*
X176685162Y-101814833D01*
X176543117Y-101471057D01*
X176292039Y-101219541D01*
X176287401Y-101212599D01*
X175185122Y-100110320D01*
X175185162Y-100064833D01*
X175043117Y-99721057D01*
X174780327Y-99457808D01*
X174436799Y-99315162D01*
X174064833Y-99314838D01*
X173721057Y-99456883D01*
X173457808Y-99719673D01*
X173315162Y-100063201D01*
X173314838Y-100435167D01*
X141682426Y-100435167D01*
X143404515Y-99197400D01*
X143423231Y-99177360D01*
X143447233Y-99164097D01*
X145335295Y-97570055D01*
X145344064Y-97559061D01*
X145356092Y-97551775D01*
X146078995Y-96890367D01*
X146129264Y-96821917D01*
X146189105Y-96761645D01*
X146208794Y-96713625D01*
X146239510Y-96671800D01*
X146259757Y-96589328D01*
X146291979Y-96510741D01*
X146291793Y-96458841D01*
X146295867Y-96442246D01*
X146363592Y-96306796D01*
X146376740Y-96258128D01*
X146363592Y-96193204D01*
X146113592Y-95693204D01*
X146082546Y-95653485D01*
X146040161Y-95629517D01*
X143045976Y-94631455D01*
X140804208Y-93635114D01*
X140288214Y-93377117D01*
X139932878Y-93070948D01*
X140040813Y-93035501D01*
X140058354Y-93025605D01*
X140078177Y-93022036D01*
X142031446Y-92254377D01*
X142063367Y-92233880D01*
X142099759Y-92223169D01*
X144044391Y-91204377D01*
X144071161Y-91182776D01*
X144103051Y-91169884D01*
X146031522Y-89904933D01*
X146053703Y-89883126D01*
X146081402Y-89868962D01*
X147986193Y-88362826D01*
X148004450Y-88341386D01*
X148028416Y-88326601D01*
X149902004Y-86584254D01*
X149909714Y-86573575D01*
X149920660Y-86566245D01*
X151156081Y-85328272D01*
X151186799Y-85282196D01*
X151227376Y-85244507D01*
X151261311Y-85170430D01*
X151306505Y-85102642D01*
X151317252Y-85048319D01*
X151340318Y-84997970D01*
X151343322Y-84916549D01*
X151354731Y-84858883D01*
X151595577Y-84583630D01*
X151620584Y-84539856D01*
X151626590Y-84489802D01*
X151612649Y-84441355D01*
X151580958Y-84402149D01*
X151534890Y-84377886D01*
X150955500Y-84212346D01*
X150929437Y-84194970D01*
X150875114Y-84184223D01*
X150824765Y-84161157D01*
X150537480Y-84092912D01*
X149784890Y-83877886D01*
X149770879Y-83874728D01*
X149756909Y-83872400D01*
X148275683Y-83453597D01*
X146162314Y-82490470D01*
X147762322Y-81885743D01*
X147782913Y-81872899D01*
X147790161Y-81870483D01*
X147806796Y-81863592D01*
X147829793Y-81852094D01*
X147848422Y-81846303D01*
X147929712Y-81802134D01*
X149306796Y-81113592D01*
X149326200Y-81101600D01*
X150837963Y-79967777D01*
X151301497Y-79637669D01*
X151329797Y-79607631D01*
X151365191Y-79586405D01*
X153224464Y-77900449D01*
X153246291Y-77871004D01*
X153275590Y-77848978D01*
X155055730Y-75859074D01*
X155072149Y-75831273D01*
X155096067Y-75809585D01*
X156793479Y-73519849D01*
X156805601Y-73494205D01*
X156825012Y-73473519D01*
X158436105Y-70888066D01*
X158453922Y-70840860D01*
X158482803Y-70799486D01*
X159062544Y-69476680D01*
X159084882Y-69375219D01*
X159094655Y-69344669D01*
X159113592Y-69306796D01*
X159126130Y-69264839D01*
X159540201Y-65745232D01*
X159631187Y-65047479D01*
X159629638Y-65024282D01*
X159635613Y-65001820D01*
X159620653Y-64889743D01*
X159613117Y-64776907D01*
X159602810Y-64756071D01*
X159599734Y-64733028D01*
X159543016Y-64635198D01*
X159492879Y-64533845D01*
X159475383Y-64518539D01*
X159463723Y-64498428D01*
X159373889Y-64429753D01*
X159288778Y-64355298D01*
X159266755Y-64347852D01*
X159248288Y-64333735D01*
X159139023Y-64304669D01*
X159031887Y-64268448D01*
X159008688Y-64269997D01*
X158986226Y-64264022D01*
X158874148Y-64278982D01*
X158761314Y-64286518D01*
X158740478Y-64296825D01*
X158717435Y-64299901D01*
X158039845Y-64531274D01*
X157648593Y-64596483D01*
X158125886Y-61016785D01*
X158122498Y-60966486D01*
X158093619Y-60914183D01*
X158030301Y-60845108D01*
X158027272Y-60830586D01*
X157984897Y-60768418D01*
X157954101Y-60699768D01*
X157909260Y-60657453D01*
X157874538Y-60606514D01*
X157245802Y-59989292D01*
X155513706Y-58099733D01*
X155982133Y-58024285D01*
X159614760Y-58024285D01*
X159825169Y-58533515D01*
X160214436Y-58923461D01*
X160723298Y-59134759D01*
X161274285Y-59135240D01*
X161783515Y-58924831D01*
X162173461Y-58535564D01*
X162384759Y-58026702D01*
X162385240Y-57475715D01*
X162174831Y-56966485D01*
X161785564Y-56576539D01*
X161276702Y-56365241D01*
X160725715Y-56364760D01*
X160216485Y-56575169D01*
X159826539Y-56964436D01*
X159615241Y-57473298D01*
X159614760Y-58024285D01*
X155982133Y-58024285D01*
X156014300Y-58019104D01*
X158767961Y-57625724D01*
X158815459Y-57608831D01*
X158860267Y-57563010D01*
X158874481Y-57538135D01*
X158901481Y-57528410D01*
X158930227Y-57502244D01*
X158965113Y-57485111D01*
X159029705Y-57411698D01*
X159102022Y-57345874D01*
X159118566Y-57310702D01*
X159144241Y-57281521D01*
X160429696Y-55063347D01*
X160435258Y-55047048D01*
X160445990Y-55033578D01*
X160913803Y-54127000D01*
X160994387Y-54127000D01*
X161472279Y-55035359D01*
G36*
X152490000Y-132500000D02*
X152547852Y-132790839D01*
X152712599Y-133037401D01*
X153212599Y-133537401D01*
X153459161Y-133702148D01*
X153472671Y-133704835D01*
X153457808Y-133719673D01*
X153315162Y-134063201D01*
X153314838Y-134435167D01*
X153445069Y-134750351D01*
X153315162Y-135063201D01*
X153314838Y-135435167D01*
X153456883Y-135778943D01*
X153625341Y-135947695D01*
X153617187Y-135947666D01*
X153508157Y-135938869D01*
X153482426Y-135947174D01*
X153455390Y-135947075D01*
X153354185Y-135988563D01*
X153250089Y-136022160D01*
X153069193Y-136123000D01*
X153000000Y-136123000D01*
X152949972Y-136133269D01*
X151210875Y-136878596D01*
X148993923Y-137371252D01*
X147025477Y-137125197D01*
X145287536Y-136628642D01*
X145153179Y-136583856D01*
X143968890Y-135817930D01*
X144028943Y-135793117D01*
X144292192Y-135530327D01*
X144434838Y-135186799D01*
X144435162Y-134814833D01*
X144293117Y-134471057D01*
X144030327Y-134207808D01*
X143686799Y-134065162D01*
X143639923Y-134065121D01*
X142537401Y-132962599D01*
X142290839Y-132797852D01*
X142277329Y-132795165D01*
X142292192Y-132780327D01*
X142434838Y-132436799D01*
X142434879Y-132389923D01*
X144603196Y-130221606D01*
X144565162Y-130313201D01*
X144564838Y-130685167D01*
X144706883Y-131028943D01*
X144969673Y-131292192D01*
X145169162Y-131375028D01*
X144971057Y-131456883D01*
X144707808Y-131719673D01*
X144565162Y-132063201D01*
X144564838Y-132435167D01*
X144706883Y-132778943D01*
X144969673Y-133042192D01*
X145313201Y-133184838D01*
X145685167Y-133185162D01*
X146028943Y-133043117D01*
X146292192Y-132780327D01*
X146434838Y-132436799D01*
X146434879Y-132389923D01*
X147537401Y-131287401D01*
X147702148Y-131040840D01*
X147760000Y-130750000D01*
X147760000Y-129808937D01*
X148063201Y-129934838D01*
X148240000Y-129934992D01*
X148240000Y-131187537D01*
X148207808Y-131219673D01*
X148065162Y-131563201D01*
X148064838Y-131935167D01*
X148206883Y-132278943D01*
X148469673Y-132542192D01*
X148813201Y-132684838D01*
X149185167Y-132685162D01*
X149528943Y-132543117D01*
X149574893Y-132497247D01*
X149669673Y-132592192D01*
X150013201Y-132734838D01*
X150385167Y-132735162D01*
X150728943Y-132593117D01*
X150992192Y-132330327D01*
X151134838Y-131986799D01*
X151135162Y-131614833D01*
X150993117Y-131271057D01*
X150730327Y-131007808D01*
X150560000Y-130937082D01*
X150560000Y-129685053D01*
X150564838Y-129685057D01*
X150564838Y-129685167D01*
X150706883Y-130028943D01*
X150969673Y-130292192D01*
X151313201Y-130434838D01*
X151685167Y-130435162D01*
X152028943Y-130293117D01*
X152292192Y-130030327D01*
X152434838Y-129686799D01*
X152435162Y-129314833D01*
X152293117Y-128971057D01*
X152030327Y-128707808D01*
X152010000Y-128699367D01*
X152010000Y-125935009D01*
X152185167Y-125935162D01*
X152490000Y-125809208D01*
X152490000Y-132500000D01*
X152490000Y-132500000D01*
G37*
X152490000Y-132500000D02*
X152547852Y-132790839D01*
X152712599Y-133037401D01*
X153212599Y-133537401D01*
X153459161Y-133702148D01*
X153472671Y-133704835D01*
X153457808Y-133719673D01*
X153315162Y-134063201D01*
X153314838Y-134435167D01*
X153445069Y-134750351D01*
X153315162Y-135063201D01*
X153314838Y-135435167D01*
X153456883Y-135778943D01*
X153625341Y-135947695D01*
X153617187Y-135947666D01*
X153508157Y-135938869D01*
X153482426Y-135947174D01*
X153455390Y-135947075D01*
X153354185Y-135988563D01*
X153250089Y-136022160D01*
X153069193Y-136123000D01*
X153000000Y-136123000D01*
X152949972Y-136133269D01*
X151210875Y-136878596D01*
X148993923Y-137371252D01*
X147025477Y-137125197D01*
X145287536Y-136628642D01*
X145153179Y-136583856D01*
X143968890Y-135817930D01*
X144028943Y-135793117D01*
X144292192Y-135530327D01*
X144434838Y-135186799D01*
X144435162Y-134814833D01*
X144293117Y-134471057D01*
X144030327Y-134207808D01*
X143686799Y-134065162D01*
X143639923Y-134065121D01*
X142537401Y-132962599D01*
X142290839Y-132797852D01*
X142277329Y-132795165D01*
X142292192Y-132780327D01*
X142434838Y-132436799D01*
X142434879Y-132389923D01*
X144603196Y-130221606D01*
X144565162Y-130313201D01*
X144564838Y-130685167D01*
X144706883Y-131028943D01*
X144969673Y-131292192D01*
X145169162Y-131375028D01*
X144971057Y-131456883D01*
X144707808Y-131719673D01*
X144565162Y-132063201D01*
X144564838Y-132435167D01*
X144706883Y-132778943D01*
X144969673Y-133042192D01*
X145313201Y-133184838D01*
X145685167Y-133185162D01*
X146028943Y-133043117D01*
X146292192Y-132780327D01*
X146434838Y-132436799D01*
X146434879Y-132389923D01*
X147537401Y-131287401D01*
X147702148Y-131040840D01*
X147760000Y-130750000D01*
X147760000Y-129808937D01*
X148063201Y-129934838D01*
X148240000Y-129934992D01*
X148240000Y-131187537D01*
X148207808Y-131219673D01*
X148065162Y-131563201D01*
X148064838Y-131935167D01*
X148206883Y-132278943D01*
X148469673Y-132542192D01*
X148813201Y-132684838D01*
X149185167Y-132685162D01*
X149528943Y-132543117D01*
X149574893Y-132497247D01*
X149669673Y-132592192D01*
X150013201Y-132734838D01*
X150385167Y-132735162D01*
X150728943Y-132593117D01*
X150992192Y-132330327D01*
X151134838Y-131986799D01*
X151135162Y-131614833D01*
X150993117Y-131271057D01*
X150730327Y-131007808D01*
X150560000Y-130937082D01*
X150560000Y-129685053D01*
X150564838Y-129685057D01*
X150564838Y-129685167D01*
X150706883Y-130028943D01*
X150969673Y-130292192D01*
X151313201Y-130434838D01*
X151685167Y-130435162D01*
X152028943Y-130293117D01*
X152292192Y-130030327D01*
X152434838Y-129686799D01*
X152435162Y-129314833D01*
X152293117Y-128971057D01*
X152030327Y-128707808D01*
X152010000Y-128699367D01*
X152010000Y-125935009D01*
X152185167Y-125935162D01*
X152490000Y-125809208D01*
X152490000Y-132500000D01*
G36*
X161115000Y-128116579D02*
X161115000Y-128565099D01*
X160814833Y-128564838D01*
X160471057Y-128706883D01*
X160207808Y-128969673D01*
X160065162Y-129313201D01*
X160064838Y-129685167D01*
X160206883Y-130028943D01*
X160240000Y-130062118D01*
X160240000Y-134337253D01*
X160186799Y-134315162D01*
X160139923Y-134315121D01*
X159537401Y-133712599D01*
X159290839Y-133547852D01*
X159000000Y-133490000D01*
X155308937Y-133490000D01*
X155434838Y-133186799D01*
X155435162Y-132814833D01*
X155293117Y-132471057D01*
X155030327Y-132207808D01*
X154686799Y-132065162D01*
X154314833Y-132064838D01*
X154013959Y-132189157D01*
X154010000Y-132185198D01*
X154010000Y-128076177D01*
X154037233Y-128142086D01*
X154356235Y-128461645D01*
X154773244Y-128634803D01*
X155224775Y-128635197D01*
X155642086Y-128462767D01*
X155961645Y-128143765D01*
X156134803Y-127726756D01*
X156134899Y-127616681D01*
X158375000Y-125376580D01*
X161115000Y-128116579D01*
X161115000Y-128116579D01*
G37*
X161115000Y-128116579D02*
X161115000Y-128565099D01*
X160814833Y-128564838D01*
X160471057Y-128706883D01*
X160207808Y-128969673D01*
X160065162Y-129313201D01*
X160064838Y-129685167D01*
X160206883Y-130028943D01*
X160240000Y-130062118D01*
X160240000Y-134337253D01*
X160186799Y-134315162D01*
X160139923Y-134315121D01*
X159537401Y-133712599D01*
X159290839Y-133547852D01*
X159000000Y-133490000D01*
X155308937Y-133490000D01*
X155434838Y-133186799D01*
X155435162Y-132814833D01*
X155293117Y-132471057D01*
X155030327Y-132207808D01*
X154686799Y-132065162D01*
X154314833Y-132064838D01*
X154013959Y-132189157D01*
X154010000Y-132185198D01*
X154010000Y-128076177D01*
X154037233Y-128142086D01*
X154356235Y-128461645D01*
X154773244Y-128634803D01*
X155224775Y-128635197D01*
X155642086Y-128462767D01*
X155961645Y-128143765D01*
X156134803Y-127726756D01*
X156134899Y-127616681D01*
X158375000Y-125376580D01*
X161115000Y-128116579D01*
G36*
X148007808Y-115869673D02*
X147865162Y-116213201D01*
X147864838Y-116585167D01*
X148006883Y-116928943D01*
X148040000Y-116962118D01*
X148040000Y-117800000D01*
X148065064Y-117926003D01*
X148064838Y-118185167D01*
X148206883Y-118528943D01*
X148426377Y-118748821D01*
X147712599Y-119462599D01*
X147560000Y-119690980D01*
X147560000Y-118962463D01*
X147592192Y-118930327D01*
X147734838Y-118586799D01*
X147735162Y-118214833D01*
X147593117Y-117871057D01*
X147330327Y-117607808D01*
X146986799Y-117465162D01*
X146614833Y-117464838D01*
X146271057Y-117606883D01*
X146007808Y-117869673D01*
X145865162Y-118213201D01*
X145864838Y-118585167D01*
X146006883Y-118928943D01*
X146040000Y-118962118D01*
X146040000Y-120087253D01*
X145986799Y-120065162D01*
X145614833Y-120064838D01*
X145271057Y-120206883D01*
X145007808Y-120469673D01*
X144865162Y-120813201D01*
X144865121Y-120860077D01*
X144712599Y-121012599D01*
X144547852Y-121259161D01*
X144490000Y-121550000D01*
X144490000Y-123187537D01*
X144457808Y-123219673D01*
X144315162Y-123563201D01*
X144314838Y-123935167D01*
X144456883Y-124278943D01*
X144719673Y-124542192D01*
X145063201Y-124684838D01*
X145435167Y-124685162D01*
X145700661Y-124575463D01*
X146240000Y-125114802D01*
X146240000Y-125917847D01*
X146030327Y-125707808D01*
X145686799Y-125565162D01*
X145581963Y-125565071D01*
X145543117Y-125471057D01*
X145280327Y-125207808D01*
X144936799Y-125065162D01*
X144564833Y-125064838D01*
X144221057Y-125206883D01*
X143957808Y-125469673D01*
X143815162Y-125813201D01*
X143815121Y-125860077D01*
X143712599Y-125962599D01*
X143547852Y-126209161D01*
X143501041Y-126444494D01*
X143471057Y-126456883D01*
X143207808Y-126719673D01*
X143065162Y-127063201D01*
X143064838Y-127435167D01*
X143206883Y-127778943D01*
X143469673Y-128042192D01*
X143813201Y-128184838D01*
X143990000Y-128184992D01*
X143990000Y-128685198D01*
X141935009Y-130740189D01*
X141935162Y-130564833D01*
X141793117Y-130221057D01*
X141760000Y-130187882D01*
X141760000Y-128385010D01*
X141974775Y-128385197D01*
X142392086Y-128212767D01*
X142711645Y-127893765D01*
X142884803Y-127476756D01*
X142885197Y-127025225D01*
X142712767Y-126607914D01*
X142635000Y-126530011D01*
X142635000Y-119866580D01*
X146866579Y-115635000D01*
X148242891Y-115635000D01*
X148007808Y-115869673D01*
X148007808Y-115869673D01*
G37*
X148007808Y-115869673D02*
X147865162Y-116213201D01*
X147864838Y-116585167D01*
X148006883Y-116928943D01*
X148040000Y-116962118D01*
X148040000Y-117800000D01*
X148065064Y-117926003D01*
X148064838Y-118185167D01*
X148206883Y-118528943D01*
X148426377Y-118748821D01*
X147712599Y-119462599D01*
X147560000Y-119690980D01*
X147560000Y-118962463D01*
X147592192Y-118930327D01*
X147734838Y-118586799D01*
X147735162Y-118214833D01*
X147593117Y-117871057D01*
X147330327Y-117607808D01*
X146986799Y-117465162D01*
X146614833Y-117464838D01*
X146271057Y-117606883D01*
X146007808Y-117869673D01*
X145865162Y-118213201D01*
X145864838Y-118585167D01*
X146006883Y-118928943D01*
X146040000Y-118962118D01*
X146040000Y-120087253D01*
X145986799Y-120065162D01*
X145614833Y-120064838D01*
X145271057Y-120206883D01*
X145007808Y-120469673D01*
X144865162Y-120813201D01*
X144865121Y-120860077D01*
X144712599Y-121012599D01*
X144547852Y-121259161D01*
X144490000Y-121550000D01*
X144490000Y-123187537D01*
X144457808Y-123219673D01*
X144315162Y-123563201D01*
X144314838Y-123935167D01*
X144456883Y-124278943D01*
X144719673Y-124542192D01*
X145063201Y-124684838D01*
X145435167Y-124685162D01*
X145700661Y-124575463D01*
X146240000Y-125114802D01*
X146240000Y-125917847D01*
X146030327Y-125707808D01*
X145686799Y-125565162D01*
X145581963Y-125565071D01*
X145543117Y-125471057D01*
X145280327Y-125207808D01*
X144936799Y-125065162D01*
X144564833Y-125064838D01*
X144221057Y-125206883D01*
X143957808Y-125469673D01*
X143815162Y-125813201D01*
X143815121Y-125860077D01*
X143712599Y-125962599D01*
X143547852Y-126209161D01*
X143501041Y-126444494D01*
X143471057Y-126456883D01*
X143207808Y-126719673D01*
X143065162Y-127063201D01*
X143064838Y-127435167D01*
X143206883Y-127778943D01*
X143469673Y-128042192D01*
X143813201Y-128184838D01*
X143990000Y-128184992D01*
X143990000Y-128685198D01*
X141935009Y-130740189D01*
X141935162Y-130564833D01*
X141793117Y-130221057D01*
X141760000Y-130187882D01*
X141760000Y-128385010D01*
X141974775Y-128385197D01*
X142392086Y-128212767D01*
X142711645Y-127893765D01*
X142884803Y-127476756D01*
X142885197Y-127025225D01*
X142712767Y-126607914D01*
X142635000Y-126530011D01*
X142635000Y-119866580D01*
X146866579Y-115635000D01*
X148242891Y-115635000D01*
X148007808Y-115869673D01*
G36*
X157765000Y-121977000D02*
X157892385Y-122363410D01*
X158157947Y-122671658D01*
X158439774Y-122808646D01*
X158374210Y-122874210D01*
X158374208Y-122874213D01*
X154883523Y-126364897D01*
X154775225Y-126364803D01*
X154357914Y-126537233D01*
X154038355Y-126856235D01*
X154010000Y-126924521D01*
X154010000Y-126064802D01*
X155037401Y-125037401D01*
X155202148Y-124790839D01*
X155260000Y-124500000D01*
X155260000Y-121935009D01*
X155435167Y-121935162D01*
X155750351Y-121804931D01*
X156063201Y-121934838D01*
X156435167Y-121935162D01*
X156750351Y-121804931D01*
X157063201Y-121934838D01*
X157435167Y-121935162D01*
X157765000Y-121798878D01*
X157765000Y-121977000D01*
X157765000Y-121977000D01*
G37*
X157765000Y-121977000D02*
X157892385Y-122363410D01*
X158157947Y-122671658D01*
X158439774Y-122808646D01*
X158374210Y-122874210D01*
X158374208Y-122874213D01*
X154883523Y-126364897D01*
X154775225Y-126364803D01*
X154357914Y-126537233D01*
X154038355Y-126856235D01*
X154010000Y-126924521D01*
X154010000Y-126064802D01*
X155037401Y-125037401D01*
X155202148Y-124790839D01*
X155260000Y-124500000D01*
X155260000Y-121935009D01*
X155435167Y-121935162D01*
X155750351Y-121804931D01*
X156063201Y-121934838D01*
X156435167Y-121935162D01*
X156750351Y-121804931D01*
X157063201Y-121934838D01*
X157435167Y-121935162D01*
X157765000Y-121798878D01*
X157765000Y-121977000D01*
G36*
X150869673Y-119792192D02*
X151213201Y-119934838D01*
X151260077Y-119934879D01*
X153040000Y-121714802D01*
X153040000Y-121815034D01*
X152814833Y-121814838D01*
X152471057Y-121956883D01*
X152375063Y-122052710D01*
X152280327Y-121957808D01*
X151936799Y-121815162D01*
X151564833Y-121814838D01*
X151221057Y-121956883D01*
X150957808Y-122219673D01*
X150815162Y-122563201D01*
X150815121Y-122610077D01*
X149962599Y-123462599D01*
X149797852Y-123709161D01*
X149760000Y-123899454D01*
X149760000Y-120814802D01*
X150826179Y-119748623D01*
X150869673Y-119792192D01*
X150869673Y-119792192D01*
G37*
X150869673Y-119792192D02*
X151213201Y-119934838D01*
X151260077Y-119934879D01*
X153040000Y-121714802D01*
X153040000Y-121815034D01*
X152814833Y-121814838D01*
X152471057Y-121956883D01*
X152375063Y-122052710D01*
X152280327Y-121957808D01*
X151936799Y-121815162D01*
X151564833Y-121814838D01*
X151221057Y-121956883D01*
X150957808Y-122219673D01*
X150815162Y-122563201D01*
X150815121Y-122610077D01*
X149962599Y-123462599D01*
X149797852Y-123709161D01*
X149760000Y-123899454D01*
X149760000Y-120814802D01*
X150826179Y-119748623D01*
X150869673Y-119792192D01*
G36*
X164490000Y-118437537D02*
X164457808Y-118469673D01*
X164315162Y-118813201D01*
X164314838Y-119185167D01*
X164456883Y-119528943D01*
X164542790Y-119615000D01*
X162866579Y-119615000D01*
X162758971Y-119507392D01*
X162833349Y-119396077D01*
X162912134Y-119000000D01*
X162833349Y-118603923D01*
X162608990Y-118268144D01*
X162273211Y-118043785D01*
X161877134Y-117965000D01*
X161122866Y-117965000D01*
X160726789Y-118043785D01*
X160391010Y-118268144D01*
X160166651Y-118603923D01*
X160087866Y-119000000D01*
X160166651Y-119396077D01*
X160391010Y-119731856D01*
X160615000Y-119881520D01*
X160615000Y-120633421D01*
X159835000Y-121413420D01*
X159835000Y-121023000D01*
X159707615Y-120636590D01*
X159442053Y-120328342D01*
X159086123Y-120155334D01*
X158927000Y-120283002D01*
X158927000Y-121373000D01*
X158947000Y-121373000D01*
X158947000Y-121627000D01*
X158927000Y-121627000D01*
X158927000Y-121647000D01*
X158673000Y-121647000D01*
X158673000Y-121627000D01*
X158653000Y-121627000D01*
X158653000Y-121373000D01*
X158673000Y-121373000D01*
X158673000Y-120283002D01*
X158513877Y-120155334D01*
X158510000Y-120157219D01*
X158510000Y-119814802D01*
X164139680Y-114185122D01*
X164185167Y-114185162D01*
X164490000Y-114059208D01*
X164490000Y-118437537D01*
X164490000Y-118437537D01*
G37*
X164490000Y-118437537D02*
X164457808Y-118469673D01*
X164315162Y-118813201D01*
X164314838Y-119185167D01*
X164456883Y-119528943D01*
X164542790Y-119615000D01*
X162866579Y-119615000D01*
X162758971Y-119507392D01*
X162833349Y-119396077D01*
X162912134Y-119000000D01*
X162833349Y-118603923D01*
X162608990Y-118268144D01*
X162273211Y-118043785D01*
X161877134Y-117965000D01*
X161122866Y-117965000D01*
X160726789Y-118043785D01*
X160391010Y-118268144D01*
X160166651Y-118603923D01*
X160087866Y-119000000D01*
X160166651Y-119396077D01*
X160391010Y-119731856D01*
X160615000Y-119881520D01*
X160615000Y-120633421D01*
X159835000Y-121413420D01*
X159835000Y-121023000D01*
X159707615Y-120636590D01*
X159442053Y-120328342D01*
X159086123Y-120155334D01*
X158927000Y-120283002D01*
X158927000Y-121373000D01*
X158947000Y-121373000D01*
X158947000Y-121627000D01*
X158927000Y-121627000D01*
X158927000Y-121647000D01*
X158673000Y-121647000D01*
X158673000Y-121627000D01*
X158653000Y-121627000D01*
X158653000Y-121373000D01*
X158673000Y-121373000D01*
X158673000Y-120283002D01*
X158513877Y-120155334D01*
X158510000Y-120157219D01*
X158510000Y-119814802D01*
X164139680Y-114185122D01*
X164185167Y-114185162D01*
X164490000Y-114059208D01*
X164490000Y-118437537D01*
M02*
