G04 #@! TF.FileFunction,Legend,Top*
%FSLAX46Y46*%
G04 Gerber Fmt 4.6, Leading zero omitted, Abs format (unit mm)*
G04 Created by KiCad (PCBNEW 4.0.4-stable) date Sat Dec  3 20:50:57 2016*
%MOMM*%
%LPD*%
G01*
G04 APERTURE LIST*
%ADD10C,0.100000*%
%ADD11C,0.150000*%
%ADD12C,0.129462*%
G04 APERTURE END LIST*
D10*
D11*
X183700000Y-127150000D02*
X183700000Y-129050000D01*
X184800000Y-127150000D02*
X184800000Y-129050000D01*
X184250000Y-128050000D02*
X184250000Y-128500000D01*
X184500000Y-128000000D02*
X184000000Y-128000000D01*
X184250000Y-128000000D02*
X184500000Y-128250000D01*
X184500000Y-128250000D02*
X184000000Y-128250000D01*
X184000000Y-128250000D02*
X184250000Y-128000000D01*
X174700000Y-126400000D02*
X174700000Y-128300000D01*
X175800000Y-126400000D02*
X175800000Y-128300000D01*
X175250000Y-127300000D02*
X175250000Y-127750000D01*
X175500000Y-127250000D02*
X175000000Y-127250000D01*
X175250000Y-127250000D02*
X175500000Y-127500000D01*
X175500000Y-127500000D02*
X175000000Y-127500000D01*
X175000000Y-127500000D02*
X175250000Y-127250000D01*
X165700000Y-125900000D02*
X165700000Y-127800000D01*
X166800000Y-125900000D02*
X166800000Y-127800000D01*
X166250000Y-126800000D02*
X166250000Y-127250000D01*
X166500000Y-126750000D02*
X166000000Y-126750000D01*
X166250000Y-126750000D02*
X166500000Y-127000000D01*
X166500000Y-127000000D02*
X166000000Y-127000000D01*
X166000000Y-127000000D02*
X166250000Y-126750000D01*
X156700000Y-125150000D02*
X156700000Y-127050000D01*
X157800000Y-125150000D02*
X157800000Y-127050000D01*
X157250000Y-126050000D02*
X157250000Y-126500000D01*
X157500000Y-126000000D02*
X157000000Y-126000000D01*
X157250000Y-126000000D02*
X157500000Y-126250000D01*
X157500000Y-126250000D02*
X157000000Y-126250000D01*
X157000000Y-126250000D02*
X157250000Y-126000000D01*
X147700000Y-124650000D02*
X147700000Y-126550000D01*
X148800000Y-124650000D02*
X148800000Y-126550000D01*
X148250000Y-125550000D02*
X148250000Y-126000000D01*
X148500000Y-125500000D02*
X148000000Y-125500000D01*
X148250000Y-125500000D02*
X148500000Y-125750000D01*
X148500000Y-125750000D02*
X148000000Y-125750000D01*
X148000000Y-125750000D02*
X148250000Y-125500000D01*
X138700000Y-123900000D02*
X138700000Y-125800000D01*
X139800000Y-123900000D02*
X139800000Y-125800000D01*
X139250000Y-124800000D02*
X139250000Y-125250000D01*
X139500000Y-124750000D02*
X139000000Y-124750000D01*
X139250000Y-124750000D02*
X139500000Y-125000000D01*
X139500000Y-125000000D02*
X139000000Y-125000000D01*
X139000000Y-125000000D02*
X139250000Y-124750000D01*
X129700000Y-123150000D02*
X129700000Y-125050000D01*
X130800000Y-123150000D02*
X130800000Y-125050000D01*
X130250000Y-124050000D02*
X130250000Y-124500000D01*
X130500000Y-124000000D02*
X130000000Y-124000000D01*
X130250000Y-124000000D02*
X130500000Y-124250000D01*
X130500000Y-124250000D02*
X130000000Y-124250000D01*
X130000000Y-124250000D02*
X130250000Y-124000000D01*
X185200000Y-116900000D02*
X185200000Y-118800000D01*
X186300000Y-116900000D02*
X186300000Y-118800000D01*
X185750000Y-117800000D02*
X185750000Y-118250000D01*
X186000000Y-117750000D02*
X185500000Y-117750000D01*
X185750000Y-117750000D02*
X186000000Y-118000000D01*
X186000000Y-118000000D02*
X185500000Y-118000000D01*
X185500000Y-118000000D02*
X185750000Y-117750000D01*
X175700000Y-116150000D02*
X175700000Y-118050000D01*
X176800000Y-116150000D02*
X176800000Y-118050000D01*
X176250000Y-117050000D02*
X176250000Y-117500000D01*
X176500000Y-117000000D02*
X176000000Y-117000000D01*
X176250000Y-117000000D02*
X176500000Y-117250000D01*
X176500000Y-117250000D02*
X176000000Y-117250000D01*
X176000000Y-117250000D02*
X176250000Y-117000000D01*
X166200000Y-115650000D02*
X166200000Y-117550000D01*
X167300000Y-115650000D02*
X167300000Y-117550000D01*
X166750000Y-116550000D02*
X166750000Y-117000000D01*
X167000000Y-116500000D02*
X166500000Y-116500000D01*
X166750000Y-116500000D02*
X167000000Y-116750000D01*
X167000000Y-116750000D02*
X166500000Y-116750000D01*
X166500000Y-116750000D02*
X166750000Y-116500000D01*
X156700000Y-114900000D02*
X156700000Y-116800000D01*
X157800000Y-114900000D02*
X157800000Y-116800000D01*
X157250000Y-115800000D02*
X157250000Y-116250000D01*
X157500000Y-115750000D02*
X157000000Y-115750000D01*
X157250000Y-115750000D02*
X157500000Y-116000000D01*
X157500000Y-116000000D02*
X157000000Y-116000000D01*
X157000000Y-116000000D02*
X157250000Y-115750000D01*
X147200000Y-114400000D02*
X147200000Y-116300000D01*
X148300000Y-114400000D02*
X148300000Y-116300000D01*
X147750000Y-115300000D02*
X147750000Y-115750000D01*
X148000000Y-115250000D02*
X147500000Y-115250000D01*
X147750000Y-115250000D02*
X148000000Y-115500000D01*
X148000000Y-115500000D02*
X147500000Y-115500000D01*
X147500000Y-115500000D02*
X147750000Y-115250000D01*
X137700000Y-113650000D02*
X137700000Y-115550000D01*
X138800000Y-113650000D02*
X138800000Y-115550000D01*
X138250000Y-114550000D02*
X138250000Y-115000000D01*
X138500000Y-114500000D02*
X138000000Y-114500000D01*
X138250000Y-114500000D02*
X138500000Y-114750000D01*
X138500000Y-114750000D02*
X138000000Y-114750000D01*
X138000000Y-114750000D02*
X138250000Y-114500000D01*
X179200000Y-104650000D02*
X179200000Y-106550000D01*
X180300000Y-104650000D02*
X180300000Y-106550000D01*
X179750000Y-105550000D02*
X179750000Y-106000000D01*
X180000000Y-105500000D02*
X179500000Y-105500000D01*
X179750000Y-105500000D02*
X180000000Y-105750000D01*
X180000000Y-105750000D02*
X179500000Y-105750000D01*
X179500000Y-105750000D02*
X179750000Y-105500000D01*
X170200000Y-103900000D02*
X170200000Y-105800000D01*
X171300000Y-103900000D02*
X171300000Y-105800000D01*
X170750000Y-104800000D02*
X170750000Y-105250000D01*
X171000000Y-104750000D02*
X170500000Y-104750000D01*
X170750000Y-104750000D02*
X171000000Y-105000000D01*
X171000000Y-105000000D02*
X170500000Y-105000000D01*
X170500000Y-105000000D02*
X170750000Y-104750000D01*
X161200000Y-103400000D02*
X161200000Y-105300000D01*
X162300000Y-103400000D02*
X162300000Y-105300000D01*
X161750000Y-104300000D02*
X161750000Y-104750000D01*
X162000000Y-104250000D02*
X161500000Y-104250000D01*
X161750000Y-104250000D02*
X162000000Y-104500000D01*
X162000000Y-104500000D02*
X161500000Y-104500000D01*
X161500000Y-104500000D02*
X161750000Y-104250000D01*
X152200000Y-102650000D02*
X152200000Y-104550000D01*
X153300000Y-102650000D02*
X153300000Y-104550000D01*
X152750000Y-103550000D02*
X152750000Y-104000000D01*
X153000000Y-103500000D02*
X152500000Y-103500000D01*
X152750000Y-103500000D02*
X153000000Y-103750000D01*
X153000000Y-103750000D02*
X152500000Y-103750000D01*
X152500000Y-103750000D02*
X152750000Y-103500000D01*
X143200000Y-102150000D02*
X143200000Y-104050000D01*
X144300000Y-102150000D02*
X144300000Y-104050000D01*
X143750000Y-103050000D02*
X143750000Y-103500000D01*
X144000000Y-103000000D02*
X143500000Y-103000000D01*
X143750000Y-103000000D02*
X144000000Y-103250000D01*
X144000000Y-103250000D02*
X143500000Y-103250000D01*
X143500000Y-103250000D02*
X143750000Y-103000000D01*
X174450000Y-93150000D02*
X174450000Y-95050000D01*
X175550000Y-93150000D02*
X175550000Y-95050000D01*
X175000000Y-94050000D02*
X175000000Y-94500000D01*
X175250000Y-94000000D02*
X174750000Y-94000000D01*
X175000000Y-94000000D02*
X175250000Y-94250000D01*
X175250000Y-94250000D02*
X174750000Y-94250000D01*
X174750000Y-94250000D02*
X175000000Y-94000000D01*
X160450000Y-91150000D02*
X160450000Y-93050000D01*
X161550000Y-91150000D02*
X161550000Y-93050000D01*
X161000000Y-92050000D02*
X161000000Y-92500000D01*
X161250000Y-92000000D02*
X160750000Y-92000000D01*
X161000000Y-92000000D02*
X161250000Y-92250000D01*
X161250000Y-92250000D02*
X160750000Y-92250000D01*
X160750000Y-92250000D02*
X161000000Y-92000000D01*
X148700000Y-89650000D02*
X148700000Y-91550000D01*
X149800000Y-89650000D02*
X149800000Y-91550000D01*
X149250000Y-90550000D02*
X149250000Y-91000000D01*
X149500000Y-90500000D02*
X149000000Y-90500000D01*
X149250000Y-90500000D02*
X149500000Y-90750000D01*
X149500000Y-90750000D02*
X149000000Y-90750000D01*
X149000000Y-90750000D02*
X149250000Y-90500000D01*
X166700000Y-82150000D02*
X166700000Y-84050000D01*
X167800000Y-82150000D02*
X167800000Y-84050000D01*
X167250000Y-83050000D02*
X167250000Y-83500000D01*
X167500000Y-83000000D02*
X167000000Y-83000000D01*
X167250000Y-83000000D02*
X167500000Y-83250000D01*
X167500000Y-83250000D02*
X167000000Y-83250000D01*
X167000000Y-83250000D02*
X167250000Y-83000000D01*
X152450000Y-80150000D02*
X152450000Y-82050000D01*
X153550000Y-80150000D02*
X153550000Y-82050000D01*
X153000000Y-81050000D02*
X153000000Y-81500000D01*
X153250000Y-81000000D02*
X152750000Y-81000000D01*
X153000000Y-81000000D02*
X153250000Y-81250000D01*
X153250000Y-81250000D02*
X152750000Y-81250000D01*
X152750000Y-81250000D02*
X153000000Y-81000000D01*
X160450000Y-59400000D02*
X160450000Y-61300000D01*
X161550000Y-59400000D02*
X161550000Y-61300000D01*
X161000000Y-60300000D02*
X161000000Y-60750000D01*
X161250000Y-60250000D02*
X160750000Y-60250000D01*
X161000000Y-60250000D02*
X161250000Y-60500000D01*
X161250000Y-60500000D02*
X160750000Y-60500000D01*
X160750000Y-60500000D02*
X161000000Y-60250000D01*
X137775000Y-134700000D02*
X142225000Y-134700000D01*
X136250000Y-127800000D02*
X142225000Y-127800000D01*
X147775000Y-134700000D02*
X152225000Y-134700000D01*
X146250000Y-127800000D02*
X152225000Y-127800000D01*
X168775000Y-136450000D02*
X173225000Y-136450000D01*
X167250000Y-129550000D02*
X173225000Y-129550000D01*
X192700000Y-127650000D02*
X192700000Y-129550000D01*
X193800000Y-127650000D02*
X193800000Y-129550000D01*
X193250000Y-128550000D02*
X193250000Y-129000000D01*
X193500000Y-128500000D02*
X193000000Y-128500000D01*
X193250000Y-128500000D02*
X193500000Y-128750000D01*
X193500000Y-128750000D02*
X193000000Y-128750000D01*
X193000000Y-128750000D02*
X193250000Y-128500000D01*
X183575000Y-126000000D02*
X183575000Y-125000000D01*
X184925000Y-125000000D02*
X184925000Y-126000000D01*
X174575000Y-125250000D02*
X174575000Y-124250000D01*
X175925000Y-124250000D02*
X175925000Y-125250000D01*
X165575000Y-124750000D02*
X165575000Y-123750000D01*
X166925000Y-123750000D02*
X166925000Y-124750000D01*
X156575000Y-124000000D02*
X156575000Y-123000000D01*
X157925000Y-123000000D02*
X157925000Y-124000000D01*
X148500000Y-123125000D02*
X149500000Y-123125000D01*
X149500000Y-124475000D02*
X148500000Y-124475000D01*
X138575000Y-122750000D02*
X138575000Y-121750000D01*
X139925000Y-121750000D02*
X139925000Y-122750000D01*
X131750000Y-122825000D02*
X132750000Y-122825000D01*
X132750000Y-124175000D02*
X131750000Y-124175000D01*
X185075000Y-115750000D02*
X185075000Y-114750000D01*
X186425000Y-114750000D02*
X186425000Y-115750000D01*
X175575000Y-115000000D02*
X175575000Y-114000000D01*
X176925000Y-114000000D02*
X176925000Y-115000000D01*
X166075000Y-114500000D02*
X166075000Y-113500000D01*
X167425000Y-113500000D02*
X167425000Y-114500000D01*
X156575000Y-113750000D02*
X156575000Y-112750000D01*
X157925000Y-112750000D02*
X157925000Y-113750000D01*
X147075000Y-113250000D02*
X147075000Y-112250000D01*
X148425000Y-112250000D02*
X148425000Y-113250000D01*
X138500000Y-111825000D02*
X139500000Y-111825000D01*
X139500000Y-113175000D02*
X138500000Y-113175000D01*
X179075000Y-103500000D02*
X179075000Y-102500000D01*
X180425000Y-102500000D02*
X180425000Y-103500000D01*
X170075000Y-102750000D02*
X170075000Y-101750000D01*
X171425000Y-101750000D02*
X171425000Y-102750000D01*
X161075000Y-102250000D02*
X161075000Y-101250000D01*
X162425000Y-101250000D02*
X162425000Y-102250000D01*
X152075000Y-101500000D02*
X152075000Y-100500000D01*
X153425000Y-100500000D02*
X153425000Y-101500000D01*
X144000000Y-100325000D02*
X145000000Y-100325000D01*
X145000000Y-101675000D02*
X144000000Y-101675000D01*
X174325000Y-92000000D02*
X174325000Y-91000000D01*
X175675000Y-91000000D02*
X175675000Y-92000000D01*
X160325000Y-90000000D02*
X160325000Y-89000000D01*
X161675000Y-89000000D02*
X161675000Y-90000000D01*
X149500000Y-87825000D02*
X150500000Y-87825000D01*
X150500000Y-89175000D02*
X149500000Y-89175000D01*
X153250000Y-78575000D02*
X154250000Y-78575000D01*
X154250000Y-79925000D02*
X153250000Y-79925000D01*
X160500000Y-61825000D02*
X161500000Y-61825000D01*
X161500000Y-63175000D02*
X160500000Y-63175000D01*
X166575000Y-81000000D02*
X166575000Y-80000000D01*
X167925000Y-80000000D02*
X167925000Y-81000000D01*
X192575000Y-126500000D02*
X192575000Y-125500000D01*
X193925000Y-125500000D02*
X193925000Y-126500000D01*
X157100000Y-134950000D02*
X162900000Y-134950000D01*
X157100000Y-128550000D02*
X155300000Y-128550000D01*
X157100000Y-128550000D02*
X162900000Y-128550000D01*
X156800000Y-133050000D02*
X156800000Y-130450000D01*
X163200000Y-133050000D02*
X163200000Y-130450000D01*
X161750000Y-131750000D02*
G75*
G03X161750000Y-131750000I-1750000J0D01*
G01*
X162900000Y-140800000D02*
X157100000Y-140800000D01*
X162900000Y-147200000D02*
X164700000Y-147200000D01*
X162900000Y-147200000D02*
X157100000Y-147200000D01*
X163200000Y-142700000D02*
X163200000Y-145300000D01*
X156800000Y-142700000D02*
X156800000Y-145300000D01*
X161750000Y-144000000D02*
G75*
G03X161750000Y-144000000I-1750000J0D01*
G01*
X156900000Y-135900000D02*
X157600000Y-135900000D01*
X157600000Y-137100000D02*
X156900000Y-137100000D01*
X164100000Y-137100000D02*
X163400000Y-137100000D01*
X163400000Y-135900000D02*
X164100000Y-135900000D01*
X143600000Y-125900000D02*
X143600000Y-126600000D01*
X142400000Y-126600000D02*
X142400000Y-125900000D01*
X153600000Y-125900000D02*
X153600000Y-126600000D01*
X152400000Y-126600000D02*
X152400000Y-125900000D01*
X176400000Y-131100000D02*
X176400000Y-130400000D01*
X177600000Y-130400000D02*
X177600000Y-131100000D01*
X156950000Y-137050000D02*
G75*
G03X156950000Y-137050000I-100000J0D01*
G01*
X157500000Y-137300000D02*
X157000000Y-137300000D01*
X157500000Y-140200000D02*
X157500000Y-137300000D01*
X157000000Y-140200000D02*
X157500000Y-140200000D01*
X157000000Y-137300000D02*
X157000000Y-140200000D01*
X163500000Y-137700000D02*
X162450000Y-137700000D01*
X162450000Y-139800000D02*
X163500000Y-139800000D01*
X164160780Y-140080960D02*
X164770380Y-140080960D01*
X164770380Y-140080960D02*
X164780540Y-139649160D01*
D12*
X162272168Y-147194605D02*
X164339957Y-146953679D01*
X164339957Y-146953679D02*
X165513446Y-146730972D01*
X165513446Y-146730972D02*
X165188985Y-145055505D01*
X165188985Y-145055505D02*
X164741936Y-142939886D01*
X164741936Y-142939886D02*
X164330973Y-140712543D01*
X164330973Y-140712543D02*
X164045394Y-138857646D01*
X164045394Y-138857646D02*
X163845547Y-137735639D01*
X163845547Y-137735639D02*
X162872018Y-138042838D01*
X162872018Y-138042838D02*
X160905401Y-138699676D01*
X160905401Y-138699676D02*
X159120642Y-138875181D01*
X159120642Y-138875181D02*
X157501490Y-138718341D01*
X157501490Y-138718341D02*
X156140248Y-138158412D01*
X156140248Y-138158412D02*
X155597984Y-137959225D01*
X155597984Y-137959225D02*
X155504539Y-138722781D01*
X155504539Y-138722781D02*
X155419865Y-140442794D01*
X155419865Y-140442794D02*
X155219754Y-142793065D01*
X155219754Y-142793065D02*
X154985073Y-144823426D01*
X154985073Y-144823426D02*
X154782309Y-146342986D01*
X154782309Y-146342986D02*
X157110945Y-147034667D01*
X157110945Y-147034667D02*
X159622301Y-147279343D01*
X159622301Y-147279343D02*
X162272168Y-147194605D01*
X172491325Y-138038118D02*
X174647672Y-137016013D01*
X174647672Y-137016013D02*
X176569775Y-135272349D01*
X176569775Y-135272349D02*
X177241901Y-134633669D01*
X177241901Y-134633669D02*
X179677098Y-135624281D01*
X179677098Y-135624281D02*
X181320503Y-136081313D01*
X181320503Y-136081313D02*
X182831836Y-136188432D01*
X182831836Y-136188432D02*
X184825557Y-135910493D01*
X184825557Y-135910493D02*
X186367512Y-135131383D01*
X186367512Y-135131383D02*
X187834784Y-133927747D01*
X187834784Y-133927747D02*
X189263008Y-132270182D01*
X189263008Y-132270182D02*
X190059471Y-131211823D01*
X190059471Y-131211823D02*
X190744135Y-131455916D01*
X190744135Y-131455916D02*
X193487892Y-132167842D01*
X193487892Y-132167842D02*
X195838205Y-132008427D01*
X195838205Y-132008427D02*
X197671793Y-130858280D01*
X197671793Y-130858280D02*
X199357406Y-128543687D01*
X199357406Y-128543687D02*
X199813905Y-127633543D01*
X199813905Y-127633543D02*
X199052637Y-127416162D01*
X199052637Y-127416162D02*
X196810852Y-126715898D01*
X196810852Y-126715898D02*
X194473999Y-125807998D01*
X194473999Y-125807998D02*
X193097919Y-125211116D01*
X193097919Y-125211116D02*
X191271293Y-125913857D01*
X191271293Y-125913857D02*
X188657584Y-126872197D01*
X188657584Y-126872197D02*
X186038443Y-127738909D01*
X186038443Y-127738909D02*
X183415149Y-128513885D01*
X183415149Y-128513885D02*
X180788980Y-129197017D01*
X180788980Y-129197017D02*
X178161214Y-129788197D01*
X178161214Y-129788197D02*
X175533131Y-130287315D01*
X175533131Y-130287315D02*
X172906010Y-130694266D01*
X172906010Y-130694266D02*
X170281129Y-131008939D01*
X170281129Y-131008939D02*
X167659767Y-131231227D01*
X167659767Y-131231227D02*
X165043202Y-131361023D01*
X165043202Y-131361023D02*
X162432714Y-131398216D01*
X162432714Y-131398216D02*
X159829581Y-131342700D01*
X159829581Y-131342700D02*
X157235082Y-131194367D01*
X157235082Y-131194367D02*
X154650496Y-130953107D01*
X154650496Y-130953107D02*
X152077101Y-130618813D01*
X152077101Y-130618813D02*
X149516177Y-130191378D01*
X149516177Y-130191378D02*
X146969002Y-129670691D01*
X146969002Y-129670691D02*
X145299209Y-129297938D01*
X145299209Y-129297938D02*
X144946630Y-129567122D01*
X144946630Y-129567122D02*
X143187906Y-130151450D01*
X143187906Y-130151450D02*
X141636728Y-129695279D01*
X141636728Y-129695279D02*
X140590971Y-128388746D01*
X140590971Y-128388746D02*
X139836252Y-127650269D01*
X139836252Y-127650269D02*
X137742165Y-126891566D01*
X137742165Y-126891566D02*
X135418487Y-125933713D01*
X135418487Y-125933713D02*
X133180121Y-124913202D01*
X133180121Y-124913202D02*
X131341974Y-123966527D01*
X131341974Y-123966527D02*
X130412277Y-123442479D01*
X130412277Y-123442479D02*
X129450073Y-124012926D01*
X129450073Y-124012926D02*
X127608295Y-125023996D01*
X127608295Y-125023996D02*
X125526861Y-126038275D01*
X125526861Y-126038275D02*
X123528743Y-126898574D01*
X123528743Y-126898574D02*
X121733727Y-127628022D01*
X121733727Y-127628022D02*
X122849671Y-129262076D01*
X122849671Y-129262076D02*
X124387219Y-130556350D01*
X124387219Y-130556350D02*
X126160203Y-131445966D01*
X126160203Y-131445966D02*
X128154250Y-131923734D01*
X128154250Y-131923734D02*
X130031501Y-131924633D01*
X130031501Y-131924633D02*
X132018961Y-131478702D01*
X132018961Y-131478702D02*
X133019789Y-131197253D01*
X133019789Y-131197253D02*
X133559084Y-132105244D01*
X133559084Y-132105244D02*
X134481283Y-133377939D01*
X134481283Y-133377939D02*
X135482070Y-134220466D01*
X135482070Y-134220466D02*
X137000343Y-134729377D01*
X137000343Y-134729377D02*
X138921731Y-134735749D01*
X138921731Y-134735749D02*
X141187243Y-134239611D01*
X141187243Y-134239611D02*
X142157608Y-134100676D01*
X142157608Y-134100676D02*
X143571832Y-135061969D01*
X143571832Y-135061969D02*
X145379925Y-136279715D01*
X145379925Y-136279715D02*
X147335979Y-137004401D01*
X147335979Y-137004401D02*
X149334276Y-137076400D01*
X149334276Y-137076400D02*
X151365329Y-136497067D01*
X151365329Y-136497067D02*
X153419653Y-135267758D01*
X153419653Y-135267758D02*
X154263180Y-134698124D01*
X154263180Y-134698124D02*
X154713544Y-135189139D01*
X154713544Y-135189139D02*
X156144344Y-136645923D01*
X156144344Y-136645923D02*
X157786772Y-137479337D01*
X157786772Y-137479337D02*
X159558587Y-137647429D01*
X159558587Y-137647429D02*
X161249501Y-137288075D01*
X161249501Y-137288075D02*
X163251773Y-136519898D01*
X163251773Y-136519898D02*
X164466150Y-135971038D01*
X164466150Y-135971038D02*
X165383711Y-136523008D01*
X165383711Y-136523008D02*
X167890277Y-137724675D01*
X167890277Y-137724675D02*
X170257435Y-138229230D01*
X170257435Y-138229230D02*
X172491325Y-138038109D01*
X172491325Y-138038109D02*
X172491325Y-138038118D01*
X166692897Y-130045588D02*
X169307098Y-129847334D01*
X169307098Y-129847334D02*
X171884967Y-129567798D01*
X171884967Y-129567798D02*
X174435901Y-129204980D01*
X174435901Y-129204980D02*
X176969301Y-128756884D01*
X176969301Y-128756884D02*
X179494565Y-128221511D01*
X179494565Y-128221511D02*
X182021092Y-127596862D01*
X182021092Y-127596862D02*
X184558281Y-126880941D01*
X184558281Y-126880941D02*
X187115530Y-126071748D01*
X187115530Y-126071748D02*
X189702239Y-125167285D01*
X189702239Y-125167285D02*
X191487061Y-124473193D01*
X191487061Y-124473193D02*
X191022473Y-124108806D01*
X191022473Y-124108806D02*
X188933245Y-122852265D01*
X188933245Y-122852265D02*
X186728917Y-121352469D01*
X186728917Y-121352469D02*
X185459649Y-120422096D01*
X185459649Y-120422096D02*
X184425981Y-120534711D01*
X184425981Y-120534711D02*
X182853544Y-120649201D01*
X182853544Y-120649201D02*
X182005571Y-121173791D01*
X182005571Y-121173791D02*
X181063233Y-122295493D01*
X181063233Y-122295493D02*
X179931748Y-123156445D01*
X179931748Y-123156445D02*
X178623124Y-123637831D01*
X178623124Y-123637831D02*
X177149533Y-123763297D01*
X177149533Y-123763297D02*
X175754711Y-123662296D01*
X175754711Y-123662296D02*
X175010033Y-123915694D01*
X175010033Y-123915694D02*
X173702967Y-124500612D01*
X173702967Y-124500612D02*
X172166311Y-124343853D01*
X172166311Y-124343853D02*
X171541385Y-124399424D01*
X171541385Y-124399424D02*
X169270280Y-125406794D01*
X169270280Y-125406794D02*
X167704926Y-125595292D01*
X167704926Y-125595292D02*
X166011581Y-125272146D01*
X166011581Y-125272146D02*
X163786069Y-124360575D01*
X163786069Y-124360575D02*
X162663664Y-123833974D01*
X162663664Y-123833974D02*
X161589660Y-124348976D01*
X161589660Y-124348976D02*
X159517021Y-125174370D01*
X159517021Y-125174370D02*
X157674381Y-125475030D01*
X157674381Y-125475030D02*
X155327090Y-125176477D01*
X155327090Y-125176477D02*
X152592379Y-123772340D01*
X152592379Y-123772340D02*
X151604021Y-123149844D01*
X151604021Y-123149844D02*
X150461510Y-123496419D01*
X150461510Y-123496419D02*
X148462159Y-123944733D01*
X148462159Y-123944733D02*
X146843862Y-123956003D01*
X146843862Y-123956003D02*
X144739423Y-123274177D01*
X144739423Y-123274177D02*
X142817651Y-121891223D01*
X142817651Y-121891223D02*
X142270333Y-121365561D01*
X142270333Y-121365561D02*
X141371390Y-121535608D01*
X141371390Y-121535608D02*
X139129602Y-121649562D01*
X139129602Y-121649562D02*
X137242203Y-121431935D01*
X137242203Y-121431935D02*
X135428131Y-120848376D01*
X135428131Y-120848376D02*
X134620066Y-120522031D01*
X134620066Y-120522031D02*
X134240173Y-120799973D01*
X134240173Y-120799973D02*
X132756018Y-121864394D01*
X132756018Y-121864394D02*
X131695036Y-122721537D01*
X131695036Y-122721537D02*
X133558751Y-123687614D01*
X133558751Y-123687614D02*
X136346297Y-124973502D01*
X136346297Y-124973502D02*
X138913511Y-125980307D01*
X138913511Y-125980307D02*
X140472432Y-126515188D01*
X140472432Y-126515188D02*
X140712010Y-126061660D01*
X140712010Y-126061660D02*
X141624887Y-125046580D01*
X141624887Y-125046580D02*
X142958920Y-124598193D01*
X142958920Y-124598193D02*
X145155682Y-125353525D01*
X145155682Y-125353525D02*
X145988804Y-127513929D01*
X145988804Y-127513929D02*
X146011520Y-128132515D01*
X146011520Y-128132515D02*
X147801576Y-128565812D01*
X147801576Y-128565812D02*
X151010857Y-129174278D01*
X151010857Y-129174278D02*
X153496030Y-129543052D01*
X153496030Y-129543052D02*
X156082104Y-129842779D01*
X156082104Y-129842779D02*
X158449191Y-130036418D01*
X158449191Y-130036418D02*
X161081612Y-130122135D01*
X161081612Y-130122135D02*
X164125702Y-130125566D01*
X164125702Y-130125566D02*
X166692897Y-130045600D01*
X166692897Y-130045600D02*
X166692897Y-130045588D01*
X143870071Y-128769043D02*
X144731205Y-127478726D01*
X144731205Y-127478726D02*
X144212149Y-126206132D01*
X144212149Y-126206132D02*
X142955474Y-125844412D01*
X142955474Y-125844412D02*
X141841569Y-126646801D01*
X141841569Y-126646801D02*
X142076339Y-128427447D01*
X142076339Y-128427447D02*
X143870071Y-128769043D01*
X169297373Y-124114869D02*
X170351283Y-123645847D01*
X170351283Y-123645847D02*
X170888011Y-123335400D01*
X170888011Y-123335400D02*
X170674130Y-122851137D01*
X170674130Y-122851137D02*
X170493706Y-121277946D01*
X170493706Y-121277946D02*
X171193323Y-119802568D01*
X171193323Y-119802568D02*
X172697906Y-119005349D01*
X172697906Y-119005349D02*
X174432981Y-119193148D01*
X174432981Y-119193148D02*
X175667545Y-120356711D01*
X175667545Y-120356711D02*
X176037235Y-121955290D01*
X176037235Y-121955290D02*
X176234929Y-122468275D01*
X176234929Y-122468275D02*
X177496105Y-122489979D01*
X177496105Y-122489979D02*
X179190038Y-122114147D01*
X179190038Y-122114147D02*
X180347544Y-121249694D01*
X180347544Y-121249694D02*
X181238243Y-120012535D01*
X181238243Y-120012535D02*
X181543554Y-119407703D01*
X181543554Y-119407703D02*
X182372391Y-119407703D01*
X182372391Y-119407703D02*
X185226401Y-119126174D01*
X185226401Y-119126174D02*
X187615875Y-118333176D01*
X187615875Y-118333176D02*
X189094927Y-117366592D01*
X189094927Y-117366592D02*
X190362088Y-116324350D01*
X190362088Y-116324350D02*
X190413596Y-116054903D01*
X190413596Y-116054903D02*
X189392608Y-115732195D01*
X189392608Y-115732195D02*
X187516891Y-115054542D01*
X187516891Y-115054542D02*
X186520160Y-114647944D01*
X186520160Y-114647944D02*
X184727786Y-115113067D01*
X184727786Y-115113067D02*
X182004882Y-115779196D01*
X182004882Y-115779196D02*
X179361671Y-116339678D01*
X179361671Y-116339678D02*
X176733168Y-116806062D01*
X176733168Y-116806062D02*
X174054390Y-117189896D01*
X174054390Y-117189896D02*
X171260352Y-117502726D01*
X171260352Y-117502726D02*
X168796847Y-117655042D01*
X168796847Y-117655042D02*
X165682771Y-117728089D01*
X165682771Y-117728089D02*
X162441189Y-117722765D01*
X162441189Y-117722765D02*
X159595165Y-117639969D01*
X159595165Y-117639969D02*
X157667765Y-117480600D01*
X157667765Y-117480600D02*
X156967191Y-118099601D01*
X156967191Y-118099601D02*
X155206507Y-119578163D01*
X155206507Y-119578163D02*
X153547350Y-119519679D01*
X153547350Y-119519679D02*
X152223207Y-118579596D01*
X152223207Y-118579596D02*
X151682236Y-117075904D01*
X151682236Y-117075904D02*
X151593969Y-116679025D01*
X151593969Y-116679025D02*
X150018508Y-116309653D01*
X150018508Y-116309653D02*
X147196287Y-115638170D01*
X147196287Y-115638170D02*
X144454869Y-114840792D01*
X144454869Y-114840792D02*
X141849928Y-113935294D01*
X141849928Y-113935294D02*
X139437135Y-112939453D01*
X139437135Y-112939453D02*
X138182161Y-112373868D01*
X138182161Y-112373868D02*
X137157455Y-113019150D01*
X137157455Y-113019150D02*
X135549082Y-113945546D01*
X135549082Y-113945546D02*
X133722093Y-114869633D01*
X133722093Y-114869633D02*
X132073977Y-115590328D01*
X132073977Y-115590328D02*
X130915625Y-116109930D01*
X130915625Y-116109930D02*
X131671852Y-116883713D01*
X131671852Y-116883713D02*
X133025935Y-118017463D01*
X133025935Y-118017463D02*
X135288610Y-119401538D01*
X135288610Y-119401538D02*
X137605427Y-120215322D01*
X137605427Y-120215322D02*
X139901725Y-120441926D01*
X139901725Y-120441926D02*
X142102840Y-120064458D01*
X142102840Y-120064458D02*
X142596150Y-119905592D01*
X142596150Y-119905592D02*
X143572371Y-120838397D01*
X143572371Y-120838397D02*
X145447079Y-122216620D01*
X145447079Y-122216620D02*
X146346368Y-122661929D01*
X146346368Y-122661929D02*
X147696890Y-122653018D01*
X147696890Y-122653018D02*
X150378709Y-122218507D01*
X150378709Y-122218507D02*
X151785260Y-121895867D01*
X151785260Y-121895867D02*
X153251220Y-122698327D01*
X153251220Y-122698327D02*
X155555934Y-123925340D01*
X155555934Y-123925340D02*
X157388818Y-124263208D01*
X157388818Y-124263208D02*
X159531168Y-123844541D01*
X159531168Y-123844541D02*
X161932599Y-122760356D01*
X161932599Y-122760356D02*
X162561173Y-122392203D01*
X162561173Y-122392203D02*
X164224887Y-123161021D01*
X164224887Y-123161021D02*
X166058129Y-123957665D01*
X166058129Y-123957665D02*
X167179731Y-124301503D01*
X167179731Y-124301503D02*
X169297373Y-124114857D01*
X169297373Y-124114857D02*
X169297373Y-124114869D01*
X174095440Y-123040338D02*
X174773493Y-121732224D01*
X174773493Y-121732224D02*
X173301407Y-120196080D01*
X173301407Y-120196080D02*
X171725478Y-121749901D01*
X171725478Y-121749901D02*
X172553678Y-123111409D01*
X172553678Y-123111409D02*
X174095440Y-123040338D01*
X155298338Y-118178759D02*
X156013039Y-116876488D01*
X156013039Y-116876488D02*
X155272630Y-115548520D01*
X155272630Y-115548520D02*
X154471374Y-115338685D01*
X154471374Y-115338685D02*
X153145198Y-116110875D01*
X153145198Y-116110875D02*
X152947504Y-117009016D01*
X152947504Y-117009016D02*
X153341414Y-117916068D01*
X153341414Y-117916068D02*
X155298317Y-118178759D01*
X155298317Y-118178759D02*
X155298338Y-118178759D01*
X169100619Y-116406078D02*
X171646097Y-116192405D01*
X171646097Y-116192405D02*
X174261630Y-115887092D01*
X174261630Y-115887092D02*
X176894529Y-115498694D01*
X176894529Y-115498694D02*
X179492108Y-115035766D01*
X179492108Y-115035766D02*
X182001679Y-114506864D01*
X182001679Y-114506864D02*
X184370554Y-113920542D01*
X184370554Y-113920542D02*
X184773092Y-113812512D01*
X184773092Y-113812512D02*
X183957351Y-113349414D01*
X183957351Y-113349414D02*
X181739066Y-111941252D01*
X181739066Y-111941252D02*
X179577623Y-110368016D01*
X179577623Y-110368016D02*
X178595866Y-109581000D01*
X178595866Y-109581000D02*
X177614642Y-109645184D01*
X177614642Y-109645184D02*
X175996236Y-109617819D01*
X175996236Y-109617819D02*
X175359585Y-109526112D01*
X175359585Y-109526112D02*
X174704860Y-110035605D01*
X174704860Y-110035605D02*
X172805243Y-111156817D01*
X172805243Y-111156817D02*
X170809173Y-111627192D01*
X170809173Y-111627192D02*
X168689582Y-111448563D01*
X168689582Y-111448563D02*
X166419405Y-110622762D01*
X166419405Y-110622762D02*
X165607310Y-110226685D01*
X165607310Y-110226685D02*
X164301227Y-110741440D01*
X164301227Y-110741440D02*
X161973144Y-111518596D01*
X161973144Y-111518596D02*
X160218039Y-111762428D01*
X160218039Y-111762428D02*
X158133901Y-111404372D01*
X158133901Y-111404372D02*
X155893600Y-110352380D01*
X155893600Y-110352380D02*
X155262063Y-109968973D01*
X155262063Y-109968973D02*
X154634440Y-110194053D01*
X154634440Y-110194053D02*
X152400092Y-110686751D01*
X152400092Y-110686751D02*
X150099452Y-110607773D01*
X150099452Y-110607773D02*
X147814890Y-109959942D01*
X147814890Y-109959942D02*
X146892346Y-109578037D01*
X146892346Y-109578037D02*
X146473607Y-109766159D01*
X146473607Y-109766159D02*
X145329893Y-109946329D01*
X145329893Y-109946329D02*
X143335776Y-109084728D01*
X143335776Y-109084728D02*
X142958920Y-108691613D01*
X142958920Y-108691613D02*
X142016063Y-109488756D01*
X142016063Y-109488756D02*
X140282154Y-110881549D01*
X140282154Y-110881549D02*
X139490605Y-111548415D01*
X139490605Y-111548415D02*
X140685069Y-112139045D01*
X140685069Y-112139045D02*
X143392862Y-113146198D01*
X143392862Y-113146198D02*
X146300590Y-114081425D01*
X146300590Y-114081425D02*
X148483578Y-114659403D01*
X148483578Y-114659403D02*
X150629955Y-115162909D01*
X150629955Y-115162909D02*
X151827538Y-115377940D01*
X151827538Y-115377940D02*
X152442616Y-114953677D01*
X152442616Y-114953677D02*
X154446621Y-114084610D01*
X154446621Y-114084610D02*
X156459122Y-114918495D01*
X156459122Y-114918495D02*
X157025108Y-115752852D01*
X157025108Y-115752852D02*
X157204809Y-116187640D01*
X157204809Y-116187640D02*
X158033504Y-116261806D01*
X158033504Y-116261806D02*
X159857514Y-116401173D01*
X159857514Y-116401173D02*
X161689870Y-116471978D01*
X161689870Y-116471978D02*
X164193194Y-116499424D01*
X164193194Y-116499424D02*
X166981184Y-116478301D01*
X166981184Y-116478301D02*
X169100619Y-116406102D01*
X169100619Y-116406102D02*
X169100619Y-116406078D01*
X162065308Y-110213063D02*
X164254151Y-109414981D01*
X164254151Y-109414981D02*
X165719632Y-108843459D01*
X165719632Y-108843459D02*
X166733625Y-109362119D01*
X166733625Y-109362119D02*
X168858576Y-110195614D01*
X168858576Y-110195614D02*
X170768931Y-110376831D01*
X170768931Y-110376831D02*
X172550129Y-109898980D01*
X172550129Y-109898980D02*
X174287610Y-108755270D01*
X174287610Y-108755270D02*
X175019064Y-108134791D01*
X175019064Y-108134791D02*
X175464632Y-108261825D01*
X175464632Y-108261825D02*
X177160234Y-108384464D01*
X177160234Y-108384464D02*
X179109405Y-108157453D01*
X179109405Y-108157453D02*
X181062088Y-107514856D01*
X181062088Y-107514856D02*
X182935270Y-106627908D01*
X182935270Y-106627908D02*
X184645318Y-105538251D01*
X184645318Y-105538251D02*
X185812838Y-104651383D01*
X185812838Y-104651383D02*
X185399634Y-104264887D01*
X185399634Y-104264887D02*
X183408363Y-103537460D01*
X183408363Y-103537460D02*
X181204700Y-102478701D01*
X181204700Y-102478701D02*
X179082155Y-101229468D01*
X179082155Y-101229468D02*
X177812351Y-100399030D01*
X177812351Y-100399030D02*
X177221274Y-100697258D01*
X177221274Y-100697258D02*
X175093656Y-101652278D01*
X175093656Y-101652278D02*
X172737940Y-102491964D01*
X172737940Y-102491964D02*
X170204207Y-103202226D01*
X170204207Y-103202226D02*
X167542538Y-103768972D01*
X167542538Y-103768972D02*
X164803014Y-104178110D01*
X164803014Y-104178110D02*
X162752066Y-104331027D01*
X162752066Y-104331027D02*
X160170880Y-104403182D01*
X160170880Y-104403182D02*
X157555468Y-104389063D01*
X157555468Y-104389063D02*
X155401838Y-104283157D01*
X155401838Y-104283157D02*
X152824080Y-103997019D01*
X152824080Y-103997019D02*
X150210487Y-103590624D01*
X150210487Y-103590624D02*
X147618988Y-103075447D01*
X147618988Y-103075447D02*
X145107510Y-102462964D01*
X145107510Y-102462964D02*
X142733981Y-101764648D01*
X142733981Y-101764648D02*
X141482306Y-101361096D01*
X141482306Y-101361096D02*
X140667709Y-101865122D01*
X140667709Y-101865122D02*
X138573315Y-103012770D01*
X138573315Y-103012770D02*
X136415413Y-104020797D01*
X136415413Y-104020797D02*
X135597640Y-104473310D01*
X135597640Y-104473310D02*
X136761185Y-105351888D01*
X136761185Y-105351888D02*
X138509537Y-106386783D01*
X138509537Y-106386783D02*
X140266188Y-107067763D01*
X140266188Y-107067763D02*
X141825508Y-107393219D01*
X141825508Y-107393219D02*
X142558326Y-107450127D01*
X142558326Y-107450127D02*
X142617320Y-106881709D01*
X142617320Y-106881709D02*
X143503876Y-105125606D01*
X143503876Y-105125606D02*
X144852230Y-104419289D01*
X144852230Y-104419289D02*
X147142198Y-104999511D01*
X147142198Y-104999511D02*
X148165052Y-107148048D01*
X148165052Y-107148048D02*
X148011245Y-108197777D01*
X148011245Y-108197777D02*
X147860944Y-108624993D01*
X147860944Y-108624993D02*
X148401647Y-108855594D01*
X148401647Y-108855594D02*
X149919156Y-109315984D01*
X149919156Y-109315984D02*
X151630244Y-109432784D01*
X151630244Y-109432784D02*
X153218414Y-109306419D01*
X153218414Y-109306419D02*
X155040021Y-108661410D01*
X155040021Y-108661410D02*
X156302221Y-109114934D01*
X156302221Y-109114934D02*
X157741278Y-109904279D01*
X157741278Y-109904279D02*
X158965827Y-110374621D01*
X158965827Y-110374621D02*
X160437635Y-110478884D01*
X160437635Y-110478884D02*
X162065308Y-110213063D01*
X146272806Y-108446042D02*
X146697069Y-106384769D01*
X146697069Y-106384769D02*
X145025666Y-105688777D01*
X145025666Y-105688777D02*
X143859010Y-107032480D01*
X143859010Y-107032480D02*
X144578939Y-108491051D01*
X144578939Y-108491051D02*
X146272806Y-108446042D01*
X164596825Y-102937154D02*
X167488337Y-102506198D01*
X167488337Y-102506198D02*
X170185394Y-101924190D01*
X170185394Y-101924190D02*
X172722623Y-101182237D01*
X172722623Y-101182237D02*
X175134647Y-100271447D01*
X175134647Y-100271447D02*
X176416051Y-99702957D01*
X176416051Y-99702957D02*
X176715700Y-99549636D01*
X176715700Y-99549636D02*
X176210253Y-99121323D01*
X176210253Y-99121323D02*
X174564062Y-97642696D01*
X174564062Y-97642696D02*
X173064867Y-96526754D01*
X173064867Y-96526754D02*
X172344464Y-96957090D01*
X172344464Y-96957090D02*
X170124316Y-98064391D01*
X170124316Y-98064391D02*
X168762677Y-97722389D01*
X168762677Y-97722389D02*
X168124536Y-97380803D01*
X168124536Y-97380803D02*
X167566088Y-97589626D01*
X167566088Y-97589626D02*
X165303466Y-97963840D01*
X165303466Y-97963840D02*
X162909350Y-97479871D01*
X162909350Y-97479871D02*
X160480260Y-96157051D01*
X160480260Y-96157051D02*
X159618602Y-95537523D01*
X159618602Y-95537523D02*
X159119769Y-95903855D01*
X159119769Y-95903855D02*
X157145774Y-96894219D01*
X157145774Y-96894219D02*
X154833161Y-97230034D01*
X154833161Y-97230034D02*
X152508153Y-96897533D01*
X152508153Y-96897533D02*
X150636018Y-95944579D01*
X150636018Y-95944579D02*
X150230440Y-95623294D01*
X150230440Y-95623294D02*
X149690607Y-95838719D01*
X149690607Y-95838719D02*
X147708558Y-96372006D01*
X147708558Y-96372006D02*
X146722685Y-97106437D01*
X146722685Y-97106437D02*
X144882148Y-98755159D01*
X144882148Y-98755159D02*
X143334754Y-100022174D01*
X143334754Y-100022174D02*
X142829789Y-100464695D01*
X142829789Y-100464695D02*
X144461192Y-100966207D01*
X144461192Y-100966207D02*
X147019916Y-101648207D01*
X147019916Y-101648207D02*
X149298791Y-102152430D01*
X149298791Y-102152430D02*
X151544277Y-102550985D01*
X151544277Y-102550985D02*
X153907038Y-102867184D01*
X153907038Y-102867184D02*
X156537738Y-103124339D01*
X156537738Y-103124339D02*
X158860465Y-103154615D01*
X158860465Y-103154615D02*
X162185683Y-103077396D01*
X162185683Y-103077396D02*
X164596825Y-102937154D01*
X164596825Y-102937154D02*
X164596825Y-102937154D01*
X170946951Y-96586769D02*
X171456568Y-94495679D01*
X171456568Y-94495679D02*
X169927974Y-93724446D01*
X169927974Y-93724446D02*
X168688511Y-94739443D01*
X168688511Y-94739443D02*
X168612309Y-95639463D01*
X168612309Y-95639463D02*
X169539766Y-96715647D01*
X169539766Y-96715647D02*
X170946951Y-96586769D01*
X167096931Y-96443485D02*
X167380933Y-95936960D01*
X167380933Y-95936960D02*
X167525291Y-94206392D01*
X167525291Y-94206392D02*
X168676002Y-92883252D01*
X168676002Y-92883252D02*
X170391607Y-92475395D01*
X170391607Y-92475395D02*
X172029287Y-93251077D01*
X172029287Y-93251077D02*
X172903439Y-94840237D01*
X172903439Y-94840237D02*
X173356286Y-95304962D01*
X173356286Y-95304962D02*
X174824874Y-95381146D01*
X174824874Y-95381146D02*
X176877655Y-95043205D01*
X176877655Y-95043205D02*
X178796786Y-94227459D01*
X178796786Y-94227459D02*
X180232348Y-93476846D01*
X180232348Y-93476846D02*
X179767761Y-93216912D01*
X179767761Y-93216912D02*
X177956369Y-92486083D01*
X177956369Y-92486083D02*
X176045327Y-91443136D01*
X176045327Y-91443136D02*
X174103739Y-90130328D01*
X174103739Y-90130328D02*
X172200710Y-88589916D01*
X172200710Y-88589916D02*
X171797616Y-88234783D01*
X171797616Y-88234783D02*
X170909180Y-88595452D01*
X170909180Y-88595452D02*
X168575871Y-89457909D01*
X168575871Y-89457909D02*
X166142662Y-90193179D01*
X166142662Y-90193179D02*
X163623440Y-90797492D01*
X163623440Y-90797492D02*
X161032094Y-91267080D01*
X161032094Y-91267080D02*
X158719971Y-91449378D01*
X158719971Y-91449378D02*
X155796803Y-91488486D01*
X155796803Y-91488486D02*
X153400444Y-91368966D01*
X153400444Y-91368966D02*
X150803435Y-90935015D01*
X150803435Y-90935015D02*
X148582839Y-90303070D01*
X148582839Y-90303070D02*
X146381306Y-90423226D01*
X146381306Y-90423226D02*
X144669498Y-91554400D01*
X144669498Y-91554400D02*
X142938062Y-92530068D01*
X142938062Y-92530068D02*
X141421352Y-93217921D01*
X141421352Y-93217921D02*
X140923872Y-93405106D01*
X140923872Y-93405106D02*
X141421352Y-93715818D01*
X141421352Y-93715818D02*
X142756662Y-94408805D01*
X142756662Y-94408805D02*
X144202420Y-94940175D01*
X144202420Y-94940175D02*
X146361683Y-95175294D01*
X146361683Y-95175294D02*
X148272989Y-94997816D01*
X148272989Y-94997816D02*
X149917646Y-94337911D01*
X149917646Y-94337911D02*
X150682471Y-94164809D01*
X150682471Y-94164809D02*
X152102508Y-95390192D01*
X152102508Y-95390192D02*
X154105651Y-95946263D01*
X154105651Y-95946263D02*
X156228034Y-95856796D01*
X156228034Y-95856796D02*
X157656891Y-95306023D01*
X157656891Y-95306023D02*
X158944655Y-94401418D01*
X158944655Y-94401418D02*
X159640310Y-93764231D01*
X159640310Y-93764231D02*
X160286546Y-94368650D01*
X160286546Y-94368650D02*
X162062655Y-95690881D01*
X162062655Y-95690881D02*
X163955579Y-96531875D01*
X163955579Y-96531875D02*
X165578496Y-96642434D01*
X165578496Y-96642434D02*
X167096931Y-96443485D01*
X159549017Y-90166384D02*
X162092071Y-89815569D01*
X162092071Y-89815569D02*
X164700258Y-89277482D01*
X164700258Y-89277482D02*
X166597273Y-88748538D01*
X166597273Y-88748538D02*
X168756479Y-88061434D01*
X168756479Y-88061434D02*
X170323100Y-87488211D01*
X170323100Y-87488211D02*
X170832045Y-87268132D01*
X170832045Y-87268132D02*
X170317979Y-86729983D01*
X170317979Y-86729983D02*
X168761726Y-84972872D01*
X168761726Y-84972872D02*
X167781056Y-84474981D01*
X167781056Y-84474981D02*
X166525403Y-84014316D01*
X166525403Y-84014316D02*
X165933110Y-83763675D01*
X165933110Y-83763675D02*
X165270169Y-84128324D01*
X165270169Y-84128324D02*
X163474186Y-84976785D01*
X163474186Y-84976785D02*
X161468305Y-85427624D01*
X161468305Y-85427624D02*
X159501140Y-85424906D01*
X159501140Y-85424906D02*
X158219737Y-85562116D01*
X158219737Y-85562116D02*
X156321963Y-86003033D01*
X156321963Y-86003033D02*
X154494735Y-85026812D01*
X154494735Y-85026812D02*
X154092661Y-84737274D01*
X154092661Y-84737274D02*
X153077251Y-84900253D01*
X153077251Y-84900253D02*
X152201907Y-85008599D01*
X152201907Y-85008599D02*
X151718583Y-85548503D01*
X151718583Y-85548503D02*
X149806591Y-87496700D01*
X149806591Y-87496700D02*
X148377440Y-88904602D01*
X148377440Y-88904602D02*
X148660985Y-89020242D01*
X148660985Y-89020242D02*
X150802230Y-89651661D01*
X150802230Y-89651661D02*
X153438266Y-90118522D01*
X153438266Y-90118522D02*
X155303384Y-90235055D01*
X155303384Y-90235055D02*
X157628748Y-90253306D01*
X157628748Y-90253306D02*
X159549017Y-90166384D01*
X157329285Y-84626754D02*
X158145714Y-82901671D01*
X158145714Y-82901671D02*
X156641237Y-81697874D01*
X156641237Y-81697874D02*
X155328628Y-82397505D01*
X155328628Y-82397505D02*
X155290713Y-83903386D01*
X155290713Y-83903386D02*
X157329285Y-84626754D01*
X162499677Y-83964876D02*
X164008042Y-83373630D01*
X164008042Y-83373630D02*
X165359032Y-82523601D01*
X165359032Y-82523601D02*
X165863402Y-82106421D01*
X165863402Y-82106421D02*
X166185834Y-82352130D01*
X166185834Y-82352130D02*
X167899204Y-83202495D01*
X167899204Y-83202495D02*
X170072267Y-83485598D01*
X170072267Y-83485598D02*
X171595669Y-83388355D01*
X171595669Y-83388355D02*
X173153056Y-83023040D01*
X173153056Y-83023040D02*
X173908794Y-82799592D01*
X173908794Y-82799592D02*
X172774252Y-82259224D01*
X172774252Y-82259224D02*
X171112269Y-81361954D01*
X171112269Y-81361954D02*
X169600728Y-80274538D01*
X169600728Y-80274538D02*
X167939383Y-78780937D01*
X167939383Y-78780937D02*
X166630330Y-77770994D01*
X166630330Y-77770994D02*
X164636979Y-77473612D01*
X164636979Y-77473612D02*
X162020799Y-76931113D01*
X162020799Y-76931113D02*
X159067130Y-75997825D01*
X159067130Y-75997825D02*
X157115931Y-74946965D01*
X157115931Y-74946965D02*
X156712312Y-74628577D01*
X156712312Y-74628577D02*
X156547982Y-74877847D01*
X156547982Y-74877847D02*
X155020129Y-76809612D01*
X155020129Y-76809612D02*
X152994483Y-78929406D01*
X152994483Y-78929406D02*
X151090012Y-80589567D01*
X151090012Y-80589567D02*
X149227062Y-81815088D01*
X149227062Y-81815088D02*
X147771667Y-82575662D01*
X147771667Y-82575662D02*
X148789094Y-83184944D01*
X148789094Y-83184944D02*
X150863661Y-83665778D01*
X150863661Y-83665778D02*
X152835048Y-83658159D01*
X152835048Y-83658159D02*
X153852075Y-83533683D01*
X153852075Y-83533683D02*
X153852075Y-83150210D01*
X153852075Y-83150210D02*
X154578890Y-81355746D01*
X154578890Y-81355746D02*
X156596003Y-80436329D01*
X156596003Y-80436329D02*
X158629361Y-81266470D01*
X158629361Y-81266470D02*
X159413825Y-83443257D01*
X159413825Y-83443257D02*
X159373031Y-84167170D01*
X159373031Y-84167170D02*
X159737680Y-84211679D01*
X159737680Y-84211679D02*
X162499677Y-83964876D01*
X164868568Y-75092752D02*
X163406266Y-72802758D01*
X163406266Y-72802758D02*
X162051677Y-70306889D01*
X162051677Y-70306889D02*
X161553798Y-69299375D01*
X161553798Y-69299375D02*
X160699208Y-69299375D01*
X160699208Y-69299375D02*
X159844151Y-69387109D01*
X159844151Y-69387109D02*
X159205679Y-70648053D01*
X159205679Y-70648053D02*
X158070444Y-72595613D01*
X158070444Y-72595613D02*
X157461509Y-73566783D01*
X157461509Y-73566783D02*
X157683009Y-73802853D01*
X157683009Y-73802853D02*
X159338335Y-74739452D01*
X159338335Y-74739452D02*
X162154171Y-75665890D01*
X162154171Y-75665890D02*
X164312024Y-76140263D01*
X164312024Y-76140263D02*
X165714647Y-76372000D01*
X165714647Y-76372000D02*
X164868568Y-75092752D01*
X162117354Y-68000378D02*
X161699027Y-65449236D01*
X161699027Y-65449236D02*
X161311583Y-62783669D01*
X161311583Y-62783669D02*
X162452742Y-63207447D01*
X162452742Y-63207447D02*
X163564638Y-63685181D01*
X163564638Y-63685181D02*
X163342668Y-62170811D01*
X163342668Y-62170811D02*
X163119606Y-60775850D01*
X163119606Y-60775850D02*
X164167979Y-59749325D01*
X164167979Y-59749325D02*
X165216756Y-58659548D01*
X165216756Y-58659548D02*
X163847564Y-58406824D01*
X163847564Y-58406824D02*
X162315602Y-58132933D01*
X162315602Y-58132933D02*
X161545706Y-56752208D01*
X161545706Y-56752208D02*
X160881796Y-55458196D01*
X160881796Y-55458196D02*
X160211422Y-56756795D01*
X160211422Y-56756795D02*
X159436472Y-58134491D01*
X159436472Y-58134491D02*
X157906939Y-58406824D01*
X157906939Y-58406824D02*
X156537738Y-58665682D01*
X156537738Y-58665682D02*
X157570948Y-59727617D01*
X157570948Y-59727617D02*
X158604077Y-60938358D01*
X158604077Y-60938358D02*
X158390735Y-62392107D01*
X158390735Y-62392107D02*
X158210167Y-63707356D01*
X158210167Y-63707356D02*
X159353271Y-63196316D01*
X159353271Y-63196316D02*
X160464077Y-62801799D01*
X160464077Y-62801799D02*
X160117389Y-65144783D01*
X160117389Y-65144783D02*
X159680634Y-67775368D01*
X159680634Y-67775368D02*
X159621034Y-68059385D01*
X159621034Y-68059385D02*
X160869257Y-68059385D01*
X160869257Y-68059385D02*
X162117354Y-68000378D01*
D11*
X186202381Y-128988095D02*
X185202381Y-128988095D01*
X185202381Y-128750000D01*
X185250000Y-128607142D01*
X185345238Y-128511904D01*
X185440476Y-128464285D01*
X185630952Y-128416666D01*
X185773810Y-128416666D01*
X185964286Y-128464285D01*
X186059524Y-128511904D01*
X186154762Y-128607142D01*
X186202381Y-128750000D01*
X186202381Y-128988095D01*
X185297619Y-128035714D02*
X185250000Y-127988095D01*
X185202381Y-127892857D01*
X185202381Y-127654761D01*
X185250000Y-127559523D01*
X185297619Y-127511904D01*
X185392857Y-127464285D01*
X185488095Y-127464285D01*
X185630952Y-127511904D01*
X186202381Y-128083333D01*
X186202381Y-127464285D01*
X177202381Y-128238095D02*
X176202381Y-128238095D01*
X176202381Y-128000000D01*
X176250000Y-127857142D01*
X176345238Y-127761904D01*
X176440476Y-127714285D01*
X176630952Y-127666666D01*
X176773810Y-127666666D01*
X176964286Y-127714285D01*
X177059524Y-127761904D01*
X177154762Y-127857142D01*
X177202381Y-128000000D01*
X177202381Y-128238095D01*
X176202381Y-127333333D02*
X176202381Y-126714285D01*
X176583333Y-127047619D01*
X176583333Y-126904761D01*
X176630952Y-126809523D01*
X176678571Y-126761904D01*
X176773810Y-126714285D01*
X177011905Y-126714285D01*
X177107143Y-126761904D01*
X177154762Y-126809523D01*
X177202381Y-126904761D01*
X177202381Y-127190476D01*
X177154762Y-127285714D01*
X177107143Y-127333333D01*
X168202381Y-127738095D02*
X167202381Y-127738095D01*
X167202381Y-127500000D01*
X167250000Y-127357142D01*
X167345238Y-127261904D01*
X167440476Y-127214285D01*
X167630952Y-127166666D01*
X167773810Y-127166666D01*
X167964286Y-127214285D01*
X168059524Y-127261904D01*
X168154762Y-127357142D01*
X168202381Y-127500000D01*
X168202381Y-127738095D01*
X167535714Y-126309523D02*
X168202381Y-126309523D01*
X167154762Y-126547619D02*
X167869048Y-126785714D01*
X167869048Y-126166666D01*
X159202381Y-126988095D02*
X158202381Y-126988095D01*
X158202381Y-126750000D01*
X158250000Y-126607142D01*
X158345238Y-126511904D01*
X158440476Y-126464285D01*
X158630952Y-126416666D01*
X158773810Y-126416666D01*
X158964286Y-126464285D01*
X159059524Y-126511904D01*
X159154762Y-126607142D01*
X159202381Y-126750000D01*
X159202381Y-126988095D01*
X158202381Y-125511904D02*
X158202381Y-125988095D01*
X158678571Y-126035714D01*
X158630952Y-125988095D01*
X158583333Y-125892857D01*
X158583333Y-125654761D01*
X158630952Y-125559523D01*
X158678571Y-125511904D01*
X158773810Y-125464285D01*
X159011905Y-125464285D01*
X159107143Y-125511904D01*
X159154762Y-125559523D01*
X159202381Y-125654761D01*
X159202381Y-125892857D01*
X159154762Y-125988095D01*
X159107143Y-126035714D01*
X147452381Y-126488095D02*
X146452381Y-126488095D01*
X146452381Y-126250000D01*
X146500000Y-126107142D01*
X146595238Y-126011904D01*
X146690476Y-125964285D01*
X146880952Y-125916666D01*
X147023810Y-125916666D01*
X147214286Y-125964285D01*
X147309524Y-126011904D01*
X147404762Y-126107142D01*
X147452381Y-126250000D01*
X147452381Y-126488095D01*
X146452381Y-125059523D02*
X146452381Y-125250000D01*
X146500000Y-125345238D01*
X146547619Y-125392857D01*
X146690476Y-125488095D01*
X146880952Y-125535714D01*
X147261905Y-125535714D01*
X147357143Y-125488095D01*
X147404762Y-125440476D01*
X147452381Y-125345238D01*
X147452381Y-125154761D01*
X147404762Y-125059523D01*
X147357143Y-125011904D01*
X147261905Y-124964285D01*
X147023810Y-124964285D01*
X146928571Y-125011904D01*
X146880952Y-125059523D01*
X146833333Y-125154761D01*
X146833333Y-125345238D01*
X146880952Y-125440476D01*
X146928571Y-125488095D01*
X147023810Y-125535714D01*
X141202381Y-125738095D02*
X140202381Y-125738095D01*
X140202381Y-125500000D01*
X140250000Y-125357142D01*
X140345238Y-125261904D01*
X140440476Y-125214285D01*
X140630952Y-125166666D01*
X140773810Y-125166666D01*
X140964286Y-125214285D01*
X141059524Y-125261904D01*
X141154762Y-125357142D01*
X141202381Y-125500000D01*
X141202381Y-125738095D01*
X140202381Y-124833333D02*
X140202381Y-124166666D01*
X141202381Y-124595238D01*
X129452381Y-124988095D02*
X128452381Y-124988095D01*
X128452381Y-124750000D01*
X128500000Y-124607142D01*
X128595238Y-124511904D01*
X128690476Y-124464285D01*
X128880952Y-124416666D01*
X129023810Y-124416666D01*
X129214286Y-124464285D01*
X129309524Y-124511904D01*
X129404762Y-124607142D01*
X129452381Y-124750000D01*
X129452381Y-124988095D01*
X128880952Y-123845238D02*
X128833333Y-123940476D01*
X128785714Y-123988095D01*
X128690476Y-124035714D01*
X128642857Y-124035714D01*
X128547619Y-123988095D01*
X128500000Y-123940476D01*
X128452381Y-123845238D01*
X128452381Y-123654761D01*
X128500000Y-123559523D01*
X128547619Y-123511904D01*
X128642857Y-123464285D01*
X128690476Y-123464285D01*
X128785714Y-123511904D01*
X128833333Y-123559523D01*
X128880952Y-123654761D01*
X128880952Y-123845238D01*
X128928571Y-123940476D01*
X128976190Y-123988095D01*
X129071429Y-124035714D01*
X129261905Y-124035714D01*
X129357143Y-123988095D01*
X129404762Y-123940476D01*
X129452381Y-123845238D01*
X129452381Y-123654761D01*
X129404762Y-123559523D01*
X129357143Y-123511904D01*
X129261905Y-123464285D01*
X129071429Y-123464285D01*
X128976190Y-123511904D01*
X128928571Y-123559523D01*
X128880952Y-123654761D01*
X187702381Y-118738095D02*
X186702381Y-118738095D01*
X186702381Y-118500000D01*
X186750000Y-118357142D01*
X186845238Y-118261904D01*
X186940476Y-118214285D01*
X187130952Y-118166666D01*
X187273810Y-118166666D01*
X187464286Y-118214285D01*
X187559524Y-118261904D01*
X187654762Y-118357142D01*
X187702381Y-118500000D01*
X187702381Y-118738095D01*
X187702381Y-117690476D02*
X187702381Y-117500000D01*
X187654762Y-117404761D01*
X187607143Y-117357142D01*
X187464286Y-117261904D01*
X187273810Y-117214285D01*
X186892857Y-117214285D01*
X186797619Y-117261904D01*
X186750000Y-117309523D01*
X186702381Y-117404761D01*
X186702381Y-117595238D01*
X186750000Y-117690476D01*
X186797619Y-117738095D01*
X186892857Y-117785714D01*
X187130952Y-117785714D01*
X187226190Y-117738095D01*
X187273810Y-117690476D01*
X187321429Y-117595238D01*
X187321429Y-117404761D01*
X187273810Y-117309523D01*
X187226190Y-117261904D01*
X187130952Y-117214285D01*
X178202381Y-118464286D02*
X177202381Y-118464286D01*
X177202381Y-118226191D01*
X177250000Y-118083333D01*
X177345238Y-117988095D01*
X177440476Y-117940476D01*
X177630952Y-117892857D01*
X177773810Y-117892857D01*
X177964286Y-117940476D01*
X178059524Y-117988095D01*
X178154762Y-118083333D01*
X178202381Y-118226191D01*
X178202381Y-118464286D01*
X178202381Y-116940476D02*
X178202381Y-117511905D01*
X178202381Y-117226191D02*
X177202381Y-117226191D01*
X177345238Y-117321429D01*
X177440476Y-117416667D01*
X177488095Y-117511905D01*
X177202381Y-116321429D02*
X177202381Y-116226190D01*
X177250000Y-116130952D01*
X177297619Y-116083333D01*
X177392857Y-116035714D01*
X177583333Y-115988095D01*
X177821429Y-115988095D01*
X178011905Y-116035714D01*
X178107143Y-116083333D01*
X178154762Y-116130952D01*
X178202381Y-116226190D01*
X178202381Y-116321429D01*
X178154762Y-116416667D01*
X178107143Y-116464286D01*
X178011905Y-116511905D01*
X177821429Y-116559524D01*
X177583333Y-116559524D01*
X177392857Y-116511905D01*
X177297619Y-116464286D01*
X177250000Y-116416667D01*
X177202381Y-116321429D01*
X168702381Y-117964286D02*
X167702381Y-117964286D01*
X167702381Y-117726191D01*
X167750000Y-117583333D01*
X167845238Y-117488095D01*
X167940476Y-117440476D01*
X168130952Y-117392857D01*
X168273810Y-117392857D01*
X168464286Y-117440476D01*
X168559524Y-117488095D01*
X168654762Y-117583333D01*
X168702381Y-117726191D01*
X168702381Y-117964286D01*
X168702381Y-116440476D02*
X168702381Y-117011905D01*
X168702381Y-116726191D02*
X167702381Y-116726191D01*
X167845238Y-116821429D01*
X167940476Y-116916667D01*
X167988095Y-117011905D01*
X168702381Y-115488095D02*
X168702381Y-116059524D01*
X168702381Y-115773810D02*
X167702381Y-115773810D01*
X167845238Y-115869048D01*
X167940476Y-115964286D01*
X167988095Y-116059524D01*
X159202381Y-117214286D02*
X158202381Y-117214286D01*
X158202381Y-116976191D01*
X158250000Y-116833333D01*
X158345238Y-116738095D01*
X158440476Y-116690476D01*
X158630952Y-116642857D01*
X158773810Y-116642857D01*
X158964286Y-116690476D01*
X159059524Y-116738095D01*
X159154762Y-116833333D01*
X159202381Y-116976191D01*
X159202381Y-117214286D01*
X159202381Y-115690476D02*
X159202381Y-116261905D01*
X159202381Y-115976191D02*
X158202381Y-115976191D01*
X158345238Y-116071429D01*
X158440476Y-116166667D01*
X158488095Y-116261905D01*
X158297619Y-115309524D02*
X158250000Y-115261905D01*
X158202381Y-115166667D01*
X158202381Y-114928571D01*
X158250000Y-114833333D01*
X158297619Y-114785714D01*
X158392857Y-114738095D01*
X158488095Y-114738095D01*
X158630952Y-114785714D01*
X159202381Y-115357143D01*
X159202381Y-114738095D01*
X149702381Y-116714286D02*
X148702381Y-116714286D01*
X148702381Y-116476191D01*
X148750000Y-116333333D01*
X148845238Y-116238095D01*
X148940476Y-116190476D01*
X149130952Y-116142857D01*
X149273810Y-116142857D01*
X149464286Y-116190476D01*
X149559524Y-116238095D01*
X149654762Y-116333333D01*
X149702381Y-116476191D01*
X149702381Y-116714286D01*
X149702381Y-115190476D02*
X149702381Y-115761905D01*
X149702381Y-115476191D02*
X148702381Y-115476191D01*
X148845238Y-115571429D01*
X148940476Y-115666667D01*
X148988095Y-115761905D01*
X148702381Y-114857143D02*
X148702381Y-114238095D01*
X149083333Y-114571429D01*
X149083333Y-114428571D01*
X149130952Y-114333333D01*
X149178571Y-114285714D01*
X149273810Y-114238095D01*
X149511905Y-114238095D01*
X149607143Y-114285714D01*
X149654762Y-114333333D01*
X149702381Y-114428571D01*
X149702381Y-114714286D01*
X149654762Y-114809524D01*
X149607143Y-114857143D01*
X140202381Y-115964286D02*
X139202381Y-115964286D01*
X139202381Y-115726191D01*
X139250000Y-115583333D01*
X139345238Y-115488095D01*
X139440476Y-115440476D01*
X139630952Y-115392857D01*
X139773810Y-115392857D01*
X139964286Y-115440476D01*
X140059524Y-115488095D01*
X140154762Y-115583333D01*
X140202381Y-115726191D01*
X140202381Y-115964286D01*
X140202381Y-114440476D02*
X140202381Y-115011905D01*
X140202381Y-114726191D02*
X139202381Y-114726191D01*
X139345238Y-114821429D01*
X139440476Y-114916667D01*
X139488095Y-115011905D01*
X139535714Y-113583333D02*
X140202381Y-113583333D01*
X139154762Y-113821429D02*
X139869048Y-114059524D01*
X139869048Y-113440476D01*
X181702381Y-106964286D02*
X180702381Y-106964286D01*
X180702381Y-106726191D01*
X180750000Y-106583333D01*
X180845238Y-106488095D01*
X180940476Y-106440476D01*
X181130952Y-106392857D01*
X181273810Y-106392857D01*
X181464286Y-106440476D01*
X181559524Y-106488095D01*
X181654762Y-106583333D01*
X181702381Y-106726191D01*
X181702381Y-106964286D01*
X181702381Y-105440476D02*
X181702381Y-106011905D01*
X181702381Y-105726191D02*
X180702381Y-105726191D01*
X180845238Y-105821429D01*
X180940476Y-105916667D01*
X180988095Y-106011905D01*
X180702381Y-104535714D02*
X180702381Y-105011905D01*
X181178571Y-105059524D01*
X181130952Y-105011905D01*
X181083333Y-104916667D01*
X181083333Y-104678571D01*
X181130952Y-104583333D01*
X181178571Y-104535714D01*
X181273810Y-104488095D01*
X181511905Y-104488095D01*
X181607143Y-104535714D01*
X181654762Y-104583333D01*
X181702381Y-104678571D01*
X181702381Y-104916667D01*
X181654762Y-105011905D01*
X181607143Y-105059524D01*
X172702381Y-106214286D02*
X171702381Y-106214286D01*
X171702381Y-105976191D01*
X171750000Y-105833333D01*
X171845238Y-105738095D01*
X171940476Y-105690476D01*
X172130952Y-105642857D01*
X172273810Y-105642857D01*
X172464286Y-105690476D01*
X172559524Y-105738095D01*
X172654762Y-105833333D01*
X172702381Y-105976191D01*
X172702381Y-106214286D01*
X172702381Y-104690476D02*
X172702381Y-105261905D01*
X172702381Y-104976191D02*
X171702381Y-104976191D01*
X171845238Y-105071429D01*
X171940476Y-105166667D01*
X171988095Y-105261905D01*
X171702381Y-103833333D02*
X171702381Y-104023810D01*
X171750000Y-104119048D01*
X171797619Y-104166667D01*
X171940476Y-104261905D01*
X172130952Y-104309524D01*
X172511905Y-104309524D01*
X172607143Y-104261905D01*
X172654762Y-104214286D01*
X172702381Y-104119048D01*
X172702381Y-103928571D01*
X172654762Y-103833333D01*
X172607143Y-103785714D01*
X172511905Y-103738095D01*
X172273810Y-103738095D01*
X172178571Y-103785714D01*
X172130952Y-103833333D01*
X172083333Y-103928571D01*
X172083333Y-104119048D01*
X172130952Y-104214286D01*
X172178571Y-104261905D01*
X172273810Y-104309524D01*
X163702381Y-105714286D02*
X162702381Y-105714286D01*
X162702381Y-105476191D01*
X162750000Y-105333333D01*
X162845238Y-105238095D01*
X162940476Y-105190476D01*
X163130952Y-105142857D01*
X163273810Y-105142857D01*
X163464286Y-105190476D01*
X163559524Y-105238095D01*
X163654762Y-105333333D01*
X163702381Y-105476191D01*
X163702381Y-105714286D01*
X163702381Y-104190476D02*
X163702381Y-104761905D01*
X163702381Y-104476191D02*
X162702381Y-104476191D01*
X162845238Y-104571429D01*
X162940476Y-104666667D01*
X162988095Y-104761905D01*
X162702381Y-103857143D02*
X162702381Y-103190476D01*
X163702381Y-103619048D01*
X154702381Y-104964286D02*
X153702381Y-104964286D01*
X153702381Y-104726191D01*
X153750000Y-104583333D01*
X153845238Y-104488095D01*
X153940476Y-104440476D01*
X154130952Y-104392857D01*
X154273810Y-104392857D01*
X154464286Y-104440476D01*
X154559524Y-104488095D01*
X154654762Y-104583333D01*
X154702381Y-104726191D01*
X154702381Y-104964286D01*
X154702381Y-103440476D02*
X154702381Y-104011905D01*
X154702381Y-103726191D02*
X153702381Y-103726191D01*
X153845238Y-103821429D01*
X153940476Y-103916667D01*
X153988095Y-104011905D01*
X154130952Y-102869048D02*
X154083333Y-102964286D01*
X154035714Y-103011905D01*
X153940476Y-103059524D01*
X153892857Y-103059524D01*
X153797619Y-103011905D01*
X153750000Y-102964286D01*
X153702381Y-102869048D01*
X153702381Y-102678571D01*
X153750000Y-102583333D01*
X153797619Y-102535714D01*
X153892857Y-102488095D01*
X153940476Y-102488095D01*
X154035714Y-102535714D01*
X154083333Y-102583333D01*
X154130952Y-102678571D01*
X154130952Y-102869048D01*
X154178571Y-102964286D01*
X154226190Y-103011905D01*
X154321429Y-103059524D01*
X154511905Y-103059524D01*
X154607143Y-103011905D01*
X154654762Y-102964286D01*
X154702381Y-102869048D01*
X154702381Y-102678571D01*
X154654762Y-102583333D01*
X154607143Y-102535714D01*
X154511905Y-102488095D01*
X154321429Y-102488095D01*
X154226190Y-102535714D01*
X154178571Y-102583333D01*
X154130952Y-102678571D01*
X145702381Y-104464286D02*
X144702381Y-104464286D01*
X144702381Y-104226191D01*
X144750000Y-104083333D01*
X144845238Y-103988095D01*
X144940476Y-103940476D01*
X145130952Y-103892857D01*
X145273810Y-103892857D01*
X145464286Y-103940476D01*
X145559524Y-103988095D01*
X145654762Y-104083333D01*
X145702381Y-104226191D01*
X145702381Y-104464286D01*
X145702381Y-102940476D02*
X145702381Y-103511905D01*
X145702381Y-103226191D02*
X144702381Y-103226191D01*
X144845238Y-103321429D01*
X144940476Y-103416667D01*
X144988095Y-103511905D01*
X145702381Y-102464286D02*
X145702381Y-102273810D01*
X145654762Y-102178571D01*
X145607143Y-102130952D01*
X145464286Y-102035714D01*
X145273810Y-101988095D01*
X144892857Y-101988095D01*
X144797619Y-102035714D01*
X144750000Y-102083333D01*
X144702381Y-102178571D01*
X144702381Y-102369048D01*
X144750000Y-102464286D01*
X144797619Y-102511905D01*
X144892857Y-102559524D01*
X145130952Y-102559524D01*
X145226190Y-102511905D01*
X145273810Y-102464286D01*
X145321429Y-102369048D01*
X145321429Y-102178571D01*
X145273810Y-102083333D01*
X145226190Y-102035714D01*
X145130952Y-101988095D01*
X176952381Y-95464286D02*
X175952381Y-95464286D01*
X175952381Y-95226191D01*
X176000000Y-95083333D01*
X176095238Y-94988095D01*
X176190476Y-94940476D01*
X176380952Y-94892857D01*
X176523810Y-94892857D01*
X176714286Y-94940476D01*
X176809524Y-94988095D01*
X176904762Y-95083333D01*
X176952381Y-95226191D01*
X176952381Y-95464286D01*
X176047619Y-94511905D02*
X176000000Y-94464286D01*
X175952381Y-94369048D01*
X175952381Y-94130952D01*
X176000000Y-94035714D01*
X176047619Y-93988095D01*
X176142857Y-93940476D01*
X176238095Y-93940476D01*
X176380952Y-93988095D01*
X176952381Y-94559524D01*
X176952381Y-93940476D01*
X175952381Y-93321429D02*
X175952381Y-93226190D01*
X176000000Y-93130952D01*
X176047619Y-93083333D01*
X176142857Y-93035714D01*
X176333333Y-92988095D01*
X176571429Y-92988095D01*
X176761905Y-93035714D01*
X176857143Y-93083333D01*
X176904762Y-93130952D01*
X176952381Y-93226190D01*
X176952381Y-93321429D01*
X176904762Y-93416667D01*
X176857143Y-93464286D01*
X176761905Y-93511905D01*
X176571429Y-93559524D01*
X176333333Y-93559524D01*
X176142857Y-93511905D01*
X176047619Y-93464286D01*
X176000000Y-93416667D01*
X175952381Y-93321429D01*
X162952381Y-93464286D02*
X161952381Y-93464286D01*
X161952381Y-93226191D01*
X162000000Y-93083333D01*
X162095238Y-92988095D01*
X162190476Y-92940476D01*
X162380952Y-92892857D01*
X162523810Y-92892857D01*
X162714286Y-92940476D01*
X162809524Y-92988095D01*
X162904762Y-93083333D01*
X162952381Y-93226191D01*
X162952381Y-93464286D01*
X162047619Y-92511905D02*
X162000000Y-92464286D01*
X161952381Y-92369048D01*
X161952381Y-92130952D01*
X162000000Y-92035714D01*
X162047619Y-91988095D01*
X162142857Y-91940476D01*
X162238095Y-91940476D01*
X162380952Y-91988095D01*
X162952381Y-92559524D01*
X162952381Y-91940476D01*
X162952381Y-90988095D02*
X162952381Y-91559524D01*
X162952381Y-91273810D02*
X161952381Y-91273810D01*
X162095238Y-91369048D01*
X162190476Y-91464286D01*
X162238095Y-91559524D01*
X151202381Y-91964286D02*
X150202381Y-91964286D01*
X150202381Y-91726191D01*
X150250000Y-91583333D01*
X150345238Y-91488095D01*
X150440476Y-91440476D01*
X150630952Y-91392857D01*
X150773810Y-91392857D01*
X150964286Y-91440476D01*
X151059524Y-91488095D01*
X151154762Y-91583333D01*
X151202381Y-91726191D01*
X151202381Y-91964286D01*
X150297619Y-91011905D02*
X150250000Y-90964286D01*
X150202381Y-90869048D01*
X150202381Y-90630952D01*
X150250000Y-90535714D01*
X150297619Y-90488095D01*
X150392857Y-90440476D01*
X150488095Y-90440476D01*
X150630952Y-90488095D01*
X151202381Y-91059524D01*
X151202381Y-90440476D01*
X150297619Y-90059524D02*
X150250000Y-90011905D01*
X150202381Y-89916667D01*
X150202381Y-89678571D01*
X150250000Y-89583333D01*
X150297619Y-89535714D01*
X150392857Y-89488095D01*
X150488095Y-89488095D01*
X150630952Y-89535714D01*
X151202381Y-90107143D01*
X151202381Y-89488095D01*
X169202381Y-84464286D02*
X168202381Y-84464286D01*
X168202381Y-84226191D01*
X168250000Y-84083333D01*
X168345238Y-83988095D01*
X168440476Y-83940476D01*
X168630952Y-83892857D01*
X168773810Y-83892857D01*
X168964286Y-83940476D01*
X169059524Y-83988095D01*
X169154762Y-84083333D01*
X169202381Y-84226191D01*
X169202381Y-84464286D01*
X168297619Y-83511905D02*
X168250000Y-83464286D01*
X168202381Y-83369048D01*
X168202381Y-83130952D01*
X168250000Y-83035714D01*
X168297619Y-82988095D01*
X168392857Y-82940476D01*
X168488095Y-82940476D01*
X168630952Y-82988095D01*
X169202381Y-83559524D01*
X169202381Y-82940476D01*
X168202381Y-82607143D02*
X168202381Y-81988095D01*
X168583333Y-82321429D01*
X168583333Y-82178571D01*
X168630952Y-82083333D01*
X168678571Y-82035714D01*
X168773810Y-81988095D01*
X169011905Y-81988095D01*
X169107143Y-82035714D01*
X169154762Y-82083333D01*
X169202381Y-82178571D01*
X169202381Y-82464286D01*
X169154762Y-82559524D01*
X169107143Y-82607143D01*
X154952381Y-82464286D02*
X153952381Y-82464286D01*
X153952381Y-82226191D01*
X154000000Y-82083333D01*
X154095238Y-81988095D01*
X154190476Y-81940476D01*
X154380952Y-81892857D01*
X154523810Y-81892857D01*
X154714286Y-81940476D01*
X154809524Y-81988095D01*
X154904762Y-82083333D01*
X154952381Y-82226191D01*
X154952381Y-82464286D01*
X154047619Y-81511905D02*
X154000000Y-81464286D01*
X153952381Y-81369048D01*
X153952381Y-81130952D01*
X154000000Y-81035714D01*
X154047619Y-80988095D01*
X154142857Y-80940476D01*
X154238095Y-80940476D01*
X154380952Y-80988095D01*
X154952381Y-81559524D01*
X154952381Y-80940476D01*
X154285714Y-80083333D02*
X154952381Y-80083333D01*
X153904762Y-80321429D02*
X154619048Y-80559524D01*
X154619048Y-79940476D01*
X162952381Y-61714286D02*
X161952381Y-61714286D01*
X161952381Y-61476191D01*
X162000000Y-61333333D01*
X162095238Y-61238095D01*
X162190476Y-61190476D01*
X162380952Y-61142857D01*
X162523810Y-61142857D01*
X162714286Y-61190476D01*
X162809524Y-61238095D01*
X162904762Y-61333333D01*
X162952381Y-61476191D01*
X162952381Y-61714286D01*
X162047619Y-60761905D02*
X162000000Y-60714286D01*
X161952381Y-60619048D01*
X161952381Y-60380952D01*
X162000000Y-60285714D01*
X162047619Y-60238095D01*
X162142857Y-60190476D01*
X162238095Y-60190476D01*
X162380952Y-60238095D01*
X162952381Y-60809524D01*
X162952381Y-60190476D01*
X161952381Y-59285714D02*
X161952381Y-59761905D01*
X162428571Y-59809524D01*
X162380952Y-59761905D01*
X162333333Y-59666667D01*
X162333333Y-59428571D01*
X162380952Y-59333333D01*
X162428571Y-59285714D01*
X162523810Y-59238095D01*
X162761905Y-59238095D01*
X162857143Y-59285714D01*
X162904762Y-59333333D01*
X162952381Y-59428571D01*
X162952381Y-59666667D01*
X162904762Y-59761905D01*
X162857143Y-59809524D01*
X139238095Y-126402381D02*
X139238095Y-127211905D01*
X139285714Y-127307143D01*
X139333333Y-127354762D01*
X139428571Y-127402381D01*
X139619048Y-127402381D01*
X139714286Y-127354762D01*
X139761905Y-127307143D01*
X139809524Y-127211905D01*
X139809524Y-126402381D01*
X140190476Y-126402381D02*
X140809524Y-126402381D01*
X140476190Y-126783333D01*
X140619048Y-126783333D01*
X140714286Y-126830952D01*
X140761905Y-126878571D01*
X140809524Y-126973810D01*
X140809524Y-127211905D01*
X140761905Y-127307143D01*
X140714286Y-127354762D01*
X140619048Y-127402381D01*
X140333333Y-127402381D01*
X140238095Y-127354762D01*
X140190476Y-127307143D01*
X149238095Y-126402381D02*
X149238095Y-127211905D01*
X149285714Y-127307143D01*
X149333333Y-127354762D01*
X149428571Y-127402381D01*
X149619048Y-127402381D01*
X149714286Y-127354762D01*
X149761905Y-127307143D01*
X149809524Y-127211905D01*
X149809524Y-126402381D01*
X150714286Y-126735714D02*
X150714286Y-127402381D01*
X150476190Y-126354762D02*
X150238095Y-127069048D01*
X150857143Y-127069048D01*
X170238095Y-128152381D02*
X170238095Y-128961905D01*
X170285714Y-129057143D01*
X170333333Y-129104762D01*
X170428571Y-129152381D01*
X170619048Y-129152381D01*
X170714286Y-129104762D01*
X170761905Y-129057143D01*
X170809524Y-128961905D01*
X170809524Y-128152381D01*
X171761905Y-128152381D02*
X171285714Y-128152381D01*
X171238095Y-128628571D01*
X171285714Y-128580952D01*
X171380952Y-128533333D01*
X171619048Y-128533333D01*
X171714286Y-128580952D01*
X171761905Y-128628571D01*
X171809524Y-128723810D01*
X171809524Y-128961905D01*
X171761905Y-129057143D01*
X171714286Y-129104762D01*
X171619048Y-129152381D01*
X171380952Y-129152381D01*
X171285714Y-129104762D01*
X171238095Y-129057143D01*
X195202381Y-129488095D02*
X194202381Y-129488095D01*
X194202381Y-129250000D01*
X194250000Y-129107142D01*
X194345238Y-129011904D01*
X194440476Y-128964285D01*
X194630952Y-128916666D01*
X194773810Y-128916666D01*
X194964286Y-128964285D01*
X195059524Y-129011904D01*
X195154762Y-129107142D01*
X195202381Y-129250000D01*
X195202381Y-129488095D01*
X195202381Y-127964285D02*
X195202381Y-128535714D01*
X195202381Y-128250000D02*
X194202381Y-128250000D01*
X194345238Y-128345238D01*
X194440476Y-128440476D01*
X194488095Y-128535714D01*
X186202381Y-125666666D02*
X185726190Y-126000000D01*
X186202381Y-126238095D02*
X185202381Y-126238095D01*
X185202381Y-125857142D01*
X185250000Y-125761904D01*
X185297619Y-125714285D01*
X185392857Y-125666666D01*
X185535714Y-125666666D01*
X185630952Y-125714285D01*
X185678571Y-125761904D01*
X185726190Y-125857142D01*
X185726190Y-126238095D01*
X185297619Y-125285714D02*
X185250000Y-125238095D01*
X185202381Y-125142857D01*
X185202381Y-124904761D01*
X185250000Y-124809523D01*
X185297619Y-124761904D01*
X185392857Y-124714285D01*
X185488095Y-124714285D01*
X185630952Y-124761904D01*
X186202381Y-125333333D01*
X186202381Y-124714285D01*
X177202381Y-124666666D02*
X176726190Y-125000000D01*
X177202381Y-125238095D02*
X176202381Y-125238095D01*
X176202381Y-124857142D01*
X176250000Y-124761904D01*
X176297619Y-124714285D01*
X176392857Y-124666666D01*
X176535714Y-124666666D01*
X176630952Y-124714285D01*
X176678571Y-124761904D01*
X176726190Y-124857142D01*
X176726190Y-125238095D01*
X176202381Y-124333333D02*
X176202381Y-123714285D01*
X176583333Y-124047619D01*
X176583333Y-123904761D01*
X176630952Y-123809523D01*
X176678571Y-123761904D01*
X176773810Y-123714285D01*
X177011905Y-123714285D01*
X177107143Y-123761904D01*
X177154762Y-123809523D01*
X177202381Y-123904761D01*
X177202381Y-124190476D01*
X177154762Y-124285714D01*
X177107143Y-124333333D01*
X168202381Y-124416666D02*
X167726190Y-124750000D01*
X168202381Y-124988095D02*
X167202381Y-124988095D01*
X167202381Y-124607142D01*
X167250000Y-124511904D01*
X167297619Y-124464285D01*
X167392857Y-124416666D01*
X167535714Y-124416666D01*
X167630952Y-124464285D01*
X167678571Y-124511904D01*
X167726190Y-124607142D01*
X167726190Y-124988095D01*
X167535714Y-123559523D02*
X168202381Y-123559523D01*
X167154762Y-123797619D02*
X167869048Y-124035714D01*
X167869048Y-123416666D01*
X159202381Y-123916666D02*
X158726190Y-124250000D01*
X159202381Y-124488095D02*
X158202381Y-124488095D01*
X158202381Y-124107142D01*
X158250000Y-124011904D01*
X158297619Y-123964285D01*
X158392857Y-123916666D01*
X158535714Y-123916666D01*
X158630952Y-123964285D01*
X158678571Y-124011904D01*
X158726190Y-124107142D01*
X158726190Y-124488095D01*
X158202381Y-123011904D02*
X158202381Y-123488095D01*
X158678571Y-123535714D01*
X158630952Y-123488095D01*
X158583333Y-123392857D01*
X158583333Y-123154761D01*
X158630952Y-123059523D01*
X158678571Y-123011904D01*
X158773810Y-122964285D01*
X159011905Y-122964285D01*
X159107143Y-123011904D01*
X159154762Y-123059523D01*
X159202381Y-123154761D01*
X159202381Y-123392857D01*
X159154762Y-123488095D01*
X159107143Y-123535714D01*
X148833334Y-122702381D02*
X148500000Y-122226190D01*
X148261905Y-122702381D02*
X148261905Y-121702381D01*
X148642858Y-121702381D01*
X148738096Y-121750000D01*
X148785715Y-121797619D01*
X148833334Y-121892857D01*
X148833334Y-122035714D01*
X148785715Y-122130952D01*
X148738096Y-122178571D01*
X148642858Y-122226190D01*
X148261905Y-122226190D01*
X149690477Y-121702381D02*
X149500000Y-121702381D01*
X149404762Y-121750000D01*
X149357143Y-121797619D01*
X149261905Y-121940476D01*
X149214286Y-122130952D01*
X149214286Y-122511905D01*
X149261905Y-122607143D01*
X149309524Y-122654762D01*
X149404762Y-122702381D01*
X149595239Y-122702381D01*
X149690477Y-122654762D01*
X149738096Y-122607143D01*
X149785715Y-122511905D01*
X149785715Y-122273810D01*
X149738096Y-122178571D01*
X149690477Y-122130952D01*
X149595239Y-122083333D01*
X149404762Y-122083333D01*
X149309524Y-122130952D01*
X149261905Y-122178571D01*
X149214286Y-122273810D01*
X141202381Y-122416666D02*
X140726190Y-122750000D01*
X141202381Y-122988095D02*
X140202381Y-122988095D01*
X140202381Y-122607142D01*
X140250000Y-122511904D01*
X140297619Y-122464285D01*
X140392857Y-122416666D01*
X140535714Y-122416666D01*
X140630952Y-122464285D01*
X140678571Y-122511904D01*
X140726190Y-122607142D01*
X140726190Y-122988095D01*
X140202381Y-122083333D02*
X140202381Y-121416666D01*
X141202381Y-121845238D01*
X132083334Y-125452381D02*
X131750000Y-124976190D01*
X131511905Y-125452381D02*
X131511905Y-124452381D01*
X131892858Y-124452381D01*
X131988096Y-124500000D01*
X132035715Y-124547619D01*
X132083334Y-124642857D01*
X132083334Y-124785714D01*
X132035715Y-124880952D01*
X131988096Y-124928571D01*
X131892858Y-124976190D01*
X131511905Y-124976190D01*
X132654762Y-124880952D02*
X132559524Y-124833333D01*
X132511905Y-124785714D01*
X132464286Y-124690476D01*
X132464286Y-124642857D01*
X132511905Y-124547619D01*
X132559524Y-124500000D01*
X132654762Y-124452381D01*
X132845239Y-124452381D01*
X132940477Y-124500000D01*
X132988096Y-124547619D01*
X133035715Y-124642857D01*
X133035715Y-124690476D01*
X132988096Y-124785714D01*
X132940477Y-124833333D01*
X132845239Y-124880952D01*
X132654762Y-124880952D01*
X132559524Y-124928571D01*
X132511905Y-124976190D01*
X132464286Y-125071429D01*
X132464286Y-125261905D01*
X132511905Y-125357143D01*
X132559524Y-125404762D01*
X132654762Y-125452381D01*
X132845239Y-125452381D01*
X132940477Y-125404762D01*
X132988096Y-125357143D01*
X133035715Y-125261905D01*
X133035715Y-125071429D01*
X132988096Y-124976190D01*
X132940477Y-124928571D01*
X132845239Y-124880952D01*
X187702381Y-115416666D02*
X187226190Y-115750000D01*
X187702381Y-115988095D02*
X186702381Y-115988095D01*
X186702381Y-115607142D01*
X186750000Y-115511904D01*
X186797619Y-115464285D01*
X186892857Y-115416666D01*
X187035714Y-115416666D01*
X187130952Y-115464285D01*
X187178571Y-115511904D01*
X187226190Y-115607142D01*
X187226190Y-115988095D01*
X187702381Y-114940476D02*
X187702381Y-114750000D01*
X187654762Y-114654761D01*
X187607143Y-114607142D01*
X187464286Y-114511904D01*
X187273810Y-114464285D01*
X186892857Y-114464285D01*
X186797619Y-114511904D01*
X186750000Y-114559523D01*
X186702381Y-114654761D01*
X186702381Y-114845238D01*
X186750000Y-114940476D01*
X186797619Y-114988095D01*
X186892857Y-115035714D01*
X187130952Y-115035714D01*
X187226190Y-114988095D01*
X187273810Y-114940476D01*
X187321429Y-114845238D01*
X187321429Y-114654761D01*
X187273810Y-114559523D01*
X187226190Y-114511904D01*
X187130952Y-114464285D01*
X178202381Y-115142857D02*
X177726190Y-115476191D01*
X178202381Y-115714286D02*
X177202381Y-115714286D01*
X177202381Y-115333333D01*
X177250000Y-115238095D01*
X177297619Y-115190476D01*
X177392857Y-115142857D01*
X177535714Y-115142857D01*
X177630952Y-115190476D01*
X177678571Y-115238095D01*
X177726190Y-115333333D01*
X177726190Y-115714286D01*
X178202381Y-114190476D02*
X178202381Y-114761905D01*
X178202381Y-114476191D02*
X177202381Y-114476191D01*
X177345238Y-114571429D01*
X177440476Y-114666667D01*
X177488095Y-114761905D01*
X177202381Y-113571429D02*
X177202381Y-113476190D01*
X177250000Y-113380952D01*
X177297619Y-113333333D01*
X177392857Y-113285714D01*
X177583333Y-113238095D01*
X177821429Y-113238095D01*
X178011905Y-113285714D01*
X178107143Y-113333333D01*
X178154762Y-113380952D01*
X178202381Y-113476190D01*
X178202381Y-113571429D01*
X178154762Y-113666667D01*
X178107143Y-113714286D01*
X178011905Y-113761905D01*
X177821429Y-113809524D01*
X177583333Y-113809524D01*
X177392857Y-113761905D01*
X177297619Y-113714286D01*
X177250000Y-113666667D01*
X177202381Y-113571429D01*
X168702381Y-114642857D02*
X168226190Y-114976191D01*
X168702381Y-115214286D02*
X167702381Y-115214286D01*
X167702381Y-114833333D01*
X167750000Y-114738095D01*
X167797619Y-114690476D01*
X167892857Y-114642857D01*
X168035714Y-114642857D01*
X168130952Y-114690476D01*
X168178571Y-114738095D01*
X168226190Y-114833333D01*
X168226190Y-115214286D01*
X168702381Y-113690476D02*
X168702381Y-114261905D01*
X168702381Y-113976191D02*
X167702381Y-113976191D01*
X167845238Y-114071429D01*
X167940476Y-114166667D01*
X167988095Y-114261905D01*
X168702381Y-112738095D02*
X168702381Y-113309524D01*
X168702381Y-113023810D02*
X167702381Y-113023810D01*
X167845238Y-113119048D01*
X167940476Y-113214286D01*
X167988095Y-113309524D01*
X159202381Y-113892857D02*
X158726190Y-114226191D01*
X159202381Y-114464286D02*
X158202381Y-114464286D01*
X158202381Y-114083333D01*
X158250000Y-113988095D01*
X158297619Y-113940476D01*
X158392857Y-113892857D01*
X158535714Y-113892857D01*
X158630952Y-113940476D01*
X158678571Y-113988095D01*
X158726190Y-114083333D01*
X158726190Y-114464286D01*
X159202381Y-112940476D02*
X159202381Y-113511905D01*
X159202381Y-113226191D02*
X158202381Y-113226191D01*
X158345238Y-113321429D01*
X158440476Y-113416667D01*
X158488095Y-113511905D01*
X158297619Y-112559524D02*
X158250000Y-112511905D01*
X158202381Y-112416667D01*
X158202381Y-112178571D01*
X158250000Y-112083333D01*
X158297619Y-112035714D01*
X158392857Y-111988095D01*
X158488095Y-111988095D01*
X158630952Y-112035714D01*
X159202381Y-112607143D01*
X159202381Y-111988095D01*
X149702381Y-113392857D02*
X149226190Y-113726191D01*
X149702381Y-113964286D02*
X148702381Y-113964286D01*
X148702381Y-113583333D01*
X148750000Y-113488095D01*
X148797619Y-113440476D01*
X148892857Y-113392857D01*
X149035714Y-113392857D01*
X149130952Y-113440476D01*
X149178571Y-113488095D01*
X149226190Y-113583333D01*
X149226190Y-113964286D01*
X149702381Y-112440476D02*
X149702381Y-113011905D01*
X149702381Y-112726191D02*
X148702381Y-112726191D01*
X148845238Y-112821429D01*
X148940476Y-112916667D01*
X148988095Y-113011905D01*
X148702381Y-112107143D02*
X148702381Y-111488095D01*
X149083333Y-111821429D01*
X149083333Y-111678571D01*
X149130952Y-111583333D01*
X149178571Y-111535714D01*
X149273810Y-111488095D01*
X149511905Y-111488095D01*
X149607143Y-111535714D01*
X149654762Y-111583333D01*
X149702381Y-111678571D01*
X149702381Y-111964286D01*
X149654762Y-112059524D01*
X149607143Y-112107143D01*
X139607143Y-111452381D02*
X139273809Y-110976190D01*
X139035714Y-111452381D02*
X139035714Y-110452381D01*
X139416667Y-110452381D01*
X139511905Y-110500000D01*
X139559524Y-110547619D01*
X139607143Y-110642857D01*
X139607143Y-110785714D01*
X139559524Y-110880952D01*
X139511905Y-110928571D01*
X139416667Y-110976190D01*
X139035714Y-110976190D01*
X140559524Y-111452381D02*
X139988095Y-111452381D01*
X140273809Y-111452381D02*
X140273809Y-110452381D01*
X140178571Y-110595238D01*
X140083333Y-110690476D01*
X139988095Y-110738095D01*
X141416667Y-110785714D02*
X141416667Y-111452381D01*
X141178571Y-110404762D02*
X140940476Y-111119048D01*
X141559524Y-111119048D01*
X181702381Y-103642857D02*
X181226190Y-103976191D01*
X181702381Y-104214286D02*
X180702381Y-104214286D01*
X180702381Y-103833333D01*
X180750000Y-103738095D01*
X180797619Y-103690476D01*
X180892857Y-103642857D01*
X181035714Y-103642857D01*
X181130952Y-103690476D01*
X181178571Y-103738095D01*
X181226190Y-103833333D01*
X181226190Y-104214286D01*
X181702381Y-102690476D02*
X181702381Y-103261905D01*
X181702381Y-102976191D02*
X180702381Y-102976191D01*
X180845238Y-103071429D01*
X180940476Y-103166667D01*
X180988095Y-103261905D01*
X180702381Y-101785714D02*
X180702381Y-102261905D01*
X181178571Y-102309524D01*
X181130952Y-102261905D01*
X181083333Y-102166667D01*
X181083333Y-101928571D01*
X181130952Y-101833333D01*
X181178571Y-101785714D01*
X181273810Y-101738095D01*
X181511905Y-101738095D01*
X181607143Y-101785714D01*
X181654762Y-101833333D01*
X181702381Y-101928571D01*
X181702381Y-102166667D01*
X181654762Y-102261905D01*
X181607143Y-102309524D01*
X172702381Y-102892857D02*
X172226190Y-103226191D01*
X172702381Y-103464286D02*
X171702381Y-103464286D01*
X171702381Y-103083333D01*
X171750000Y-102988095D01*
X171797619Y-102940476D01*
X171892857Y-102892857D01*
X172035714Y-102892857D01*
X172130952Y-102940476D01*
X172178571Y-102988095D01*
X172226190Y-103083333D01*
X172226190Y-103464286D01*
X172702381Y-101940476D02*
X172702381Y-102511905D01*
X172702381Y-102226191D02*
X171702381Y-102226191D01*
X171845238Y-102321429D01*
X171940476Y-102416667D01*
X171988095Y-102511905D01*
X171702381Y-101083333D02*
X171702381Y-101273810D01*
X171750000Y-101369048D01*
X171797619Y-101416667D01*
X171940476Y-101511905D01*
X172130952Y-101559524D01*
X172511905Y-101559524D01*
X172607143Y-101511905D01*
X172654762Y-101464286D01*
X172702381Y-101369048D01*
X172702381Y-101178571D01*
X172654762Y-101083333D01*
X172607143Y-101035714D01*
X172511905Y-100988095D01*
X172273810Y-100988095D01*
X172178571Y-101035714D01*
X172130952Y-101083333D01*
X172083333Y-101178571D01*
X172083333Y-101369048D01*
X172130952Y-101464286D01*
X172178571Y-101511905D01*
X172273810Y-101559524D01*
X163702381Y-102392857D02*
X163226190Y-102726191D01*
X163702381Y-102964286D02*
X162702381Y-102964286D01*
X162702381Y-102583333D01*
X162750000Y-102488095D01*
X162797619Y-102440476D01*
X162892857Y-102392857D01*
X163035714Y-102392857D01*
X163130952Y-102440476D01*
X163178571Y-102488095D01*
X163226190Y-102583333D01*
X163226190Y-102964286D01*
X163702381Y-101440476D02*
X163702381Y-102011905D01*
X163702381Y-101726191D02*
X162702381Y-101726191D01*
X162845238Y-101821429D01*
X162940476Y-101916667D01*
X162988095Y-102011905D01*
X162702381Y-101107143D02*
X162702381Y-100440476D01*
X163702381Y-100869048D01*
X154702381Y-101642857D02*
X154226190Y-101976191D01*
X154702381Y-102214286D02*
X153702381Y-102214286D01*
X153702381Y-101833333D01*
X153750000Y-101738095D01*
X153797619Y-101690476D01*
X153892857Y-101642857D01*
X154035714Y-101642857D01*
X154130952Y-101690476D01*
X154178571Y-101738095D01*
X154226190Y-101833333D01*
X154226190Y-102214286D01*
X154702381Y-100690476D02*
X154702381Y-101261905D01*
X154702381Y-100976191D02*
X153702381Y-100976191D01*
X153845238Y-101071429D01*
X153940476Y-101166667D01*
X153988095Y-101261905D01*
X154130952Y-100119048D02*
X154083333Y-100214286D01*
X154035714Y-100261905D01*
X153940476Y-100309524D01*
X153892857Y-100309524D01*
X153797619Y-100261905D01*
X153750000Y-100214286D01*
X153702381Y-100119048D01*
X153702381Y-99928571D01*
X153750000Y-99833333D01*
X153797619Y-99785714D01*
X153892857Y-99738095D01*
X153940476Y-99738095D01*
X154035714Y-99785714D01*
X154083333Y-99833333D01*
X154130952Y-99928571D01*
X154130952Y-100119048D01*
X154178571Y-100214286D01*
X154226190Y-100261905D01*
X154321429Y-100309524D01*
X154511905Y-100309524D01*
X154607143Y-100261905D01*
X154654762Y-100214286D01*
X154702381Y-100119048D01*
X154702381Y-99928571D01*
X154654762Y-99833333D01*
X154607143Y-99785714D01*
X154511905Y-99738095D01*
X154321429Y-99738095D01*
X154226190Y-99785714D01*
X154178571Y-99833333D01*
X154130952Y-99928571D01*
X143857143Y-99952381D02*
X143523809Y-99476190D01*
X143285714Y-99952381D02*
X143285714Y-98952381D01*
X143666667Y-98952381D01*
X143761905Y-99000000D01*
X143809524Y-99047619D01*
X143857143Y-99142857D01*
X143857143Y-99285714D01*
X143809524Y-99380952D01*
X143761905Y-99428571D01*
X143666667Y-99476190D01*
X143285714Y-99476190D01*
X144809524Y-99952381D02*
X144238095Y-99952381D01*
X144523809Y-99952381D02*
X144523809Y-98952381D01*
X144428571Y-99095238D01*
X144333333Y-99190476D01*
X144238095Y-99238095D01*
X145285714Y-99952381D02*
X145476190Y-99952381D01*
X145571429Y-99904762D01*
X145619048Y-99857143D01*
X145714286Y-99714286D01*
X145761905Y-99523810D01*
X145761905Y-99142857D01*
X145714286Y-99047619D01*
X145666667Y-99000000D01*
X145571429Y-98952381D01*
X145380952Y-98952381D01*
X145285714Y-99000000D01*
X145238095Y-99047619D01*
X145190476Y-99142857D01*
X145190476Y-99380952D01*
X145238095Y-99476190D01*
X145285714Y-99523810D01*
X145380952Y-99571429D01*
X145571429Y-99571429D01*
X145666667Y-99523810D01*
X145714286Y-99476190D01*
X145761905Y-99380952D01*
X176952381Y-92142857D02*
X176476190Y-92476191D01*
X176952381Y-92714286D02*
X175952381Y-92714286D01*
X175952381Y-92333333D01*
X176000000Y-92238095D01*
X176047619Y-92190476D01*
X176142857Y-92142857D01*
X176285714Y-92142857D01*
X176380952Y-92190476D01*
X176428571Y-92238095D01*
X176476190Y-92333333D01*
X176476190Y-92714286D01*
X176047619Y-91761905D02*
X176000000Y-91714286D01*
X175952381Y-91619048D01*
X175952381Y-91380952D01*
X176000000Y-91285714D01*
X176047619Y-91238095D01*
X176142857Y-91190476D01*
X176238095Y-91190476D01*
X176380952Y-91238095D01*
X176952381Y-91809524D01*
X176952381Y-91190476D01*
X175952381Y-90571429D02*
X175952381Y-90476190D01*
X176000000Y-90380952D01*
X176047619Y-90333333D01*
X176142857Y-90285714D01*
X176333333Y-90238095D01*
X176571429Y-90238095D01*
X176761905Y-90285714D01*
X176857143Y-90333333D01*
X176904762Y-90380952D01*
X176952381Y-90476190D01*
X176952381Y-90571429D01*
X176904762Y-90666667D01*
X176857143Y-90714286D01*
X176761905Y-90761905D01*
X176571429Y-90809524D01*
X176333333Y-90809524D01*
X176142857Y-90761905D01*
X176047619Y-90714286D01*
X176000000Y-90666667D01*
X175952381Y-90571429D01*
X162952381Y-90142857D02*
X162476190Y-90476191D01*
X162952381Y-90714286D02*
X161952381Y-90714286D01*
X161952381Y-90333333D01*
X162000000Y-90238095D01*
X162047619Y-90190476D01*
X162142857Y-90142857D01*
X162285714Y-90142857D01*
X162380952Y-90190476D01*
X162428571Y-90238095D01*
X162476190Y-90333333D01*
X162476190Y-90714286D01*
X162047619Y-89761905D02*
X162000000Y-89714286D01*
X161952381Y-89619048D01*
X161952381Y-89380952D01*
X162000000Y-89285714D01*
X162047619Y-89238095D01*
X162142857Y-89190476D01*
X162238095Y-89190476D01*
X162380952Y-89238095D01*
X162952381Y-89809524D01*
X162952381Y-89190476D01*
X162952381Y-88238095D02*
X162952381Y-88809524D01*
X162952381Y-88523810D02*
X161952381Y-88523810D01*
X162095238Y-88619048D01*
X162190476Y-88714286D01*
X162238095Y-88809524D01*
X150107143Y-87452381D02*
X149773809Y-86976190D01*
X149535714Y-87452381D02*
X149535714Y-86452381D01*
X149916667Y-86452381D01*
X150011905Y-86500000D01*
X150059524Y-86547619D01*
X150107143Y-86642857D01*
X150107143Y-86785714D01*
X150059524Y-86880952D01*
X150011905Y-86928571D01*
X149916667Y-86976190D01*
X149535714Y-86976190D01*
X150488095Y-86547619D02*
X150535714Y-86500000D01*
X150630952Y-86452381D01*
X150869048Y-86452381D01*
X150964286Y-86500000D01*
X151011905Y-86547619D01*
X151059524Y-86642857D01*
X151059524Y-86738095D01*
X151011905Y-86880952D01*
X150440476Y-87452381D01*
X151059524Y-87452381D01*
X151440476Y-86547619D02*
X151488095Y-86500000D01*
X151583333Y-86452381D01*
X151821429Y-86452381D01*
X151916667Y-86500000D01*
X151964286Y-86547619D01*
X152011905Y-86642857D01*
X152011905Y-86738095D01*
X151964286Y-86880952D01*
X151392857Y-87452381D01*
X152011905Y-87452381D01*
X153857143Y-78202381D02*
X153523809Y-77726190D01*
X153285714Y-78202381D02*
X153285714Y-77202381D01*
X153666667Y-77202381D01*
X153761905Y-77250000D01*
X153809524Y-77297619D01*
X153857143Y-77392857D01*
X153857143Y-77535714D01*
X153809524Y-77630952D01*
X153761905Y-77678571D01*
X153666667Y-77726190D01*
X153285714Y-77726190D01*
X154238095Y-77297619D02*
X154285714Y-77250000D01*
X154380952Y-77202381D01*
X154619048Y-77202381D01*
X154714286Y-77250000D01*
X154761905Y-77297619D01*
X154809524Y-77392857D01*
X154809524Y-77488095D01*
X154761905Y-77630952D01*
X154190476Y-78202381D01*
X154809524Y-78202381D01*
X155666667Y-77535714D02*
X155666667Y-78202381D01*
X155428571Y-77154762D02*
X155190476Y-77869048D01*
X155809524Y-77869048D01*
X160357143Y-64452381D02*
X160023809Y-63976190D01*
X159785714Y-64452381D02*
X159785714Y-63452381D01*
X160166667Y-63452381D01*
X160261905Y-63500000D01*
X160309524Y-63547619D01*
X160357143Y-63642857D01*
X160357143Y-63785714D01*
X160309524Y-63880952D01*
X160261905Y-63928571D01*
X160166667Y-63976190D01*
X159785714Y-63976190D01*
X160738095Y-63547619D02*
X160785714Y-63500000D01*
X160880952Y-63452381D01*
X161119048Y-63452381D01*
X161214286Y-63500000D01*
X161261905Y-63547619D01*
X161309524Y-63642857D01*
X161309524Y-63738095D01*
X161261905Y-63880952D01*
X160690476Y-64452381D01*
X161309524Y-64452381D01*
X162214286Y-63452381D02*
X161738095Y-63452381D01*
X161690476Y-63928571D01*
X161738095Y-63880952D01*
X161833333Y-63833333D01*
X162071429Y-63833333D01*
X162166667Y-63880952D01*
X162214286Y-63928571D01*
X162261905Y-64023810D01*
X162261905Y-64261905D01*
X162214286Y-64357143D01*
X162166667Y-64404762D01*
X162071429Y-64452381D01*
X161833333Y-64452381D01*
X161738095Y-64404762D01*
X161690476Y-64357143D01*
X169202381Y-81142857D02*
X168726190Y-81476191D01*
X169202381Y-81714286D02*
X168202381Y-81714286D01*
X168202381Y-81333333D01*
X168250000Y-81238095D01*
X168297619Y-81190476D01*
X168392857Y-81142857D01*
X168535714Y-81142857D01*
X168630952Y-81190476D01*
X168678571Y-81238095D01*
X168726190Y-81333333D01*
X168726190Y-81714286D01*
X168297619Y-80761905D02*
X168250000Y-80714286D01*
X168202381Y-80619048D01*
X168202381Y-80380952D01*
X168250000Y-80285714D01*
X168297619Y-80238095D01*
X168392857Y-80190476D01*
X168488095Y-80190476D01*
X168630952Y-80238095D01*
X169202381Y-80809524D01*
X169202381Y-80190476D01*
X168202381Y-79857143D02*
X168202381Y-79238095D01*
X168583333Y-79571429D01*
X168583333Y-79428571D01*
X168630952Y-79333333D01*
X168678571Y-79285714D01*
X168773810Y-79238095D01*
X169011905Y-79238095D01*
X169107143Y-79285714D01*
X169154762Y-79333333D01*
X169202381Y-79428571D01*
X169202381Y-79714286D01*
X169154762Y-79809524D01*
X169107143Y-79857143D01*
X195202381Y-126166666D02*
X194726190Y-126500000D01*
X195202381Y-126738095D02*
X194202381Y-126738095D01*
X194202381Y-126357142D01*
X194250000Y-126261904D01*
X194297619Y-126214285D01*
X194392857Y-126166666D01*
X194535714Y-126166666D01*
X194630952Y-126214285D01*
X194678571Y-126261904D01*
X194726190Y-126357142D01*
X194726190Y-126738095D01*
X195202381Y-125214285D02*
X195202381Y-125785714D01*
X195202381Y-125500000D02*
X194202381Y-125500000D01*
X194345238Y-125595238D01*
X194440476Y-125690476D01*
X194488095Y-125785714D01*
X158666667Y-132904762D02*
X158809524Y-132952381D01*
X159047620Y-132952381D01*
X159142858Y-132904762D01*
X159190477Y-132857143D01*
X159238096Y-132761905D01*
X159238096Y-132666667D01*
X159190477Y-132571429D01*
X159142858Y-132523810D01*
X159047620Y-132476190D01*
X158857143Y-132428571D01*
X158761905Y-132380952D01*
X158714286Y-132333333D01*
X158666667Y-132238095D01*
X158666667Y-132142857D01*
X158714286Y-132047619D01*
X158761905Y-132000000D01*
X158857143Y-131952381D01*
X159095239Y-131952381D01*
X159238096Y-132000000D01*
X159571429Y-131952381D02*
X159809524Y-132952381D01*
X160000001Y-132238095D01*
X160190477Y-132952381D01*
X160428572Y-131952381D01*
X161333334Y-132952381D02*
X160761905Y-132952381D01*
X161047619Y-132952381D02*
X161047619Y-131952381D01*
X160952381Y-132095238D01*
X160857143Y-132190476D01*
X160761905Y-132238095D01*
X158666667Y-143154762D02*
X158809524Y-143202381D01*
X159047620Y-143202381D01*
X159142858Y-143154762D01*
X159190477Y-143107143D01*
X159238096Y-143011905D01*
X159238096Y-142916667D01*
X159190477Y-142821429D01*
X159142858Y-142773810D01*
X159047620Y-142726190D01*
X158857143Y-142678571D01*
X158761905Y-142630952D01*
X158714286Y-142583333D01*
X158666667Y-142488095D01*
X158666667Y-142392857D01*
X158714286Y-142297619D01*
X158761905Y-142250000D01*
X158857143Y-142202381D01*
X159095239Y-142202381D01*
X159238096Y-142250000D01*
X159571429Y-142202381D02*
X159809524Y-143202381D01*
X160000001Y-142488095D01*
X160190477Y-143202381D01*
X160428572Y-142202381D01*
X160761905Y-142297619D02*
X160809524Y-142250000D01*
X160904762Y-142202381D01*
X161142858Y-142202381D01*
X161238096Y-142250000D01*
X161285715Y-142297619D01*
X161333334Y-142392857D01*
X161333334Y-142488095D01*
X161285715Y-142630952D01*
X160714286Y-143202381D01*
X161333334Y-143202381D01*
X157833334Y-135357143D02*
X157785715Y-135404762D01*
X157642858Y-135452381D01*
X157547620Y-135452381D01*
X157404762Y-135404762D01*
X157309524Y-135309524D01*
X157261905Y-135214286D01*
X157214286Y-135023810D01*
X157214286Y-134880952D01*
X157261905Y-134690476D01*
X157309524Y-134595238D01*
X157404762Y-134500000D01*
X157547620Y-134452381D01*
X157642858Y-134452381D01*
X157785715Y-134500000D01*
X157833334Y-134547619D01*
X158785715Y-135452381D02*
X158214286Y-135452381D01*
X158500000Y-135452381D02*
X158500000Y-134452381D01*
X158404762Y-134595238D01*
X158309524Y-134690476D01*
X158214286Y-134738095D01*
X165583334Y-135607143D02*
X165535715Y-135654762D01*
X165392858Y-135702381D01*
X165297620Y-135702381D01*
X165154762Y-135654762D01*
X165059524Y-135559524D01*
X165011905Y-135464286D01*
X164964286Y-135273810D01*
X164964286Y-135130952D01*
X165011905Y-134940476D01*
X165059524Y-134845238D01*
X165154762Y-134750000D01*
X165297620Y-134702381D01*
X165392858Y-134702381D01*
X165535715Y-134750000D01*
X165583334Y-134797619D01*
X165964286Y-134797619D02*
X166011905Y-134750000D01*
X166107143Y-134702381D01*
X166345239Y-134702381D01*
X166440477Y-134750000D01*
X166488096Y-134797619D01*
X166535715Y-134892857D01*
X166535715Y-134988095D01*
X166488096Y-135130952D01*
X165916667Y-135702381D01*
X166535715Y-135702381D01*
X145257143Y-126416666D02*
X145304762Y-126464285D01*
X145352381Y-126607142D01*
X145352381Y-126702380D01*
X145304762Y-126845238D01*
X145209524Y-126940476D01*
X145114286Y-126988095D01*
X144923810Y-127035714D01*
X144780952Y-127035714D01*
X144590476Y-126988095D01*
X144495238Y-126940476D01*
X144400000Y-126845238D01*
X144352381Y-126702380D01*
X144352381Y-126607142D01*
X144400000Y-126464285D01*
X144447619Y-126416666D01*
X144352381Y-126083333D02*
X144352381Y-125464285D01*
X144733333Y-125797619D01*
X144733333Y-125654761D01*
X144780952Y-125559523D01*
X144828571Y-125511904D01*
X144923810Y-125464285D01*
X145161905Y-125464285D01*
X145257143Y-125511904D01*
X145304762Y-125559523D01*
X145352381Y-125654761D01*
X145352381Y-125940476D01*
X145304762Y-126035714D01*
X145257143Y-126083333D01*
X154857143Y-126416666D02*
X154904762Y-126464285D01*
X154952381Y-126607142D01*
X154952381Y-126702380D01*
X154904762Y-126845238D01*
X154809524Y-126940476D01*
X154714286Y-126988095D01*
X154523810Y-127035714D01*
X154380952Y-127035714D01*
X154190476Y-126988095D01*
X154095238Y-126940476D01*
X154000000Y-126845238D01*
X153952381Y-126702380D01*
X153952381Y-126607142D01*
X154000000Y-126464285D01*
X154047619Y-126416666D01*
X154285714Y-125559523D02*
X154952381Y-125559523D01*
X153904762Y-125797619D02*
X154619048Y-126035714D01*
X154619048Y-125416666D01*
X178857143Y-130916666D02*
X178904762Y-130964285D01*
X178952381Y-131107142D01*
X178952381Y-131202380D01*
X178904762Y-131345238D01*
X178809524Y-131440476D01*
X178714286Y-131488095D01*
X178523810Y-131535714D01*
X178380952Y-131535714D01*
X178190476Y-131488095D01*
X178095238Y-131440476D01*
X178000000Y-131345238D01*
X177952381Y-131202380D01*
X177952381Y-131107142D01*
X178000000Y-130964285D01*
X178047619Y-130916666D01*
X177952381Y-130011904D02*
X177952381Y-130488095D01*
X178428571Y-130535714D01*
X178380952Y-130488095D01*
X178333333Y-130392857D01*
X178333333Y-130154761D01*
X178380952Y-130059523D01*
X178428571Y-130011904D01*
X178523810Y-129964285D01*
X178761905Y-129964285D01*
X178857143Y-130011904D01*
X178904762Y-130059523D01*
X178952381Y-130154761D01*
X178952381Y-130392857D01*
X178904762Y-130488095D01*
X178857143Y-130535714D01*
X153988095Y-135952381D02*
X153988095Y-136761905D01*
X154035714Y-136857143D01*
X154083333Y-136904762D01*
X154178571Y-136952381D01*
X154369048Y-136952381D01*
X154464286Y-136904762D01*
X154511905Y-136857143D01*
X154559524Y-136761905D01*
X154559524Y-135952381D01*
X155559524Y-136952381D02*
X154988095Y-136952381D01*
X155273809Y-136952381D02*
X155273809Y-135952381D01*
X155178571Y-136095238D01*
X155083333Y-136190476D01*
X154988095Y-136238095D01*
X160202381Y-139011905D02*
X161011905Y-139011905D01*
X161107143Y-138964286D01*
X161154762Y-138916667D01*
X161202381Y-138821429D01*
X161202381Y-138630952D01*
X161154762Y-138535714D01*
X161107143Y-138488095D01*
X161011905Y-138440476D01*
X160202381Y-138440476D01*
X160297619Y-138011905D02*
X160250000Y-137964286D01*
X160202381Y-137869048D01*
X160202381Y-137630952D01*
X160250000Y-137535714D01*
X160297619Y-137488095D01*
X160392857Y-137440476D01*
X160488095Y-137440476D01*
X160630952Y-137488095D01*
X161202381Y-138059524D01*
X161202381Y-137440476D01*
M02*
